<svg width="105" height="42" viewBox="0 0 105 42" fill="none" xmlns="http://www.w3.org/2000/svg">
<rect x="10" width="85" height="42" fill="#E11B1E"/>
<path d="M25.961 34H16.167V8.54545H25.8616C28.48 8.54545 30.742 9.05504 32.6478 10.0742C34.5619 11.0851 36.0368 12.5434 37.0725 14.4492C38.1166 16.3467 38.6386 18.6212 38.6386 21.2727C38.6386 23.9242 38.1207 26.2029 37.085 28.1087C36.0492 30.0062 34.5826 31.4645 32.6851 32.4837C30.7876 33.4946 28.5463 34 25.961 34ZM23.0775 28.1335H25.7124C26.9719 28.1335 28.045 27.9305 28.9316 27.5245C29.8264 27.1185 30.5059 26.4183 30.9699 25.424C31.4422 24.4297 31.6784 23.0459 31.6784 21.2727C31.6784 19.4995 31.4381 18.1158 30.9575 17.1214C30.4852 16.1271 29.7892 15.427 28.8694 15.021C27.9579 14.6149 26.8393 14.4119 25.5136 14.4119H23.0775V28.1335ZM47.1897 8.54545L52.4099 26.4929H52.6088L57.8289 8.54545H65.6343L57.2323 34H47.7863L39.3843 8.54545H47.1897ZM67.3899 14.1136V8.54545H89.5135V14.1136H81.8572V34H75.0462V14.1136H67.3899Z" fill="white"/>
</svg>
