<svg width="32" height="32" viewBox="0 0 32 32" fill="none" xmlns="http://www.w3.org/2000/svg">
<path d="M29.9614 4H9.57529C8.51274 4 7.6417 4.81544 7.54286 5.85328H1.11197C0.500386 5.85328 0 6.35367 0 6.96525V27.3514C0 27.9629 0.500386 28.4633 1.11197 28.4633H10.3784C10.99 28.4633 11.4903 27.9629 11.4903 27.3514V22.9035H15.8764V26.2394H14.2085C13.5969 26.2394 13.0965 26.7398 13.0965 27.3514C13.0965 27.9629 13.5969 28.4633 14.2085 28.4633H25.3282C25.9398 28.4633 26.4402 27.9629 26.4402 27.3514C26.4402 26.7398 25.9398 26.2394 25.3282 26.2394H23.6602V22.9035H29.9614C31.0857 22.9035 32 21.9892 32 20.8649V6.03861C32 4.91429 31.0857 4 29.9614 4ZM21.4363 22.9035V26.2394H18.1004V22.9035H21.4363ZM29.7761 6.22394V20.6795H9.76062V6.22394H29.7761ZM9.26641 22.8788V26.2394H2.22394V15.4903H7.53668V20.8649C7.53668 21.878 8.28417 22.7305 9.26641 22.8788ZM2.22394 13.2664V11.7838H7.53668V13.2664H2.22394ZM2.22394 9.55985V8.07722H7.53668V9.55985H2.22394Z" fill="#003F9C"/>
<path d="M5.74515 25.4359C6.35927 25.4359 6.85712 24.938 6.85712 24.3239C6.85712 23.7098 6.35927 23.2119 5.74515 23.2119C5.13102 23.2119 4.63318 23.7098 4.63318 24.3239C4.63318 24.938 5.13102 25.4359 5.74515 25.4359Z" fill="#003F9C"/>
</svg>
