<svg width="31" height="30" viewBox="0 0 31 30" fill="none" xmlns="http://www.w3.org/2000/svg">
<path d="M9.97336 22.9375C8.02799 22.9375 6.44238 24.5231 6.44238 26.4685C6.44238 28.4139 8.02799 29.9995 9.97336 29.9995C11.9187 29.9995 13.5043 28.4139 13.5043 26.4685C13.5043 25.5224 13.1379 24.6364 12.4717 23.9701C11.7988 23.3039 10.9127 22.9375 9.97336 22.9375ZM11.3125 26.4685C11.3125 26.8282 11.1726 27.1614 10.9194 27.4145C10.6662 27.6677 10.3265 27.8076 9.97336 27.8076C9.23386 27.8076 8.63426 27.208 8.63426 26.4685C8.63426 25.729 9.23386 25.1294 9.97336 25.1294C10.7129 25.1294 11.3125 25.729 11.3125 26.4685Z" fill="#003F9C"/>
<path d="M23.198 22.9375C21.2526 22.9375 19.667 24.5231 19.667 26.4685C19.667 28.4139 21.2526 29.9995 23.198 29.9995C25.1433 29.9995 26.729 28.4139 26.729 26.4685C26.729 24.5231 25.1433 22.9375 23.198 22.9375ZM24.5371 26.4685C24.5371 26.8282 24.3972 27.1614 24.144 27.4145C23.8908 27.6677 23.5511 27.8076 23.198 27.8076C22.4585 27.8076 21.8589 27.208 21.8589 26.4685C21.8589 25.729 22.4585 25.1294 23.198 25.1294C23.9375 25.1294 24.5371 25.729 24.5371 26.4685Z" fill="#003F9C"/>
<path d="M30.5663 4.80347L30.5596 4.79014C30.3464 4.55696 30.06 4.41706 29.7468 4.38375H29.7269L7.33511 4.07728L6.79547 2.42505C6.30247 0.992672 4.95004 0.0133245 3.43105 0H1.09927C0.493005 0 0 0.493005 0 1.09261C0 1.69887 0.493005 2.18521 1.09261 2.18521H3.41772C4.004 2.19854 4.52365 2.57828 4.71686 3.13125L9.09394 16.3225L8.80747 16.982L8.8008 16.9953C8.36776 18.1146 8.501 19.3804 9.1539 20.3864C9.8068 21.3791 10.8994 21.992 12.0853 22.032H25.6363C26.2425 22.032 26.7289 21.539 26.7289 20.9394C26.7289 20.3331 26.2359 19.8468 25.6363 19.8468H12.0986C11.6389 19.8335 11.2125 19.5936 10.9727 19.2005C10.7262 18.8075 10.6729 18.3278 10.8328 17.8881L11.0127 17.4883L25.4364 15.9827C27.2085 15.7895 28.6742 14.4903 29.0873 12.7515L30.7528 5.77615C30.8661 5.43638 30.7928 5.06996 30.5663 4.80347ZM11.0193 15.2498L8.05463 6.26916L28.3278 6.56896L26.9487 12.2452V12.2518C26.7622 13.0979 26.0493 13.7175 25.1832 13.7842L11.0193 15.2498Z" fill="#003F9C"/>
</svg>
