<svg width="19" height="18" viewBox="0 0 19 18" fill="none" xmlns="http://www.w3.org/2000/svg">
<path d="M14.3215 18.0004C13.0807 18.0004 12.0715 16.9912 12.0715 15.7504V7.3078C10.8725 6.54344 10.1429 5.2288 10.1429 3.78944C10.1429 2.21444 11.0159 0.789872 12.4212 0.0705145C12.6211 -0.0310569 12.859 -0.0226998 13.0499 0.0943002C13.2408 0.211943 13.3572 0.418943 13.3572 0.6433V3.42237L14.3215 3.80809L15.2857 3.42237V0.6433C15.2857 0.418943 15.4021 0.211943 15.593 0.0943002C15.784 -0.0226998 16.0218 -0.0310569 16.2217 0.0705145C17.627 0.790515 18.5 2.21444 18.5 3.79009C18.5 5.2288 17.7704 6.54344 16.5715 7.30844V15.7504C16.5715 16.9912 15.5622 18.0004 14.3215 18.0004ZM12.0715 1.97144C11.662 2.47609 11.4286 3.11251 11.4286 3.78944C11.4286 4.87844 12.0335 5.86523 13.0075 6.36409C13.2222 6.47401 13.3572 6.69516 13.3572 6.93623V15.7504C13.3572 16.2821 13.7898 16.7147 14.3215 16.7147C14.8531 16.7147 15.2857 16.2821 15.2857 15.7504V6.93623C15.2857 6.69516 15.4207 6.47401 15.6355 6.36409C16.6094 5.86523 17.2143 4.87909 17.2143 3.79009C17.2143 3.11316 16.981 2.47673 16.5715 1.97209V3.85759C16.5715 4.12051 16.4114 4.35644 16.1677 4.4548L14.5606 5.09766C14.407 5.15937 14.2366 5.15937 14.083 5.09766L12.4758 4.4548C12.2315 4.35644 12.0715 4.12051 12.0715 3.85759V1.97144Z" fill="#1F67D2"/>
<path d="M10.1904 18.0005H8.81021C8.14229 18.0005 7.57914 17.4791 7.52836 16.8138L7.44736 15.7627C7.00636 15.629 6.5795 15.4516 6.17129 15.233L5.37029 15.9189C4.86307 16.3541 4.09679 16.3239 3.62493 15.8527L2.64779 14.8749C2.17593 14.4031 2.14636 13.6361 2.58093 13.1289L3.26686 12.3286C3.04829 11.9203 2.87086 11.4935 2.73714 11.0525L1.68671 10.9721C1.02136 10.922 0.5 10.3588 0.5 9.69092V8.31006C0.5 7.64213 1.02136 7.07899 1.68736 7.0282L2.73779 6.94785C2.8715 6.5062 3.04893 6.07935 3.2675 5.67177L2.58093 4.87013C2.14636 4.36356 2.17593 3.59727 2.64843 3.12413L3.62429 2.14763C4.09679 1.67513 4.86371 1.6462 5.37029 2.08077L6.17129 2.7667C6.5795 2.54813 7.00636 2.3707 7.44736 2.23699L7.52836 1.18592C7.57914 0.521845 8.14229 0.000488281 8.80957 0.000488281H9.5C9.85486 0.000488281 10.1429 0.287845 10.1429 0.643345C10.1429 0.998845 9.85486 1.2862 9.5 1.2862H8.80957L8.69386 2.79113C8.672 3.07142 8.47079 3.30477 8.19757 3.36777C7.57593 3.51113 6.9845 3.75606 6.44 4.09742C6.20279 4.2472 5.89486 4.2247 5.68079 4.0402L4.53329 3.05727L3.55743 4.03442L4.54036 5.18127C4.72357 5.3947 4.74607 5.70263 4.59693 5.94049C4.25621 6.48563 4.01064 7.07706 3.86729 7.69806C3.80429 7.97192 3.57029 8.17313 3.29 8.19435L1.78571 8.31006V9.69092L3.29 9.80663C3.57029 9.82785 3.80429 10.0297 3.86729 10.3029C4.01064 10.9246 4.25557 11.516 4.59693 12.0605C4.74607 12.2983 4.72293 12.6063 4.54036 12.8197L3.55743 13.9666L4.53393 14.9437L5.68079 13.9608C5.89486 13.7769 6.20279 13.7544 6.44 13.9036C6.98514 14.2443 7.57657 14.4898 8.19757 14.6332C8.47143 14.6968 8.67264 14.9302 8.69386 15.2098L8.80957 16.7148H10.1898C10.2168 16.3612 10.5247 16.097 10.8802 16.1233C11.2344 16.1503 11.4993 16.4596 11.4716 16.8138C11.4209 17.4791 10.8577 18.0005 10.1904 18.0005Z" fill="#1F67D2"/>
<path d="M5 9.00025C5 6.79268 6.57757 4.92647 8.75107 4.56261C9.10014 4.50025 9.43314 4.74004 9.491 5.09039C9.5495 5.44075 9.31357 5.77182 8.96321 5.83032C7.412 6.09068 6.28571 7.42396 6.28571 9.00025C6.28571 11.22 8.49071 12.768 10.5716 12.032C10.9046 11.913 11.2736 12.0879 11.3926 12.4228C11.5109 12.7578 11.336 13.1248 11.0011 13.2431C8.07414 14.2788 5 12.0963 5 9.00025Z" fill="#1F67D2"/>
</svg>
