<svg width="18" height="18" viewBox="0 0 18 18" fill="none" xmlns="http://www.w3.org/2000/svg">
<g clip-path="url(#clip0_1_1493)">
<path d="M9 0C4.02991 0 0 4.02991 0 9C0 13.9701 4.02991 18 9 18C13.9701 18 18 13.9701 18 9C17.996 4.02991 13.9701 0.00401786 9 0ZM13.8696 3.15L11.8969 5.12277C10.1812 3.82902 7.81875 3.82902 6.10312 5.12277L4.13036 3.15C6.95491 0.803571 11.0491 0.803571 13.8696 3.15ZM9 12.4634C7.0875 12.4634 5.53661 10.9125 5.53661 9C5.53661 7.0875 7.0875 5.53661 9 5.53661C10.9125 5.53661 12.4634 7.0875 12.4634 9C12.4594 10.9125 10.9125 12.4594 9 12.4634ZM3.15 4.13036L5.12277 6.10312C3.82902 7.81875 3.82902 10.1812 5.12277 11.8969L3.15 13.8696C0.803571 11.0451 0.803571 6.95491 3.15 4.13036ZM4.13036 14.85L6.10312 12.8772C7.81875 14.171 10.1812 14.171 11.8969 12.8772L13.8696 14.85C11.0451 17.1964 6.95089 17.1964 4.13036 14.85ZM14.85 13.8696L12.8772 11.8969C14.171 10.1812 14.171 7.81875 12.8772 6.10312L14.85 4.13036C17.1964 6.95491 17.1964 11.0491 14.85 13.8696Z" fill="white"/>
</g>
<defs>
<clipPath id="clip0_1_1493">
<rect width="18" height="18" fill="white"/>
</clipPath>
</defs>
</svg>
