<svg width="18" height="18" viewBox="0 0 18 18" fill="none" xmlns="http://www.w3.org/2000/svg">
<path d="M15.1782 4.59333H14.1303C14.2487 4.45408 14.3566 4.30786 14.4506 4.1512C14.9867 3.25301 15.0146 2.11809 14.5237 1.19205C14.0886 0.433119 13.2739 -0.0229376 12.4001 0.00143188C11.4601 -0.0264189 10.5585 0.353048 9.92486 1.04932C9.72295 1.26168 9.54888 1.49841 9.40266 1.74907C9.26341 1.49841 9.09978 1.26516 8.90831 1.04932C8.2747 0.353048 7.37303 -0.0264189 6.43307 0.00143188C5.55925 -0.0229376 4.74114 0.429638 4.30249 1.18857L4.299 1.19205C3.80813 2.11809 3.83598 3.24953 4.37559 4.1512C4.46959 4.30438 4.57751 4.45408 4.69588 4.59333H3.63059C3.05964 4.59333 2.527 4.81614 2.12316 5.21649C1.72281 5.61685 1.5 6.14949 1.5 6.72043V15.8729C1.5 16.4404 1.72281 16.973 2.12316 17.3768C2.52352 17.7807 3.05964 18 3.6271 18H15.1817C16.3549 18 17.3088 17.0461 17.3088 15.8729V6.7274C17.3053 5.55418 16.3514 4.59681 15.1782 4.59333ZM15.8954 6.7274V15.8729C15.8954 16.2698 15.5751 16.5901 15.1782 16.5901H10.1059L10.1477 5.99979H15.1921C15.589 6.01372 15.8954 6.33052 15.8954 6.7274ZM12.4105 1.43227C12.7796 1.4079 13.1277 1.59241 13.3122 1.91269C13.5629 2.40356 13.5315 2.99887 13.2391 3.46189L13.2356 3.46537C12.9885 3.89358 12.3409 4.61422 10.7604 4.61422H10.1094C10.1198 4.08853 10.2173 2.77259 10.9136 2.01017C11.2721 1.61678 11.7735 1.40093 12.2991 1.40442V1.43923L12.4105 1.43227ZM5.57666 3.441L5.57318 3.43752C5.27726 2.97102 5.24941 2.37919 5.50007 1.88832C5.68458 1.56804 6.02923 1.38701 6.39826 1.4079H6.40522H6.41218C6.95876 1.37308 7.48792 1.58196 7.86391 1.97188C8.34781 2.51148 8.62284 3.3679 8.69595 4.59333H8.05538C6.55144 4.59333 5.87606 3.96669 5.57666 3.441ZM2.90995 6.7274C2.90995 6.32704 3.23371 6.00328 3.63407 6.00328H8.69943L8.65765 16.5935H3.63059C3.43911 16.5935 3.25808 16.5204 3.12231 16.3881C2.98654 16.2524 2.90995 16.0748 2.90995 15.8833V6.7274Z" fill="white"/>
</svg>
