<svg width="18" height="18" viewBox="0 0 18 18" fill="none" xmlns="http://www.w3.org/2000/svg">
<g clip-path="url(#clip0_1_1496)">
<path d="M15.4542 6.73809H15.2153V6.15886C15.2153 2.76415 12.4443 0 9.04111 0C5.63793 0 2.86688 2.76049 2.86688 6.15886V6.74175H2.80073C1.67246 6.73809 0.75 7.65825 0.75 8.78737V11.7935C0.75 12.9226 1.67246 13.8428 2.8044 13.8428H4.1348C4.69342 13.8428 5.14914 13.3882 5.14914 12.831V7.7499C5.14914 7.21466 4.73017 6.77841 4.20463 6.74175V6.15886C4.20463 3.49735 6.37296 1.33075 9.04111 1.33075C11.7093 1.33075 13.8813 3.49735 13.8813 6.15886V6.77108C13.4329 6.88106 13.1095 7.28065 13.1095 7.75356V12.831C13.1095 13.3002 13.4329 13.7035 13.8813 13.8134V13.8721C13.8813 14.8436 13.0911 15.6318 12.1172 15.6318H10.9595C10.6508 15.0049 9.92682 14.5906 9.12931 14.5906C8.03412 14.5906 7.14106 15.3568 7.14106 16.2953C7.14106 17.2338 8.03412 18 9.12931 18C9.92682 18 10.6508 17.5857 10.9595 16.9589H12.1172C13.8261 16.9589 15.2153 15.5731 15.2153 13.8684V13.8391H15.4542C16.5862 13.8391 17.5086 12.9189 17.5086 11.7898V8.78371C17.5086 7.65825 16.5862 6.73809 15.4542 6.73809ZM16.1745 11.7935C16.1745 12.1894 15.8511 12.512 15.4542 12.512H14.4436V8.06884H15.4542C15.8511 8.06884 16.1745 8.39145 16.1745 8.78737V11.7935ZM3.81506 8.06884V12.5084H2.8044C2.40749 12.5084 2.08407 12.1857 2.08407 11.7898V8.78371C2.08407 8.38778 2.40749 8.06517 2.8044 8.06517H3.81506V8.06884ZM9.78348 16.2953C9.78348 16.4493 9.5299 16.6692 9.12931 16.6692C8.7324 16.6692 8.47514 16.4493 8.47514 16.2953C8.47514 16.1413 8.72872 15.9214 9.12931 15.9214C9.52623 15.9214 9.78348 16.145 9.78348 16.2953Z" fill="white"/>
</g>
<defs>
<clipPath id="clip0_1_1496">
<rect width="18" height="18" fill="white"/>
</clipPath>
</defs>
</svg>
