<svg width="18" height="18" viewBox="0 0 18 18" fill="none" xmlns="http://www.w3.org/2000/svg">
<path d="M9.3936 18C9.24243 18 9.09478 17.9262 8.9436 17.8488C8.7186 17.7012 1.89478 13.05 1.89478 7.49883C1.89478 3.375 5.26978 0 9.3936 0C13.5174 0 16.8924 3.375 16.8924 7.49883C16.8924 13.05 10.0686 17.6977 9.8436 17.8488C9.69595 17.9262 9.54478 18 9.3936 18ZM9.3936 1.50117C6.09243 1.50117 3.39243 4.20117 3.39243 7.50234C3.39243 11.5523 7.96626 15.3035 9.3936 16.3512C10.8209 15.3 15.3948 11.5488 15.3948 7.49883C15.3948 4.20117 12.6948 1.50117 9.3936 1.50117Z" fill="white"/>
<path d="M9.3936 10.5016C7.74478 10.5016 6.39478 9.15156 6.39478 7.50273C6.39478 5.85391 7.74478 4.50391 9.3936 4.50391C11.0424 4.50391 12.3924 5.85391 12.3924 7.50273C12.3924 9.15156 11.0459 10.5016 9.3936 10.5016ZM9.3936 6.00156C8.56743 6.00156 7.89243 6.67656 7.89243 7.50273C7.89243 8.32891 8.56743 9.00391 9.3936 9.00391C10.2198 9.00391 10.8948 8.32891 10.8948 7.50273C10.8948 6.67656 10.2198 6.00156 9.3936 6.00156Z" fill="white"/>
</svg>
