<svg width="37" height="37" viewBox="0 0 37 37" fill="none" xmlns="http://www.w3.org/2000/svg">
<g clip-path="url(#clip0_1737_24308)">
<path d="M18.5 0C8.27441 0 0 8.27441 0 18.5C0 28.7256 8.27441 37 18.5 37C28.7256 37 37 28.7256 37 18.5C37 8.27441 28.7256 0 18.5 0ZM18.5 34.1094C9.87148 34.1094 2.89062 27.1285 2.89062 18.5C2.89062 9.87148 9.87148 2.89062 18.5 2.89062C27.1285 2.89062 34.1094 9.87148 34.1094 18.5C34.1094 27.1285 27.1285 34.1094 18.5 34.1094Z" fill="#F43453"/>
<path d="M18.5 9.31494C17.7051 9.31494 17.0547 9.96533 17.0547 10.7603V20.0681C17.0547 20.863 17.7051 21.5134 18.5 21.5134C19.2949 21.5134 19.9453 20.863 19.9453 20.0681V10.7603C19.9453 9.95811 19.2949 9.31494 18.5 9.31494Z" fill="#F43453"/>
<path d="M18.5 27.1863C19.5776 27.1863 20.4512 26.3127 20.4512 25.2351C20.4512 24.1575 19.5776 23.2839 18.5 23.2839C17.4224 23.2839 16.5488 24.1575 16.5488 25.2351C16.5488 26.3127 17.4224 27.1863 18.5 27.1863Z" fill="#F43453"/>
</g>
<defs>
<clipPath id="clip0_1737_24308">
<rect width="37" height="37" fill="white"/>
</clipPath>
</defs>
</svg>
