<svg width="18" height="22" viewBox="0 0 18 22" fill="none" xmlns="http://www.w3.org/2000/svg">
<path d="M8.89549 22C8.75314 22 8.61626 21.9617 8.49582 21.896C6.20181 20.6148 4.32937 18.9286 2.93874 16.8919C1.82185 15.2603 1.01155 13.4043 0.524281 11.3786C-0.302438 7.93484 0.0917593 5.19189 0.108184 5.08239C0.162934 4.73747 0.425732 4.45825 0.770654 4.39802L1.25792 4.31042C3.98445 3.8122 6.45913 2.39419 8.26587 0.286331C8.56151 -0.0585914 9.08163 -0.0969161 9.42656 0.198731C9.45941 0.226106 9.48678 0.253481 9.51416 0.286331C11.3209 2.38871 13.7956 3.8122 16.5221 4.31042L17.0094 4.39802C17.3543 4.45825 17.6226 4.73747 17.6773 5.08239C17.6937 5.19737 18.0879 7.94032 17.2667 11.3786C16.7794 13.4098 15.9691 15.2658 14.8522 16.8919C13.4561 18.934 11.5892 20.6148 9.29516 21.896C9.17471 21.9672 9.03784 22 8.89549 22ZM1.6795 5.89816C1.57547 7.62825 1.72877 9.36928 2.13392 11.0556C2.57739 12.8787 3.31103 14.5431 4.31295 15.9995C5.47912 17.6967 7.01758 19.1202 8.89549 20.2371C10.7843 19.1147 12.3338 17.6803 13.4999 15.9666C14.5018 14.5048 15.23 12.8295 15.6735 10.9953C16.0732 9.32548 16.221 7.61182 16.117 5.89816C13.374 5.37256 10.8555 4.02572 8.90096 2.03284C6.93545 4.02025 4.42245 5.36709 1.6795 5.89816Z" fill="#6782AA"/>
<path d="M8.81872 15.2713C8.59972 15.2713 8.39167 15.1837 8.23837 15.0304L5.16692 11.9425C4.84938 11.6195 4.84938 11.0994 5.1724 10.7818C5.49542 10.4643 6.01554 10.4643 6.33309 10.7873L8.5833 13.0484L11.3153 7.29426C11.5124 6.88364 11.9997 6.70844 12.4103 6.90554C12.8209 7.10264 12.9961 7.58991 12.799 8.00053L9.56879 14.8114C9.45381 15.0523 9.22934 15.222 8.96654 15.2713C8.90632 15.2658 8.86252 15.2713 8.81872 15.2713Z" fill="#6782AA"/>
</svg>
