<svg width="42" height="42" viewBox="0 0 42 42" fill="none" xmlns="http://www.w3.org/2000/svg">
<path d="M36.6838 16.0447L36.6839 16.045C36.848 16.3308 37.0128 16.6195 37.1793 16.9111C37.6613 17.7551 38.1567 18.6228 38.6863 19.513L38.6863 19.513L38.6876 19.5152C39.4332 20.6999 39.8183 21.7975 39.9 22.8807V28.5C39.9 31.4368 37.5098 33.827 34.573 33.827H6.42698C3.49015 33.827 1.1 31.4368 1.1 28.5V22.8676C1.12043 21.7307 1.74652 20.4824 2.31409 19.5124L2.3141 19.5124L2.31472 19.5113C2.83056 18.6034 3.33607 17.7162 3.83127 16.8496L3.83151 16.8492C4.99649 14.7873 6.09878 12.8506 7.32425 10.8731C7.75424 10.3215 8.90345 9.1 10.7397 9.1H30.25C32.086 9.1 33.2251 10.3419 33.6446 10.8934C34.7155 12.6028 35.6734 14.2715 36.6838 16.0447ZM9.07143 12.2201L9.06562 12.2277L9.06135 12.2362L9.05278 12.2534C8.65083 12.9209 8.24312 13.6332 7.83868 14.3398C7.69296 14.5944 7.54767 14.8482 7.40323 15.0989C7.21217 15.4243 7.02115 15.7573 6.83044 16.0897L6.83032 16.0899C6.63949 16.4226 6.44895 16.7547 6.25847 17.0791C6.25838 17.0792 6.2583 17.0794 6.25822 17.0795L6.07298 17.3882L5.98211 17.5397H6.15873H34.8413H35.0129L34.9283 17.3904L34.7529 17.0809L34.7527 17.0805L34.7515 17.0784L34.7503 17.0763L34.7491 17.0742L34.7479 17.0721L34.7467 17.07L34.7454 17.0679L34.7442 17.0657L34.743 17.0636L34.7418 17.0615L34.7406 17.0594L34.7394 17.0573L34.7382 17.0552L34.737 17.053L34.7358 17.0509L34.7346 17.0488L34.7333 17.0467L34.7321 17.0446L34.7309 17.0425L34.7297 17.0403L34.7285 17.0382L34.7273 17.0361L34.7261 17.034L34.7249 17.0319L34.7237 17.0298L34.7225 17.0276L34.7213 17.0255L34.7201 17.0234L34.7188 17.0213L34.7176 17.0192L34.7164 17.0171L34.7152 17.015L34.714 17.0128L34.7128 17.0107L34.7116 17.0086L34.7104 17.0065L34.7092 17.0044L34.708 17.0023L34.7067 17.0001L34.7055 16.998L34.7043 16.9959L34.7031 16.9938L34.7019 16.9917L34.7007 16.9896L34.6995 16.9874L34.6983 16.9853L34.6971 16.9832L34.6959 16.9811L34.6947 16.979L34.6935 16.9769L34.6922 16.9748L34.691 16.9726L34.6898 16.9705L34.6886 16.9684L34.6874 16.9663L34.6862 16.9642L34.685 16.9621L34.6838 16.9599L34.6826 16.9578L34.6814 16.9557L34.6801 16.9536L34.6789 16.9515L34.6777 16.9494L34.6765 16.9472L34.6753 16.9451L34.6741 16.943L34.6729 16.9409L34.6717 16.9388L34.6705 16.9367L34.6693 16.9345L34.6681 16.9324L34.6669 16.9303L34.6656 16.9282L34.6644 16.9261L34.6632 16.924L34.662 16.9219L34.6608 16.9197L34.6596 16.9176L34.6584 16.9155L34.6572 16.9134L34.656 16.9113L34.6548 16.9092L34.6535 16.907L34.6523 16.9049L34.6511 16.9028L34.6499 16.9007L34.6487 16.8986L34.6475 16.8965L34.6463 16.8943L34.6451 16.8922L34.6439 16.8901L34.6427 16.888L34.6415 16.8859L34.6403 16.8838L34.639 16.8817L34.6378 16.8795L34.6366 16.8774L34.6354 16.8753L34.6342 16.8732L34.633 16.8711L34.6318 16.869L34.6306 16.8668L34.6294 16.8647L34.6282 16.8626L34.627 16.8605L34.6257 16.8584L34.6245 16.8563L34.6233 16.8541L34.6221 16.852L34.6209 16.8499L34.6197 16.8478L34.6185 16.8457L34.6173 16.8436L34.6161 16.8415L34.6149 16.8393L34.6137 16.8372L34.6124 16.8351L34.6112 16.833L34.61 16.8309L34.6088 16.8288L34.6076 16.8266L34.6064 16.8245L34.6052 16.8224L34.604 16.8203L34.6028 16.8182L34.6016 16.8161L34.6004 16.8139L34.5991 16.8118L34.5979 16.8097L34.5967 16.8076L34.5955 16.8055L34.5943 16.8034L34.5931 16.8012L34.5919 16.7991L34.5907 16.797L34.5895 16.7949L34.5883 16.7928L34.5871 16.7907L34.5858 16.7886L34.5846 16.7864L34.5834 16.7843L34.5822 16.7822L34.581 16.7801L34.5798 16.778L34.5786 16.7759L34.5774 16.7737L34.5762 16.7716L34.575 16.7695L34.5738 16.7674L34.5725 16.7653L34.5713 16.7632L34.5701 16.761L34.5689 16.7589L34.5677 16.7568L34.5665 16.7547L34.5653 16.7526L34.5641 16.7505L34.5629 16.7484L34.5617 16.7462L34.5605 16.7441L34.5592 16.742L34.558 16.7399L34.5568 16.7378L34.5556 16.7357L34.5544 16.7335L34.5532 16.7314L34.552 16.7293L34.5508 16.7272L34.5496 16.7251L34.5484 16.723L34.5472 16.7208L34.5459 16.7187L34.5447 16.7166L34.5435 16.7145L34.5423 16.7124L34.5411 16.7103L34.5399 16.7081L34.5387 16.706L34.5375 16.7039L34.5363 16.7018L34.5351 16.6997L34.5339 16.6976L34.5326 16.6955L34.5314 16.6933L34.5302 16.6912L34.529 16.6891L34.5278 16.687L34.5266 16.6849L34.5254 16.6828L34.5242 16.6806L34.523 16.6785L34.5218 16.6764L34.5206 16.6743L34.5193 16.6722L34.5181 16.6701L34.5169 16.6679L34.5157 16.6658L34.5145 16.6637L34.5133 16.6616L34.5121 16.6595L34.5109 16.6574L34.5097 16.6553L34.5085 16.6531L34.5073 16.651L34.506 16.6489L34.5048 16.6468L34.5036 16.6447L34.5024 16.6426L34.5012 16.6404L34.5 16.6383L34.4988 16.6362L34.4976 16.6341L34.4964 16.632L34.4952 16.6299L34.494 16.6277L34.4927 16.6256L34.4915 16.6235L34.4903 16.6214L34.4891 16.6193L34.4879 16.6172L34.4867 16.6151L34.4855 16.6129L34.4843 16.6108L34.4831 16.6087L34.4819 16.6066L34.4807 16.6045L34.4794 16.6024L34.4782 16.6002L34.477 16.5981L34.4758 16.596L34.4746 16.5939L34.4734 16.5918L34.4722 16.5897L34.471 16.5875L34.4698 16.5854L34.4686 16.5833L34.4674 16.5812L34.4661 16.5791L34.4649 16.577L34.4637 16.5748L34.4625 16.5727L34.4613 16.5706L34.4601 16.5685L34.4589 16.5664L34.4577 16.5643L34.4565 16.5622L34.4553 16.56L34.4541 16.5579L34.4528 16.5558L34.4516 16.5537L34.4504 16.5516L34.4492 16.5495L34.448 16.5473L34.4468 16.5452L34.4456 16.5431L34.4444 16.541L34.4432 16.5389L34.442 16.5368L34.4408 16.5346L34.4395 16.5325L34.4383 16.5304L34.4371 16.5283L34.4359 16.5262L34.4347 16.5241L34.4335 16.522L34.4323 16.5198L34.4311 16.5177L34.4299 16.5156L34.4287 16.5135L34.4275 16.5114L34.4262 16.5093L34.425 16.5071L34.4238 16.505L34.4226 16.5029L34.4214 16.5008L34.4202 16.4987L34.419 16.4966L34.4178 16.4944L34.4166 16.4923L34.4154 16.4902L34.4142 16.4881L34.4129 16.486L34.4117 16.4839L34.4105 16.4818L34.4093 16.4796L34.4081 16.4775L34.4069 16.4754L34.4057 16.4733L34.4045 16.4712L34.4033 16.4691L34.4021 16.4669L34.4009 16.4648L34.3996 16.4627L34.3984 16.4606L34.3972 16.4585L34.396 16.4564L34.3948 16.4542L34.3936 16.4521L34.3924 16.45L34.3912 16.4479L34.39 16.4458L34.3888 16.4437L34.3876 16.4415L34.3863 16.4394L34.3851 16.4373L34.3839 16.4352L34.3827 16.4331L34.3815 16.431L34.3803 16.4289L34.3791 16.4267L34.3779 16.4246L34.3767 16.4225L34.3755 16.4204L34.3743 16.4183L34.373 16.4162L34.3718 16.414L34.3706 16.4119L34.3694 16.4098L34.3682 16.4077L34.367 16.4056L34.3658 16.4035L34.3646 16.4013L34.3634 16.3992L34.3622 16.3971L34.361 16.395L34.3597 16.3929L34.3585 16.3908L34.3573 16.3887L34.3561 16.3865L34.3549 16.3844L34.3537 16.3823L34.3525 16.3802L34.3513 16.3781L34.3501 16.376L34.3489 16.3738L34.3477 16.3717L34.3464 16.3696L34.3452 16.3675L34.344 16.3654L34.3428 16.3633L34.3416 16.3611L34.3404 16.359L34.3392 16.3569L34.338 16.3548L34.3368 16.3527L34.3356 16.3506L34.3344 16.3484L34.3331 16.3463L34.3319 16.3442L34.3307 16.3421L34.3295 16.34L34.3283 16.3379L34.3271 16.3358L34.3259 16.3336L34.3247 16.3315L34.3235 16.3294L34.3223 16.3273L34.3211 16.3252L34.3198 16.3231L34.3186 16.3209L34.3174 16.3188L34.3162 16.3167L34.315 16.3146L34.3138 16.3125L34.3126 16.3104L34.3114 16.3082L34.3102 16.3061L34.309 16.304L34.3078 16.3019L34.3065 16.2998L34.3053 16.2977L34.3041 16.2956L34.3029 16.2934L34.3017 16.2913L34.3005 16.2892L34.2993 16.2871L34.2981 16.285L34.2969 16.2829L34.2957 16.2807L34.2945 16.2786L34.2932 16.2765L34.292 16.2744L34.2908 16.2723L34.2896 16.2702L34.2884 16.268L34.2872 16.2659L34.286 16.2638L34.2848 16.2617L34.2836 16.2596L34.2824 16.2575L34.2812 16.2554L34.2799 16.2532L34.2787 16.2511L34.2775 16.249L34.2763 16.2469L34.2751 16.2448L34.2739 16.2427L34.2727 16.2405L34.2715 16.2384L34.2703 16.2363L34.2691 16.2342L34.2679 16.2321L34.2666 16.23L34.2654 16.2278L34.2642 16.2257L34.263 16.2236L34.2618 16.2215L34.2606 16.2194L34.2594 16.2173L34.2582 16.2151L34.257 16.213L34.2558 16.2109L34.2546 16.2088L34.2533 16.2067L34.2521 16.2046L34.2509 16.2025L34.2497 16.2003L34.2485 16.1982L34.2473 16.1961L34.2461 16.194L34.2449 16.1919L34.2437 16.1898L34.2425 16.1876L34.2413 16.1855L34.24 16.1834L34.2388 16.1813L34.2376 16.1792L34.2364 16.1771L34.2352 16.1749L34.234 16.1728L34.2328 16.1707L34.2316 16.1686L34.2304 16.1665L34.2292 16.1644L34.228 16.1623L34.2267 16.1601L34.2255 16.158L34.2243 16.1559L34.2231 16.1538L34.2219 16.1517L34.2207 16.1496L34.2195 16.1474L34.2183 16.1453L34.2171 16.1432L34.2159 16.1411L34.2147 16.139L34.2134 16.1369L34.2122 16.1347L34.211 16.1326L34.2098 16.1305L34.2086 16.1284L34.2074 16.1263L34.2062 16.1242L34.205 16.122L34.2038 16.1199L34.2026 16.1178L34.2014 16.1157L34.2001 16.1136L34.1989 16.1115L34.1977 16.1094L34.1965 16.1072L34.1953 16.1051L34.1941 16.103L34.1929 16.1009L34.1917 16.0988L34.1905 16.0967L34.1893 16.0945L34.1881 16.0924L34.1868 16.0903L34.1856 16.0882L34.1844 16.0861L34.1832 16.084L34.182 16.0818L34.1808 16.0797L34.1796 16.0776L34.1784 16.0755L34.1772 16.0734L34.176 16.0713L34.1748 16.0692L34.1735 16.067L34.1723 16.0649L34.1711 16.0628L34.1699 16.0607L34.1687 16.0586L34.1675 16.0565L34.1663 16.0543L34.1651 16.0522L34.1639 16.0501L34.1627 16.048L34.1615 16.0459L34.1602 16.0438L34.159 16.0416L34.1578 16.0395L34.1566 16.0374L34.1554 16.0353L34.1542 16.0332L34.153 16.0311L34.1518 16.029L34.1506 16.0268L34.1494 16.0247L34.1482 16.0226L34.1469 16.0205L34.1457 16.0184L34.1445 16.0163L34.1433 16.0141L34.1421 16.012L34.1409 16.0099L34.1397 16.0078L34.1385 16.0057L34.1373 16.0036L34.1361 16.0014L34.1349 15.9993L34.1337 15.9972L34.1334 15.9968C34.0648 15.8782 33.9966 15.7602 33.9286 15.6426C33.2814 14.5231 32.6545 13.4386 31.9264 12.253L31.918 12.2362L31.9139 12.228L31.9084 12.2207C31.6714 11.9064 31.4733 11.6704 31.2248 11.5163C30.9726 11.3599 30.6786 11.2937 30.2603 11.2937H10.75C10.3212 11.2937 10.0198 11.3625 9.76278 11.5199C9.50925 11.675 9.30858 11.9108 9.07143 12.2201ZM34.5627 31.623C36.31 31.623 37.6857 30.2473 37.6857 28.5V22.8667C37.6857 21.1194 36.31 19.7437 34.5627 19.7437H6.41667C4.66937 19.7437 3.29365 21.1194 3.29365 22.8667V28.5C3.29365 30.2473 4.66937 31.623 6.41667 31.623H34.5627Z" fill="#1F67D2" stroke="white" stroke-width="0.2"/>
<path d="M29.2563 25.6833C29.2563 25.0782 29.748 24.5865 30.3531 24.5865C30.9582 24.5865 31.45 25.0782 31.45 25.6833C31.45 26.2884 30.9582 26.7802 30.3531 26.7802C29.748 26.7802 29.2563 26.2884 29.2563 25.6833Z" fill="#1F67D2" stroke="white" stroke-width="0.2"/>
<path d="M24.6992 24.5865V24.5865L24.7023 24.5864C25.0045 24.577 25.2856 24.6899 25.4921 24.9152L25.4921 24.9152L25.4951 24.9183C25.7026 25.1258 25.8165 25.4093 25.8166 25.7032C25.8067 26.3089 25.3146 26.7905 24.7198 26.7905H24.7198H24.7197H24.7196H24.7196H24.7195H24.7195H24.7194H24.7193H24.7193H24.7192H24.7192H24.7191H24.7191H24.719H24.7189H24.7189H24.7188H24.7188H24.7187H24.7187H24.7186H24.7185H24.7185H24.7184H24.7184H24.7183H24.7183H24.7182H24.7182H24.7181H24.7181H24.718H24.718H24.7179H24.7178H24.7178H24.7177H24.7177H24.7176H24.7176H24.7175H24.7175H24.7174H24.7174H24.7173H24.7173H24.7172H24.7172H24.7171H24.7171H24.717H24.717H24.7169H24.7169H24.7168H24.7168H24.7167H24.7167H24.7166H24.7166H24.7165H24.7165H24.7164H24.7164H24.7164H24.7163H24.7163H24.7162H24.7162H24.7161H24.7161H24.716H24.716H24.7159H24.7159H24.7158H24.7158H24.7158H24.7157H24.7157H24.7156H24.7156H24.7155H24.7155H24.7154H24.7154H24.7154H24.7153H24.7153H24.7152H24.7152H24.7151H24.7151H24.7151H24.715H24.715H24.7149H24.7149H24.7148H24.7148H24.7148H24.7147H24.7147H24.7146H24.7146H24.7146H24.7145H24.7145H24.7144H24.7144H24.7144H24.7143H24.7143H24.7142H24.7142H24.7142H24.7141H24.7141H24.714H24.714H24.714H24.7139H24.7139H24.7138H24.7138H24.7138H24.7137H24.7137H24.7137H24.7136H24.7136H24.7135H24.7135H24.7135H24.7134H24.7134H24.7134H24.7133H24.7133H24.7133H24.7132H24.7132H24.7131H24.7131H24.7131H24.713H24.713H24.713H24.7129H24.7129H24.7129H24.7128H24.7128H24.7128H24.7127H24.7127H24.7126H24.7126H24.7126H24.7125H24.7125H24.7125H24.7124H24.7124H24.7124H24.7123H24.7123H24.7123H24.7122H24.7122H24.7122H24.7121H24.7121H24.7121H24.712H24.712H24.712H24.7119H24.7119H24.7119H24.7118H24.7118H24.7118H24.7117H24.7117H24.7117H24.7116H24.7116H24.7116H24.7115H24.7115H24.7115H24.7114H24.7114H24.7114H24.7114H24.7113H24.7113H24.7113H24.7112H24.7112H24.7112H24.7111H24.7111H24.7111H24.711H24.711H24.711H24.7109H24.7109H24.7109H24.7108H24.7108H24.7108H24.7108H24.7107H24.7107H24.7107H24.7106H24.7106H24.7106H24.7105H24.7105H24.7105H24.7104H24.7104H24.7104H24.7104H24.7103H24.7103H24.7103H24.7102H24.7102H24.7102H24.7101H24.7101H24.7101H24.7101H24.71H24.71H24.71H24.7099H24.7099H24.7099H24.7098H24.7098H24.7098H24.7097H24.7097H24.7097H24.7097H24.7096H24.7096H24.7096H24.7095H24.7095H24.7095H24.7094H24.7094H24.7094H24.7094H24.7093H24.7093H24.7093H24.7092H24.7092H24.7092H24.7091H24.7091H24.7091H24.7091H24.709H24.709H24.709H24.7089H24.7089H24.7089H24.7088H24.7088H24.7088H24.7087H24.7087H24.7087H24.7087H24.7086H24.7086H24.7086H24.7085H24.7085H24.7085H24.7084H24.7084H24.7084H24.7083H24.7083H24.7083H24.7083H24.7082H24.7082H24.7082H24.7081H24.7081H24.7081H24.708H24.708H24.708H24.7079H24.7079H24.7079H24.7078H24.7078H24.7078H24.7078H24.7077H24.7077H24.7077H24.7076H24.7076H24.7076H24.7075H24.7075H24.7075H24.7074H24.7074H24.7074H24.7073H24.7073H24.7073H24.7072H24.7072H24.7072H24.7071H24.7071H24.7071H24.707H24.707H24.707H24.7069H24.7069H24.7069H24.7068H24.7068H24.7068H24.7067H24.7067H24.7067H24.7066H24.7066H24.7066H24.7065H24.7065H24.7065H24.7064H24.7064H24.7064H24.7063H24.7063H24.7063H24.7062H24.7062H24.7062H24.7061H24.7061H24.706H24.706H24.706H24.7059H24.7059H24.7059H24.7058H24.7058H24.7058H24.7057H24.7057H24.7056H24.7056H24.7056H24.7055H24.7055H24.7055H24.7054H24.7054H24.7054H24.7053H24.7053H24.7052H24.7052H24.7052H24.7051H24.7051H24.705H24.705H24.705H24.7049H24.7049H24.7049H24.7048H24.7048H24.7047H24.7047H24.7047H24.7046H24.7046H24.7045H24.7045H24.7045H24.7044H24.7044H24.7043H24.7043H24.7042H24.7042H24.7042H24.7041H24.7041H24.704H24.704H24.704H24.7039H24.7039H24.7038H24.7038H24.7037H24.7037H24.7037H24.7036H24.7036H24.7035H24.7035H24.7034H24.7034H24.7033H24.7033H24.7033H24.7032H24.7032H24.7031H24.7031H24.703H24.703H24.7029H24.7029H24.7028H24.7028H24.7028H24.7027H24.7027H24.7026H24.7026H24.7025H24.7025H24.7024H24.7024H24.7023H24.7023H24.7022H24.7022H24.7021H24.7021H24.702H24.702H24.7019H24.7019H24.7018H24.7018H24.7017H24.7017H24.7016H24.7016H24.7015H24.7015H24.7014H24.7014H24.7013H24.7013H24.7012H24.7012H24.7011H24.7011H24.701H24.701H24.7009H24.7008H24.7008H24.7007H24.7007H24.7006H24.7006H24.7005H24.7005H24.7004H24.7004H24.7003H24.7002H24.7002H24.7001H24.7001H24.7H24.7H24.6999H24.6998H24.6998H24.6997H24.6997H24.6996H24.6995H24.6995H24.6994H24.6994H24.6993H24.6992H24.6992H10.6571C10.2211 26.7905 9.88694 26.6179 9.70189 26.294L9.70189 26.294L9.7016 26.2935C9.49262 25.9326 9.49256 25.4448 9.70143 25.0837C9.88738 24.7679 10.2233 24.5865 10.6468 24.5865H10.6468H10.6468H10.6468H10.6468H10.6468H10.6468H10.6468H10.6468H10.6468H10.6468H10.6468H10.6468H10.6468H10.6468H10.6468H10.6469H10.6469H10.6469H10.6469H10.6469H10.6469H10.6469H10.6469H10.6469H10.6469H10.6469H10.6469H10.6469H10.6469H10.6469H10.6469H10.6469H10.647H10.647H10.647H10.647H10.647H10.647H10.647H10.647H10.647H10.647H10.6471H10.6471H10.6471H10.6471H10.6471H10.6471H10.6471H10.6471H10.6471H10.6472H10.6472H10.6472H10.6472H10.6472H10.6472H10.6472H10.6472H10.6473H10.6473H10.6473H10.6473H10.6473H10.6473H10.6473H10.6474H10.6474H10.6474H10.6474H10.6474H10.6474H10.6475H10.6475H10.6475H10.6475H10.6475H10.6475H10.6476H10.6476H10.6476H10.6476H10.6476H10.6477H10.6477H10.6477H10.6477H10.6477H10.6477H10.6478H10.6478H10.6478H10.6478H10.6478H10.6479H10.6479H10.6479H10.6479H10.648H10.648H10.648H10.648H10.648H10.6481H10.6481H10.6481H10.6481H10.6482H10.6482H10.6482H10.6482H10.6483H10.6483H10.6483H10.6483H10.6484H10.6484H10.6484H10.6484H10.6485H10.6485H10.6485H10.6485H10.6486H10.6486H10.6486H10.6486H10.6487H10.6487H10.6487H10.6487H10.6488H10.6488H10.6488H10.6489H10.6489H10.6489H10.6489H10.649H10.649H10.649H10.6491H10.6491H10.6491H10.6491H10.6492H10.6492H10.6492H10.6493H10.6493H10.6493H10.6494H10.6494H10.6494H10.6495H10.6495H10.6495H10.6495H10.6496H10.6496H10.6496H10.6497H10.6497H10.6497H10.6498H10.6498H10.6498H10.6499H10.6499H10.6499H10.65H10.65H10.65H10.6501H10.6501H10.6502H10.6502H10.6502H10.6503H10.6503H10.6503H10.6504H10.6504H10.6504H10.6505H10.6505H10.6505H10.6506H10.6506H10.6507H10.6507H10.6507H10.6508H10.6508H10.6508H10.6509H10.6509H10.651H10.651H10.651H10.6511H10.6511H10.6511H10.6512H10.6512H10.6513H10.6513H10.6513H10.6514H10.6514H10.6515H10.6515H10.6515H10.6516H10.6516H10.6517H10.6517H10.6517H10.6518H10.6518H10.6519H10.6519H10.652H10.652H10.652H10.6521H10.6521H10.6522H10.6522H10.6522H10.6523H10.6523H10.6524H10.6524H10.6525H10.6525H10.6525H10.6526H10.6526H10.6527H10.6527H10.6528H10.6528H10.6529H10.6529H10.6529H10.653H10.653H10.6531H10.6531H10.6532H10.6532H10.6533H10.6533H10.6533H10.6534H10.6534H10.6535H10.6535H10.6536H10.6536H10.6537H10.6537H10.6538H10.6538H10.6539H10.6539H10.6539H10.654H10.654H10.6541H10.6541H10.6542H10.6542H10.6543H10.6543H10.6544H10.6544H10.6545H10.6545H10.6546H10.6546H10.6547H10.6547H10.6548H10.6548H10.6549H10.6549H10.655H10.655H10.6551H10.6551H10.6552H10.6552H10.6553H10.6553H10.6554H10.6554H10.6555H10.6555H10.6556H10.6556H10.6557H10.6557H10.6558H10.6558H10.6559H10.6559H10.656H10.656H10.6561H10.6561H10.6562H10.6562H10.6563H10.6563H10.6564H10.6564H10.6565H10.6565H10.6566H10.6566H10.6567H10.6567H10.6568H10.6569H10.6569H10.657H10.657H10.6571H10.6571H10.6572H10.6572H10.6573H10.6573H10.6574H10.6574H10.6575H10.6575H10.6576H10.6577H10.6577H10.6578H10.6578H10.6579H10.6579H10.658H10.658H10.6581H10.6581H10.6582H10.6582H10.6583H10.6584H10.6584H10.6585H10.6585H10.6586H10.6586H10.6587H10.6587H10.6588H10.6589H10.6589H10.659H10.659H10.6591H10.6591H10.6592H10.6592H10.6593H10.6594H10.6594H10.6595H10.6595H10.6596H10.6596H10.6597H10.6598H10.6598H10.6599H10.6599H10.66H10.66H10.6601H10.6602H10.6602H10.6603H10.6603H10.6604H10.6604H10.6605H10.6606H10.6606H10.6607H10.6607H10.6608H10.6608H10.6609H10.661H10.661H10.6611H10.6611H10.6612H10.6612H10.6613H10.6614H10.6614H10.6615H10.6615H10.6616H10.6616H10.6617H10.6618H10.6618H10.6619H10.6619H10.662H10.6621H10.6621H10.6622H10.6622H10.6623H10.6624H10.6624H10.6625H10.6625H10.6626H10.6626H10.6627H10.6628H10.6628H10.6629H10.6629H10.663H10.6631H10.6631H10.6632H10.6632H10.6633H10.6634H10.6634H10.6635H10.6635H10.6636H10.6637H10.6637H10.6638H10.6638H10.6639H10.664H10.664H10.6641H10.6641H10.6642H10.6643H10.6643H10.6644H10.6644H10.6645H10.6645H10.6646H10.6647H10.6647H10.6648H10.6648H10.6649H10.665H10.665H10.6651H10.6651H10.6652H10.6653H10.6653H10.6654H10.6655H10.6655H10.6656H10.6656H10.6657H10.6658H10.6658H10.6659H10.6659H10.666H10.6661H10.6661H10.6662H10.6662H10.6663H10.6664H10.6664H10.6665H10.6665H10.6666H10.6667H10.6667H10.6668H10.6668H10.6669H10.667H10.667H10.6671H10.6671H10.6672H10.6673H10.6673H10.6674H10.6674H24.6992Z" fill="#1F67D2" stroke="white" stroke-width="0.2"/>
</svg>
