<svg width="42" height="42" viewBox="0 0 42 42" fill="none" xmlns="http://www.w3.org/2000/svg">
<g clip-path="url(#clip0_1689_24863)">
<mask id="path-1-outside-1_1689_24863" maskUnits="userSpaceOnUse" x="-1" y="5" width="44" height="35" fill="black">
<rect fill="white" x="-1" y="5" width="44" height="35"/>
<path fill-rule="evenodd" clip-rule="evenodd" d="M41.25 6H0.75C0.3 6 0 6.3 0 6.75V24.75C0 25.2 0.3 25.5 0.75 25.5H33V29.25C33 29.85 32.775 30.375 32.325 30.825C31.875 31.275 31.35 31.5 30.75 31.5H13.725C13.575 31.2 13.425 30.9 13.2 30.6L14.025 29.775C14.325 29.475 14.325 29.025 14.025 28.725C13.725 28.425 13.275 28.425 12.975 28.725L12.15 29.55C11.25 28.875 10.2 28.5 9 28.5C7.8 28.5 6.75 28.875 5.85 29.55L5.025 28.725C4.725 28.425 4.275 28.425 3.975 28.725C3.675 29.025 3.675 29.475 3.975 29.775L4.8 30.6C4.125 31.5 3.75 32.55 3.75 33.75C3.75 34.95 4.125 36 4.8 36.9L3.975 37.725C3.675 38.025 3.675 38.475 3.975 38.775C4.275 39.075 4.725 39.075 5.025 38.775L5.85 37.95C6.75 38.625 7.8 39 9 39C10.2 39 11.25 38.625 12.15 37.95L12.975 38.775C13.275 39.075 13.725 39.075 14.025 38.775C14.325 38.475 14.325 38.025 14.025 37.725L13.2 36.9C13.425 36.6 13.575 36.3 13.725 36H32.25C35.175 36 37.5 33.675 37.5 30.75V25.5H41.25C41.7 25.5 42 25.2 42 24.75V6.75C42 6.3 41.7 6 41.25 6ZM12 31.5C11.325 30.6 10.2 30 9 30C7.95 30 7.05 30.375 6.375 31.05C5.7 31.725 5.325 32.625 5.325 33.675C5.325 35.775 6.975 37.425 9.075 37.425C10.275 37.425 11.4 36.825 12.075 35.925H9.075C8.625 35.925 8.325 35.625 8.325 35.175C8.325 34.725 8.625 34.425 9.075 34.425H12.75C12.825 34.2 12.825 33.9 12.825 33.675C12.825 33.45 12.825 33.15 12.75 32.925H9C8.55 32.925 8.25 32.625 8.25 32.175C8.25 31.725 8.55 31.425 9 31.425H12V31.5ZM36 25.5H34.5V29.25C34.5 30.225 34.125 31.2 33.375 31.875C32.625 32.55 31.725 33 30.75 33H14.175C14.175 33.225 14.25 33.525 14.25 33.75C14.25 33.975 14.25 34.275 14.175 34.5H32.25C34.35 34.5 36 32.85 36 30.75V25.5ZM39.75 7.5H40.5V24H39.75V7.5ZM3.75 24H38.25V7.5H3.75V24ZM2.25 7.5V24H1.5V7.5H2.25ZM12.75 8.25C8.625 8.25 5.25 11.625 5.25 15.75C5.25 19.875 8.625 23.25 12.75 23.25C16.875 23.25 20.25 19.875 20.25 15.75C20.25 11.625 16.875 8.25 12.75 8.25ZM29.25 8.25C25.125 8.25 21.75 11.625 21.75 15.75C21.75 19.875 25.125 23.25 29.25 23.25C33.375 23.25 36.75 19.875 36.75 15.75C36.75 11.625 33.375 8.25 29.25 8.25ZM12.375 18.75C12.15 19.05 12 19.35 12 19.65C12 20.325 12.375 21 13.125 21.75C14.025 21.675 14.85 21.45 15.6 21.075C14.85 20.85 14.25 20.55 13.8 20.1C13.5 19.725 13.275 19.275 13.125 18.75C12.975 18.75 12.9 18.75 12.75 18.75C12.6 18.75 12.45 18.75 12.375 18.75ZM28.875 18.75C28.65 19.05 28.5 19.35 28.5 19.65C28.5 20.325 28.875 21 29.625 21.75C30.525 21.675 31.35 21.45 32.1 21.075C31.35 20.85 30.75 20.55 30.3 20.1C30 19.725 29.775 19.275 29.625 18.75C29.475 18.75 29.4 18.75 29.25 18.75C29.1 18.75 28.95 18.75 28.875 18.75ZM10.35 17.55C9.975 17.55 9.675 17.7 9.45 17.925C9 18.375 8.775 19.125 8.775 20.25C9.45 20.85 10.2 21.3 11.025 21.525C10.65 20.85 10.425 20.175 10.5 19.575C10.5 19.05 10.65 18.6 10.95 18.15C10.725 17.925 10.5 17.775 10.35 17.55ZM26.85 17.55C26.475 17.55 26.175 17.7 25.95 17.925C25.5 18.375 25.275 19.125 25.275 20.25C25.95 20.85 26.7 21.3 27.525 21.525C27.15 20.85 26.925 20.175 27 19.575C27 19.05 27.15 18.6 27.45 18.15C27.225 17.925 27 17.775 26.85 17.55ZM18.45 17.55C17.775 17.925 17.1 18.15 16.5 18.075C15.975 18.075 15.525 17.925 15.075 17.625C14.925 17.85 14.7 18 14.55 18.15C14.55 18.525 14.7 18.825 14.925 19.05C15.375 19.5 16.125 19.725 17.25 19.725C17.775 19.125 18.225 18.375 18.45 17.55ZM34.95 17.55C34.275 17.925 33.6 18.15 33 18.075C32.475 18.075 32.025 17.925 31.575 17.625C31.425 17.85 31.2 18 31.05 18.15C31.05 18.525 31.2 18.825 31.425 19.05C31.875 19.5 32.625 19.725 33.75 19.725C34.275 19.125 34.725 18.375 34.95 17.55ZM9.75 15.375C9.45 15.15 9.15 15 8.85 15C8.175 15 7.5 15.375 6.75 16.125C6.825 17.025 7.05 17.85 7.425 18.6C7.65 17.85 7.95 17.25 8.4 16.8C8.775 16.5 9.225 16.275 9.75 16.125C9.75 15.975 9.75 15.9 9.75 15.75C9.75 15.6 9.75 15.45 9.75 15.375ZM26.25 15.375C25.95 15.15 25.65 15 25.35 15C24.675 15 24 15.375 23.25 16.125C23.325 17.025 23.55 17.85 23.925 18.6C24.15 17.85 24.45 17.25 24.9 16.8C25.275 16.5 25.725 16.275 26.25 16.125C26.25 15.975 26.25 15.9 26.25 15.75C26.25 15.6 26.25 15.45 26.25 15.375ZM12.75 14.25C13.575 14.25 14.25 14.925 14.25 15.75C14.25 16.575 13.575 17.25 12.75 17.25C11.925 17.25 11.25 16.575 11.25 15.75C11.25 14.925 11.925 14.25 12.75 14.25ZM29.25 14.25C30.075 14.25 30.75 14.925 30.75 15.75C30.75 16.575 30.075 17.25 29.25 17.25C28.425 17.25 27.75 16.575 27.75 15.75C27.75 14.925 28.425 14.25 29.25 14.25ZM34.575 12.975C34.35 13.725 34.05 14.325 33.6 14.775C33.225 15.075 32.775 15.3 32.25 15.45C32.25 15.6 32.25 15.675 32.25 15.825C32.25 15.975 32.25 16.125 32.25 16.2C32.55 16.425 32.85 16.575 33.15 16.575C33.825 16.575 34.5 16.2 35.25 15.45C35.175 14.55 34.95 13.725 34.575 12.975ZM18.075 12.975C17.85 13.725 17.55 14.325 17.1 14.775C16.725 15.075 16.275 15.3 15.75 15.45C15.75 15.6 15.75 15.675 15.75 15.825C15.75 15.975 15.75 16.125 15.75 16.2C16.05 16.425 16.35 16.575 16.65 16.575C17.325 16.575 18 16.2 18.75 15.45C18.675 14.55 18.45 13.725 18.075 12.975ZM8.325 11.7C7.725 12.375 7.275 13.125 7.05 13.95C7.725 13.575 8.4 13.35 9 13.425C9.525 13.425 9.975 13.575 10.425 13.875C10.575 13.65 10.8 13.5 10.95 13.35C10.95 12.975 10.8 12.675 10.575 12.45C10.2 11.925 9.375 11.775 8.325 11.7ZM24.825 11.7C24.225 12.375 23.775 13.125 23.55 13.95C24.225 13.575 24.9 13.35 25.5 13.425C26.025 13.425 26.475 13.575 26.925 13.875C27.075 13.65 27.3 13.5 27.45 13.35C27.45 12.975 27.3 12.675 27.075 12.45C26.7 11.925 25.875 11.775 24.825 11.7ZM31.05 10.05C31.425 10.725 31.65 11.4 31.575 12C31.575 12.525 31.425 12.975 31.125 13.425C31.35 13.575 31.5 13.8 31.65 13.95C32.025 13.95 32.325 13.8 32.55 13.575C33 13.125 33.225 12.375 33.225 11.25C32.625 10.725 31.875 10.275 31.05 10.05ZM14.55 10.05C14.925 10.725 15.15 11.4 15.075 12C15.075 12.525 14.925 12.975 14.625 13.425C14.85 13.575 15 13.8 15.15 13.95C15.525 13.95 15.825 13.8 16.05 13.575C16.5 13.125 16.725 12.375 16.725 11.25C16.125 10.725 15.375 10.275 14.55 10.05ZM28.95 9.75C28.05 9.825 27.225 10.05 26.475 10.425C27.225 10.65 27.825 10.95 28.275 11.4C28.575 11.775 28.8 12.225 28.95 12.75C29.1 12.75 29.175 12.75 29.325 12.75C29.475 12.75 29.625 12.75 29.7 12.75C29.925 12.45 30.075 12.15 30.075 11.85C30.075 11.25 29.7 10.575 28.95 9.75ZM12.45 9.75C11.55 9.825 10.725 10.05 9.975 10.425C10.725 10.65 11.325 10.95 11.775 11.4C12.075 11.775 12.3 12.225 12.45 12.75C12.6 12.75 12.675 12.75 12.825 12.75C12.975 12.75 13.125 12.75 13.2 12.75C13.425 12.45 13.575 12.15 13.575 11.85C13.575 11.25 13.2 10.575 12.45 9.75Z"/>
</mask>
<path fill-rule="evenodd" clip-rule="evenodd" d="M41.25 6H0.75C0.3 6 0 6.3 0 6.75V24.75C0 25.2 0.3 25.5 0.75 25.5H33V29.25C33 29.85 32.775 30.375 32.325 30.825C31.875 31.275 31.35 31.5 30.75 31.5H13.725C13.575 31.2 13.425 30.9 13.2 30.6L14.025 29.775C14.325 29.475 14.325 29.025 14.025 28.725C13.725 28.425 13.275 28.425 12.975 28.725L12.15 29.55C11.25 28.875 10.2 28.5 9 28.5C7.8 28.5 6.75 28.875 5.85 29.55L5.025 28.725C4.725 28.425 4.275 28.425 3.975 28.725C3.675 29.025 3.675 29.475 3.975 29.775L4.8 30.6C4.125 31.5 3.75 32.55 3.75 33.75C3.75 34.95 4.125 36 4.8 36.9L3.975 37.725C3.675 38.025 3.675 38.475 3.975 38.775C4.275 39.075 4.725 39.075 5.025 38.775L5.85 37.95C6.75 38.625 7.8 39 9 39C10.2 39 11.25 38.625 12.15 37.95L12.975 38.775C13.275 39.075 13.725 39.075 14.025 38.775C14.325 38.475 14.325 38.025 14.025 37.725L13.2 36.9C13.425 36.6 13.575 36.3 13.725 36H32.25C35.175 36 37.5 33.675 37.5 30.75V25.5H41.25C41.7 25.5 42 25.2 42 24.75V6.75C42 6.3 41.7 6 41.25 6ZM12 31.5C11.325 30.6 10.2 30 9 30C7.95 30 7.05 30.375 6.375 31.05C5.7 31.725 5.325 32.625 5.325 33.675C5.325 35.775 6.975 37.425 9.075 37.425C10.275 37.425 11.4 36.825 12.075 35.925H9.075C8.625 35.925 8.325 35.625 8.325 35.175C8.325 34.725 8.625 34.425 9.075 34.425H12.75C12.825 34.2 12.825 33.9 12.825 33.675C12.825 33.45 12.825 33.15 12.75 32.925H9C8.55 32.925 8.25 32.625 8.25 32.175C8.25 31.725 8.55 31.425 9 31.425H12V31.5ZM36 25.5H34.5V29.25C34.5 30.225 34.125 31.2 33.375 31.875C32.625 32.55 31.725 33 30.75 33H14.175C14.175 33.225 14.25 33.525 14.25 33.75C14.25 33.975 14.25 34.275 14.175 34.5H32.25C34.35 34.5 36 32.85 36 30.75V25.5ZM39.75 7.5H40.5V24H39.75V7.5ZM3.75 24H38.25V7.5H3.75V24ZM2.25 7.5V24H1.5V7.5H2.25ZM12.75 8.25C8.625 8.25 5.25 11.625 5.25 15.75C5.25 19.875 8.625 23.25 12.75 23.25C16.875 23.25 20.25 19.875 20.25 15.75C20.25 11.625 16.875 8.25 12.75 8.25ZM29.25 8.25C25.125 8.25 21.75 11.625 21.75 15.75C21.75 19.875 25.125 23.25 29.25 23.25C33.375 23.25 36.75 19.875 36.75 15.75C36.75 11.625 33.375 8.25 29.25 8.25ZM12.375 18.75C12.15 19.05 12 19.35 12 19.65C12 20.325 12.375 21 13.125 21.75C14.025 21.675 14.85 21.45 15.6 21.075C14.85 20.85 14.25 20.55 13.8 20.1C13.5 19.725 13.275 19.275 13.125 18.75C12.975 18.75 12.9 18.75 12.75 18.75C12.6 18.75 12.45 18.75 12.375 18.75ZM28.875 18.75C28.65 19.05 28.5 19.35 28.5 19.65C28.5 20.325 28.875 21 29.625 21.75C30.525 21.675 31.35 21.45 32.1 21.075C31.35 20.85 30.75 20.55 30.3 20.1C30 19.725 29.775 19.275 29.625 18.75C29.475 18.75 29.4 18.75 29.25 18.75C29.1 18.75 28.95 18.75 28.875 18.75ZM10.35 17.55C9.975 17.55 9.675 17.7 9.45 17.925C9 18.375 8.775 19.125 8.775 20.25C9.45 20.85 10.2 21.3 11.025 21.525C10.65 20.85 10.425 20.175 10.5 19.575C10.5 19.05 10.65 18.6 10.95 18.15C10.725 17.925 10.5 17.775 10.35 17.55ZM26.85 17.55C26.475 17.55 26.175 17.7 25.95 17.925C25.5 18.375 25.275 19.125 25.275 20.25C25.95 20.85 26.7 21.3 27.525 21.525C27.15 20.85 26.925 20.175 27 19.575C27 19.05 27.15 18.6 27.45 18.15C27.225 17.925 27 17.775 26.85 17.55ZM18.45 17.55C17.775 17.925 17.1 18.15 16.5 18.075C15.975 18.075 15.525 17.925 15.075 17.625C14.925 17.85 14.7 18 14.55 18.15C14.55 18.525 14.7 18.825 14.925 19.05C15.375 19.5 16.125 19.725 17.25 19.725C17.775 19.125 18.225 18.375 18.45 17.55ZM34.95 17.55C34.275 17.925 33.6 18.15 33 18.075C32.475 18.075 32.025 17.925 31.575 17.625C31.425 17.85 31.2 18 31.05 18.15C31.05 18.525 31.2 18.825 31.425 19.05C31.875 19.5 32.625 19.725 33.75 19.725C34.275 19.125 34.725 18.375 34.95 17.55ZM9.75 15.375C9.45 15.15 9.15 15 8.85 15C8.175 15 7.5 15.375 6.75 16.125C6.825 17.025 7.05 17.85 7.425 18.6C7.65 17.85 7.95 17.25 8.4 16.8C8.775 16.5 9.225 16.275 9.75 16.125C9.75 15.975 9.75 15.9 9.75 15.75C9.75 15.6 9.75 15.45 9.75 15.375ZM26.25 15.375C25.95 15.15 25.65 15 25.35 15C24.675 15 24 15.375 23.25 16.125C23.325 17.025 23.55 17.85 23.925 18.6C24.15 17.85 24.45 17.25 24.9 16.8C25.275 16.5 25.725 16.275 26.25 16.125C26.25 15.975 26.25 15.9 26.25 15.75C26.25 15.6 26.25 15.45 26.25 15.375ZM12.75 14.25C13.575 14.25 14.25 14.925 14.25 15.75C14.25 16.575 13.575 17.25 12.75 17.25C11.925 17.25 11.25 16.575 11.25 15.75C11.25 14.925 11.925 14.25 12.75 14.25ZM29.25 14.25C30.075 14.25 30.75 14.925 30.75 15.75C30.75 16.575 30.075 17.25 29.25 17.25C28.425 17.25 27.75 16.575 27.75 15.75C27.75 14.925 28.425 14.25 29.25 14.25ZM34.575 12.975C34.35 13.725 34.05 14.325 33.6 14.775C33.225 15.075 32.775 15.3 32.25 15.45C32.25 15.6 32.25 15.675 32.25 15.825C32.25 15.975 32.25 16.125 32.25 16.2C32.55 16.425 32.85 16.575 33.15 16.575C33.825 16.575 34.5 16.2 35.25 15.45C35.175 14.55 34.95 13.725 34.575 12.975ZM18.075 12.975C17.85 13.725 17.55 14.325 17.1 14.775C16.725 15.075 16.275 15.3 15.75 15.45C15.75 15.6 15.75 15.675 15.75 15.825C15.75 15.975 15.75 16.125 15.75 16.2C16.05 16.425 16.35 16.575 16.65 16.575C17.325 16.575 18 16.2 18.75 15.45C18.675 14.55 18.45 13.725 18.075 12.975ZM8.325 11.7C7.725 12.375 7.275 13.125 7.05 13.95C7.725 13.575 8.4 13.35 9 13.425C9.525 13.425 9.975 13.575 10.425 13.875C10.575 13.65 10.8 13.5 10.95 13.35C10.95 12.975 10.8 12.675 10.575 12.45C10.2 11.925 9.375 11.775 8.325 11.7ZM24.825 11.7C24.225 12.375 23.775 13.125 23.55 13.95C24.225 13.575 24.9 13.35 25.5 13.425C26.025 13.425 26.475 13.575 26.925 13.875C27.075 13.65 27.3 13.5 27.45 13.35C27.45 12.975 27.3 12.675 27.075 12.45C26.7 11.925 25.875 11.775 24.825 11.7ZM31.05 10.05C31.425 10.725 31.65 11.4 31.575 12C31.575 12.525 31.425 12.975 31.125 13.425C31.35 13.575 31.5 13.8 31.65 13.95C32.025 13.95 32.325 13.8 32.55 13.575C33 13.125 33.225 12.375 33.225 11.25C32.625 10.725 31.875 10.275 31.05 10.05ZM14.55 10.05C14.925 10.725 15.15 11.4 15.075 12C15.075 12.525 14.925 12.975 14.625 13.425C14.85 13.575 15 13.8 15.15 13.95C15.525 13.95 15.825 13.8 16.05 13.575C16.5 13.125 16.725 12.375 16.725 11.25C16.125 10.725 15.375 10.275 14.55 10.05ZM28.95 9.75C28.05 9.825 27.225 10.05 26.475 10.425C27.225 10.65 27.825 10.95 28.275 11.4C28.575 11.775 28.8 12.225 28.95 12.75C29.1 12.75 29.175 12.75 29.325 12.75C29.475 12.75 29.625 12.75 29.7 12.75C29.925 12.45 30.075 12.15 30.075 11.85C30.075 11.25 29.7 10.575 28.95 9.75ZM12.45 9.75C11.55 9.825 10.725 10.05 9.975 10.425C10.725 10.65 11.325 10.95 11.775 11.4C12.075 11.775 12.3 12.225 12.45 12.75C12.6 12.75 12.675 12.75 12.825 12.75C12.975 12.75 13.125 12.75 13.2 12.75C13.425 12.45 13.575 12.15 13.575 11.85C13.575 11.25 13.2 10.575 12.45 9.75Z" fill="#1F67D2"/>
<path fill-rule="evenodd" clip-rule="evenodd" d="M41.25 6H0.75C0.3 6 0 6.3 0 6.75V24.75C0 25.2 0.3 25.5 0.75 25.5H33V29.25C33 29.85 32.775 30.375 32.325 30.825C31.875 31.275 31.35 31.5 30.75 31.5H13.725C13.575 31.2 13.425 30.9 13.2 30.6L14.025 29.775C14.325 29.475 14.325 29.025 14.025 28.725C13.725 28.425 13.275 28.425 12.975 28.725L12.15 29.55C11.25 28.875 10.2 28.5 9 28.5C7.8 28.5 6.75 28.875 5.85 29.55L5.025 28.725C4.725 28.425 4.275 28.425 3.975 28.725C3.675 29.025 3.675 29.475 3.975 29.775L4.8 30.6C4.125 31.5 3.75 32.55 3.75 33.75C3.75 34.95 4.125 36 4.8 36.9L3.975 37.725C3.675 38.025 3.675 38.475 3.975 38.775C4.275 39.075 4.725 39.075 5.025 38.775L5.85 37.95C6.75 38.625 7.8 39 9 39C10.2 39 11.25 38.625 12.15 37.95L12.975 38.775C13.275 39.075 13.725 39.075 14.025 38.775C14.325 38.475 14.325 38.025 14.025 37.725L13.2 36.9C13.425 36.6 13.575 36.3 13.725 36H32.25C35.175 36 37.5 33.675 37.5 30.75V25.5H41.25C41.7 25.5 42 25.2 42 24.75V6.75C42 6.3 41.7 6 41.25 6ZM12 31.5C11.325 30.6 10.2 30 9 30C7.95 30 7.05 30.375 6.375 31.05C5.7 31.725 5.325 32.625 5.325 33.675C5.325 35.775 6.975 37.425 9.075 37.425C10.275 37.425 11.4 36.825 12.075 35.925H9.075C8.625 35.925 8.325 35.625 8.325 35.175C8.325 34.725 8.625 34.425 9.075 34.425H12.75C12.825 34.2 12.825 33.9 12.825 33.675C12.825 33.45 12.825 33.15 12.75 32.925H9C8.55 32.925 8.25 32.625 8.25 32.175C8.25 31.725 8.55 31.425 9 31.425H12V31.5ZM36 25.5H34.5V29.25C34.5 30.225 34.125 31.2 33.375 31.875C32.625 32.55 31.725 33 30.75 33H14.175C14.175 33.225 14.25 33.525 14.25 33.75C14.25 33.975 14.25 34.275 14.175 34.5H32.25C34.35 34.5 36 32.85 36 30.75V25.5ZM39.75 7.5H40.5V24H39.75V7.5ZM3.75 24H38.25V7.5H3.75V24ZM2.25 7.5V24H1.5V7.5H2.25ZM12.75 8.25C8.625 8.25 5.25 11.625 5.25 15.75C5.25 19.875 8.625 23.25 12.75 23.25C16.875 23.25 20.25 19.875 20.25 15.75C20.25 11.625 16.875 8.25 12.75 8.25ZM29.25 8.25C25.125 8.25 21.75 11.625 21.75 15.75C21.75 19.875 25.125 23.25 29.25 23.25C33.375 23.25 36.75 19.875 36.75 15.75C36.75 11.625 33.375 8.25 29.25 8.25ZM12.375 18.75C12.15 19.05 12 19.35 12 19.65C12 20.325 12.375 21 13.125 21.75C14.025 21.675 14.85 21.45 15.6 21.075C14.85 20.85 14.25 20.55 13.8 20.1C13.5 19.725 13.275 19.275 13.125 18.75C12.975 18.75 12.9 18.75 12.75 18.75C12.6 18.75 12.45 18.75 12.375 18.75ZM28.875 18.75C28.65 19.05 28.5 19.35 28.5 19.65C28.5 20.325 28.875 21 29.625 21.75C30.525 21.675 31.35 21.45 32.1 21.075C31.35 20.85 30.75 20.55 30.3 20.1C30 19.725 29.775 19.275 29.625 18.75C29.475 18.75 29.4 18.75 29.25 18.75C29.1 18.75 28.95 18.75 28.875 18.75ZM10.35 17.55C9.975 17.55 9.675 17.7 9.45 17.925C9 18.375 8.775 19.125 8.775 20.25C9.45 20.85 10.2 21.3 11.025 21.525C10.65 20.85 10.425 20.175 10.5 19.575C10.5 19.05 10.65 18.6 10.95 18.15C10.725 17.925 10.5 17.775 10.35 17.55ZM26.85 17.55C26.475 17.55 26.175 17.7 25.95 17.925C25.5 18.375 25.275 19.125 25.275 20.25C25.95 20.85 26.7 21.3 27.525 21.525C27.15 20.85 26.925 20.175 27 19.575C27 19.05 27.15 18.6 27.45 18.15C27.225 17.925 27 17.775 26.85 17.55ZM18.45 17.55C17.775 17.925 17.1 18.15 16.5 18.075C15.975 18.075 15.525 17.925 15.075 17.625C14.925 17.85 14.7 18 14.55 18.15C14.55 18.525 14.7 18.825 14.925 19.05C15.375 19.5 16.125 19.725 17.25 19.725C17.775 19.125 18.225 18.375 18.45 17.55ZM34.95 17.55C34.275 17.925 33.6 18.15 33 18.075C32.475 18.075 32.025 17.925 31.575 17.625C31.425 17.85 31.2 18 31.05 18.15C31.05 18.525 31.2 18.825 31.425 19.05C31.875 19.5 32.625 19.725 33.75 19.725C34.275 19.125 34.725 18.375 34.95 17.55ZM9.75 15.375C9.45 15.15 9.15 15 8.85 15C8.175 15 7.5 15.375 6.75 16.125C6.825 17.025 7.05 17.85 7.425 18.6C7.65 17.85 7.95 17.25 8.4 16.8C8.775 16.5 9.225 16.275 9.75 16.125C9.75 15.975 9.75 15.9 9.75 15.75C9.75 15.6 9.75 15.45 9.75 15.375ZM26.25 15.375C25.95 15.15 25.65 15 25.35 15C24.675 15 24 15.375 23.25 16.125C23.325 17.025 23.55 17.85 23.925 18.6C24.15 17.85 24.45 17.25 24.9 16.8C25.275 16.5 25.725 16.275 26.25 16.125C26.25 15.975 26.25 15.9 26.25 15.75C26.25 15.6 26.25 15.45 26.25 15.375ZM12.75 14.25C13.575 14.25 14.25 14.925 14.25 15.75C14.25 16.575 13.575 17.25 12.75 17.25C11.925 17.25 11.25 16.575 11.25 15.75C11.25 14.925 11.925 14.25 12.75 14.25ZM29.25 14.25C30.075 14.25 30.75 14.925 30.75 15.75C30.75 16.575 30.075 17.25 29.25 17.25C28.425 17.25 27.75 16.575 27.75 15.75C27.75 14.925 28.425 14.25 29.25 14.25ZM34.575 12.975C34.35 13.725 34.05 14.325 33.6 14.775C33.225 15.075 32.775 15.3 32.25 15.45C32.25 15.6 32.25 15.675 32.25 15.825C32.25 15.975 32.25 16.125 32.25 16.2C32.55 16.425 32.85 16.575 33.15 16.575C33.825 16.575 34.5 16.2 35.25 15.45C35.175 14.55 34.95 13.725 34.575 12.975ZM18.075 12.975C17.85 13.725 17.55 14.325 17.1 14.775C16.725 15.075 16.275 15.3 15.75 15.45C15.75 15.6 15.75 15.675 15.75 15.825C15.75 15.975 15.75 16.125 15.75 16.2C16.05 16.425 16.35 16.575 16.65 16.575C17.325 16.575 18 16.2 18.75 15.45C18.675 14.55 18.45 13.725 18.075 12.975ZM8.325 11.7C7.725 12.375 7.275 13.125 7.05 13.95C7.725 13.575 8.4 13.35 9 13.425C9.525 13.425 9.975 13.575 10.425 13.875C10.575 13.65 10.8 13.5 10.95 13.35C10.95 12.975 10.8 12.675 10.575 12.45C10.2 11.925 9.375 11.775 8.325 11.7ZM24.825 11.7C24.225 12.375 23.775 13.125 23.55 13.95C24.225 13.575 24.9 13.35 25.5 13.425C26.025 13.425 26.475 13.575 26.925 13.875C27.075 13.65 27.3 13.5 27.45 13.35C27.45 12.975 27.3 12.675 27.075 12.45C26.7 11.925 25.875 11.775 24.825 11.7ZM31.05 10.05C31.425 10.725 31.65 11.4 31.575 12C31.575 12.525 31.425 12.975 31.125 13.425C31.35 13.575 31.5 13.8 31.65 13.95C32.025 13.95 32.325 13.8 32.55 13.575C33 13.125 33.225 12.375 33.225 11.25C32.625 10.725 31.875 10.275 31.05 10.05ZM14.55 10.05C14.925 10.725 15.15 11.4 15.075 12C15.075 12.525 14.925 12.975 14.625 13.425C14.85 13.575 15 13.8 15.15 13.95C15.525 13.95 15.825 13.8 16.05 13.575C16.5 13.125 16.725 12.375 16.725 11.25C16.125 10.725 15.375 10.275 14.55 10.05ZM28.95 9.75C28.05 9.825 27.225 10.05 26.475 10.425C27.225 10.65 27.825 10.95 28.275 11.4C28.575 11.775 28.8 12.225 28.95 12.75C29.1 12.75 29.175 12.75 29.325 12.75C29.475 12.75 29.625 12.75 29.7 12.75C29.925 12.45 30.075 12.15 30.075 11.85C30.075 11.25 29.7 10.575 28.95 9.75ZM12.45 9.75C11.55 9.825 10.725 10.05 9.975 10.425C10.725 10.65 11.325 10.95 11.775 11.4C12.075 11.775 12.3 12.225 12.45 12.75C12.6 12.75 12.675 12.75 12.825 12.75C12.975 12.75 13.125 12.75 13.2 12.75C13.425 12.45 13.575 12.15 13.575 11.85C13.575 11.25 13.2 10.575 12.45 9.75Z" stroke="#1F67D2" stroke-width="0.2" mask="url(#path-1-outside-1_1689_24863)"/>
</g>
<defs>
<clipPath id="clip0_1689_24863">
<rect width="42" height="42" fill="white"/>
</clipPath>
</defs>
</svg>
