<svg width="19" height="18" viewBox="0 0 19 18" fill="none" xmlns="http://www.w3.org/2000/svg">
<path d="M16.3247 7.94615C16.791 7.82766 17.2617 7.42844 17.2617 6.80354V4.87562C17.2617 4.04802 16.5887 3.375 15.7611 3.375H3.01234C2.18474 3.375 1.51172 4.04802 1.51172 4.87562V6.80354C1.51172 7.42807 1.9824 7.82729 2.4487 7.94578C2.80708 8.03693 3.05755 8.36214 3.05755 8.73693C3.05755 9.11026 2.80708 9.43437 2.4487 9.52516C1.9824 9.64401 1.51172 10.0429 1.51172 10.6681V12.599C1.51172 13.4262 2.18474 14.0996 3.01234 14.0996H15.7611C16.5883 14.0996 17.2617 13.4266 17.2617 12.599V10.6681C17.2617 10.0429 16.791 9.64401 16.3247 9.52552C15.9664 9.43474 15.7159 9.11062 15.7159 8.73729C15.7159 8.3625 15.9664 8.03729 16.3247 7.94615ZM14.2663 8.73729C14.2663 9.6976 14.8952 10.558 15.8092 10.8668V12.599C15.8092 12.6442 15.7833 12.65 15.7611 12.65H7.43036V12.599C7.43 12.1997 7.10479 11.8745 6.70557 11.8742C6.30635 11.8745 5.98115 12.1997 5.98078 12.599V12.65H3.01234C2.97807 12.65 2.9613 12.6332 2.9613 12.599V10.8697C3.87677 10.5624 4.50714 9.70089 4.50714 8.73729C4.50714 7.77297 3.87677 6.91 2.9613 6.60193V4.87562C2.9613 4.84135 2.97807 4.82458 3.01234 4.82458H5.98115V4.87271C5.98151 5.27193 6.30672 5.59714 6.70594 5.5975C7.10516 5.59714 7.43036 5.27193 7.43073 4.87271V4.82458H15.7615C15.7837 4.82458 15.8096 4.83042 15.8096 4.87562V6.60521C14.8952 6.91437 14.2663 7.77589 14.2663 8.73729Z" fill="#6782AA"/>
<path d="M6.70575 6.20728C6.30654 6.20764 5.98133 6.53285 5.98096 6.93207V7.70425C5.98023 7.89785 6.05497 8.0805 6.19133 8.21795C6.32768 8.3554 6.50961 8.4316 6.70575 8.43233C7.1057 8.43196 7.43091 8.10639 7.43055 7.70462V6.9317C7.43018 6.53285 7.10534 6.20764 6.70575 6.20728Z" fill="#6782AA"/>
<path d="M6.70575 9.04199C6.30617 9.04236 5.98132 9.36757 5.98096 9.76678V10.5397C5.98132 10.9389 6.30653 11.2641 6.70575 11.2645C7.10497 11.2641 7.43018 10.9389 7.43054 10.5397V9.76678C7.42981 9.36757 7.10497 9.04236 6.70575 9.04199Z" fill="#6782AA"/>
</svg>
