<svg width="42" height="42" viewBox="0 0 42 42" fill="none" xmlns="http://www.w3.org/2000/svg">
<path d="M30.4735 2H12.2035C10.4349 2 9 3.43491 9 5.20351V36.7965C9 38.5651 10.4349 40 12.2035 40H30.4735C32.2422 40 33.6771 38.5651 33.6771 36.7965V5.20351C33.6771 3.43491 32.2422 2 30.4735 2ZM12.2035 3.91877H30.4735C31.1827 3.91877 31.7583 4.4944 31.7583 5.20351V22.2389L28.0459 24.3578C27.7456 24.5247 27.562 24.8501 27.562 25.1921V38.0812H15.115V25.1921C15.115 24.8501 14.9315 24.533 14.6312 24.3578L10.9188 22.2389V5.20351C10.9188 4.4944 11.4944 3.91877 12.2035 3.91877ZM10.9188 36.7965V24.4496L13.1963 25.751V38.0812H12.2035C11.4944 38.0812 10.9188 37.5056 10.9188 36.7965ZM30.4735 38.0812H29.4891V25.751L31.7666 24.4496V36.7965C31.7583 37.5056 31.1827 38.0812 30.4735 38.0812Z" fill="#1F67D2"/>
<path d="M21.3385 23.6321C19.4864 23.6321 17.9848 25.1337 17.9848 26.9858C17.9848 28.8378 19.4864 30.3394 21.3385 30.3394C23.1905 30.3394 24.6922 28.8378 24.6922 26.9858C24.6922 25.1337 23.1905 23.6321 21.3385 23.6321ZM21.3385 28.429C20.5459 28.429 19.9036 27.7866 19.9036 26.9941C19.9036 26.2016 20.5459 25.5592 21.3385 25.5592C22.131 25.5592 22.7734 26.2016 22.7734 26.9941C22.7734 27.7866 22.131 28.429 21.3385 28.429Z" fill="#1F67D2"/>
<path d="M14.748 13.5793H27.9207C28.4547 13.5793 28.8801 13.1539 28.8801 12.62V7.82303C28.8801 7.28911 28.4547 6.86365 27.9207 6.86365H14.748C14.214 6.86365 13.7886 7.28911 13.7886 7.82303V12.6116C13.7886 13.1455 14.2224 13.5793 14.748 13.5793ZM15.7073 8.78242H26.9614V11.6522H15.7073V8.78242Z" fill="#1F67D2"/>
<path d="M21.3385 33.2175C20.8046 33.2175 20.3792 33.643 20.3792 34.1769C20.3792 34.7108 20.813 35.1363 21.3385 35.1363C21.8725 35.1363 22.2979 34.7108 22.2979 34.1769C22.2979 33.643 21.8725 33.2175 21.3385 33.2175Z" fill="#1F67D2"/>
<path d="M14.748 18.3679H27.9207C28.4547 18.3679 28.8801 17.9425 28.8801 17.4085C28.8801 16.8746 28.4547 16.4492 27.9207 16.4492H14.748C14.214 16.4492 13.7886 16.8746 13.7886 17.4085C13.7886 17.9425 14.2224 18.3679 14.748 18.3679Z" fill="#1F67D2"/>
</svg>
