<svg width="20" height="21" viewBox="0 0 20 21" fill="none" xmlns="http://www.w3.org/2000/svg">
<path d="M15.8528 12.1369C15.397 11.6647 14.8468 11.4143 14.2597 11.4143C13.6766 11.4143 13.1223 11.6606 12.6542 12.1287L11.5046 13.2743C11.4964 13.2701 11.4882 13.266 11.4799 13.2619C11.443 13.2455 11.4101 13.225 11.3773 13.2086L11.3732 13.2045C11.2336 13.1347 11.0981 13.069 10.9954 13.0033C9.80473 12.2478 8.72487 11.2623 7.68607 9.98951C7.24673 9.4311 6.93468 8.95892 6.70064 8.48674C6.9511 8.24859 7.18925 8.01045 7.41918 7.77231L7.50541 7.68608C7.56289 7.6286 7.62037 7.57112 7.67785 7.50953C7.73534 7.45204 7.79282 7.39456 7.8503 7.33708C8.82341 6.36397 8.82341 5.06239 7.8503 4.08928L6.72938 2.96836C6.6021 2.84108 6.47482 2.7138 6.35574 2.58651L6.35164 2.58241C6.10939 2.33194 5.84661 2.06506 5.57151 1.81049C5.11986 1.36294 4.57377 1.12891 3.99894 1.12891C3.42 1.12891 2.86981 1.36705 2.40584 1.8146L0.993396 3.23114C0.418565 3.80597 0.0900902 4.50809 0.0202894 5.32106C-0.082359 6.57337 0.278963 7.73125 0.562272 8.49084C1.23975 10.3221 2.25392 12.0137 3.75258 13.8162C5.57972 15.9965 7.7764 17.7169 10.2851 18.9281C11.2582 19.388 12.5598 19.93 14.001 20.0244H14.0051C14.0995 20.0285 14.1899 20.0326 14.2761 20.0326C15.3108 20.0326 16.1771 19.659 16.8546 18.9199L16.8834 18.8912L16.8875 18.883L16.8916 18.8789C17.0763 18.6571 17.2939 18.4477 17.5239 18.226L17.5773 18.1726C17.7908 17.9673 17.9673 17.7949 18.1192 17.6348C18.5791 17.1585 18.8214 16.6001 18.8214 16.0129C18.8214 15.4217 18.575 14.8633 18.1069 14.4034L15.8528 12.1369ZM16.9901 16.3742H16.8957L16.8587 16.522C16.7479 16.637 16.6329 16.7479 16.5138 16.8669L16.4235 16.9573C16.1607 17.2077 15.8774 17.4828 15.6146 17.7949C15.2533 18.1808 14.8427 18.3533 14.2843 18.3533C14.2268 18.3533 14.1652 18.3533 14.1119 18.3492C12.9417 18.2753 11.8413 17.8113 11.016 17.4171C8.72487 16.3085 6.72117 14.736 5.05006 12.7446C3.67457 11.0858 2.75073 9.54607 2.14306 7.9037C1.77763 6.92648 1.64213 6.17099 1.69962 5.45656C1.73657 5.04186 1.88849 4.70928 2.18412 4.41776L3.58013 3.02174C3.72795 2.88214 3.87576 2.81234 4.00304 2.81234C4.16318 2.81234 4.30688 2.9232 4.40132 3.01353L4.42185 3.03406C4.65589 3.25167 4.88171 3.48161 5.15271 3.76081C5.2184 3.8265 5.2841 3.8922 5.34979 3.962C5.41549 4.02769 5.47707 4.09339 5.54277 4.15909L6.66779 5.28411C6.99216 5.60848 6.99216 5.82609 6.66779 6.15046C6.62674 6.19152 6.58568 6.23258 6.54872 6.27364C6.47071 6.35165 6.3968 6.42967 6.31879 6.50357L6.31468 6.50768C5.95336 6.88132 5.64131 7.18926 5.29641 7.49721L5.29231 7.50131C5.2841 7.50953 5.26357 7.52595 5.24714 7.54648C4.75854 8.05151 4.92277 8.57707 4.98026 8.75362L5.00079 8.81521C5.30052 9.53786 5.71933 10.2277 6.36806 11.0488L6.38038 11.0612L6.38449 11.0653C7.53825 12.4818 8.7495 13.5863 10.088 14.4321C10.2687 14.5471 10.4453 14.6374 10.6177 14.7195C10.7614 14.7893 10.8928 14.8591 10.9996 14.9248L11.0242 14.9372C11.0406 14.9454 11.057 14.9577 11.0735 14.9659C11.2541 15.0562 11.4266 15.0973 11.6072 15.0973C11.9111 15.0973 12.1903 14.9741 12.4325 14.7278L13.8368 13.3235C13.9189 13.2414 14.0872 13.1018 14.2515 13.1018C14.4239 13.1018 14.5758 13.2455 14.6292 13.3071L16.908 15.59C17.1913 15.8569 17.2159 16.095 16.9901 16.3742Z" fill="#6782AA"/>
<path d="M10.741 5.19749C11.7552 5.36584 12.679 5.84623 13.4181 6.5853C14.1531 7.32026 14.6335 8.2441 14.8059 9.26237C14.8716 9.66886 15.2206 9.96038 15.6353 9.96038C15.6846 9.96038 15.7215 9.95627 15.7544 9.95216L15.7749 9.94806C16.2307 9.87415 16.5427 9.43892 16.4688 8.97495C16.2389 7.61589 15.5943 6.3759 14.6129 5.39047C13.6275 4.40505 12.3916 3.76452 11.0285 3.53049C10.5727 3.45658 10.1375 3.76452 10.0595 4.21618C10.0184 4.442 10.0718 4.66783 10.2032 4.8526C10.3263 5.04147 10.5193 5.16054 10.741 5.19749Z" fill="#6782AA"/>
<path d="M19.9875 8.81884C19.6097 6.61806 18.5709 4.61025 16.9819 3.02126C15.3888 1.42816 13.381 0.389355 11.1803 0.0116095C10.9585 -0.0294498 10.7368 0.0239273 10.552 0.155317C10.3714 0.286707 10.2482 0.47558 10.2113 0.6973V0.701406C10.1374 1.16538 10.4412 1.58829 10.9011 1.67041C12.7528 1.98246 14.4445 2.86113 15.7912 4.20377C17.1339 5.54641 18.0125 7.23805 18.3246 9.09393C18.3903 9.50042 18.7393 9.79194 19.154 9.79194C19.2033 9.79194 19.2402 9.78784 19.2731 9.78373L19.2895 9.77962C19.5112 9.74678 19.7042 9.6277 19.8397 9.44294C19.9752 9.26638 20.0285 9.04056 19.9875 8.81884Z" fill="#6782AA"/>
</svg>
