<svg width="11" height="7" viewBox="0 0 11 7" fill="none" xmlns="http://www.w3.org/2000/svg">
<path d="M10.5228 0.838158L10.5231 0.838179L10.5231 0.830646L10.5231 0.823765L10.5231 0.823745L10.5231 0.823725L10.5231 0.823704L10.5231 0.823684L10.5231 0.823664L10.5231 0.823644L10.5231 0.823624L10.5231 0.823604L10.5231 0.823584L10.5231 0.823563L10.5231 0.823543L10.5231 0.823523L10.5231 0.823503L10.5231 0.823483L10.5231 0.823463L10.5231 0.823442L10.5231 0.823422L10.5231 0.823402L10.5231 0.823382L10.5231 0.823362L10.5231 0.823342L10.5231 0.823321L10.5231 0.823301L10.5231 0.823281L10.5231 0.823261L10.5231 0.823241L10.5231 0.823221L10.5231 0.8232L10.5231 0.82318L10.5231 0.82316L10.5231 0.82314L10.5231 0.82312L10.5231 0.8231L10.5231 0.82308L10.5231 0.823059L10.5231 0.823039L10.5231 0.823019L10.5231 0.822999L10.5231 0.822979L10.5231 0.822959L10.5231 0.822938L10.5231 0.822918L10.5231 0.822898L10.5231 0.822878L10.5231 0.822858L10.5231 0.822838L10.5231 0.822818L10.5231 0.822797L10.5231 0.822777L10.5231 0.822757L10.5231 0.822737L10.5231 0.822717L10.5231 0.822697L10.5231 0.822676L10.5231 0.822656L10.5231 0.822636L10.5231 0.822616L10.5231 0.822596L10.5231 0.822576L10.5231 0.822555L10.5231 0.822535L10.5231 0.822515L10.5231 0.822495L10.5231 0.822475L10.5231 0.822455L10.5231 0.822434L10.5231 0.822414L10.5231 0.822394L10.5231 0.822374L10.5231 0.822354L10.5231 0.822334L10.5231 0.822314L10.5231 0.822293L10.5231 0.822273L10.5231 0.822253L10.5231 0.822233L10.5231 0.822213L10.5231 0.822193L10.5231 0.822172L10.5231 0.822152L10.5231 0.822132L10.5231 0.822112L10.5231 0.822092L10.5231 0.822072L10.5231 0.822051L10.5231 0.822031L10.5231 0.822011L10.5231 0.821991L10.5231 0.821971L10.5231 0.821951L10.5231 0.821931L10.5231 0.82191L10.5231 0.82189L10.5231 0.82187L10.5231 0.82185L10.5231 0.82183L10.5231 0.82181L10.5231 0.821789L10.5231 0.821769L10.5231 0.821749L10.5231 0.821729L10.5231 0.821709L10.5231 0.821689L10.5231 0.821668L10.5231 0.821648L10.5231 0.821628L10.5231 0.821608L10.5231 0.821588L10.5231 0.821568L10.5231 0.821548L10.5231 0.821527L10.5231 0.821507L10.5231 0.821487L10.5231 0.821467L10.5231 0.821447L10.5231 0.821427L10.5231 0.821406L10.5231 0.821386L10.5231 0.821366L10.5231 0.821346L10.5231 0.821326L10.5231 0.821306L10.5231 0.821285L10.5231 0.821265L10.5231 0.821245L10.5231 0.821225L10.5231 0.821205L10.5231 0.821185L10.5231 0.821165L10.5231 0.821144L10.5231 0.821124L10.5231 0.821104L10.5231 0.821084L10.5231 0.821064L10.5231 0.821044L10.5231 0.821023L10.5231 0.821003L10.5231 0.820983L10.5231 0.820963L10.5231 0.820943L10.5231 0.820923L10.5231 0.820902L10.5231 0.820882L10.5231 0.820862L10.5231 0.820842L10.5231 0.820822L10.5231 0.820802L10.5231 0.820782L10.5231 0.820761L10.5231 0.820741L10.5231 0.820721L10.5231 0.820701L10.5231 0.820681L10.5231 0.820661L10.5231 0.82064L10.5231 0.82062L10.5231 0.8206L10.5231 0.82058L10.5231 0.82056L10.5231 0.82054L10.5231 0.820519L10.5231 0.820499L10.5231 0.820479L10.5231 0.820459L10.5231 0.820439L10.5231 0.820419L10.5231 0.820399L10.5231 0.820378L10.5231 0.820358L10.5231 0.820338L10.5231 0.820318L10.5231 0.820298L10.5231 0.820278L10.5231 0.820257L10.5231 0.820237L10.5231 0.820217L10.5231 0.820197L10.5231 0.820177L10.5231 0.820157L10.5231 0.820136L10.5231 0.820116L10.5231 0.820096L10.5231 0.820076L10.5231 0.820056L10.5231 0.820036L10.5231 0.820016L10.5231 0.819995L10.5231 0.819975L10.5231 0.819955L10.5231 0.819935L10.5231 0.819915L10.5231 0.819895L10.5231 0.819874L10.5231 0.819854L10.5231 0.819834L10.5231 0.819814L10.5231 0.819794L10.5231 0.819774L10.5231 0.819754L10.5231 0.819733L10.5231 0.819713L10.5231 0.819693L10.5231 0.819673L10.5231 0.819653L10.5231 0.819633L10.5231 0.819612L10.5231 0.819592L10.5231 0.819572L10.5231 0.819552L10.5231 0.819532L10.5231 0.819512L10.5231 0.819491L10.5231 0.819471L10.5231 0.819451L10.5231 0.819431L10.5231 0.819411L10.5231 0.819391L10.5231 0.81937L10.5231 0.81935L10.5231 0.81933L10.5231 0.81931L10.5231 0.81929L10.5231 0.81927L10.5231 0.81925L10.5231 0.819229L10.5231 0.819209L10.5231 0.819189L10.5231 0.819169L10.5231 0.819149L10.5231 0.819129L10.5231 0.819108L10.5231 0.819088L10.5231 0.819068L10.5231 0.819048L10.5231 0.819028L10.5231 0.819008L10.5231 0.818987L10.5231 0.818967L10.5231 0.818947L10.5231 0.818927L10.5231 0.818907L10.5231 0.818887L10.5231 0.818867L10.5231 0.818846L10.5231 0.818826L10.5231 0.818806L10.5231 0.818786L10.5231 0.818766L10.5231 0.818746L10.5231 0.818725L10.5231 0.818705L10.5231 0.818685L10.5231 0.818665L10.5231 0.818645L10.5231 0.818625L10.5231 0.818605L10.5231 0.818584L10.5231 0.818564L10.5231 0.818544L10.5231 0.818524L10.5231 0.818504L10.5231 0.818484L10.5231 0.818463L10.5231 0.818443L10.5231 0.818423L10.5231 0.818403L10.5231 0.818383L10.5231 0.818363L10.5231 0.818342L10.5231 0.818322L10.5231 0.818302L10.5231 0.818282L10.5231 0.818262L10.5231 0.818242L10.5231 0.818222L10.5231 0.818201L10.5231 0.818181L10.5231 0.818161L10.5231 0.818141L10.5231 0.818121L10.5231 0.818101L10.5231 0.81808L10.5231 0.81806L10.5231 0.81804L10.5231 0.81802L10.5231 0.818L10.5231 0.81798L10.5231 0.817959L10.5231 0.817939L10.5231 0.817919L10.5231 0.817899L10.5231 0.817879L10.5231 0.817859L10.5231 0.817839L10.5231 0.817818L10.5231 0.817798L10.5231 0.817778L10.5231 0.817758L10.5231 0.817738L10.5231 0.817718L10.5231 0.817697L10.5231 0.817677L10.5231 0.817657L10.5231 0.817637L10.5231 0.817617L10.5231 0.817597L10.5231 0.817576L10.5231 0.817556L10.5231 0.817536L10.5231 0.817516L10.5231 0.817496L10.5231 0.817476L10.5231 0.817456L10.5231 0.817435L10.5231 0.817415L10.5231 0.817395L10.5231 0.817375L10.5231 0.817355L10.5231 0.817335L10.5231 0.817314L10.5231 0.817294L10.5231 0.817274L10.5231 0.817254L10.5231 0.817234L10.5231 0.817214L10.5231 0.817193L10.5231 0.817173L10.5231 0.817153L10.5231 0.817133L10.5231 0.817113L10.5231 0.817093L10.5231 0.817073L10.5231 0.817052L10.5231 0.817032L10.5231 0.817012L10.5231 0.816992L10.5231 0.816972L10.5231 0.816952L10.5231 0.816931L10.5231 0.816911L10.5231 0.816891L10.5231 0.816871L10.5231 0.816851L10.5231 0.816831L10.5231 0.81681L10.5231 0.81679L10.5231 0.81677L10.5231 0.81675L10.5231 0.81673L10.5231 0.81671L10.5231 0.81669L10.5231 0.816669L10.5231 0.816649L10.5231 0.816629L10.5231 0.816609L10.5231 0.816589L10.5231 0.816569L10.5231 0.816548L10.5231 0.816528L10.5231 0.816508L10.5231 0.816488L10.5231 0.816468L10.5231 0.816448L10.5231 0.816427L10.5231 0.816407L10.5231 0.816387L10.5231 0.816367L10.5231 0.816347L10.5231 0.816327L10.5231 0.816307L10.5231 0.816286L10.5231 0.816266L10.5231 0.816246L10.5231 0.816226L10.5231 0.816206L10.5231 0.816186L10.5231 0.816165L10.5231 0.816145L10.5231 0.816125L10.5231 0.816105L10.5231 0.816085L10.5231 0.816065L10.5231 0.816044L10.5231 0.816024L10.5231 0.816004L10.5231 0.815984L10.5231 0.815964L10.5231 0.815944L10.5231 0.815924L10.5231 0.815903L10.5231 0.815883L10.5231 0.815863L10.5231 0.815843L10.5231 0.815823L10.5231 0.815803L10.5231 0.815782L10.5231 0.815762L10.5231 0.815742L10.5231 0.815722L10.5231 0.815702L10.5231 0.815682L10.5231 0.815661L10.5231 0.815641L10.5231 0.815621L10.5231 0.815601L10.5231 0.815581L10.5231 0.815561L10.5231 0.815541L10.5231 0.81552L10.5231 0.8155L10.5231 0.81548L10.5231 0.81546L10.5231 0.81544L10.5231 0.81542L10.5231 0.815399L10.5231 0.815379L10.5231 0.815359L10.5231 0.815339L10.5231 0.815319L10.5231 0.815299L10.5231 0.815278L10.5231 0.815258L10.5231 0.815238L10.5231 0.815218L10.5231 0.815198L10.5231 0.815178L10.5231 0.815158L10.5231 0.815137L10.5231 0.815117L10.5231 0.815097L10.5231 0.815077L10.5231 0.815057L10.5231 0.815037L10.5231 0.815016L10.5231 0.814996L10.5231 0.814976L10.5231 0.814956L10.5231 0.814936L10.5231 0.814916L10.5231 0.814895L10.5231 0.814875L10.5231 0.814855L10.5231 0.814835L10.5231 0.814815L10.5231 0.814795L10.5231 0.814775L10.5231 0.814754L10.5231 0.814734L10.5231 0.814714L10.5231 0.814694L10.5231 0.814674L10.5231 0.814654L10.5231 0.814633L10.5231 0.814613L10.5231 0.814593L10.5231 0.814573L10.5231 0.814553L10.5231 0.814533L10.5231 0.814512L10.5231 0.814492L10.5231 0.814472L10.5231 0.814452L10.5231 0.814432L10.5231 0.814412L10.5231 0.814391L10.5231 0.814371L10.5231 0.814351L10.5231 0.814331L10.5231 0.814311L10.5231 0.814291L10.5231 0.814271L10.5231 0.81425L10.5231 0.81423L10.5231 0.81421L10.5231 0.81419L10.5231 0.81417L10.5231 0.81415L10.5231 0.814129L10.5231 0.814109L10.5231 0.814089L10.5231 0.814069L10.5231 0.814049L10.5231 0.814029L10.5231 0.814009L10.5231 0.813988L10.5231 0.813968L10.5231 0.813948L10.5231 0.813928L10.5231 0.813908L10.5231 0.813888L10.5231 0.813867L10.5231 0.813847L10.5231 0.813827L10.5231 0.813807L10.5231 0.813787L10.5231 0.813767L10.5231 0.813746L10.5231 0.813726L10.5231 0.813706L10.5231 0.813686L10.5231 0.813666L10.5231 0.813646L10.5231 0.813625L10.5231 0.813605L10.5231 0.813585L10.5231 0.813565L10.5231 0.813545L10.5231 0.813525L10.5231 0.813505L10.5231 0.813484L10.5231 0.813464L10.5231 0.813444C10.5231 0.689098 10.4769 0.568185 10.3918 0.476885L10.3917 0.476803C10.3024 0.381231 10.1828 0.32905 10.0559 0.324732L10.0559 0.324731L10.0554 0.324717C9.90768 0.320406 9.76811 0.384462 9.67449 0.499185L9.67446 0.499207L9.67425 0.498999L9.66929 0.504909L5.72328 5.20949L1.76568 0.486617C1.6901 0.385113 1.58067 0.316591 1.45456 0.295127C1.32455 0.273 1.19577 0.308719 1.09425 0.386362C0.883752 0.545634 0.836883 0.848841 0.990413 1.0647C1.00584 1.08958 1.02446 1.10888 1.0364 1.12104L1.05035 1.13814L1.05034 1.13815L1.05117 1.13914L5.36017 6.28253C5.53457 6.49104 5.83745 6.51225 6.04073 6.33926L6.05658 6.32577L6.06468 6.30922L6.06808 6.3048L6.07649 6.29463C6.0796 6.2909 6.08333 6.28639 6.08724 6.28143L10.4014 1.13651C10.4738 1.05341 10.5146 0.94667 10.5228 0.838158Z" fill="white" stroke="white" stroke-width="0.2"/>
</svg>
