<svg width="20" height="20" viewBox="0 0 20 20" fill="none" xmlns="http://www.w3.org/2000/svg">
<g clip-path="url(#clip0_1721_21944)">
<path d="M18.9971 2.00141C18.444 2.00141 17.9987 2.45137 17.9987 2.99977V4.00281C16.1426 1.53269 13.1991 0 9.99776 0C5.29656 0 1.28906 3.19662 0.24852 7.77595C0.126654 8.31497 0.464128 8.84931 1.00315 8.97117C1.07814 8.98992 1.15314 8.99461 1.22344 8.99461C1.6781 8.99461 2.09056 8.68057 2.19837 8.21655C3.02799 4.56058 6.23868 2.00141 9.99776 2.00141C12.8803 2.00141 15.5005 3.56691 16.9113 5.99953H14.9989C14.4458 5.99953 14.0006 6.4495 14.0006 6.99789C14.0006 7.54629 14.4458 7.99625 14.9989 7.99625H18.9971C19.5501 7.99625 19.9954 7.54629 19.9954 6.99789V2.99977C20.0001 2.44668 19.5501 2.00141 18.9971 2.00141Z" fill="#1F2123"/>
<path d="M0.998359 17.9985C1.55144 17.9985 1.99672 17.5486 1.99672 17.0002V15.9737C3.8622 18.486 6.78228 20 9.99766 20C14.6989 20 18.711 16.8033 19.7516 12.224C19.8734 11.685 19.536 11.1506 18.997 11.0288C18.4532 10.9022 17.9236 11.2444 17.8017 11.7834C16.9674 15.4394 13.7614 17.9985 9.99766 17.9985C7.11038 17.9985 4.5184 16.4705 3.08882 14.0004H4.99648C5.54957 14.0004 5.99484 13.5505 5.99484 13.0021C5.99484 12.4537 5.54957 12.0037 4.99648 12.0037H0.998359C0.445278 11.999 0 12.449 0 12.9974V16.9955C0 17.5486 0.445278 17.9985 0.998359 17.9985Z" fill="#1F2123"/>
</g>
<defs>
<clipPath id="clip0_1721_21944">
<rect width="20" height="20" fill="white"/>
</clipPath>
</defs>
</svg>
