<svg width="21" height="22" viewBox="0 0 21 22" fill="none" xmlns="http://www.w3.org/2000/svg">
<g clip-path="url(#clip0_348_161)">
<path d="M20.2064 5.47419C20.2058 5.38683 20.1862 5.30157 20.1484 5.22152C20.074 5.06277 19.9286 4.94643 19.7587 4.90923L10.7853 0.556887C10.6283 0.481024 10.431 0.480985 10.2737 0.557085L1.20933 4.95053C1.01978 5.04065 0.8921 5.2282 0.876185 5.43991L0.875 5.45543V16.5118C0.875 16.7392 1.00204 16.941 1.20428 17.0375L10.2478 21.4207L10.3252 21.4552L10.425 21.4887L10.4798 21.492C10.4842 21.4923 10.4882 21.4927 10.4916 21.4931L10.5625 21.5L10.5956 21.4918H10.629L10.7727 21.4439L10.7853 21.4355L19.8848 17.0248C20.0855 16.9268 20.2152 16.7202 20.2152 16.4985V5.51443L20.2064 5.47419ZM15.3454 11.5519C15.6682 11.5519 15.9307 11.2894 15.9307 10.9666V7.91191L19.0359 6.40614V16.1239L11.1128 19.9703V10.2525L14.7601 8.48232V10.9666C14.7601 11.2893 15.0227 11.5519 15.3454 11.5519ZM7.76059 3.07624L10.5275 1.73274L18.2623 5.48303L15.4953 6.82653L7.76059 3.07624ZM6.41934 3.72512L14.154 7.47541L10.5276 9.23337L2.7929 5.48303L6.41934 3.72512ZM2.04568 16.1415V6.42372L9.94225 10.2525V19.9703L2.04568 16.1415Z" fill="white"/>
</g>
<defs>
<clipPath id="clip0_348_161">
<rect width="21" height="21" fill="white" transform="translate(0 0.5)"/>
</clipPath>
</defs>
</svg>
