<svg width="21" height="22" viewBox="0 0 21 22" fill="none" xmlns="http://www.w3.org/2000/svg">
<path d="M19.7695 3.125H6.23438C5.55585 3.125 5.00391 3.67695 5.00391 4.35547H0.615234C0.275414 4.35547 0 4.63088 0 4.9707V18.5059C0 18.8457 0.275414 19.1211 0.615234 19.1211H6.76758C7.1074 19.1211 7.38281 18.8457 7.38281 18.5059V15.4297H10.541V17.8906H9.31055C8.97073 17.8906 8.69531 18.166 8.69531 18.5059C8.69531 18.8457 8.97073 19.1211 9.31055 19.1211H16.6934C17.0332 19.1211 17.3086 18.8457 17.3086 18.5059C17.3086 18.166 17.0332 17.8906 16.6934 17.8906H15.4629V15.4297H19.7695C20.4481 15.4297 21 14.8777 21 14.1992V4.35547C21 3.67695 20.4481 3.125 19.7695 3.125ZM1.23047 8.04688H5.00391V9.27734H1.23047V8.04688ZM5.00391 5.58594V6.81641H1.23047V5.58594H5.00391ZM1.23047 17.8906V10.5078H5.00391V14.1992C5.00391 14.85 5.51196 15.3842 6.15234 15.4266V17.8906H1.23047ZM14.2324 17.8906H11.7715V15.4297H14.2324V17.8906ZM19.7695 14.1992H6.23438V4.35547H19.7695V14.1992Z" fill="white"/>
<path d="M4.30664 16.4961C4.30664 16.8359 4.03123 17.1113 3.69141 17.1113C3.35159 17.1113 3.07617 16.8359 3.07617 16.4961C3.07617 16.1563 3.35159 15.8809 3.69141 15.8809C4.03123 15.8809 4.30664 16.1563 4.30664 16.4961Z" fill="white"/>
</svg>
