<svg width="42" height="42" viewBox="0 0 42 42" fill="none" xmlns="http://www.w3.org/2000/svg">
<path d="M30.5926 14.5328H31.9657C32.5906 14.5328 33.0941 15.0363 33.0941 15.6612C33.0941 16.2861 32.5906 16.7896 31.9657 16.7896H30.5926C29.9677 16.7896 29.4642 16.2861 29.4642 15.6612C29.4642 15.0363 29.9677 14.5328 30.5926 14.5328Z" fill="#1F67D2" stroke="white" stroke-width="0.1"/>
<path d="M15.5172 25.5082H26.4828C27.1077 25.5082 27.6112 26.0117 27.6112 26.6366C27.6112 27.2615 27.1077 27.765 26.4828 27.765H15.5172C14.8923 27.765 14.3888 27.2615 14.3888 26.6366C14.3888 26.0117 14.8923 25.5082 15.5172 25.5082Z" fill="#1F67D2" stroke="white" stroke-width="0.1"/>
<path d="M30.5926 20.0157H31.9657C32.5906 20.0157 33.0941 20.5192 33.0941 21.144C33.0941 21.7689 32.5906 22.2724 31.9657 22.2724H30.5926C29.9677 22.2724 29.4642 21.7689 29.4642 21.144C29.4642 20.5192 29.9677 20.0157 30.5926 20.0157Z" fill="#1F67D2" stroke="white" stroke-width="0.1"/>
<path d="M10.0343 20.0157H11.4075C12.0229 20.0157 12.5358 20.5194 12.5358 21.144C12.5358 21.7689 12.0323 22.2724 11.4075 22.2724H10.0343C9.40946 22.2724 8.90596 21.7689 8.90596 21.144C8.90596 20.5192 9.40946 20.0157 10.0343 20.0157Z" fill="#1F67D2" stroke="white" stroke-width="0.1"/>
<path d="M18.2634 16.7896H16.8903C16.2654 16.7896 15.7619 16.2861 15.7619 15.6612C15.7619 15.0363 16.2654 14.5328 16.8903 14.5328H18.2634C18.8883 14.5328 19.3918 15.0363 19.3918 15.6612C19.3918 16.2861 18.8883 16.7896 18.2634 16.7896Z" fill="#1F67D2" stroke="white" stroke-width="0.1"/>
<path d="M18.2634 22.2724H16.8903C16.2654 22.2724 15.7619 21.7689 15.7619 21.144C15.7619 20.5192 16.2654 20.0157 16.8903 20.0157H18.2634C18.8883 20.0157 19.3918 20.5192 19.3918 21.144C19.3918 21.7689 18.8883 22.2724 18.2634 22.2724Z" fill="#1F67D2" stroke="white" stroke-width="0.1"/>
<path d="M5.91492 9.05H36.0851C38.2194 9.05 39.95 10.7902 39.95 12.9149V29.3731C39.95 31.4978 38.2194 33.2381 36.0851 33.2381H5.91492C3.79022 33.2381 2.05 31.5074 2.05 29.3731V12.9149C2.05 10.7903 3.7903 9.05 5.91492 9.05ZM36.0851 30.9911C36.9794 30.9911 37.703 30.2675 37.703 29.3731V12.9149C37.703 12.0206 36.9794 11.297 36.0851 11.297H5.91492C5.02057 11.297 4.297 12.0206 4.297 12.9149V29.3731C4.297 30.2675 5.02057 30.9911 5.91492 30.9911H36.0851Z" fill="#1F67D2" stroke="white" stroke-width="0.1"/>
<path d="M25.1194 16.7896H23.7463C23.1214 16.7896 22.6179 16.2861 22.6179 15.6612C22.6179 15.0363 23.1214 14.5328 23.7463 14.5328H25.1194C25.7443 14.5328 26.2478 15.0363 26.2478 15.6612C26.2478 16.2861 25.7443 16.7896 25.1194 16.7896Z" fill="#1F67D2" stroke="white" stroke-width="0.1"/>
<path d="M10.0343 14.5328H11.4075C12.0229 14.5328 12.5358 15.0366 12.5358 15.6612C12.5358 16.2861 12.0323 16.7896 11.4075 16.7896H10.0343C9.40946 16.7896 8.90596 16.2861 8.90596 15.6612C8.90596 15.0363 9.40946 14.5328 10.0343 14.5328Z" fill="#1F67D2" stroke="white" stroke-width="0.1"/>
<path d="M25.1194 22.2724H23.7463C23.1214 22.2724 22.6179 21.7689 22.6179 21.144C22.6179 20.5192 23.1214 20.0157 23.7463 20.0157H25.1194C25.7443 20.0157 26.2478 20.5192 26.2478 21.144C26.2478 21.7689 25.7443 22.2724 25.1194 22.2724Z" fill="#1F67D2" stroke="white" stroke-width="0.1"/>
</svg>
