<svg width="21" height="22" viewBox="0 0 21 22" fill="none" xmlns="http://www.w3.org/2000/svg">
<g clip-path="url(#clip0_348_111)">
<path d="M11.25 16.625H1.5V9.125H15.75C15.9489 9.125 16.1397 9.04598 16.2803 8.90533C16.421 8.76468 16.5 8.57391 16.5 8.375C16.5 8.17609 16.421 7.98532 16.2803 7.84467C16.1397 7.70402 15.9489 7.625 15.75 7.625H11.25V6.875C11.25 6.67609 11.329 6.48532 11.4697 6.34467C11.6103 6.20402 11.8011 6.125 12 6.125C12.5967 6.125 13.169 5.88795 13.591 5.46599C14.0129 5.04403 14.25 4.47174 14.25 3.875C14.25 3.67609 14.171 3.48532 14.0303 3.34467C13.8897 3.20402 13.6989 3.125 13.5 3.125C13.3011 3.125 13.1103 3.20402 12.9697 3.34467C12.829 3.48532 12.75 3.67609 12.75 3.875C12.75 4.07391 12.671 4.26468 12.5303 4.40533C12.3897 4.54598 12.1989 4.625 12 4.625C11.4033 4.625 10.831 4.86205 10.409 5.28401C9.98705 5.70597 9.75 6.27826 9.75 6.875V7.625H1.5C1.10218 7.625 0.720644 7.78304 0.43934 8.06434C0.158035 8.34564 0 8.72718 0 9.125V16.625C0 17.0228 0.158035 17.4044 0.43934 17.6857C0.720644 17.967 1.10218 18.125 1.5 18.125H11.25C11.4489 18.125 11.6397 18.046 11.7803 17.9053C11.921 17.7647 12 17.5739 12 17.375C12 17.1761 11.921 16.9853 11.7803 16.8447C11.6397 16.704 11.4489 16.625 11.25 16.625Z" fill="white"/>
<path d="M11.25 13.625H7.5C7.30109 13.625 7.11032 13.704 6.96967 13.8447C6.82902 13.9853 6.75 14.1761 6.75 14.375C6.75 14.5739 6.82902 14.7647 6.96967 14.9053C7.11032 15.046 7.30109 15.125 7.5 15.125H11.25C11.4489 15.125 11.6397 15.046 11.7803 14.9053C11.921 14.7647 12 14.5739 12 14.375C12 14.1761 11.921 13.9853 11.7803 13.8447C11.6397 13.704 11.4489 13.625 11.25 13.625Z" fill="white"/>
<path d="M3.75 13.625C3.55109 13.625 3.36032 13.704 3.21967 13.8447C3.07902 13.9853 3 14.1761 3 14.375C3 14.5739 3.07902 14.7647 3.21967 14.9053C3.36032 15.046 3.55109 15.125 3.75 15.125H4.5C4.69891 15.125 4.88968 15.046 5.03033 14.9053C5.17098 14.7647 5.25 14.5739 5.25 14.375C5.25 14.1761 5.17098 13.9853 5.03033 13.8447C4.88968 13.704 4.69891 13.625 4.5 13.625H3.75Z" fill="white"/>
<path d="M6 11.375C6 11.1761 5.92098 10.9853 5.78033 10.8447C5.63968 10.704 5.44891 10.625 5.25 10.625H3.75C3.55109 10.625 3.36032 10.704 3.21967 10.8447C3.07902 10.9853 3 11.1761 3 11.375C3 11.5739 3.07902 11.7647 3.21967 11.9053C3.36032 12.046 3.55109 12.125 3.75 12.125H5.25C5.44891 12.125 5.63968 12.046 5.78033 11.9053C5.92098 11.7647 6 11.5739 6 11.375Z" fill="white"/>
<path d="M8.25 10.625C8.05109 10.625 7.86032 10.704 7.71967 10.8447C7.57902 10.9853 7.5 11.1761 7.5 11.375C7.5 11.5739 7.57902 11.7647 7.71967 11.9053C7.86032 12.046 8.05109 12.125 8.25 12.125H9C9.19891 12.125 9.38968 12.046 9.53033 11.9053C9.67098 11.7647 9.75 11.5739 9.75 11.375C9.75 11.1761 9.67098 10.9853 9.53033 10.8447C9.38968 10.704 9.19891 10.625 9 10.625H8.25Z" fill="white"/>
<path d="M17.25 14.375C17.0511 14.375 16.8603 14.454 16.7197 14.5947C16.579 14.7353 16.5 14.9261 16.5 15.125V15.875C16.5 16.0739 16.579 16.2647 16.7197 16.4053C16.8603 16.546 17.0511 16.625 17.25 16.625C17.4489 16.625 17.6397 16.546 17.7803 16.4053C17.921 16.2647 18 16.0739 18 15.875V15.125C18 14.9261 17.921 14.7353 17.7803 14.5947C17.6397 14.454 17.4489 14.375 17.25 14.375Z" fill="white"/>
<path d="M12.75 10.625H12C11.8011 10.625 11.6103 10.704 11.4697 10.8447C11.329 10.9853 11.25 11.1761 11.25 11.375C11.25 11.5739 11.329 11.7647 11.4697 11.9053C11.6103 12.046 11.8011 12.125 12 12.125H12.75C12.9489 12.125 13.1397 12.046 13.2803 11.9053C13.421 11.7647 13.5 11.5739 13.5 11.375C13.5 11.1761 13.421 10.9853 13.2803 10.8447C13.1397 10.704 12.9489 10.625 12.75 10.625Z" fill="white"/>
<path d="M18.75 10.625C19.3467 10.625 19.919 10.3879 20.341 9.96599C20.7629 9.54403 21 8.97174 21 8.375V3.875C21 3.67609 20.921 3.48532 20.7803 3.34467C20.6397 3.20402 20.4489 3.125 20.25 3.125C20.0511 3.125 19.8603 3.20402 19.7197 3.34467C19.579 3.48532 19.5 3.67609 19.5 3.875V8.375C19.5 8.57391 19.421 8.76468 19.2803 8.90533C19.1397 9.04598 18.9489 9.125 18.75 9.125C18.1533 9.125 17.581 9.36205 17.159 9.78401C16.7371 10.206 16.5 10.7783 16.5 11.375V12.125C15.7044 12.125 14.9413 12.4411 14.3787 13.0037C13.8161 13.5663 13.5 14.3294 13.5 15.125V17.375C13.5 18.3696 13.8951 19.3234 14.5983 20.0266C15.3016 20.7299 16.2554 21.125 17.25 21.125C18.2446 21.125 19.1984 20.7299 19.9017 20.0266C20.6049 19.3234 21 18.3696 21 17.375V15.125C21 14.3294 20.6839 13.5663 20.1213 13.0037C19.5587 12.4411 18.7956 12.125 18 12.125V11.375C18 11.1761 18.079 10.9853 18.2197 10.8447C18.3603 10.704 18.5511 10.625 18.75 10.625ZM19.5 15.125V17.375C19.5 17.9717 19.2629 18.544 18.841 18.966C18.419 19.3879 17.8467 19.625 17.25 19.625C16.6533 19.625 16.081 19.3879 15.659 18.966C15.2371 18.544 15 17.9717 15 17.375V15.125C15 14.7272 15.158 14.3456 15.4393 14.0643C15.7206 13.783 16.1022 13.625 16.5 13.625H18C18.3978 13.625 18.7794 13.783 19.0607 14.0643C19.342 14.3456 19.5 14.7272 19.5 15.125Z" fill="white"/>
</g>
<defs>
<clipPath id="clip0_348_111">
<rect width="21" height="21" fill="white" transform="translate(0 0.5)"/>
</clipPath>
</defs>
</svg>
