<svg width="21" height="22" viewBox="0 0 21 22" fill="none" xmlns="http://www.w3.org/2000/svg">
<g clip-path="url(#clip0_348_166)">
<path d="M9.69164 8.81572V9.90018C9.69164 10.2309 9.75737 10.5077 9.88703 10.7228C10.0641 11.0166 10.3549 11.1852 10.6848 11.1852C11.0102 11.1851 11.3348 11.0256 11.6494 10.7111L15.1467 7.2137C15.9027 6.4576 15.9027 5.22746 15.1467 4.47143L11.6494 0.97408C11.3348 0.659505 11.0102 0.5 10.6847 0.5C10.2266 0.5 9.69164 0.836534 9.69164 1.78502V2.7756C4.72802 3.05505 0.614718 6.85946 0.00437513 11.8433C-0.0280685 12.1083 0.122492 12.3618 0.37075 12.46C0.441026 12.4878 0.514161 12.5012 0.586417 12.5012C0.769348 12.5012 0.94689 12.4154 1.05991 12.261C2.70434 10.0143 5.34452 8.67301 8.12239 8.67301C8.6456 8.67297 9.17162 8.72092 9.69164 8.81572ZM1.68726 9.87338C3.00572 6.37299 6.39009 3.93217 10.2782 3.93217C10.6021 3.93217 10.8647 3.66954 10.8647 3.34562V1.84848L14.3172 5.30092C14.6158 5.59955 14.6158 6.08551 14.3172 6.38417L10.8647 9.83665V8.3394C10.8647 8.06746 10.6778 7.83119 10.4132 7.76862C9.65916 7.5903 8.88839 7.49987 8.12239 7.49987C6.53647 7.49987 4.95894 7.88369 3.56027 8.60984C2.89145 8.95704 2.26201 9.38262 1.68726 9.87338Z" fill="white"/>
<path d="M17.986 9.54015C17.7377 9.44194 17.4545 9.52369 17.2968 9.73914C15.6525 11.9857 13.0122 13.327 10.2343 13.327C9.7112 13.327 9.18518 13.2791 8.66512 13.1843V12.0999C8.66512 11.1514 8.13019 10.8149 7.67209 10.8149C7.34659 10.8149 7.02205 10.9744 6.70747 11.2891L3.21009 14.7864C2.45406 15.5424 2.45406 16.7726 3.21009 17.5286L6.70747 21.026C7.02208 21.3405 7.34663 21.5 7.67209 21.5C8.13019 21.5 8.66516 21.1635 8.66516 20.215V19.2245C13.6288 18.945 17.7421 15.1406 18.3524 10.1568C18.3848 9.89186 18.2342 9.63839 17.986 9.54015ZM8.07857 18.0679C7.75465 18.0679 7.49202 18.3305 7.49202 18.6544V20.1515L4.03958 16.6992C3.74092 16.4005 3.74095 15.9146 4.03958 15.6159L7.49202 12.1635V13.6607C7.49202 13.9326 7.67899 14.1689 7.94367 14.2315C8.69779 14.4097 9.46848 14.5001 10.2343 14.5001C11.8203 14.5001 13.3978 14.1163 14.7965 13.3902C15.4653 13.043 16.0947 12.6174 16.6695 12.1267C15.351 15.627 11.9667 18.0679 8.07857 18.0679Z" fill="white"/>
</g>
<defs>
<clipPath id="clip0_348_166">
<rect width="21" height="21" fill="white" transform="translate(0 0.5)"/>
</clipPath>
</defs>
</svg>
