<svg width="19" height="18" viewBox="0 0 19 18" fill="none" xmlns="http://www.w3.org/2000/svg">
<g clip-path="url(#clip0_813_15696)">
<path d="M9.5 0C4.52991 0 0.5 4.02991 0.5 9C0.5 13.9701 4.52991 18 9.5 18C14.4701 18 18.5 13.9701 18.5 9C18.496 4.02991 14.4701 0.00401786 9.5 0ZM14.3696 3.15L12.3969 5.12277C10.6812 3.82902 8.31875 3.82902 6.60312 5.12277L4.63036 3.15C7.45491 0.803571 11.5491 0.803571 14.3696 3.15ZM9.5 12.4634C7.5875 12.4634 6.03661 10.9125 6.03661 9C6.03661 7.0875 7.5875 5.53661 9.5 5.53661C11.4125 5.53661 12.9634 7.0875 12.9634 9C12.9594 10.9125 11.4125 12.4594 9.5 12.4634ZM3.65 4.13036L5.62277 6.10312C4.32902 7.81875 4.32902 10.1812 5.62277 11.8969L3.65 13.8696C1.30357 11.0451 1.30357 6.95491 3.65 4.13036ZM4.63036 14.85L6.60312 12.8772C8.31875 14.171 10.6812 14.171 12.3969 12.8772L14.3696 14.85C11.5451 17.1964 7.45089 17.1964 4.63036 14.85ZM15.35 13.8696L13.3772 11.8969C14.671 10.1812 14.671 7.81875 13.3772 6.10312L15.35 4.13036C17.6964 6.95491 17.6964 11.0491 15.35 13.8696Z" fill="#1F67D2"/>
</g>
<defs>
<clipPath id="clip0_813_15696">
<rect width="18" height="18" fill="white" transform="translate(0.5)"/>
</clipPath>
</defs>
</svg>
