<svg width="42" height="42" viewBox="0 0 42 42" fill="none" xmlns="http://www.w3.org/2000/svg">
<path d="M38.6801 9.06829H8.63377C8.0739 9.06829 7.61225 9.52011 7.61225 10.0898C7.61225 10.6497 8.06408 11.1113 8.63377 11.1113H38.6703C39.3775 11.1113 39.957 11.6908 39.957 12.398V29.1155C39.957 29.8227 39.3775 30.4022 38.6703 30.4022C30.5472 30.4022 25.7638 30.4022 23.043 30.4022H22.5912C22.0608 30.4022 18.0239 30.4022 4.34144 30.4022V6.57343C4.34144 5.1492 3.19224 4 1.77783 4H1.02152C0.451824 4 0 4.45182 0 5.02152C0 5.58138 0.451824 6.04303 1.02152 6.04303H1.77783C2.0725 6.04303 2.30823 6.27877 2.30823 6.57343V32.2685V36.5019C2.30823 36.5117 2.30823 36.5117 2.30823 36.5215V36.5804C2.30823 36.6001 2.31805 36.6296 2.31805 36.6492C2.39663 37.1403 2.81899 37.5136 3.31993 37.5136C3.87979 37.5136 4.34144 37.0617 4.34144 36.492V32.4355H8.41768V33.3882C8.41768 34.6749 9.45884 35.7161 10.7456 35.7161H23.819C25.1057 35.7161 26.1469 34.6749 26.1469 33.3882C26.1469 32.956 25.8817 32.5926 25.4986 32.4355H38.6801C40.5168 32.4355 42 30.9425 42 29.1155V12.398C42 10.5613 40.507 9.06829 38.6801 9.06829ZM24.1137 33.3784C24.1137 33.5454 23.986 33.6731 23.819 33.6731H10.7456C10.5786 33.6731 10.4509 33.5454 10.4509 33.3784V32.4256H24.7619C24.3789 32.5828 24.1137 32.956 24.1137 33.3784Z" fill="#1F67D2"/>
<path d="M30.5276 28.811C34.9672 28.811 38.5818 25.1964 38.5818 20.7568C38.5818 18.6352 37.7469 16.6216 36.2343 15.0893C34.702 13.5472 32.6787 12.6927 30.5276 12.6927C26.0879 12.6927 22.4733 16.3073 22.4733 20.7568C22.4733 25.1964 26.0879 28.811 30.5276 28.811ZM26.4513 21.8961C26.7165 21.8274 26.9326 21.6604 27.0701 21.4247C27.0996 21.3756 27.1193 21.3265 27.1389 21.2773C27.2371 21.9158 27.5023 22.4757 27.8756 22.9177C27.6988 22.8686 27.5121 22.8587 27.3353 22.9078C27.0701 22.9766 26.8541 23.1436 26.7165 23.3695C26.4513 23.8115 26.2254 24.2731 26.0388 24.7446C25.4593 24.0963 25.0369 23.34 24.7816 22.5248C25.3021 22.2596 25.862 22.0435 26.4513 21.8961ZM29.1426 20.7666L29.1525 20.6684C29.1819 19.9513 29.8007 19.3718 30.5276 19.362L30.6258 19.3718C31.2544 19.4013 31.9223 19.9317 31.9322 20.7469L31.9223 20.8452C31.8929 21.5524 31.2741 22.1417 30.5472 22.1417L30.4588 22.1319C29.7222 22.0926 29.1426 21.4836 29.1426 20.7666ZM28.4649 24.4205C28.6319 24.1454 28.6515 23.8115 28.5337 23.5365C28.9658 23.841 29.4471 24.0472 29.9382 24.1258C29.6829 24.3615 29.5552 24.7348 29.6436 25.0982C29.7811 25.6777 29.9579 26.2278 30.1838 26.768C29.3194 26.7287 28.4944 26.493 27.7282 26.0903C27.8952 25.5107 28.1506 24.9607 28.4649 24.4205ZM32.2563 23.7034C32.3251 23.9195 32.4626 24.116 32.659 24.2535C33.2484 24.6562 33.877 24.9902 34.5351 25.2455C33.8868 25.8152 33.1403 26.2474 32.3152 26.5028C32.0107 25.9233 31.7848 25.2947 31.6277 24.6366C31.5786 24.4106 31.4509 24.224 31.2839 24.0865C31.6277 24.0079 31.9518 23.8802 32.2563 23.7034ZM33.8966 21.3461C33.9556 21.405 34.0243 21.464 34.0931 21.5131C34.3288 21.6604 34.594 21.6997 34.8592 21.6408C35.4387 21.5033 35.9986 21.3265 36.529 21.1005C36.4799 21.9649 36.2441 22.7998 35.8414 23.5659C35.1244 23.34 34.427 23.0061 33.7788 22.5641C33.6904 22.5051 33.5921 22.456 33.4939 22.4364C33.6904 22.0926 33.8279 21.7292 33.8966 21.3461ZM34.4074 19.6567C34.1913 19.7058 34.0047 19.8237 33.8672 19.9906C33.7591 19.4995 33.543 19.0673 33.268 18.7039C33.6609 18.7628 34.0636 18.586 34.2895 18.2226C34.5744 17.7512 34.8199 17.26 35.0262 16.7493C35.6057 17.3877 36.0281 18.144 36.2834 18.9691C35.6941 19.2736 35.0655 19.4995 34.4074 19.6567ZM32.5411 17.1618C32.4036 17.3877 32.3643 17.6529 32.4135 17.9083C31.9125 17.5744 31.333 17.3779 30.783 17.3484C30.6847 17.3386 30.5963 17.3386 30.5276 17.3386C29.6927 17.3386 28.9364 17.6333 28.3372 18.1342C28.4846 17.6922 28.3078 17.1913 27.8854 16.9457C27.4434 16.6805 26.9916 16.4644 26.5201 16.2778C27.1684 15.6983 27.9247 15.2759 28.7399 15.0206C28.9953 15.5117 29.2016 16.0421 29.3489 16.5921C29.4962 17.1324 30.0561 17.4565 30.5963 17.3092C30.8615 17.2404 31.0776 17.0734 31.2151 16.8377C31.3527 16.6019 31.3821 16.3269 31.3134 16.0617C31.1955 15.6099 31.0383 15.1777 30.8615 14.7554C31.7259 14.7947 32.551 15.0304 33.3269 15.4331C33.1403 16.0224 32.8751 16.6019 32.5411 17.1618ZM27.7479 18.753C27.3943 19.2441 27.1684 19.8335 27.1094 20.4719C27.021 20.2853 26.8835 20.138 26.7067 20.0299C26.471 19.8924 26.196 19.8531 25.9406 19.9219C25.4495 20.0496 24.978 20.2067 24.5065 20.413C24.5556 19.5486 24.7914 18.7137 25.1941 17.9476C25.7638 18.1244 26.3237 18.37 26.8442 18.6843C27.1389 18.8611 27.463 18.8709 27.7479 18.753Z" fill="#1F67D2"/>
<path d="M9.11503 27.3671L9.1445 27.3966L9.21325 27.4261C9.2329 27.4359 9.31148 27.485 9.37041 27.5243C9.93028 27.8779 11.4331 28.8012 13.7119 28.8012C16.3737 28.8012 18.8587 27.4948 20.3615 25.2946L20.3812 25.2652C21.2848 23.9294 21.7661 22.3676 21.7661 20.7469C21.7661 16.2975 18.1515 12.6829 13.7119 12.6829C9.27219 12.6829 5.65759 16.2975 5.65759 20.7469C5.65759 24.5089 8.06405 26.6207 9.10521 27.3475C9.10521 27.3671 9.10521 27.3671 9.11503 27.3671ZM13.7904 17.2993C14.0556 17.2306 14.2717 17.0636 14.4092 16.8279C14.5467 16.5921 14.5762 16.3171 14.5075 16.0519C14.3896 15.6001 14.2324 15.1679 14.0556 14.7455C14.92 14.7848 15.7549 15.0206 16.521 15.4233C16.3344 16.0224 16.0692 16.6019 15.7352 17.1618C15.5977 17.3877 15.5584 17.6431 15.6075 17.8985C15.1263 17.5842 14.5762 17.3779 13.9771 17.3484C13.8788 17.3386 13.7904 17.3386 13.7217 17.3386C12.8868 17.3386 12.1305 17.6333 11.5313 18.1342C11.6786 17.6922 11.5018 17.1913 11.0795 16.9457C10.6375 16.6805 10.1857 16.4644 9.71419 16.2778C10.3625 15.6983 11.1188 15.2759 11.934 15.0206C12.1894 15.5117 12.3957 16.0421 12.543 16.5921C12.6805 17.1225 13.2404 17.4467 13.7904 17.2993ZM12.3171 20.7469C12.3171 20.7273 12.3171 20.6978 12.3269 20.6782C12.3564 19.9612 12.9752 19.3816 13.702 19.3718L13.8003 19.3816C14.4289 19.4111 15.0968 19.9415 15.1066 20.7568L15.0968 20.855C15.0673 21.5622 14.4485 22.1515 13.7217 22.1515L13.6333 22.1417C12.9948 22.1024 12.3367 21.572 12.3171 20.7469ZM15.4307 23.7034C15.4995 23.9195 15.637 24.116 15.8335 24.2535C16.4228 24.6562 17.0514 24.9902 17.7095 25.2455C17.0612 25.8152 16.3147 26.2474 15.4897 26.5028C15.1852 25.9233 14.9593 25.2946 14.8021 24.6366C14.753 24.4106 14.6253 24.224 14.4583 24.0865C14.8119 24.0079 15.1361 23.8802 15.4307 23.7034ZM11.6492 24.4205C11.8162 24.1454 11.8358 23.8115 11.7179 23.5365C12.1305 23.8311 12.6019 24.0374 13.1225 24.1258C12.8671 24.3615 12.7394 24.7348 12.818 25.0982C12.9555 25.6777 13.1323 26.2376 13.3582 26.768C12.4939 26.7189 11.659 26.4831 10.8929 26.0804C11.0795 25.5206 11.325 24.9607 11.6492 24.4205ZM17.0809 21.3461C17.1398 21.405 17.2086 21.464 17.2773 21.5131C17.5032 21.6604 17.7783 21.6997 18.0435 21.6408C18.623 21.5033 19.1829 21.3265 19.7133 21.1005C19.6641 21.9649 19.4284 22.7998 19.0355 23.5659C18.3185 23.34 17.6211 23.0061 16.9728 22.5641C16.8844 22.5051 16.796 22.4658 16.6978 22.4364C16.8844 22.1024 17.022 21.739 17.0809 21.3461ZM17.5818 19.6567C17.3559 19.7058 17.1693 19.8335 17.0416 19.9906C16.9336 19.5192 16.7273 19.0772 16.4424 18.6941C16.5701 18.7137 16.7076 18.7039 16.8353 18.6744C17.1005 18.6057 17.3264 18.4485 17.464 18.2128C17.7488 17.7413 17.9944 17.2502 18.2006 16.7395C18.7801 17.3779 19.2025 18.1342 19.4579 18.9593C18.8685 19.2736 18.2497 19.4995 17.5818 19.6567ZM10.8045 18.8021C10.8536 18.7923 10.8929 18.7727 10.9321 18.7628C10.5785 19.254 10.3526 19.8433 10.2937 20.4817C10.2053 20.2951 10.0678 20.1478 9.89099 20.0397C9.65525 19.9022 9.38023 19.8629 9.12485 19.9317C8.63374 20.0594 8.16227 20.2165 7.6908 20.4228C7.73991 19.5584 7.97565 18.7236 8.37836 17.9574C8.94805 18.1342 9.50792 18.3798 10.0285 18.6941C10.2642 18.8316 10.5393 18.8709 10.8045 18.8021ZM9.63561 21.8961C9.95974 21.8077 10.2151 21.572 10.333 21.2773C10.4312 21.8961 10.6964 22.4658 11.0795 22.9275C10.9027 22.8685 10.7161 22.8685 10.5294 22.9177C10.2642 22.9864 10.0481 23.1534 9.91063 23.3793C9.64543 23.8213 9.41952 24.283 9.2329 24.7544C8.65338 24.1062 8.23103 23.3498 7.97565 22.5346C8.4864 22.2596 9.04627 22.0435 9.63561 21.8961Z" fill="#1F67D2"/>
</svg>
