<svg width="20" height="20" viewBox="0 0 20 20" fill="none" xmlns="http://www.w3.org/2000/svg">
<g clip-path="url(#clip0_1709_25373)">
<path d="M16.9597 4.95971H16.5788V3.04029C16.5788 1.36264 15.2161 0 13.5385 0H6.46154C4.78388 0 3.42125 1.36264 3.42125 3.04029V4.95971H3.04029C1.36264 4.95971 0 6.32234 0 8V12.6154C0 14.293 1.36264 15.6557 3.04029 15.6557H3.42125V18.1136C3.42125 19.1538 4.2674 20 5.30769 20H14.6886C15.7289 20 16.5751 19.1538 16.5751 18.1136V15.6557H16.9597C18.6374 15.6557 20 14.293 20 12.6154V8C20 6.32601 18.6374 4.95971 16.9597 4.95971ZM4.88645 3.04029C4.88645 2.17216 5.59341 1.4652 6.46154 1.4652H13.5385C14.4066 1.4652 15.1136 2.17216 15.1136 3.04029V4.95971H4.88645V3.04029ZM15.1136 18.1136C15.1136 18.3443 14.9231 18.5348 14.6923 18.5348H5.30769C5.07692 18.5348 4.88645 18.3443 4.88645 18.1136V12.5788H15.1099V18.1136H15.1136ZM18.5348 12.6154C18.5348 13.4835 17.8278 14.1905 16.9597 14.1905H16.5788V12.5788H16.7692C17.1722 12.5788 17.5018 12.2491 17.5018 11.8462C17.5018 11.4432 17.1722 11.1136 16.7692 11.1136H15.8462H4.15385H3.23077C2.82784 11.1136 2.49817 11.4432 2.49817 11.8462C2.49817 12.2491 2.82784 12.5788 3.23077 12.5788H3.42125V14.1905H3.04029C2.17216 14.1905 1.4652 13.4835 1.4652 12.6154V8C1.4652 7.13187 2.17216 6.42491 3.04029 6.42491H4.15385H15.8425H16.9597C17.8278 6.42491 18.5348 7.13187 18.5348 8V12.6154Z" fill="white"/>
<path d="M11.5385 13.5751H8.46154C8.05861 13.5751 7.72894 13.9048 7.72894 14.3077C7.72894 14.7106 8.05861 15.0403 8.46154 15.0403H11.5385C11.9414 15.0403 12.2711 14.7106 12.2711 14.3077C12.2711 13.9048 11.9414 13.5751 11.5385 13.5751Z" fill="white"/>
<path d="M11.5385 16.0366H8.46154C8.05861 16.0366 7.72894 16.3663 7.72894 16.7692C7.72894 17.1722 8.05861 17.5018 8.46154 17.5018H11.5385C11.9414 17.5018 12.2711 17.1722 12.2711 16.7692C12.2711 16.3663 11.9414 16.0366 11.5385 16.0366Z" fill="white"/>
<path d="M5.07692 7.42123H3.23077C2.82784 7.42123 2.49817 7.7509 2.49817 8.15383C2.49817 8.55677 2.82784 8.88644 3.23077 8.88644H5.07692C5.47985 8.88644 5.80952 8.55677 5.80952 8.15383C5.80952 7.7509 5.48352 7.42123 5.07692 7.42123Z" fill="white"/>
</g>
<defs>
<clipPath id="clip0_1709_25373">
<rect width="20" height="20" fill="white"/>
</clipPath>
</defs>
</svg>
