<svg width="42" height="42" viewBox="0 0 42 42" fill="none" xmlns="http://www.w3.org/2000/svg">
<path d="M20.8082 2.95C14.2727 2.95 8.95 8.2727 8.95 14.8082V27.1918C8.95 33.7273 14.2727 39.05 20.8082 39.05C27.3437 39.05 32.6664 33.7273 32.6664 27.1918V14.8082C32.6664 8.27272 27.3518 2.95 20.8082 2.95ZM21.8388 18.4295V16.3973C22.7723 15.9932 23.3868 15.0603 23.3868 14.0383V9.39442C23.3868 8.36428 22.7722 7.43928 21.8388 7.03536V5.06515C26.8672 5.58167 30.6213 9.73035 30.6213 14.8082V18.4295H21.8388ZM19.7857 5.06515V7.03536C18.8522 7.43948 18.2377 8.37239 18.2377 9.39442V14.0383C18.2377 15.0684 18.8523 15.9934 19.7857 16.3973V18.4295H11.0032V14.8163C11.0032 9.73035 14.7573 5.58167 19.7857 5.06515ZM20.2909 14.0383V9.39442C20.2909 9.10642 20.5274 8.8771 20.8082 8.8771C21.0885 8.8771 21.3255 9.11406 21.3255 9.39442V14.0383C21.3255 14.3263 21.089 14.5556 20.8082 14.5556C20.5274 14.5556 20.2909 14.3263 20.2909 14.0383ZM30.6132 20.4827V27.1918C30.6132 32.6023 26.2106 36.9968 20.8082 36.9968C15.4058 36.9968 11.0032 32.5942 11.0032 27.1918V20.4827H30.6132Z" fill="#1F67D2" stroke="#1F67D2" stroke-width="0.1"/>
</svg>
