<svg width="21" height="22" viewBox="0 0 21 22" fill="none" xmlns="http://www.w3.org/2000/svg">
<path d="M16.4062 16.25C16.7687 16.25 17.0625 15.9562 17.0625 15.5938C17.0625 15.2313 16.7687 14.9375 16.4062 14.9375C16.0438 14.9375 15.75 15.2313 15.75 15.5938C15.75 15.9562 16.0438 16.25 16.4062 16.25Z" fill="white"/>
<path d="M13.7812 16.25C14.1437 16.25 14.4375 15.9562 14.4375 15.5938C14.4375 15.2313 14.1437 14.9375 13.7812 14.9375C13.4188 14.9375 13.125 15.2313 13.125 15.5938C13.125 15.9562 13.4188 16.25 13.7812 16.25Z" fill="white"/>
<path d="M11.1562 16.25C11.5187 16.25 11.8125 15.9562 11.8125 15.5938C11.8125 15.2313 11.5187 14.9375 11.1562 14.9375C10.7938 14.9375 10.5 15.2313 10.5 15.5938C10.5 15.9562 10.7938 16.25 11.1562 16.25Z" fill="white"/>
<path d="M17.2312 11.6562H3.76884C1.6905 11.6562 0 13.3468 0 15.4251V15.7624C0 17.8408 1.6905 19.5312 3.76884 19.5312H17.2312C19.3095 19.5312 21 17.8408 21 15.7624V15.4251C21 13.3468 19.3095 11.6562 17.2312 11.6562ZM19.6875 15.7624C19.6875 17.1169 18.5857 18.2188 17.2312 18.2188H3.76884C2.41434 18.2188 1.3125 17.1169 1.3125 15.7624V15.4251C1.3125 14.0706 2.41434 12.9688 3.76884 12.9688H17.2312C18.5857 12.9688 19.6875 14.0706 19.6875 15.4251V15.7624Z" fill="white"/>
<path d="M6.36187 6.09059C7.46503 5.02484 8.93437 4.4375 10.5002 4.4375C12.066 4.4375 13.5353 5.02484 14.6385 6.09059C14.7658 6.21397 14.9305 6.275 15.0946 6.275C15.2665 6.275 15.4378 6.20806 15.5664 6.07484C15.8184 5.81431 15.8112 5.39891 15.5513 5.14691C14.2014 3.84294 12.4072 3.125 10.5002 3.125C8.59312 3.125 6.79893 3.84294 5.44968 5.14691C5.18915 5.39825 5.18193 5.81431 5.43393 6.07484C5.68593 6.33537 6.10134 6.34325 6.36187 6.09059Z" fill="white"/>
<path d="M13.7811 8.375C13.953 8.375 14.1243 8.30806 14.2529 8.17484C14.5049 7.91431 14.4977 7.49891 14.2372 7.24691C13.2377 6.28156 11.9101 5.75 10.4998 5.75C9.08957 5.75 7.76197 6.28156 6.76316 7.24691C6.50263 7.49891 6.49541 7.91431 6.74741 8.17484C6.9981 8.43537 7.41547 8.44325 7.67469 8.19059C8.42807 7.46281 9.43082 7.0625 10.4998 7.0625C11.5689 7.0625 12.5716 7.46281 13.3257 8.19059C13.4523 8.31397 13.617 8.375 13.7811 8.375Z" fill="white"/>
<path d="M8.4032 9.21566C8.14333 9.46766 8.13611 9.88306 8.38811 10.1436C8.64077 10.4041 9.05552 10.4113 9.31605 10.1593C9.94539 9.55034 11.0551 9.55034 11.6845 10.1593C11.8118 10.2827 11.9765 10.3438 12.1405 10.3438C12.3125 10.3438 12.4831 10.2768 12.6124 10.1436C12.8644 9.88306 12.8572 9.46766 12.5973 9.21566C12.0355 8.67359 11.2907 8.375 10.4999 8.375C9.70914 8.375 8.9643 8.67359 8.4032 9.21566Z" fill="white"/>
</svg>
