<svg width="21" height="22" viewBox="0 0 21 22" fill="none" xmlns="http://www.w3.org/2000/svg">
<path d="M20.9926 12.6962C20.9642 12.5038 20.8559 12.3306 20.6954 12.2211L19.5159 11.4154L19.7771 11.2067C19.9491 11.0693 20.0447 10.8641 20.0394 10.6436C20.034 10.4233 19.9285 10.223 19.75 10.0942L8.01996 1.62306C7.79532 1.46078 7.53051 1.375 7.25425 1.375C6.85529 1.375 6.48316 1.55336 6.23328 1.86441L2.37822 6.66278C2.15064 6.94607 2.05269 7.30065 2.1024 7.66127C2.15211 8.02181 2.34228 8.33663 2.63796 8.54778L5.49675 10.5894L4.37098 12.1888C4.26313 12.342 4.22168 12.5281 4.25437 12.7127C4.28702 12.8974 4.38982 13.058 4.54383 13.1651L4.87296 13.3937C4.20911 13.9973 3.35419 14.3284 2.45338 14.3284H1.39772V13.0955C1.39772 12.7102 1.08418 12.3967 0.69886 12.3967C0.313536 12.3967 0 12.7102 0 13.0955V19.3179C0 19.7032 0.313536 20.0167 0.69886 20.0167C1.08418 20.0167 1.39772 19.7032 1.39772 19.3179V18.1663H2.13576C4.3661 18.1663 6.49897 17.2196 8.00055 15.5659L8.54633 15.945C8.66392 16.0267 8.80158 16.0698 8.94431 16.0698C9.17616 16.0698 9.39232 15.9557 9.52261 15.7644L10.5766 14.2171L13.0155 15.9587C13.1347 16.0439 13.2752 16.0889 13.4217 16.0889C13.5797 16.0889 13.7346 16.0346 13.8579 15.936L14.7157 15.2507L17.0284 16.9152C17.148 17.0014 17.2891 17.0469 17.4363 17.0469H17.4363C17.6488 17.0469 17.8472 16.9521 17.9805 16.7869L20.8452 13.2372C20.9672 13.0858 21.0209 12.8886 20.9926 12.6962ZM9.43887 13.4044L8.76436 14.3945L5.91872 12.4182L6.63424 11.4016L9.43887 13.4044ZM2.13576 16.7684H1.39772V15.726H2.45329C3.80162 15.726 5.10507 15.1729 6.04217 14.2056L6.84058 14.7601C5.61171 16.0377 3.90299 16.7684 2.13576 16.7684ZM18.186 10.6889L13.398 14.5142L3.52673 7.46492L7.27006 2.80564L18.186 10.6889ZM19.2819 12.9483L17.308 15.3942L15.8497 14.3445L18.3736 12.3279L19.2819 12.9483Z" fill="white"/>
<path d="M15.3805 10.7848C15.7659 10.7848 16.0794 10.4712 16.0794 10.0859C16.0794 9.70059 15.7658 9.38705 15.3805 9.38705C14.9952 9.38705 14.6816 9.70059 14.6816 10.0859C14.6816 10.4712 14.9951 10.7848 15.3805 10.7848Z" fill="white"/>
</svg>
