<svg width="20" height="20" viewBox="0 0 20 20" fill="none" xmlns="http://www.w3.org/2000/svg">
<g clip-path="url(#clip0_1709_25367)">
<path d="M17.1303 0H2.86966C1.28884 0 0 1.28884 0 2.86966V17.1303C0 18.7112 1.28884 20 2.86966 20H17.1303C18.7112 20 20 18.7112 20 17.1303V2.86966C20 1.28884 18.7112 0 17.1303 0ZM18.3399 17.1303C18.3399 17.7977 17.7977 18.3358 17.1345 18.3358H2.86966C2.20229 18.3358 1.66423 17.7935 1.66423 17.1303V13.5766L3.03233 12.2086C3.49948 11.7414 4.26694 11.7414 4.74244 12.2086L4.91762 12.3837C5.45985 12.926 6.17727 13.2221 6.94473 13.2221C7.7122 13.2221 8.42962 12.926 8.97185 12.3837L11.1825 10.1731C11.6496 9.70177 12.4171 9.70594 12.8843 10.1731L18.3399 15.6163V17.1303ZM18.3399 13.2638L14.0647 8.9927C12.9468 7.87487 11.1283 7.87487 10.0104 8.9927L7.79979 11.2033C7.33264 11.6705 6.56517 11.6705 6.08968 11.2033L5.91449 11.0282C4.88425 9.99791 3.07821 9.95621 1.97289 10.9322L1.66006 11.2075V2.86548C1.66006 2.20229 2.20229 1.66006 2.86548 1.66006H17.1262C17.7935 1.66006 18.3316 2.20229 18.3316 2.86548V13.2638H18.3399Z" fill="white"/>
<path d="M5.41397 5.0928C4.6757 5.0928 4.07507 5.69343 4.07507 6.4317C4.07507 7.16997 4.6757 7.77059 5.41397 7.77059C6.15224 7.77059 6.75703 7.17414 6.75703 6.43587C6.75703 5.6976 6.15641 5.0928 5.41397 5.0928Z" fill="white"/>
</g>
<defs>
<clipPath id="clip0_1709_25367">
<rect width="20" height="20" fill="white"/>
</clipPath>
</defs>
</svg>
