<svg width="16" height="16" viewBox="0 0 16 16" fill="none" xmlns="http://www.w3.org/2000/svg">
<g clip-path="url(#clip0_129_32819)">
<path d="M8.00171 0C3.58321 0 0 3.58321 0 8.00171C0 12.4202 3.58321 16.0034 8.00171 16.0034C12.4202 16.0034 16.0034 12.4202 16.0034 8.00171C15.9966 3.58321 12.4168 0.00681867 8.00171 0ZM10.6951 10.6951C10.4121 10.9781 9.95184 10.9781 9.66546 10.6951L7.48349 8.5131C7.34711 8.37673 7.27211 8.19263 7.2687 7.9983V3.63435C7.2687 3.23205 7.59599 2.90816 7.99489 2.90816C8.39719 2.90816 8.72107 3.23546 8.72107 3.63435V7.69827L10.6883 9.66546C10.9815 9.95184 10.9815 10.4121 10.6951 10.6951Z" fill="#1F67D2"/>
</g>
<defs>
<clipPath id="clip0_129_32819">
<rect width="16" height="16" fill="white"/>
</clipPath>
</defs>
</svg>
