<svg width="42" height="42" viewBox="0 0 42 42" fill="none" xmlns="http://www.w3.org/2000/svg">
<path d="M32.2514 2.88507L32.2509 2.88454C31.6403 2.28327 30.8352 1.95 29.9837 1.95H11.1522C9.38452 1.95 7.95 3.38452 7.95 5.15224V36.8478C7.95 38.6155 9.38452 40.05 11.1522 40.05H29.9837C31.7514 40.05 33.1859 38.6155 33.1859 36.8478V5.15224C33.1859 4.30077 32.8527 3.4956 32.2514 2.88507ZM31.2912 36.8478C31.2912 37.1992 31.1596 37.5231 30.9056 37.7684C30.6497 38.0154 30.3339 38.1552 29.9837 38.1552H11.1522C10.4328 38.1552 9.84477 37.5672 9.84477 36.8478V5.15224C9.84477 4.43279 10.4328 3.84477 11.1522 3.84477H29.9837C30.7031 3.84477 31.2912 4.43279 31.2912 5.15224V36.8478Z" fill="#1F67D2" stroke="#1F67D2" stroke-width="0.1"/>
<path d="M20.5634 15.6065C23.142 15.6065 25.2325 13.516 25.2325 10.9374C25.2325 8.35886 23.142 6.26839 20.5634 6.26839C17.9848 6.26839 15.8944 8.36804 15.8944 10.9374C15.8944 13.5069 17.994 15.6065 20.5634 15.6065ZM20.5634 8.17227C22.0937 8.17227 23.3377 9.41625 23.3377 10.9465C23.3377 12.4768 22.0937 13.7208 20.5634 13.7208C19.0332 13.7208 17.7893 12.4769 17.7892 10.9467C17.7982 9.41608 19.0425 8.17227 20.5634 8.17227Z" fill="#1F67D2" stroke="#1F67D2" stroke-width="0.1"/>
<path d="M20.5634 17.6474C15.7619 17.6474 11.8584 21.5509 11.8584 26.3524C11.8584 31.154 15.7619 35.0574 20.5634 35.0574C25.3649 35.0574 29.2684 31.154 29.2684 26.3524C29.2684 21.5509 25.3649 17.6474 20.5634 17.6474ZM20.5634 33.1535C16.8101 33.1535 13.7532 30.0966 13.7532 26.3433C13.7532 22.5901 16.8101 19.5331 20.5634 19.5331C24.3166 19.5331 27.3736 22.5901 27.3736 26.3433C27.3736 30.1056 24.3167 33.1535 20.5634 33.1535Z" fill="#1F67D2" stroke="#1F67D2" stroke-width="0.1"/>
<path d="M24.1301 26.3435C24.1393 24.3842 22.5314 22.7767 20.5634 22.7767C18.5953 22.7767 16.9968 24.3752 16.9968 26.3433C16.9968 28.3115 18.5953 29.91 20.5634 29.91C22.5315 29.91 24.13 28.3116 24.1301 26.3435ZM24.1301 26.3435C24.1301 26.3435 24.1301 26.3435 24.1301 26.3436L24.0801 26.3433H24.1301C24.1301 26.3434 24.1301 26.3434 24.1301 26.3435ZM20.5634 28.0243C19.6435 28.0243 18.8915 27.2723 18.8915 26.3524C18.8915 25.4326 19.6435 24.6806 20.5634 24.6806C21.4833 24.6806 22.2353 25.4326 22.2353 26.3524C22.2353 27.2725 21.4922 28.0243 20.5634 28.0243Z" fill="#1F67D2" stroke="#1F67D2" stroke-width="0.1"/>
</svg>
