<svg width="21" height="22" viewBox="0 0 21 22" fill="none" xmlns="http://www.w3.org/2000/svg">
<path d="M17.621 5.18749C16.8378 4.39953 16.0061 4 15.1491 4C14.0774 4 13.5772 4.3413 13.136 4.64238C12.7691 4.89276 12.4519 5.10917 11.6961 5.2278H9.30374C8.54815 5.10917 8.23095 4.89276 7.86393 4.64238C7.42264 4.3413 6.92254 4 5.85081 4C4.99387 4 4.16221 4.39953 3.37904 5.18749C1.33663 7.24228 -0.0170178 11.6635 0.000161639 14.5037C0.0170768 17.2911 1.33861 17.592 1.90602 17.592C2.92846 17.592 4.1704 16.8235 5.59739 15.3078C6.45896 14.3927 7.61139 13.8678 8.75924 13.8678H12.2408C13.3975 13.8678 14.5948 14.4061 15.4436 15.3078C16.8704 16.8235 18.0986 17.592 19.0941 17.592C19.6615 17.592 20.983 17.2911 20.9998 14.5037C21.017 11.6636 19.6635 7.24242 17.621 5.18749ZM19.0941 16.3188C18.8085 16.3188 17.9714 16.1353 16.3707 14.435C15.2696 13.2654 13.7643 12.5945 12.2408 12.5945H8.7592C7.26168 12.5945 5.77134 13.2654 4.67036 14.435C3.0248 16.1829 2.13843 16.3188 1.90598 16.3188C1.53997 16.3188 1.27985 15.5692 1.27338 14.496C1.25814 11.9648 2.49003 7.88801 4.28211 6.08505C4.81758 5.54637 5.34543 5.27322 5.8509 5.27322C6.52962 5.27322 6.77497 5.44065 7.14631 5.69407C7.56439 5.97933 8.08471 6.33433 9.16208 6.49405C9.19278 6.49864 9.22423 6.50093 9.25551 6.50093H11.7444C11.7759 6.50093 11.8074 6.49859 11.8377 6.49405C12.9151 6.33437 13.4354 5.97933 13.8536 5.69407C14.2251 5.44065 14.4704 5.27322 15.1491 5.27322C15.6546 5.27322 16.1824 5.54637 16.7179 6.08505C18.5101 7.8881 19.7419 11.9649 19.7266 14.496C19.7201 15.5692 19.4601 16.3188 19.0941 16.3188Z" fill="white"/>
<path d="M6.81677 8.91117H6.22562V8.32002C6.22562 7.96899 5.94005 7.68341 5.58902 7.68341C5.23798 7.68341 4.95241 7.96899 4.95241 8.32002V8.91117H4.36122C4.01018 8.91117 3.72461 9.19674 3.72461 9.54777C3.72461 9.89881 4.01018 10.1844 4.36122 10.1844H4.95241V10.7756C4.95241 11.1266 5.23798 11.4122 5.58902 11.4122C5.94005 11.4122 6.22562 11.1266 6.22562 10.7756V10.1844H6.81677C7.1678 10.1844 7.45338 9.89885 7.45338 9.54777C7.45338 9.19674 7.1678 8.91117 6.81677 8.91117Z" fill="white"/>
<path d="M15.4112 9.11007C15.8469 9.11007 16.2014 8.75565 16.2014 8.31995C16.2014 7.88426 15.8469 7.52988 15.4112 7.52988C14.9755 7.52988 14.6211 7.8843 14.6211 8.31995C14.6211 8.75561 14.9755 9.11007 15.4112 9.11007Z" fill="white"/>
<path d="M15.4112 9.98544C14.9755 9.98544 14.6211 10.3399 14.6211 10.7756C14.6211 11.2113 14.9755 11.5657 15.4112 11.5657C15.8469 11.5657 16.2014 11.2113 16.2014 10.7756C16.2014 10.3399 15.8469 9.98544 15.4112 9.98544Z" fill="white"/>
<path d="M14.9733 9.54777C14.9733 9.11212 14.6188 8.75769 14.1832 8.75769C13.7475 8.75769 13.3931 9.11212 13.3931 9.54777C13.3931 9.98342 13.7475 10.3379 14.1832 10.3379C14.6188 10.3378 14.9733 9.98342 14.9733 9.54777Z" fill="white"/>
<path d="M16.6388 8.75769C16.2031 8.75769 15.8486 9.11212 15.8486 9.54777C15.8486 9.98342 16.2031 10.3379 16.6388 10.3379C17.0744 10.3379 17.4288 9.98346 17.4288 9.54777C17.4288 9.11207 17.0744 8.75769 16.6388 8.75769Z" fill="white"/>
<path d="M11.7279 8.91116H9.27235C8.92132 8.91116 8.63574 9.19674 8.63574 9.54777C8.63574 9.8988 8.92132 10.1844 9.27235 10.1844H11.7279C12.079 10.1844 12.3646 9.89885 12.3646 9.54777C12.3646 9.19674 12.079 8.91116 11.7279 8.91116Z" fill="white"/>
</svg>
