<svg width="20" height="20" viewBox="0 0 20 20" fill="none" xmlns="http://www.w3.org/2000/svg">
<g clip-path="url(#clip0_1709_25361)">
<path d="M18.4713 1.77686H14.8734V3.4251H17.6472V16.5708H14.8734V18.2191H18.4713C18.6924 18.2191 18.8975 18.1346 19.0543 17.9779C19.211 17.8211 19.2955 17.6161 19.2955 17.3949V2.60098C19.2955 2.37987 19.211 2.17485 19.0543 2.01806C18.8975 1.8653 18.6924 1.77686 18.4713 1.77686Z" fill="white"/>
<path d="M13.6231 0.0884422C13.5829 0.0522613 13.5387 0.0281407 13.4864 0.0160804C13.4382 0 13.3859 -0.0040201 13.3337 0.0040201L1.6995 1.66432C1.50653 1.69246 1.32965 1.79296 1.20101 1.93769C1.07236 2.09045 1 2.2794 1 2.4804V17.5236C1 17.7206 1.07236 17.9136 1.20101 18.0623C1.32965 18.2111 1.51055 18.3116 1.70754 18.3397L13.3337 20C13.3859 20.008 13.4382 20.004 13.4864 19.9879C13.5347 19.9719 13.5829 19.9477 13.6231 19.9156C13.6633 19.8834 13.6955 19.8392 13.7156 19.791C13.7357 19.7427 13.7477 19.6905 13.7477 19.6422V0.361809C13.7477 0.309548 13.7357 0.257286 13.7156 0.213065C13.6915 0.164824 13.6593 0.124623 13.6231 0.0884422ZM12.0995 18.1548L2.64824 16.808V3.19598L12.0955 1.84523V18.1548H12.0995Z" fill="white"/>
<path d="M5.8402 13.6L7.37186 11.4091L8.90754 13.6H10.8814L8.36081 10.002L10.8814 6.40405H8.90754L7.37186 8.59099L5.8402 6.40405H3.86633L6.38694 10.002L3.86633 13.6H5.8402Z" fill="white"/>
</g>
<defs>
<clipPath id="clip0_1709_25361">
<rect width="20" height="20" fill="white"/>
</clipPath>
</defs>
</svg>
