<svg width="24" height="19" viewBox="0 0 24 19" fill="none" xmlns="http://www.w3.org/2000/svg">
<path d="M9.46719 13.7648C9.30548 13.7648 9.14025 13.7226 8.99612 13.6382C8.70785 13.4695 8.52856 13.1601 8.52856 12.8262V5.89018C8.52856 5.55621 8.70785 5.24685 8.99612 5.07811C9.28439 4.90937 9.63945 4.90937 9.93123 5.07459L16.0235 8.54435C16.3153 8.70957 16.4981 9.02245 16.4981 9.35993C16.4981 9.69742 16.3188 10.0068 16.0235 10.1755L9.93123 13.6453C9.7871 13.7226 9.6289 13.7648 9.46719 13.7648ZM10.4058 7.50026V11.2126L13.6682 9.35642L10.4058 7.50026Z" fill="#1F67D2"/>
<path d="M11.9982 18.7444C8.94331 18.7444 6.26454 18.544 4.55603 18.3788C2.39051 18.1679 0.66442 16.5156 0.362091 14.3641C0.12304 12.6732 0 10.9963 0 9.3722C0 7.74806 0.12304 6.07119 0.362091 4.38025C0.667936 2.2288 2.39051 0.576535 4.55603 0.365607C6.26805 0.196866 8.94683 0 11.9982 0C15.0497 0 17.7319 0.200381 19.4405 0.365607C21.606 0.576535 23.3321 2.2288 23.6344 4.38025C23.8734 6.07119 23.9965 7.75157 23.9965 9.3722C23.9965 10.9963 23.8734 12.6732 23.6344 14.3641C23.3285 16.5156 21.606 18.1679 19.4405 18.3788C17.7319 18.544 15.0532 18.7444 11.9982 18.7444ZM11.9982 1.87022C9.02065 1.87022 6.40516 2.06357 4.73883 2.2288C3.43811 2.35535 2.40105 3.34671 2.21825 4.6404C1.98975 6.24344 1.87725 7.83594 1.87725 9.36868C1.87725 10.9049 1.99326 12.4939 2.21825 14.097C2.40105 15.3907 3.43811 16.382 4.73883 16.5086C6.40867 16.6703 9.02065 16.8671 11.9982 16.8671C14.9758 16.8671 17.5913 16.6738 19.2577 16.5086C20.5584 16.382 21.5954 15.3907 21.7782 14.097C22.0067 12.4939 22.1192 10.9014 22.1192 9.36868C22.1192 7.83243 22.0032 6.24344 21.7782 4.6404C21.5954 3.34671 20.5584 2.35535 19.2577 2.2288C17.5913 2.06357 14.9758 1.87022 11.9982 1.87022Z" fill="#1F67D2"/>
</svg>
