<svg width="18" height="18" viewBox="0 0 18 18" fill="none" xmlns="http://www.w3.org/2000/svg">
<g clip-path="url(#clip0_348_30)">
<path d="M12.6736 11.8055L12.8458 11.5839C15.2743 8.45774 14.7067 3.93861 11.5805 1.5101C10.309 0.522183 8.78772 0 7.1815 0C4.94531 0 2.87693 1.01153 1.50684 2.77524C-0.921635 5.90147 -0.354137 10.4206 2.77205 12.8491C4.02521 13.8226 5.58934 14.3587 7.17624 14.3587C8.76729 14.3588 10.331 13.8217 11.5832 12.8465L11.8049 12.6738L16.9598 17.8287C17.0747 17.9389 17.2255 17.9995 17.3846 17.9995C17.5528 17.9995 17.7099 17.9329 17.8266 17.812C18.0572 17.5732 18.0578 17.1996 17.8284 16.9603L12.6736 11.8055ZM11.3893 11.3895C10.2651 12.5138 8.77013 13.133 7.18016 13.133C5.59018 13.133 4.09541 12.5139 2.97112 11.3896L2.97051 11.3889C1.84696 10.2728 1.22489 8.78592 1.21917 7.20212C1.21333 5.61764 1.82492 4.12578 2.94129 3.00123L2.97159 2.97093C4.09537 1.84707 5.59018 1.22789 7.1802 1.22789C8.77013 1.22789 10.2649 1.84707 11.3892 2.97132C13.7101 5.29219 13.7101 9.06855 11.3893 11.3895Z" fill="white"/>
</g>
<defs>
<clipPath id="clip0_348_30">
<rect width="18" height="18" fill="white"/>
</clipPath>
</defs>
</svg>
