<svg width="21" height="20" viewBox="0 0 21 20" fill="none" xmlns="http://www.w3.org/2000/svg">
<path d="M13.1107 18.9001H3.84524C3.5539 18.9001 3.27572 18.7758 3.08126 18.5587C2.88679 18.3415 2.79394 18.0513 2.82611 17.7618L4.05141 6.73697C4.10916 6.21717 4.54709 5.82494 5.07018 5.82494H7.04814V7.63767C7.04814 7.94071 7.29488 8.18745 7.59791 8.18745C7.90095 8.18745 8.14769 7.94071 8.14769 7.63767V5.82494H13.3483V7.63767C13.3483 7.94071 13.595 8.18745 13.8981 8.18745C14.2011 8.18745 14.4478 7.94071 14.4478 7.63767V5.82494H16.4258C16.9489 5.82494 17.3868 6.21717 17.4446 6.73697L18.0762 12.4234C18.1099 12.7246 18.3822 12.9428 18.6838 12.9092C18.985 12.8756 19.2032 12.6032 19.1696 12.302L18.5379 6.61561C18.418 5.53799 17.5104 4.72539 16.4258 4.72539H14.4478V3.7004C14.4482 1.65993 12.7883 0 10.7482 0C8.70807 0 7.04814 1.65993 7.04814 3.70003V4.72502H5.07018C3.98598 4.72502 3.07797 5.53762 2.95843 6.61525L1.73313 17.6404C1.6666 18.2403 1.85924 18.8423 2.26171 19.2923C2.66417 19.7423 3.24136 20 3.84488 20H13.1107C13.4137 20 13.6605 19.7533 13.6605 19.4502C13.6605 19.1472 13.4137 18.9001 13.1107 18.9001ZM8.14806 3.70003C8.14806 2.26637 9.31451 1.09992 10.7482 1.09992C12.1818 1.09992 13.3483 2.26637 13.3483 3.70003V4.72502H8.14806V3.70003Z" fill="#2F538A"/>
<path d="M19.4105 16.5376H17.5978V14.7248C17.5978 14.4218 17.3511 14.175 17.048 14.175C16.745 14.175 16.4983 14.4218 16.4983 14.7248V16.5376H14.6855C14.3825 16.5376 14.1357 16.7843 14.1357 17.0873C14.1357 17.3904 14.3825 17.6371 14.6855 17.6371H16.4983V19.4498C16.4983 19.7529 16.745 19.9996 17.048 19.9996C17.3511 19.9996 17.5978 19.7529 17.5978 19.4498V17.6375H19.4105C19.7136 17.6375 19.9603 17.3907 19.9603 17.0877C19.9603 16.7847 19.7136 16.5376 19.4105 16.5376Z" fill="#2F538A"/>
</svg>
