<svg width="24" height="24" viewBox="0 0 24 24" fill="none" xmlns="http://www.w3.org/2000/svg">
<path d="M21.2962 8.60542C21.1402 8.48463 20.9439 8.4192 20.7426 8.4192H14.0641L15.4029 1.06637C15.4934 0.573163 15.1663 0.100086 14.6731 0.0145293C14.3359 -0.0458636 13.9987 0.0849877 13.7924 0.351723L3.18839 14.1213C3.04244 14.3125 2.97702 14.5491 3.00721 14.7907C3.03741 15.0322 3.16323 15.2436 3.35447 15.3895C3.51049 15.5103 3.70676 15.5758 3.90807 15.5758H10.5865L9.24278 22.9336C9.15219 23.4268 9.47932 23.8999 9.97252 23.9855C10.3097 24.0459 10.6469 23.915 10.8533 23.6483L21.4572 9.8787C21.7642 9.48111 21.6887 8.90738 21.2962 8.60542ZM11.6988 19.5818L12.5644 14.8359C12.655 14.3427 12.3278 13.8697 11.8346 13.7841C11.7793 13.774 11.729 13.769 11.6736 13.769H5.75006L12.9519 4.41314L12.0863 9.15902C11.9957 9.65223 12.3228 10.1253 12.816 10.2109C12.8714 10.2209 12.9217 10.226 12.9771 10.226H18.9006L11.6988 19.5818Z" fill="#6782AA"/>
</svg>
