<svg width="42" height="42" viewBox="0 0 42 42" fill="none" xmlns="http://www.w3.org/2000/svg">
<path d="M4.29951 29.6796V29.7296H4.34951H22.3689C22.9918 29.7296 23.4937 30.2315 23.4937 30.8544C23.4937 31.4772 22.9918 31.9791 22.3689 31.9791H4.54369C3.17312 31.9791 2.05 30.8655 2.05 29.4854V15.7767C2.05 14.3964 3.17337 13.2733 4.54369 13.2733H19.8252H19.8752V13.2233V11.6602C19.8752 9.52276 21.6101 7.78786 23.7476 7.78786C24.6393 7.78786 25.3607 7.06645 25.3607 6.17476C25.3607 5.55189 25.8626 5.05 26.4854 5.05C27.1083 5.05 27.6102 5.55189 27.6102 6.17476C27.6102 8.31219 25.8753 10.0471 23.7379 10.0471C22.8462 10.0471 22.1248 10.7685 22.1248 11.6602V13.233V13.283H22.1748H30.5922C31.2151 13.283 31.717 13.7849 31.717 14.4078C31.717 15.0306 31.2151 15.5325 30.5922 15.5325H4.34951H4.29951V15.5825V29.6796Z" fill="#1F67D2" stroke="white" stroke-width="0.1"/>
<path d="M15.5145 24.2442H22.3689C22.9918 24.2442 23.4937 24.746 23.4937 25.3689C23.4937 25.9918 22.9918 26.4937 22.3689 26.4937H15.5145C14.8917 26.4937 14.3898 25.9918 14.3898 25.3689C14.3898 24.746 14.8917 24.2442 15.5145 24.2442Z" fill="#1F67D2" stroke="white" stroke-width="0.1"/>
<path d="M8.66023 24.2442H10.0292C10.652 24.2442 11.1539 24.746 11.1539 25.3689C11.1539 25.9918 10.652 26.4937 10.0292 26.4937H8.66023C8.03736 26.4937 7.53547 25.9918 7.53547 25.3689C7.53547 24.746 8.03736 24.2442 8.66023 24.2442Z" fill="#1F67D2" stroke="white" stroke-width="0.1"/>
<path d="M12.5229 19.8828H12.5229V19.8835C12.5229 20.5064 12.021 21.0083 11.3981 21.0083H8.66023C8.03736 21.0083 7.53547 20.5064 7.53547 19.8835C7.53547 19.2606 8.03736 18.7587 8.66023 18.7587H11.3981C12.0217 18.7587 12.5321 19.2611 12.5229 19.8828Z" fill="#1F67D2" stroke="white" stroke-width="0.1"/>
<path d="M16.8835 21.0083C16.2606 21.0083 15.7587 20.5064 15.7587 19.8835C15.7587 19.2606 16.2606 18.7587 16.8835 18.7587H18.2524C18.8753 18.7587 19.3772 19.2606 19.3772 19.8835C19.3772 20.5064 18.8753 21.0083 18.2524 21.0083H16.8835Z" fill="#1F67D2" stroke="white" stroke-width="0.1"/>
<path d="M34.4646 28.1165C34.4646 28.7394 33.9627 29.2413 33.3398 29.2413C32.7172 29.2413 32.215 28.7299 32.215 28.1165V26.7476C32.215 26.1247 32.7169 25.6228 33.3398 25.6228C33.9627 25.6228 34.4646 26.1247 34.4646 26.7476V28.1165Z" fill="#1F67D2" stroke="white" stroke-width="0.1"/>
<path d="M23.7476 18.7587H25.1165C25.7299 18.7587 26.2413 19.2609 26.2413 19.8835C26.2413 20.5064 25.7394 21.0083 25.1165 21.0083H23.7476C23.1247 21.0083 22.6228 20.5064 22.6228 19.8835C22.6228 19.2606 23.1247 18.7587 23.7476 18.7587Z" fill="#1F67D2" stroke="white" stroke-width="0.1"/>
<path d="M32.1651 21.4966H32.2151V21.4466V19.8835C32.2151 17.7461 33.95 16.0112 36.0874 16.0112C36.9791 16.0112 37.7005 15.2898 37.7005 14.3981V6.17476C37.7005 5.55189 38.2024 5.05 38.8253 5.05C39.4481 5.05 39.95 5.55189 39.95 6.17476V14.3981C39.95 16.5355 38.2151 18.2704 36.0777 18.2704C35.186 18.2704 34.4646 18.9918 34.4646 19.8835V21.4466V21.4966H34.5146H34.7088C37.6034 21.4966 39.95 23.8528 39.95 26.7379V30.8544C39.95 34.4967 36.9821 37.4646 33.3398 37.4646C29.6975 37.4646 26.7296 34.4967 26.7296 30.8544V26.7379C26.7296 23.8432 29.0858 21.4966 31.9709 21.4966H32.1651ZM37.6908 26.7379C37.6908 25.0987 36.3578 23.7558 34.7088 23.7558H31.9515C30.3123 23.7558 28.9694 25.0888 28.9694 26.7379V30.8544C28.9694 33.2606 30.9239 35.215 33.3301 35.215C35.7364 35.215 37.6908 33.2606 37.6908 30.8544V26.7379Z" fill="#1F67D2" stroke="white" stroke-width="0.1"/>
</svg>
