<svg width="21" height="20" viewBox="0 0 21 20" fill="none" xmlns="http://www.w3.org/2000/svg">
<g clip-path="url(#clip0_715_14479)">
<path d="M10.3867 18.627C10.102 18.627 9.82734 18.5239 9.61367 18.3364C8.80547 17.6297 8.02656 16.9661 7.33945 16.3801L7.33594 16.377C5.32109 14.6598 3.58125 13.177 2.37031 11.7165C1.01719 10.0836 0.386719 8.5352 0.386719 6.8438C0.386719 5.20044 0.950391 3.68442 1.97344 2.57466C3.00859 1.45161 4.4293 0.833252 5.97383 0.833252C7.12812 0.833252 8.18555 1.1981 9.11641 1.91802C9.58594 2.2813 10.0117 2.72583 10.3867 3.24458C10.7621 2.72583 11.1875 2.2813 11.6574 1.91802C12.5879 1.1981 13.6453 0.833252 14.7996 0.833252C16.3441 0.833252 17.7648 1.45161 18.8 2.57466C19.8234 3.68442 20.3867 5.20044 20.3867 6.8438C20.3867 8.5352 19.7566 10.0836 18.4031 11.7165C17.1926 13.1774 15.4527 14.6602 13.4379 16.377C12.7496 16.9637 11.9691 17.6286 11.1594 18.3368C10.9461 18.5239 10.6715 18.627 10.3867 18.627ZM5.97383 2.00474C4.76016 2.00474 3.64531 2.48911 2.83437 3.36841C2.01133 4.26138 1.55781 5.49536 1.55781 6.84341C1.55781 8.26606 2.08672 9.53833 3.27187 10.9688C4.41758 12.3512 6.12187 13.8036 8.09531 15.4852L8.09883 15.4883C8.78867 16.0762 9.5707 16.7426 10.3848 17.4543C11.2035 16.7415 11.9867 16.0739 12.6781 15.4848C14.6512 13.8032 16.3555 12.3512 17.5012 10.9684C18.6863 9.53794 19.2152 8.26567 19.2152 6.84302C19.2152 5.49458 18.7617 4.2606 17.9387 3.36802C17.1277 2.48833 16.0129 2.00435 14.7996 2.00435C13.9105 2.00435 13.0945 2.28677 12.3738 2.84419C11.7316 3.34106 11.2844 3.96919 11.0219 4.40864C10.8871 4.63481 10.6496 4.76958 10.3867 4.76958C10.1238 4.76958 9.88633 4.63481 9.75156 4.40864C9.48945 3.96919 9.04219 3.34106 8.39961 2.84419C7.67891 2.28755 6.86289 2.00474 5.97383 2.00474Z" fill="#2F538A"/>
</g>
<defs>
<clipPath id="clip0_715_14479">
<rect width="20" height="20" fill="white" transform="translate(0.386719)"/>
</clipPath>
</defs>
</svg>
