<svg width="21" height="22" viewBox="0 0 21 22" fill="none" xmlns="http://www.w3.org/2000/svg">
<g clip-path="url(#clip0_348_106)">
<path d="M15.2338 6.69429H14.8938V1.19242C14.8938 0.810639 14.5832 0.5 14.2014 0.5H6.97477C6.59299 0.5 6.2824 0.810595 6.2824 1.19242V6.69429H5.94242C5.56064 6.69429 5.25 7.00488 5.25 7.38666V15.6457C5.25 16.0275 5.5606 16.3381 5.94242 16.3381H7.31479V16.6781C7.31479 17.3655 7.72476 17.9854 8.34719 18.2582V20.8076C8.34719 21.1894 8.65778 21.5 9.03961 21.5C9.42138 21.5 9.73194 21.1894 9.73194 20.8076V18.4029H11.4443V20.8076C11.4443 21.1894 11.755 21.5 12.1367 21.5C12.5185 21.5 12.8291 21.1894 12.8291 20.8076V18.2582C13.4515 17.9854 13.8615 17.3655 13.8615 16.6781V16.3381H15.2339C15.6157 16.3381 15.9263 16.0275 15.9263 15.6457V7.3867C15.9262 7.00492 15.6156 6.69429 15.2338 6.69429ZM12.4767 16.3381V16.6782C12.4767 16.8317 12.3737 16.9653 12.2282 17.0058C12.1459 16.9949 12.0593 16.9989 11.9776 17.0182H9.19867C9.11696 16.9989 9.03027 16.9949 8.94798 17.0058C8.80249 16.9653 8.69958 16.8317 8.69958 16.6782V16.3381H12.4767ZM7.66719 6.69429V1.88479H13.5091V6.69429H7.66719ZM14.5414 8.07908V14.9534H6.63479V8.07908H14.5414Z" fill="white"/>
<path d="M9.03959 3.59714C8.65781 3.59714 8.34717 3.90773 8.34717 4.28956V5.32191C8.34717 5.70369 8.65776 6.01433 9.03959 6.01433C9.42137 6.01433 9.73192 5.70373 9.73192 5.32191V4.28956C9.73196 3.90778 9.42137 3.59714 9.03959 3.59714Z" fill="white"/>
<path d="M12.1368 3.59714C11.755 3.59714 11.4443 3.90773 11.4443 4.28956V5.32191C11.4443 5.70369 11.755 6.01433 12.1368 6.01433C12.5185 6.01433 12.8291 5.70373 12.8291 5.32191V4.28956C12.8291 3.90778 12.5185 3.59714 12.1368 3.59714Z" fill="white"/>
</g>
<defs>
<clipPath id="clip0_348_106">
<rect width="21" height="21" fill="white" transform="translate(0 0.5)"/>
</clipPath>
</defs>
</svg>
