<svg width="24" height="22" viewBox="0 0 24 22" fill="none" xmlns="http://www.w3.org/2000/svg">
<path d="M11.5757 14.643C7.53894 14.643 4.25415 11.3582 4.25415 7.32152C4.25415 3.28479 7.53894 0 11.5757 0C15.6124 0 18.8972 3.28479 18.8972 7.32152C18.8972 11.3582 15.619 14.643 11.5757 14.643ZM11.5757 1.70836C8.48216 1.70836 5.9691 4.22801 5.9691 7.31492C5.9691 10.4084 8.48876 12.9215 11.5757 12.9215C14.6626 12.9215 17.1822 10.4018 17.1822 7.31492C17.1888 4.22801 14.6692 1.70836 11.5757 1.70836Z" fill="#6782AA"/>
<path d="M7.32811 22C3.29138 22 0 18.7152 0 14.6785C0 12.7195 0.765131 10.8858 2.14369 9.50065C3.52884 8.1155 5.36911 7.35696 7.32152 7.35696C11.3582 7.35696 14.643 10.6418 14.643 14.6785C14.643 16.6375 13.8779 18.4712 12.4993 19.8563C11.1274 21.2349 9.28711 22 7.32811 22ZM7.32811 9.06532C5.83083 9.06532 4.41929 9.64576 3.36394 10.7077C2.30199 11.7697 1.72155 13.1746 1.72155 14.6719C1.72155 17.7654 4.2412 20.2785 7.32811 20.2785C8.8254 20.2785 10.2369 19.698 11.2923 18.6361C12.3542 17.5741 12.9347 16.1692 12.9347 14.6719C12.9413 11.5784 10.4216 9.06532 7.32811 9.06532Z" fill="#6782AA"/>
<path d="M15.8271 21.9996C13.8681 21.9996 12.0279 21.2344 10.6427 19.8493C9.25756 18.4641 8.49902 16.6239 8.49902 14.6715C8.49902 10.6347 11.7838 7.34995 15.8205 7.34995C16.6318 7.34995 17.4366 7.48186 18.2017 7.7457C18.4853 7.84464 18.6832 8.0755 18.7557 8.33934C19.0064 8.22061 19.3098 8.22061 19.567 8.37232C21.7767 9.68491 23.1487 12.099 23.1487 14.6715C23.1487 18.7148 19.8639 21.9996 15.8271 21.9996ZM15.8271 9.06489C12.7336 9.06489 10.2206 11.5846 10.2206 14.6715C10.2206 16.1687 10.801 17.5803 11.863 18.6356C12.9249 19.691 14.3233 20.2846 15.8271 20.2846C18.9206 20.2846 21.4337 17.765 21.4337 14.6781C21.4337 12.7125 20.3849 10.8656 18.6898 9.85641C18.4853 9.73768 18.3534 9.5464 18.3006 9.33533C18.1027 9.42767 17.8719 9.44746 17.6476 9.37491C17.0606 9.16383 16.4472 9.06489 15.8271 9.06489Z" fill="#6782AA"/>
</svg>
