<svg width="16" height="12" viewBox="0 0 16 12" fill="none" xmlns="http://www.w3.org/2000/svg">
<g clip-path="url(#clip0_129_32812)">
<path d="M9.3375 7.79374C8.94063 8.05936 8.47813 8.19999 8 8.19999C7.52188 8.19999 7.05938 8.05936 6.6625 7.79374L0.10625 3.42499C0.06875 3.39999 0.034375 3.37499 0 3.34999V10.5125C0 11.3344 0.665625 11.9844 1.47188 11.9844H14.525C15.3469 11.9844 15.9969 11.3187 15.9969 10.5125V3.34686C15.9625 3.37186 15.9281 3.39686 15.8906 3.42186L9.3375 7.79374Z" fill="#1F67D2"/>
<path d="M0.625 2.64375L7.18125 7.01562C7.42812 7.18125 7.7125 7.2625 7.99687 7.2625C8.28125 7.2625 8.56563 7.18125 8.8125 7.01562L15.375 2.64375C15.7688 2.38125 16 1.94375 16 1.47187C16 0.659375 15.3406 0 14.5281 0H1.47187C0.659375 0 0 0.659375 0 1.47187C0 1.94375 0.234375 2.38125 0.625 2.64375Z" fill="#1F67D2"/>
</g>
<defs>
<clipPath id="clip0_129_32812">
<rect width="16" height="11.9844" fill="white"/>
</clipPath>
</defs>
</svg>
