<svg width="41" height="41" viewBox="0 0 41 41" fill="none" xmlns="http://www.w3.org/2000/svg">
<path d="M32.4485 40.0267H7.57526C3.39908 40.0267 0 36.6276 0 32.4514V10.7103C0 6.53416 3.39908 3.13508 7.57526 3.13508H9.33709V1.36139C9.33709 0.625812 9.93623 0.0266724 10.6718 0.0266724C11.4074 0.0266724 12.0065 0.625812 12.0065 1.36139V3.13508H28.0231V1.36139C28.0231 0.625812 28.6223 0.0266724 29.3579 0.0266724C30.0934 0.0266724 30.6926 0.625812 30.6926 1.36139V3.13508H32.4485C36.6246 3.13508 40.0237 6.53416 40.0237 10.7103V32.4514C40.0237 36.6335 36.6246 40.0267 32.4485 40.0267ZM2.67537 15.1416V32.4573C2.67537 35.1624 4.87617 37.3632 7.5812 37.3632H32.4544C35.1594 37.3632 37.3602 35.1624 37.3602 32.4573V15.1416H2.67537ZM2.67537 12.4722H37.3543V10.7103C37.3543 8.00532 35.1535 5.80452 32.4485 5.80452H30.6926V9.13834C30.6926 9.87392 30.0934 10.4731 29.3579 10.4731C28.6223 10.4731 28.0231 9.87392 28.0231 9.13834V5.80452H12.0065V9.13834C12.0065 9.87392 11.4074 10.4731 10.6718 10.4731C9.93623 10.4731 9.33709 9.87392 9.33709 9.13834V5.80452H7.5812C4.87617 5.80452 2.67537 8.00532 2.67537 10.7103V12.4722ZM30.9121 32.2794H27.8037C27.0681 32.2794 26.4689 31.6802 26.4689 30.9447C26.4689 30.2091 27.0681 29.6099 27.8037 29.6099H30.9121C31.6476 29.6099 32.2468 30.2091 32.2468 30.9447C32.2468 31.6802 31.6476 32.2794 30.9121 32.2794ZM21.5631 32.2794H18.4488C17.7132 32.2794 17.114 31.6802 17.114 30.9447C17.114 30.2091 17.7132 29.6099 18.4488 29.6099H21.5572C22.2927 29.6099 22.8919 30.2091 22.8919 30.9447C22.8919 31.6802 22.2987 32.2794 21.5631 32.2794ZM12.226 32.2794H9.1176C8.38203 32.2794 7.78289 31.6802 7.78289 30.9447C7.78289 30.2091 8.38203 29.6099 9.1176 29.6099H12.226C12.9616 29.6099 13.5607 30.2091 13.5607 30.9447C13.5607 31.6802 12.9616 32.2794 12.226 32.2794ZM30.9121 22.9423H27.8037C27.0681 22.9423 26.4689 22.3431 26.4689 21.6076C26.4689 20.872 27.0681 20.2729 27.8037 20.2729H30.9121C31.6476 20.2729 32.2468 20.872 32.2468 21.6076C32.2468 22.3431 31.6476 22.9423 30.9121 22.9423ZM21.5631 22.9423H18.4488C17.7132 22.9423 17.114 22.3431 17.114 21.6076C17.114 20.872 17.7132 20.2729 18.4488 20.2729H21.5572C22.2927 20.2729 22.8919 20.872 22.8919 21.6076C22.8919 22.3431 22.2987 22.9423 21.5631 22.9423ZM12.226 22.9423H9.1176C8.38203 22.9423 7.78289 22.3431 7.78289 21.6076C7.78289 20.872 8.38203 20.2729 9.1176 20.2729H12.226C12.9616 20.2729 13.5607 20.872 13.5607 21.6076C13.5607 22.3431 12.9616 22.9423 12.226 22.9423Z" fill="#E91D3E"/>
</svg>
