<svg width="42" height="42" viewBox="0 0 42 42" fill="none" xmlns="http://www.w3.org/2000/svg">
<path d="M21.0751 2.93874L21.0747 2.93862C20.8945 2.88713 20.7055 2.88713 20.5253 2.93861L20.5248 2.93874L5.6138 7.27299C5.61373 7.27301 5.61365 7.27303 5.61358 7.27305C5.19175 7.39368 4.9 7.78087 4.9 8.22674V18.2785C4.9 20.6457 5.28032 22.9744 6.04104 25.21C6.77843 27.3911 7.85734 29.4403 9.24673 31.2876C12.0951 35.0828 15.9918 37.7687 20.5324 39.0651C20.6222 39.0919 20.7177 39.1 20.8077 39.1C20.8995 39.1 20.9859 39.0916 21.0813 39.0656L21.0824 39.0652C25.6156 37.7689 29.5202 35.0752 32.3687 31.2876C33.7582 29.4401 34.8293 27.3987 35.5743 25.2101L35.4797 25.1779L35.5743 25.2101C36.3351 22.9745 36.7154 20.638 36.7154 18.2785V8.22674H36.7155L36.7153 8.2229C36.6983 7.78033 36.4086 7.3938 35.9864 7.27306C35.9863 7.27304 35.9862 7.27301 35.9862 7.27299L21.0751 2.93874ZM34.7229 18.2785C34.7229 26.9164 29.0091 34.611 20.8 37.0877C12.5909 34.611 6.87701 26.9164 6.87701 18.2785V8.96628L20.8 4.92364L34.7229 8.96628V18.2785Z" fill="#1F67D2" stroke="#1F67D2" stroke-width="0.2"/>
<path d="M11.2895 21.0058C11.2895 26.2452 15.5527 30.5162 20.8 30.5162C26.0472 30.5162 30.3104 26.2452 30.3104 21.0058C30.3104 15.7664 26.0472 11.4953 20.8 11.4953C15.5528 11.4953 11.2895 15.7586 11.2895 21.0058ZM28.3334 21.0058C28.3334 25.1613 24.9555 28.5392 20.8 28.5392C16.6445 28.5392 13.2665 25.1613 13.2665 21.0058C13.2665 16.8503 16.6445 13.4724 20.8 13.4724C24.9555 13.4724 28.3334 16.8503 28.3334 21.0058Z" fill="#1F67D2" stroke="#1F67D2" stroke-width="0.2"/>
<path d="M18.306 20.3019L18.3056 20.3015C17.9189 19.9148 17.2916 19.9148 16.9048 20.3015C16.5181 20.6883 16.5181 21.3156 16.9048 21.7023L19.0372 23.8347C19.226 24.0234 19.4832 24.1267 19.7338 24.1267C19.982 24.1267 20.2405 24.0327 20.4311 23.834L24.6874 19.5776C25.0741 19.1909 25.0741 18.5636 24.6874 18.1768C24.3007 17.7901 23.6734 17.7901 23.2866 18.1768L19.7264 21.737L18.306 20.3019Z" fill="#1F67D2" stroke="#1F67D2" stroke-width="0.2"/>
</svg>
