<svg width="12" height="12" viewBox="0 0 12 12" fill="none" xmlns="http://www.w3.org/2000/svg">
<path d="M11.9682 4.34529C11.8893 4.10223 11.6737 3.93032 11.4196 3.90731L7.95582 3.59262L6.58674 0.38749C6.48553 0.151943 6.25562 0 5.99965 0C5.74369 0 5.51355 0.151943 5.41327 0.38749L4.04419 3.59285L0.579458 3.90731C0.325603 3.93079 0.110495 4.1027 0.0308868 4.34529C-0.0480173 4.58835 0.0247811 4.8549 0.216875 5.02328L2.83551 7.31957L2.06337 10.7201C2.00678 10.9702 2.104 11.2288 2.31136 11.3786C2.4229 11.4596 2.55394 11.5 2.68545 11.5C2.7984 11.5 2.91159 11.4699 3.01257 11.4096L5.99965 9.62337L8.98627 11.4096C9.20537 11.5406 9.48083 11.5284 9.68795 11.3786C9.89531 11.2285 9.99253 10.97 9.93594 10.7201L9.1638 7.31957L11.7824 5.02328C11.9743 4.85466 12.0473 4.58882 11.9682 4.34529Z" fill="#6782AA"/>
</svg>
