<svg width="28" height="28" viewBox="0 0 28 28" fill="none" xmlns="http://www.w3.org/2000/svg">
<path d="M14.5 15C18.6 15 22 11.6 22 7.5C22 3.4 18.6 0 14.5 0C10.4 0 7 3.4 7 7.5C7 11.6 10.4 15 14.5 15ZM14.5 2C17.5 2 20 4.5 20 7.5C20 10.5 17.5 13 14.5 13C11.5 13 9 10.5 9 7.5C9 4.5 11.5 2 14.5 2Z" fill="white"/>
<path d="M14.2 8.50008H14.8V8.90008H13.5C12.9 8.90008 12.5 9.30008 12.5 9.90008C12.5 10.5001 12.9 10.9001 13.5 10.9001H13.9C14.1 11.3001 14.4 11.5001 14.8 11.5001C15.2 11.5001 15.6 11.2001 15.7 10.8001C16.4 10.5001 16.8 9.90008 16.8 9.20008V8.30008C16.8 7.30008 16 6.50008 15 6.50008H14.4V6.10008H15.7C16.3 6.10008 16.7 5.70008 16.7 5.10008C16.7 4.50008 16.3 4.10008 15.7 4.10008C15.5 3.60008 14.9 3.40008 14.4 3.60008C14.2 3.70008 14 3.90008 13.9 4.10008C13.1 4.30008 12.5 5.00008 12.5 5.80008V6.70008C12.5 7.70008 13.3 8.50008 14.2 8.50008Z" fill="white"/>
<path d="M27.5 19.1999C27.1 18.0999 26.1 17.3999 25 17.3999C24.7 17.3999 24.4 17.3999 24.1 17.4999L18.5 19.3999C18.3 18.4999 17.6 17.7999 16.8 17.5999L14.3 16.6999C12.9 16.1999 11.4 15.9999 10 15.9999H5.8C5.2 14.3999 3.5 13.5999 2 14.1999C0.8 14.5999 0 15.6999 0 16.9999V22.9999C0 24.6999 1.4 25.9999 3 25.9999C4.2 25.9999 5.3 25.2999 5.7 24.1999L8 24.5999C8.8 24.8999 9.6 25.1999 10.4 25.5999C12.5 26.4999 13.8 27.0999 14.6 27.0999C15.5 27.0999 16.5 26.8999 17.3 26.4999L25.9 22.4999C27.3 21.8999 27.9 20.4999 27.5 19.1999ZM3 23.9999C2.4 23.9999 2 23.5999 2 22.9999V16.9999C2 16.3999 2.4 15.9999 3 15.9999C3.6 15.9999 4 16.3999 4 16.9999V22.9999C4 23.1999 4 23.2999 3.9 23.3999C3.7 23.7999 3.4 23.9999 3 23.9999ZM25.2 20.5999L16.5 24.6999C15.9 24.9999 15.3 25.0999 14.6 25.0999C13.4 24.7999 12.3 24.2999 11.2 23.7999C10.3 23.2999 9.3 22.8999 8.3 22.6999L6 22.1999V17.9999H9.9C11.2 17.9999 12.4 18.1999 13.6 18.5999L16.2 19.4999C16.3 19.4999 16.5 19.5999 16.5 19.7999C16.6 19.8999 16.6 20.0999 16.5 20.1999C16.4 20.4999 16.1 20.5999 15.8 20.4999L11.3 18.9999C10.8 18.7999 10.2 19.0999 10 19.5999C9.8 20.0999 10.1 20.6999 10.6 20.8999L15.1 22.3999C16.1 22.6999 17.1 22.3999 17.8 21.6999L24.7 19.3999C25 19.2999 25.4 19.3999 25.5 19.7999C25.7 20.0999 25.5 20.4999 25.2 20.5999Z" fill="white"/>
</svg>
