<svg width="21" height="22" viewBox="0 0 21 22" fill="none" xmlns="http://www.w3.org/2000/svg">
<path d="M20.8216 15.0189C20.7081 14.9054 20.5541 14.8405 20.3919 14.8405H19.8608C19.9459 14.6216 19.9905 14.3905 19.9905 14.1514V5.90541C19.9905 4.85541 19.1351 4 18.0851 4H2.91486C1.86486 4 1.00946 4.85541 1.00946 5.90541V14.1514C1.00946 14.3905 1.05405 14.6216 1.13919 14.8405H0.608108C0.271622 14.8405 0 15.1122 0 15.4487V16.077C0 17.2081 0.92027 18.1284 2.05135 18.1284H18.9486C20.0797 18.1284 21 17.2081 21 16.077V15.4487C21 15.2865 20.9351 15.1324 20.8216 15.0189ZM2.22568 5.90541C2.22568 5.52432 2.53378 5.21622 2.91486 5.21622H18.0851C18.4662 5.21622 18.7743 5.52432 18.7743 5.90541V14.1514C18.7743 14.5324 18.4662 14.8405 18.0851 14.8405H2.91486C2.53378 14.8405 2.22568 14.5324 2.22568 14.1514V5.90541ZM19.7838 16.0811C19.7838 16.5432 19.4108 16.9162 18.9486 16.9162H2.05135C1.58919 16.9162 1.21622 16.5432 1.21622 16.0811V16.0608H19.7838V16.0811Z" fill="white"/>
<path d="M10.1472 7.26352H10.8526C11.1891 7.26352 11.4607 6.9919 11.4607 6.65541C11.4607 6.31892 11.1891 6.0473 10.8526 6.0473H10.1472C9.81068 6.0473 9.53906 6.31892 9.53906 6.65541C9.53906 6.9919 9.81068 7.26352 10.1472 7.26352Z" fill="white"/>
</svg>
