<svg width="24" height="24" viewBox="0 0 24 24" fill="none" xmlns="http://www.w3.org/2000/svg">
<g clip-path="url(#clip0_926_4407)">
<path d="M12 22.6188C11.7257 22.6188 11.471 22.4816 11.3208 22.2563C10.8245 21.5118 10.2563 20.7184 9.65551 19.8727C8.4049 18.1224 6.99102 16.1404 5.90694 14.1486C4.62367 11.7943 4 9.78612 4 8C4 3.58857 7.58857 0 12 0C16.4114 0 20 3.58857 20 8C20 9.78612 19.3763 11.7943 18.0963 14.1486C17.0122 16.1371 15.5951 18.1224 14.3445 19.8727C13.7437 20.7151 13.1755 21.5118 12.6792 22.2563C12.529 22.4816 12.2743 22.6188 12 22.6188ZM12 1.63265C8.4898 1.63265 5.63265 4.4898 5.63265 8C5.63265 9.50531 6.19102 11.262 7.33714 13.3682C8.37224 15.2718 9.76 17.2114 10.9812 18.9225C11.3339 19.4155 11.6735 19.8922 11.9967 20.3559C12.32 19.8922 12.6596 19.4155 13.0122 18.9225C14.2335 17.2114 15.6212 15.2686 16.6563 13.3682C17.809 11.262 18.3673 9.50531 18.3673 8C18.3673 4.4898 15.5102 1.63265 12 1.63265Z" fill="#1F67D2"/>
<path d="M12 12.0817C9.75017 12.0817 7.91833 10.2498 7.91833 8.00003C7.91833 5.75023 9.75017 3.9184 12 3.9184C14.2498 3.9184 16.0816 5.75023 16.0816 8.00003C16.0816 10.2498 14.2498 12.0817 12 12.0817ZM12 5.55105C10.6481 5.55105 9.55099 6.64819 9.55099 8.00003C9.55099 9.35187 10.6481 10.449 12 10.449C13.3518 10.449 14.4489 9.35187 14.4489 8.00003C14.4489 6.64819 13.3518 5.55105 12 5.55105Z" fill="#1F67D2"/>
</g>
<defs>
<clipPath id="clip0_926_4407">
<rect width="16" height="22.6188" fill="white" transform="translate(4)"/>
</clipPath>
</defs>
</svg>
