<svg width="19" height="18" viewBox="0 0 19 18" fill="none" xmlns="http://www.w3.org/2000/svg">
<g clip-path="url(#clip0_813_15699)">
<path d="M15.9542 6.73809H15.7153V6.15886C15.7153 2.76415 12.9443 0 9.54111 0C6.13793 0 3.36688 2.76049 3.36688 6.15886V6.74175H3.30073C2.17246 6.73809 1.25 7.65825 1.25 8.78737V11.7935C1.25 12.9226 2.17246 13.8428 3.3044 13.8428H4.6348C5.19342 13.8428 5.64914 13.3882 5.64914 12.831V7.7499C5.64914 7.21466 5.23017 6.77841 4.70463 6.74175V6.15886C4.70463 3.49735 6.87296 1.33075 9.54111 1.33075C12.2093 1.33075 14.3813 3.49735 14.3813 6.15886V6.77108C13.9329 6.88106 13.6095 7.28065 13.6095 7.75356V12.831C13.6095 13.3002 13.9329 13.7035 14.3813 13.8134V13.8721C14.3813 14.8436 13.5911 15.6318 12.6172 15.6318H11.4595C11.1508 15.0049 10.4268 14.5906 9.62931 14.5906C8.53412 14.5906 7.64106 15.3568 7.64106 16.2953C7.64106 17.2338 8.53412 18 9.62931 18C10.4268 18 11.1508 17.5857 11.4595 16.9589H12.6172C14.3261 16.9589 15.7153 15.5731 15.7153 13.8684V13.8391H15.9542C17.0862 13.8391 18.0086 12.9189 18.0086 11.7898V8.78371C18.0086 7.65825 17.0862 6.73809 15.9542 6.73809ZM16.6745 11.7935C16.6745 12.1894 16.3511 12.512 15.9542 12.512H14.9436V8.06884H15.9542C16.3511 8.06884 16.6745 8.39145 16.6745 8.78737V11.7935ZM4.31506 8.06884V12.5084H3.3044C2.90749 12.5084 2.58407 12.1857 2.58407 11.7898V8.78371C2.58407 8.38778 2.90749 8.06517 3.3044 8.06517H4.31506V8.06884ZM10.2835 16.2953C10.2835 16.4493 10.0299 16.6692 9.62931 16.6692C9.2324 16.6692 8.97514 16.4493 8.97514 16.2953C8.97514 16.1413 9.22872 15.9214 9.62931 15.9214C10.0262 15.9214 10.2835 16.145 10.2835 16.2953Z" fill="#1F67D2"/>
</g>
<defs>
<clipPath id="clip0_813_15699">
<rect width="18" height="18" fill="white" transform="translate(0.5)"/>
</clipPath>
</defs>
</svg>
