<svg width="20" height="20" viewBox="0 0 20 20" fill="none" xmlns="http://www.w3.org/2000/svg">
<path d="M15.0378 13.1703C14.1397 13.1703 13.2721 13.5295 12.6339 14.1601L7.65011 11.072C7.76476 10.7243 7.82209 10.365 7.82209 9.99809C7.82209 9.63119 7.76476 9.27193 7.65011 8.92414L12.6339 5.83604C13.2721 6.46665 14.1359 6.82591 15.0378 6.82591C16.9182 6.82591 18.4508 5.29333 18.4508 3.41296C18.4508 1.53258 16.9182 0 15.0378 0C13.1575 0 11.6249 1.54023 11.6249 3.4206C11.6249 3.7875 11.6822 4.14676 11.7969 4.49455L6.81311 7.58265C6.17485 6.95204 5.3111 6.59278 4.40913 6.59278C2.53258 6.58895 1 8.12154 1 10.0019C1 11.8823 2.53258 13.4149 4.41296 13.4149C5.3111 13.4149 6.17867 13.0556 6.81693 12.425L11.8007 15.5131C11.686 15.8609 11.6287 16.2201 11.6287 16.587C11.6287 18.4674 13.1613 20 15.0417 20C16.922 20 18.4546 18.4674 18.4546 16.587C18.4508 14.7028 16.922 13.1703 15.0378 13.1703ZM15.0378 18.4063C14.0327 18.4063 13.2148 17.5884 13.2148 16.5832C13.2148 15.5781 14.0327 14.7602 15.0378 14.7602C16.043 14.7602 16.8609 15.5781 16.8609 16.5832C16.8609 17.5884 16.0468 18.4063 15.0378 18.4063ZM15.0378 1.59755C16.043 1.59755 16.8609 2.41544 16.8609 3.4206C16.8609 4.42576 16.043 5.24365 15.0378 5.24365C14.0327 5.24365 13.2148 4.42576 13.2148 3.4206C13.2148 2.41544 14.0327 1.59755 15.0378 1.59755ZM4.41296 11.825C3.4078 11.825 2.58609 11.0071 2.58609 10.0019C2.58609 8.99675 3.40398 8.17887 4.41296 8.17887C5.41812 8.17887 6.236 8.99675 6.236 10.0019C6.236 11.0071 5.41812 11.825 4.41296 11.825Z" fill="white"/>
</svg>
