<svg width="20" height="20" viewBox="0 0 20 20" fill="none" xmlns="http://www.w3.org/2000/svg">
<g clip-path="url(#clip0_973_13336)">
<path d="M9.6015 15.7549C9.83512 15.9382 10.1649 15.9382 10.3986 15.7549L14.6588 12.3468L14.6679 12.3422C14.7 12.3239 14.7275 12.301 14.755 12.2735C14.8786 12.1544 14.9519 11.994 14.9565 11.8246C14.9611 11.6551 14.897 11.4902 14.7824 11.3619C14.6633 11.2382 14.503 11.1649 14.3335 11.1603C14.1594 11.1557 13.9991 11.2199 13.8709 11.3344L13.8571 11.3436L10.6459 13.9088V1.6459C10.6459 1.28859 10.3573 1 10 1C9.64273 1 9.35413 1.28859 9.35413 1.6459V13.9134L6.15212 11.3527C5.89101 11.1832 5.54745 11.2245 5.33215 11.4535C5.08936 11.71 5.09852 12.1131 5.35047 12.3605L9.6015 15.7549Z" fill="#2F538A"/>
<path d="M19.3587 12.9056C19.0014 12.9056 18.7128 13.1942 18.7128 13.5515V16.9551C18.7128 17.5369 18.241 18.0133 17.6546 18.0133H2.3454C1.76363 18.0133 1.28722 17.5415 1.28722 16.9551V13.5515C1.28722 13.1942 0.998626 12.9056 0.641319 12.9056C0.284013 12.9056 0 13.1988 0 13.5515V16.9551C0 18.2469 1.0536 19.3005 2.3454 19.3005H17.6546C18.9464 19.3005 20 18.2469 20 16.9551V13.5515C20 13.1988 19.7114 12.9056 19.3587 12.9056Z" fill="#2F538A"/>
</g>
<defs>
<clipPath id="clip0_973_13336">
<rect width="20" height="18.3005" fill="white" transform="translate(0 1)"/>
</clipPath>
</defs>
</svg>
