<svg width="42" height="42" viewBox="0 0 42 42" fill="none" xmlns="http://www.w3.org/2000/svg">
<path d="M3.57999 7.05H38.4099C39.8033 7.05 40.9401 8.1866 40.95 9.58035V31.8123C40.95 33.2057 39.8134 34.3423 38.42 34.3423H3.57999C2.1866 34.3423 1.05 33.2057 1.05 31.8123V9.58C1.05 8.1866 2.1866 7.05 3.57999 7.05ZM38.8731 31.8123V9.58C38.8731 9.32139 38.6701 9.11679 38.42 9.11679H3.57999C3.3198 9.11679 3.11679 9.33146 3.11679 9.58V31.8123C3.11679 32.0725 3.33146 32.2755 3.57999 32.2755H38.4099C38.6701 32.2755 38.8731 32.0608 38.8731 31.8123Z" fill="#1F67D2" stroke="white" stroke-width="0.1"/>
<path d="M22.7132 14.1302L22.6813 14.1621L22.7098 14.1971C25.7888 17.9782 25.7888 23.404 22.6997 27.185L22.6711 27.2201L22.7031 27.252L24.0334 28.5823C24.4372 28.9861 24.4372 29.6397 24.0334 30.0435C23.6297 30.4473 22.976 30.4473 22.5723 30.0435L21.242 28.7132L21.21 28.6813L21.175 28.7098C19.2895 30.2442 16.9828 31.0165 14.6861 31.0165C12.3893 31.0165 10.0826 30.2442 8.19709 28.7098L8.16208 28.6813L8.13017 28.7132L6.79986 30.0435C6.39611 30.4473 5.74245 30.4473 5.3387 30.0435C4.93495 29.6397 4.93495 28.9861 5.3387 28.5823L6.66901 27.252L6.70093 27.2201L6.67243 27.1851C3.59342 23.404 3.59342 17.9782 6.67243 14.1971L6.70093 14.1621L6.66901 14.1302L5.3387 12.7999C4.93495 12.3961 4.93495 11.7425 5.3387 11.3387C5.74245 10.9349 6.39611 10.9349 6.79986 11.3387L8.13017 12.669L8.16209 12.7009L8.1971 12.6724C11.9782 9.59342 17.404 9.59342 21.1851 12.6724L21.2201 12.7009L21.252 12.669L22.5823 11.3387C22.9861 10.9349 23.6397 10.9349 24.0435 11.3387L24.0435 11.3387L24.0444 11.3396C24.2456 11.5312 24.3514 11.79 24.3514 12.0693C24.3514 12.3475 24.2363 12.6071 24.0435 12.7999L22.7132 14.1302ZM20.3549 16.4985L20.3246 16.5288L20.3499 16.5634C22.1511 19.025 22.1511 22.3672 20.3499 24.8289L20.3246 24.8635L20.3549 24.8938L21.1712 25.7101L21.2115 25.7504L21.2462 25.7052C23.5075 22.7646 23.5075 18.6277 21.2462 15.6871L21.2115 15.6419L21.1712 15.6822L20.3549 16.4985ZM17.3316 16.5894L17.3761 16.5449L17.3228 16.5116C15.7244 15.5139 13.6579 15.5138 12.0694 16.5117L12.0163 16.5451L12.0606 16.5894L12.8971 17.4259L12.9232 17.4519L12.9558 17.4347C13.5031 17.1462 14.0998 16.9971 14.6961 16.9971C15.2927 16.9971 15.8993 17.1463 16.4362 17.4346L16.4689 17.4522L16.4952 17.4259L17.3316 16.5894ZM12.0606 24.7928L12.0165 24.8369L12.0692 24.8704C13.6578 25.8785 15.7245 25.8784 17.323 24.8705L17.3759 24.8371L17.3316 24.7928L16.4952 23.9563L16.469 23.9302L16.4363 23.9475C15.3525 24.5243 14.0398 24.5243 12.956 23.9475L12.9233 23.9302L12.8971 23.9563L12.0606 24.7928ZM11.4447 18.956L11.4621 18.9233L11.436 18.8971L10.5995 18.0606L10.5552 18.0164L10.5218 18.0693C9.51382 19.6679 9.51382 21.7244 10.5218 23.323L10.5552 23.3759L10.5995 23.3316L11.436 22.4952L11.4621 22.469L11.4447 22.4363C10.868 21.3525 10.868 20.0398 11.4447 18.956ZM17.9475 22.4262L17.9302 22.4589L17.9563 22.4851L18.7928 23.3216L18.8371 23.3658L18.8705 23.3129C19.8785 21.7143 19.8785 19.6578 18.8705 18.0592L18.8371 18.0063L18.7928 18.0506L17.9563 18.887L17.9302 18.9132L17.9475 18.9459C18.5243 20.0297 18.5243 21.3424 17.9475 22.4262ZM18.8187 15.0423L18.8533 15.0677L18.8837 15.0374L19.7 14.221L19.7403 14.1807L19.6951 14.146C18.2553 13.0408 16.5011 12.4426 14.6861 12.4426C12.8711 12.4426 11.1067 13.0408 9.6769 14.1461L9.63195 14.1809L9.67212 14.221L10.4884 15.0374L10.5188 15.0677L10.5534 15.0423C13.015 13.2311 16.3571 13.2311 18.8187 15.0423ZM10.5634 26.3499L10.5288 26.3246L10.4985 26.3549L9.6822 27.1712L9.64189 27.2115L9.68711 27.2463C11.1269 28.3514 12.8811 28.9497 14.6961 28.9497C16.5111 28.9497 18.2755 28.3515 19.7053 27.2462L19.7502 27.2114L19.7101 27.1712L18.8938 26.3549L18.8633 26.3245L18.8287 26.3501C17.5979 27.2606 16.1471 27.7109 14.6961 27.7109C13.2454 27.7109 11.7944 27.2507 10.5634 26.3499ZM9.03737 24.8837L9.06781 24.8532L9.04223 24.8186C7.23119 22.3672 7.23104 19.0251 9.04234 16.5534L9.06769 16.5188L9.03737 16.4884L8.22104 15.6721L8.18087 15.632L8.14613 15.6769C7.04078 17.1067 6.44256 18.8711 6.44256 20.6861C6.44256 22.501 7.04078 24.2654 8.14613 25.6952L8.18087 25.7402L8.22104 25.7L9.03737 24.8837ZM13.074 20.6861C13.074 21.5804 13.8018 22.3082 14.6961 22.3082C15.5802 22.3082 16.3183 21.5806 16.3183 20.6861C16.3183 19.7917 15.5905 19.0639 14.6961 19.0639C13.8018 19.0639 13.074 19.7917 13.074 20.6861Z" fill="#1F67D2" stroke="white" stroke-width="0.1"/>
<path d="M27.9899 20.7778L27.9897 20.7777L26.6601 19.7401C26.66 19.7401 26.6599 19.74 26.6598 19.7399C26.4094 19.5376 26.2655 19.2394 26.2655 18.9224V14.6493C26.2655 14.0725 26.7366 13.6109 27.3039 13.6109H36.585C36.8649 13.6207 37.1247 13.7268 37.3269 13.9191C37.5185 14.111 37.6243 14.3701 37.6243 14.6493V18.9224C37.6243 19.2493 37.4805 19.5374 37.23 19.7399C37.2298 19.74 37.2297 19.7401 37.2296 19.7401L35.9 20.7777L35.9 20.7776L35.8987 20.7787C35.7272 20.9217 35.4969 20.9989 35.2656 20.9989H28.6241C28.3936 20.9989 28.1727 20.9221 27.9899 20.7778ZM35.5575 15.7377V15.6877H35.5075H28.3923H28.3423V15.7377V18.3883V18.4125L28.3614 18.4276L28.9762 18.9113L28.9898 18.922H29.0071H34.8927H34.91L34.9236 18.9113L35.5384 18.4276L35.5575 18.4125V18.3883V15.7377Z" fill="#1F67D2" stroke="white" stroke-width="0.1"/>
<path d="M34.2272 24.4956V24.4456H34.1772H33.0283H32.9783V24.4956V25.6445V25.6945H33.0283H34.1772H34.2272V25.6445V24.4956ZM30.9115 24.4956V24.4456H30.8615H29.7126H29.6626V24.4956V25.6445V25.6945H29.7126H30.8615H30.9115V25.6445V24.4956ZM28.6342 22.3788H35.2656C35.8314 22.3788 36.2942 22.8491 36.304 23.4277V26.743C36.304 27.0212 36.1889 27.2808 35.9962 27.4736C35.8043 27.6655 35.545 27.7714 35.2656 27.7714H28.6241C28.3459 27.7714 28.0863 27.6563 27.8936 27.4635C27.7016 27.2716 27.5958 27.0123 27.5958 26.7329V23.4172C27.5958 22.8405 28.0669 22.3788 28.6342 22.3788Z" fill="#1F67D2" stroke="white" stroke-width="0.1"/>
<path d="M33.6027 18.3382H30.287C29.7197 18.3382 29.2485 17.8766 29.2485 17.2998C29.2485 16.723 29.7197 16.2614 30.287 16.2614H33.6027C34.1798 16.2614 34.6411 16.7227 34.6411 17.2998C34.6411 17.8766 34.17 18.3382 33.6027 18.3382Z" fill="#1F67D2" stroke="white" stroke-width="0.1"/>
</svg>
