<svg width="42" height="42" viewBox="0 0 42 42" fill="none" xmlns="http://www.w3.org/2000/svg">
<path d="M36.4139 6.49687C36.4221 3.99066 34.3813 1.95 31.8753 1.95H9.49671C6.99066 1.95 4.95 3.99066 4.95 6.49671V35.5033C4.95 38.0093 6.99066 40.05 9.49671 40.05H31.8672C34.3733 40.05 36.4139 38.0093 36.4139 35.5033V6.49687ZM36.4139 6.49687L36.3639 6.49671H36.4139V6.49687ZM34.5378 35.5033V35.5533H34.5455C34.5188 37.0042 33.3326 38.1739 31.8753 38.1739H9.49671C8.02273 38.1739 6.82608 36.9773 6.82608 35.5033V6.49671C6.82608 5.02273 8.02273 3.82608 9.49671 3.82608H31.8672C33.3412 3.82608 34.5378 5.02273 34.5378 6.49671V35.5033Z" fill="#1F67D2" stroke="#1F67D2" stroke-width="0.1"/>
<path d="M29.5328 26.1612L29.5323 26.1607L29.4023 26.0548C31.1786 23.9458 32.15 21.2775 32.15 18.4402C32.15 12.0587 27.1584 6.85 21.0034 6.85C17.4419 6.85 14.0676 8.64549 11.9757 11.6439C11.6875 12.0522 11.7748 12.6262 12.1761 12.9272C12.5759 13.2323 13.1365 13.1357 13.4256 12.7182C15.1875 10.1894 18.0207 8.68936 21.0101 8.68936C26.1678 8.68936 30.3771 13.0597 30.3771 18.4402C30.3771 20.86 29.5432 23.1321 28.0141 24.9144L27.0376 24.118C27.0375 24.118 27.0374 24.1179 27.0374 24.1179C26.6469 23.7965 26.0856 23.8744 25.7868 24.2693L25.9064 24.3597L25.7871 24.2689C25.4828 24.6688 25.5536 25.2431 25.9325 25.5534L25.9326 25.5535L28.441 27.6034C28.661 27.7841 28.7898 28.056 28.7898 28.3551C28.7898 28.6127 28.6955 28.8535 28.524 29.026L28.5222 29.0278C28.336 29.2216 28.0894 29.3218 27.8267 29.304C27.5621 29.286 27.332 29.1616 27.1622 28.9426C27.162 28.9424 27.1619 28.9422 27.1617 28.942L22.4822 22.7727C22.4821 22.7725 22.4817 22.7717 22.4814 22.7704C22.4807 22.7681 22.4803 22.7648 22.4806 22.7609C22.4808 22.757 22.4817 22.7538 22.4826 22.7515C22.4829 22.7507 22.4832 22.7501 22.4835 22.7497C22.4841 22.7494 22.4854 22.7489 22.4875 22.7488C22.489 22.7487 22.49 22.7488 22.4906 22.7489L24.244 24.1817C24.244 24.1817 24.2441 24.1818 24.2442 24.1818C24.6346 24.5033 25.1959 24.4253 25.4947 24.0305C25.791 23.6389 25.7291 23.0576 25.3491 22.7463L25.349 22.7462L23.5943 21.3124C23.5941 21.3123 23.594 21.3122 23.5939 21.3121C23.3835 21.1381 23.1449 21.0221 22.8982 20.9623C23.6214 20.3751 24.0858 19.4594 24.0858 18.4332C24.0858 16.6697 22.7059 15.2255 20.9966 15.2255C19.2873 15.2255 17.9075 16.6697 17.9075 18.4332C17.9075 20.1967 19.2873 21.641 20.9966 21.641C21.0213 21.641 21.046 21.6406 21.0706 21.6399C20.5828 22.3018 20.5788 23.2383 21.0855 23.9045C21.0856 23.9046 21.0857 23.9047 21.0858 23.9048L23.9421 27.6881C23.0007 28.014 22.0136 28.1771 20.9966 28.1771C15.8389 28.1771 11.6297 23.8068 11.6297 18.4262C11.6297 17.047 11.9014 15.7098 12.4379 14.4554C12.6366 13.9999 12.441 13.4488 11.9862 13.245C11.5365 13.0334 11.0032 13.2479 10.8101 13.7149C10.1699 15.2032 9.85 16.7904 9.85 18.4262C9.85 24.8077 14.8416 30.0165 20.9966 30.0165C22.4163 30.0165 23.7916 29.7478 25.0905 29.2102L25.7465 30.076C26.2228 30.7046 26.935 31.0907 27.6988 31.1427L27.6987 31.143H27.709C27.7298 31.143 27.7501 31.1444 27.7747 31.1461L27.7785 31.1464C27.8009 31.148 27.8286 31.15 27.8569 31.15C28.5714 31.15 29.2557 30.8527 29.7606 30.3276C30.2723 29.8024 30.556 29.1001 30.556 28.3551C30.556 27.4924 30.1801 26.694 29.5328 26.1612ZM19.6871 18.4332C19.6871 17.6708 20.2779 17.0649 20.9966 17.0649C21.7154 17.0649 22.3061 17.6708 22.3061 18.4332C22.3061 19.1957 21.7154 19.8016 20.9966 19.8016C20.2779 19.8016 19.6871 19.1957 19.6871 18.4332Z" fill="#1F67D2" stroke="#1F67D2" stroke-width="0.3"/>
<path d="M31 5.85C29.8137 5.85 28.85 6.81371 28.85 8C28.85 9.18629 29.8137 10.15 31 10.15C32.1863 10.15 33.15 9.18629 33.15 8C33.15 6.81371 32.1863 5.85 31 5.85ZM31 8.33965C30.8139 8.33965 30.6672 8.19302 30.6672 8.0069C30.6672 7.82077 30.8139 7.67414 31 7.67414C31.1861 7.67414 31.3328 7.82077 31.3328 8.0069C31.3328 8.18612 31.1792 8.33965 31 8.33965Z" fill="#1F67D2" stroke="#1F67D2" stroke-width="0.3"/>
<path d="M11 10.15C12.1863 10.15 13.15 9.18629 13.15 8C13.15 6.81371 12.1863 5.85 11 5.85C9.81371 5.85 8.85 6.81371 8.85 8C8.85 9.17906 9.81337 10.15 11 10.15ZM11 7.66034C11.1861 7.66034 11.3328 7.80698 11.3328 7.9931C11.3328 8.17923 11.1861 8.32586 11 8.32586C10.8139 8.32586 10.6672 8.17923 10.6672 7.9931C10.6672 7.81388 10.8208 7.66034 11 7.66034Z" fill="#1F67D2" stroke="#1F67D2" stroke-width="0.3"/>
<path d="M30 31.85C28.8137 31.85 27.85 32.8137 27.85 34C27.85 35.1863 28.8137 36.15 30 36.15C31.1863 36.15 32.15 35.1863 32.15 34C32.15 32.8137 31.1863 31.85 30 31.85ZM30 34.3397C29.8139 34.3397 29.6672 34.193 29.6672 34.0069C29.6672 33.8208 29.8139 33.6741 30 33.6741C30.1861 33.6741 30.3328 33.8208 30.3328 34.0069C30.3328 34.1916 30.1806 34.3397 30 34.3397Z" fill="#1F67D2" stroke="#1F67D2" stroke-width="0.3"/>
<path d="M23.5036 32.4788L23.5026 32.4779C23.0862 32.0792 22.533 31.85 21.942 31.85H11.0509C9.84011 31.85 8.85 32.8102 8.85 34C8.85 34.5791 9.07904 35.1142 9.49641 35.5212C9.91385 35.9283 10.4679 36.15 11.0509 36.15H12.5078C13.0184 36.15 13.4357 35.7484 13.4357 35.2414C13.4357 34.7343 13.0184 34.3328 12.5078 34.3328H11.0509C10.9558 34.3328 10.8731 34.2999 10.802 34.2305C10.737 34.1671 10.6988 34.0809 10.6988 33.9931C10.6988 33.8105 10.8473 33.6603 11.0438 33.6603H21.9349C22.0301 33.6603 22.1127 33.6932 22.1838 33.7626C22.2489 33.826 22.2871 33.9122 22.2871 34C22.2871 34.1826 22.1386 34.3328 21.942 34.3328H14.7072C14.1965 34.3328 13.7793 34.7343 13.7793 35.2414C13.7793 35.7484 14.1965 36.15 14.7072 36.15H21.9491C23.1599 36.15 24.15 35.1898 24.15 34C24.15 33.4209 23.921 32.8858 23.5036 32.4788Z" fill="#1F67D2" stroke="#1F67D2" stroke-width="0.3"/>
</svg>
