<svg width="42" height="42" viewBox="0 0 42 42" fill="none" xmlns="http://www.w3.org/2000/svg">
<path d="M31.4405 3H9.87225C9.38855 3 9 3.38855 9 3.87225V36.2247C9 36.7084 9.38855 37.0969 9.87225 37.0969H10.9031V38.1278C10.9031 38.6115 11.2916 39 11.7753 39H14.3128C14.7965 39 15.185 38.6115 15.185 38.1278V37.0969H26.1278V38.1278C26.1278 38.6115 26.5163 39 27 39H29.5374C30.0211 39 30.4097 38.6115 30.4097 38.1278V37.0969H31.4405C31.9242 37.0969 32.3128 36.7084 32.3128 36.2247V3.87225C32.3128 3.38855 31.9242 3 31.4405 3ZM28.6652 37.0969V37.2555H27.8722V37.0969H28.6652ZM13.4405 37.0969V37.2555H12.6476V37.0969H13.4405ZM30.5683 6.36211V33.7427L29.7753 32.7515V7.3533L30.5683 6.36211ZM13.0282 34.3057C13.1947 34.1471 13.2819 33.9172 13.2819 33.6872V7.04405C13.2819 6.84581 13.2106 6.65551 13.0916 6.49692L11.6881 4.74449H29.6247L28.2211 6.49692C28.0943 6.64758 28.0308 6.84581 28.0308 7.04405V33.0529C28.0308 33.2511 28.1022 33.4414 28.2211 33.6L29.6247 35.3524H11.9815L13.0282 34.3057ZM11.5374 7.3533V33.3304L10.7445 34.1233V6.36211L11.5374 7.3533Z" fill="#1F67D2"/>
<path d="M20.6564 20.7621C17.0247 20.7621 14.0749 23.7119 14.0749 27.3436C14.0749 30.9753 17.0247 33.9251 20.6564 33.9251C24.2881 33.9251 27.2379 30.9753 27.2379 27.3436C27.2379 23.7119 24.2881 20.7621 20.6564 20.7621ZM20.2044 30.6264C20.2123 30.452 20.2837 30.2775 20.4106 30.111C20.5374 30.1189 20.6643 30.1269 20.7912 30.1189C20.9022 30.5154 21.0925 30.8564 21.3542 31.1577C21.6159 31.4511 21.9648 31.689 22.3771 31.8714C21.941 32.0379 21.4811 32.141 21.0053 32.1727C20.4344 31.5463 20.1806 31.0546 20.2044 30.6264ZM18.6819 31.7604C18.2537 31.57 17.8493 31.3163 17.5004 31.007C17.5322 30.1665 17.6987 29.6352 18.0159 29.3498C18.1507 29.2308 18.3172 29.1595 18.5313 29.1278C18.6106 29.2229 18.6978 29.3181 18.793 29.4053C18.5947 29.7621 18.4837 30.1427 18.4599 30.5392C18.4361 30.9278 18.5154 31.3401 18.6819 31.7604ZM17.8811 27.4784C17.4846 27.5894 17.1436 27.7797 16.8423 28.0414C16.5489 28.3031 16.311 28.652 16.1286 29.0643C15.9621 28.6282 15.859 28.1683 15.8273 27.6925C16.4458 27.1216 16.9374 26.8599 17.3656 26.8837C17.5401 26.8916 17.7145 26.963 17.8811 27.0899C17.8731 27.1692 17.8731 27.2564 17.8731 27.3357C17.8811 27.3912 17.8811 27.4388 17.8811 27.4784ZM18.6026 25.4802C18.2458 25.2819 17.8652 25.1709 17.4687 25.1471C17.4211 25.1471 17.3815 25.1471 17.3339 25.1471C16.9771 25.1471 16.6123 25.2185 16.2396 25.3692C16.43 24.941 16.6837 24.5366 16.993 24.1877C17.8335 24.2194 18.3648 24.3859 18.6502 24.7031C18.7692 24.8379 18.8405 25.0044 18.8722 25.2185C18.7771 25.2978 18.6819 25.385 18.6026 25.4802ZM21.1084 24.0608C21.1004 24.2352 21.0291 24.4097 20.9022 24.5762C20.8229 24.5683 20.7357 24.5683 20.6564 24.5683C20.6088 24.5683 20.5612 24.5683 20.5216 24.5683C20.4106 24.1718 20.2203 23.8308 19.9586 23.5295C19.6969 23.2361 19.348 22.9982 18.9357 22.8159C19.3718 22.6493 19.8317 22.5463 20.3075 22.5145C20.8784 23.141 21.1322 23.6326 21.1084 24.0608ZM20.6564 26.3128C21.2273 26.3128 21.6872 26.7727 21.6872 27.3436C21.6872 27.9145 21.2273 28.3744 20.6564 28.3744C20.0855 28.3744 19.6256 27.9145 19.6256 27.3436C19.6256 26.7727 20.0855 26.3128 20.6564 26.3128ZM22.6308 22.9269C23.059 23.1172 23.4634 23.3709 23.8123 23.6802C23.7806 24.5207 23.6141 25.052 23.2969 25.3374C23.1621 25.4564 22.9956 25.5278 22.7815 25.5595C22.7022 25.4643 22.615 25.3692 22.5198 25.2819C22.7181 24.9251 22.8291 24.5445 22.8529 24.148C22.8767 23.7595 22.7974 23.3471 22.6308 22.9269ZM22.6546 29.9841C22.5357 29.8493 22.4643 29.6828 22.4326 29.4687C22.5278 29.3894 22.6229 29.3022 22.7101 29.207C23.067 29.4053 23.4476 29.5163 23.8441 29.5401C24.2405 29.5639 24.6529 29.4846 25.0731 29.3181C24.8828 29.7463 24.6291 30.1507 24.3198 30.4996C23.4714 30.4678 22.948 30.3093 22.6546 29.9841ZM23.9392 27.7956C23.7648 27.7877 23.5903 27.7163 23.4238 27.5894C23.4317 27.5101 23.4317 27.4229 23.4317 27.3436C23.4317 27.296 23.4317 27.2485 23.4317 27.2088C23.8282 27.0978 24.1692 26.9075 24.4705 26.6458C24.7639 26.3841 25.0018 26.0352 25.1841 25.6229C25.3507 26.059 25.4537 26.5189 25.4855 26.9947C24.859 27.5656 24.3674 27.8194 23.9392 27.7956Z" fill="#1F67D2"/>
<path d="M20.6564 6.17181C17.0247 6.17181 14.0749 9.12159 14.0749 12.7533C14.0749 16.385 17.0247 19.3348 20.6564 19.3348C24.2881 19.3348 27.2379 16.385 27.2379 12.7533C27.2379 9.12159 24.2881 6.17181 20.6564 6.17181ZM20.2044 16.0361C20.2123 15.8617 20.2837 15.6872 20.4106 15.5207C20.5374 15.5286 20.6643 15.5366 20.7912 15.5286C20.9022 15.9251 21.0925 16.2661 21.3542 16.5674C21.6159 16.8608 21.9648 17.0987 22.3771 17.2811C21.941 17.4476 21.4811 17.5507 21.0053 17.5824C20.4344 16.9559 20.1806 16.4643 20.2044 16.0361ZM18.6819 17.17C18.2537 16.9797 17.8493 16.726 17.5004 16.4167C17.5322 15.5762 17.6987 15.0449 18.0159 14.7595C18.1507 14.6405 18.3172 14.5692 18.5313 14.5374C18.6106 14.6326 18.6978 14.7278 18.793 14.815C18.5947 15.1718 18.4837 15.5524 18.4599 15.9489C18.4361 16.3374 18.5154 16.7498 18.6819 17.17ZM17.8811 12.8881C17.4846 12.9991 17.1436 13.1894 16.8423 13.4511C16.5489 13.7128 16.311 14.0617 16.1286 14.474C15.9621 14.0379 15.859 13.578 15.8273 13.1022C16.4458 12.5313 16.9374 12.2696 17.3656 12.2934C17.5401 12.3013 17.7145 12.3727 17.8811 12.4996C17.8731 12.5789 17.8731 12.6661 17.8731 12.7454C17.8811 12.8009 17.8811 12.8485 17.8811 12.8881ZM18.6026 10.8899C18.2458 10.6916 17.8652 10.5806 17.4687 10.5568C17.4211 10.5568 17.3815 10.5568 17.3339 10.5568C16.9771 10.5568 16.6123 10.6282 16.2396 10.7789C16.43 10.3507 16.6837 9.94626 16.993 9.59736C17.8335 9.62907 18.3648 9.79559 18.6502 10.1128C18.7692 10.2476 18.8405 10.4141 18.8722 10.6282C18.7771 10.7075 18.6819 10.7947 18.6026 10.8899ZM21.1084 9.47048C21.1004 9.64493 21.0291 9.81938 20.9022 9.9859C20.815 9.97797 20.7357 9.97797 20.6564 9.97797C20.6088 9.97797 20.5612 9.97797 20.5216 9.97797C20.4106 9.5815 20.2203 9.24053 19.9586 8.93921C19.6969 8.64582 19.348 8.40793 18.9357 8.22555C19.3718 8.05903 19.8317 7.95595 20.3075 7.92423C20.8784 8.55066 21.1322 9.04229 21.1084 9.47048ZM20.6564 11.7225C21.2273 11.7225 21.6872 12.1824 21.6872 12.7533C21.6872 13.3242 21.2273 13.7841 20.6564 13.7841C20.0855 13.7841 19.6256 13.3242 19.6256 12.7533C19.6256 12.1824 20.0855 11.7225 20.6564 11.7225ZM22.6308 8.33656C23.059 8.52687 23.4634 8.78062 23.8123 9.08987C23.7806 9.9304 23.6141 10.4617 23.2969 10.7471C23.1621 10.8661 22.9956 10.9374 22.7815 10.9692C22.7022 10.874 22.615 10.7789 22.5198 10.6916C22.7181 10.3348 22.8291 9.95418 22.8529 9.55771C22.8767 9.16916 22.7974 8.75683 22.6308 8.33656ZM22.6546 15.3938C22.5357 15.259 22.4643 15.0925 22.4326 14.8784C22.5278 14.7991 22.6229 14.7119 22.7101 14.6167C23.067 14.815 23.4476 14.926 23.8441 14.9498C24.2405 14.9736 24.6529 14.8943 25.0652 14.7278C24.8749 15.1559 24.6211 15.5604 24.3119 15.9093C23.4714 15.8775 22.948 15.7189 22.6546 15.3938ZM23.9392 13.2053C23.7648 13.1974 23.5903 13.126 23.4238 12.9991C23.4317 12.9198 23.4317 12.8326 23.4317 12.7533C23.4317 12.7057 23.4317 12.6581 23.4317 12.6185C23.8282 12.5075 24.1692 12.3172 24.4705 12.0555C24.7639 11.7938 25.0018 11.4449 25.1841 11.0326C25.3507 11.4687 25.4537 11.9286 25.4855 12.4044C24.859 12.9753 24.3674 13.2291 23.9392 13.2053Z" fill="#1F67D2"/>
</svg>
