<svg width="42" height="42" viewBox="0 0 42 42" fill="none" xmlns="http://www.w3.org/2000/svg">
<path d="M32.1946 26.3729C32.1946 26.9671 31.7129 27.4488 31.1187 27.4488C30.5246 27.4488 30.0429 26.9671 30.0429 26.3729C30.0429 25.7787 30.5246 25.297 31.1187 25.297C31.7129 25.297 32.1946 25.7787 32.1946 26.3729Z" fill="#1F67D2" stroke="white" stroke-width="0.1"/>
<path d="M27.7006 26.3729C27.7006 26.9671 27.2189 27.4488 26.6247 27.4488C26.0305 27.4488 25.5488 26.9671 25.5488 26.3729C25.5488 25.7787 26.0305 25.297 26.6247 25.297C27.2189 25.297 27.7006 25.7787 27.7006 26.3729Z" fill="#1F67D2" stroke="white" stroke-width="0.1"/>
<path d="M23.1971 26.3729C23.1971 26.9671 22.7154 27.4488 22.1212 27.4488C21.527 27.4488 21.0453 26.9671 21.0453 26.3729C21.0453 25.7787 21.527 25.297 22.1212 25.297C22.7154 25.297 23.1971 25.7787 23.1971 26.3729Z" fill="#1F67D2" stroke="white" stroke-width="0.1"/>
<path d="M9.46202 19.6771H32.538C36.0678 19.6771 38.9406 22.5498 38.95 26.0798V26.6568C38.95 30.196 36.0772 33.0688 32.538 33.0688H9.46202C5.92275 33.0688 3.05 30.196 3.05 26.6568V26.0796C3.05 22.5499 5.9227 19.6771 9.46202 19.6771ZM32.538 30.917C34.8836 30.917 36.7982 29.0024 36.7982 26.6568V26.0796C36.7982 23.734 34.8836 21.8194 32.538 21.8194H9.46202C7.11641 21.8194 5.20177 23.734 5.20177 26.0796V26.6568C5.20177 29.0024 7.11641 30.917 9.46202 30.917H32.538Z" fill="#1F67D2" stroke="white" stroke-width="0.1"/>
<path d="M13.8646 10.0447L13.8644 10.045C13.4396 10.4607 12.7619 10.4518 12.3459 10.0177L12.3456 10.0173C11.9304 9.59308 11.9476 8.91522 12.3731 8.49865C14.6721 6.27508 17.7344 5.05 20.9953 5.05C24.2561 5.05 27.3184 6.27508 29.6174 8.49867C30.0429 8.91523 30.0602 9.59308 29.6449 10.0173L29.6446 10.0177C29.4369 10.2344 29.1569 10.3429 28.8765 10.3429C28.6048 10.3429 28.3335 10.2433 28.1257 10.0446C26.224 8.20941 23.6948 7.20177 20.9953 7.20177C18.2956 7.20177 15.7664 8.20947 13.8646 10.0447Z" fill="#1F67D2" stroke="white" stroke-width="0.1"/>
<path d="M27.3932 13.622L27.3928 13.6224C27.1852 13.8391 26.9052 13.9476 26.6247 13.9476C26.353 13.9476 26.0817 13.848 25.874 13.6493L25.874 13.6493C24.5684 12.4009 22.8435 11.7053 20.9953 11.7053C19.1473 11.7053 17.4127 12.3913 16.1163 13.6495L16.1161 13.6497C15.6916 14.0651 15.0045 14.0473 14.5977 13.6224L14.5973 13.622C14.1821 13.1978 14.1994 12.5199 14.6249 12.1034C16.3278 10.4569 18.5954 9.55354 20.9953 9.55354C23.3951 9.55354 25.6627 10.4569 27.3657 12.1034C27.7911 12.52 27.8084 13.1978 27.3932 13.622Z" fill="#1F67D2" stroke="white" stroke-width="0.1"/>
<path d="M18.9264 17.0176L18.9262 17.0179C18.5019 17.4331 17.8241 17.4159 17.4076 16.9905C17.001 16.5656 17.01 15.8876 17.4348 15.4716C18.3905 14.5535 19.6458 14.0476 20.9858 14.0476C22.326 14.0476 23.5907 14.5536 24.5463 15.4716C24.9717 15.8882 24.989 16.566 24.5737 16.9903L24.5734 16.9906C24.3658 17.2073 24.0858 17.3158 23.8053 17.3158C23.5336 17.3158 23.2624 17.2163 23.0546 17.0176C21.9567 15.9582 20.0243 15.9582 18.9264 17.0176Z" fill="#1F67D2" stroke="white" stroke-width="0.1"/>
</svg>
