<svg width="21" height="22" viewBox="0 0 21 22" fill="none" xmlns="http://www.w3.org/2000/svg">
<g clip-path="url(#clip0_348_141)">
<path d="M19.3802 17.5481H15.782C15.6975 17.5481 15.629 17.4797 15.629 17.3952C15.629 17.3107 15.6975 17.2423 15.782 17.2423H19.3802C19.79 17.248 20.1273 16.9211 20.1341 16.5113V7.92624C20.1273 7.51644 19.79 7.18947 19.3802 7.19525H1.61979C1.20999 7.18947 0.872773 7.51644 0.865919 7.92624V16.5113C0.872773 16.9211 1.20999 17.248 1.61979 17.2423H5.17054C5.25499 17.2423 5.32345 17.3107 5.32345 17.3952C5.32345 17.4797 5.25499 17.5481 5.17054 17.5481H1.61979C1.04114 17.5538 0.567048 17.09 0.560059 16.5113V7.92624C0.567137 7.34758 1.04114 6.88379 1.61979 6.88939H19.3802C19.9589 6.88379 20.4329 7.34758 20.44 7.92624V16.5113C20.433 17.09 19.9589 17.5538 19.3802 17.5481Z" fill="white"/>
<path d="M19.3907 18.1082L19.3802 18.1082H15.7819C15.3888 18.1082 15.0689 17.7883 15.0689 17.3952C15.0689 17.0021 15.3888 16.6823 15.7819 16.6823L19.3881 16.6823C19.4892 16.6823 19.5708 16.6031 19.574 16.505V7.93257C19.5708 7.8345 19.4892 7.75525 19.3909 7.75525L19.3802 7.75529L1.61182 7.75525C1.51071 7.75525 1.42917 7.83454 1.4259 7.93257V16.505C1.42917 16.6031 1.51071 16.6824 1.60905 16.6824L1.61975 16.6823H5.1705C5.56359 16.6823 5.88343 17.0021 5.88343 17.3952C5.88343 17.7883 5.56359 18.1082 5.1705 18.1082L1.60927 18.1082C0.73255 18.1083 0.0106627 17.3949 4.47769e-05 16.5181L0 16.5113L4.47769e-05 7.9194C0.0107971 7.04268 0.732729 6.32939 1.60941 6.32939L1.61993 6.32944L19.3906 6.32939C20.2673 6.32939 20.9892 7.04268 20.9999 7.91944L21 7.92625L20.9999 16.5181C20.9893 17.3949 20.2675 18.1082 19.3907 18.1082Z" fill="white"/>
<path d="M15.1374 20.9399H5.81509C5.37922 20.9438 5.02246 20.5941 5.01758 20.1582V13.8191C5.01758 13.7346 5.08603 13.6662 5.17049 13.6662H15.7819C15.8664 13.6662 15.9349 13.7346 15.9349 13.8191V20.1582C15.93 20.5941 15.5732 20.9438 15.1374 20.9399ZM5.32344 13.972V20.1582C5.32823 20.4252 5.54812 20.6381 5.81513 20.6341H15.1374C15.4045 20.6381 15.6244 20.4252 15.6291 20.1582V13.972H5.32344Z" fill="white"/>
<path d="M15.1445 21.5L15.1373 21.4999L5.80793 21.5C5.07152 21.5 4.46576 20.9009 4.45756 20.1645L4.45752 20.1582V13.8191C4.45752 13.426 4.77736 13.1062 5.17045 13.1062H15.7819C16.175 13.1062 16.4948 13.426 16.4948 13.8191L16.4948 20.1645C16.4866 20.9009 15.8808 21.5 15.1445 21.5ZM5.88337 20.0741H15.069V14.5321H5.88337V20.0741Z" fill="white"/>
<path d="M15.6351 10.7683H5.32583C4.91361 10.7719 4.5763 10.4411 4.57178 10.029V7.04196C4.57178 6.95751 4.64023 6.88901 4.72469 6.88901C4.80914 6.88901 4.87759 6.95746 4.87759 7.04196V10.029C4.88207 10.2723 5.08247 10.4662 5.32583 10.4625H15.6351C15.8785 10.4662 16.0788 10.2723 16.0833 10.029V7.04196C16.0833 6.95751 16.1518 6.88901 16.2363 6.88901C16.3207 6.88901 16.3891 6.95746 16.3891 7.04196V10.029C16.3846 10.4411 16.0473 10.7719 15.6351 10.7683Z" fill="white"/>
<path d="M15.6416 11.3283L15.6349 11.3283L5.31925 11.3283C4.6061 11.3284 4.01956 10.7482 4.01176 10.035L4.01172 10.0289V7.04189C4.01172 6.64876 4.33156 6.32892 4.72465 6.32892C5.11773 6.32892 5.43757 6.64876 5.43757 7.04189V9.90242H15.5232V7.04189C15.5232 6.64876 15.8431 6.32892 16.2362 6.32892C16.6293 6.32892 16.9491 6.64876 16.9491 7.04189V10.035C16.9413 10.7481 16.3548 11.3283 15.6416 11.3283Z" fill="white"/>
<path d="M15.7819 7.19481C15.6974 7.19481 15.629 7.12635 15.629 7.0419V1.82064C15.6245 1.56545 15.4144 1.36201 15.1592 1.36586H5.7935C5.53826 1.36205 5.32801 1.5654 5.32339 1.82064V7.0419C5.32339 7.12635 5.25498 7.19481 5.17049 7.19481C5.08603 7.19481 5.01758 7.12635 5.01758 7.0419V1.82064C5.02224 1.39655 5.3694 1.05623 5.7935 1.06H15.1592C15.5833 1.05632 15.9302 1.39664 15.9349 1.82064V7.0419C15.9349 7.12635 15.8663 7.19481 15.7819 7.19481Z" fill="white"/>
<path d="M15.7818 7.75485C15.3888 7.75485 15.0689 7.43501 15.0689 7.04192V1.9259H5.88337V7.04192C5.88337 7.43501 5.56353 7.75485 5.17045 7.75485C4.77736 7.75485 4.45752 7.43501 4.45752 7.04192L4.45756 1.81448C4.46554 1.08968 5.06176 0.5 5.78656 0.5H5.7935H15.166C15.8909 0.5 16.487 1.08972 16.4948 1.81461L16.4949 1.82066V7.04192C16.4948 7.43501 16.175 7.75485 15.7818 7.75485Z" fill="white"/>
<path d="M17.1475 7.19535C17.063 7.19535 16.9946 7.1269 16.9946 7.04244V4.80214C16.9912 4.61635 16.8379 4.46846 16.6521 4.47182C16.652 4.47182 16.6519 4.47182 16.6518 4.47182H15.7819C15.6974 4.47182 15.6289 4.40337 15.6289 4.31891C15.6289 4.23446 15.6974 4.16596 15.7819 4.16596H16.6518C17.0064 4.16301 17.2966 4.44754 17.3004 4.80214V7.04244C17.3004 7.1269 17.232 7.19535 17.1475 7.19535Z" fill="white"/>
<path d="M17.1474 7.75532C16.7543 7.75532 16.4345 7.43549 16.4345 7.0424V5.03179H15.7818C15.3887 5.03179 15.0688 4.71196 15.0688 4.31887C15.0688 3.92573 15.3887 3.6059 15.7818 3.6059H16.6573C17.3135 3.6059 17.8532 4.1398 17.8603 4.796L17.8604 4.8021V7.0424C17.8603 7.43553 17.5405 7.75532 17.1474 7.75532Z" fill="white"/>
<path d="M3.86189 7.19535C3.7774 7.19535 3.70898 7.1269 3.70898 7.04244V4.80214C3.71275 4.44758 4.00284 4.16301 4.35735 4.16596H5.17077C5.25522 4.16596 5.32368 4.23442 5.32368 4.31891C5.32368 4.40341 5.25522 4.47182 5.17077 4.47182H4.35735C4.17161 4.46842 4.01825 4.61626 4.0148 4.80205V4.80214V7.04244C4.0148 7.1269 3.94634 7.19535 3.86189 7.19535Z" fill="white"/>
<path d="M3.86185 7.75532C3.46876 7.75532 3.14893 7.43549 3.14893 7.0424V4.79614C3.15591 4.13984 3.6955 3.6059 4.35176 3.6059H4.35731H5.17073C5.56382 3.6059 5.88366 3.92573 5.88366 4.31887C5.88366 4.71196 5.56382 5.03179 5.17073 5.03179H4.57478V7.0424C4.57478 7.43553 4.25494 7.75532 3.86185 7.75532Z" fill="white"/>
<path d="M13.9792 16.4726H7.00252C6.91807 16.4726 6.84961 16.4041 6.84961 16.3196C6.84961 16.2352 6.91807 16.1667 7.00252 16.1667H13.9792C14.0636 16.1667 14.1321 16.2352 14.1321 16.3196C14.1321 16.4041 14.0636 16.4726 13.9792 16.4726Z" fill="white"/>
<path d="M13.9792 17.0326H7.00248C6.60939 17.0326 6.28955 16.7127 6.28955 16.3196C6.28955 15.9265 6.60939 15.6067 7.00248 15.6067H13.9792C14.3722 15.6067 14.692 15.9265 14.692 16.3196C14.6921 16.7128 14.3722 17.0326 13.9792 17.0326Z" fill="white"/>
<path d="M13.9792 18.607H7.00252C6.91807 18.607 6.84961 18.5386 6.84961 18.4541C6.84961 18.3696 6.91807 18.3012 7.00252 18.3012H13.9792C14.0636 18.3012 14.1321 18.3696 14.1321 18.4541C14.1321 18.5386 14.0636 18.607 13.9792 18.607Z" fill="white"/>
<path d="M13.9792 19.1671H7.00248C6.60939 19.1671 6.28955 18.8472 6.28955 18.4541C6.28955 18.061 6.60939 17.7412 7.00248 17.7412H13.9792C14.3722 17.7412 14.692 18.061 14.692 18.4541C14.6921 18.8472 14.3722 19.1671 13.9792 19.1671Z" fill="white"/>
</g>
<defs>
<clipPath id="clip0_348_141">
<rect width="21" height="21" fill="white" transform="translate(0 0.5)"/>
</clipPath>
</defs>
</svg>
