<svg width="20" height="20" viewBox="0 0 20 20" fill="none" xmlns="http://www.w3.org/2000/svg">
<g clip-path="url(#clip0_973_13335)">
<path d="M15.1328 13.4531C14.1758 13.4531 13.3125 13.8672 12.7109 14.5234L7.32031 11.1836C7.46484 10.8164 7.54297 10.4141 7.54297 9.99609C7.54297 9.57812 7.46484 9.17578 7.32031 8.80859L12.7109 5.46875C13.3086 6.12891 14.1719 6.53906 15.1328 6.53906C16.9375 6.53906 18.4062 5.07031 18.4062 3.26562C18.4062 1.46094 16.9375 0 15.1328 0C13.3281 0 11.8594 1.46875 11.8594 3.27344C11.8594 3.69141 11.9375 4.09375 12.082 4.46094L6.69141 7.80078C6.09375 7.14062 5.23047 6.73047 4.26953 6.73047C2.46875 6.72656 1 8.19531 1 10C1 11.8047 2.46875 13.2734 4.27344 13.2734C5.23047 13.2734 6.09375 12.8594 6.69531 12.2031L12.0859 15.543C11.9414 15.9102 11.8633 16.3125 11.8633 16.7305C11.8633 18.5352 13.332 20.0039 15.1367 20.0039C16.9414 20.0039 18.4102 18.5352 18.4102 16.7305C18.4062 14.9219 16.9375 13.4531 15.1328 13.4531ZM13.0547 3.27344C13.0547 2.125 13.9883 1.19531 15.1328 1.19531C16.2773 1.19531 17.2109 2.12891 17.2109 3.27344C17.2109 4.41797 16.2773 5.35156 15.1328 5.35156C13.9883 5.35156 13.0547 4.42188 13.0547 3.27344ZM4.27344 12.0781C3.125 12.0781 2.19531 11.1445 2.19531 10C2.19531 8.85547 3.12891 7.92188 4.27344 7.92188C5.42188 7.92188 6.35156 8.85547 6.35156 10C6.35156 11.1445 5.42188 12.0781 4.27344 12.0781ZM13.0547 16.7266C13.0547 15.5781 13.9883 14.6484 15.1328 14.6484C16.2773 14.6484 17.2109 15.582 17.2109 16.7266C17.2109 17.8711 16.2773 18.8047 15.1328 18.8047C13.9883 18.8047 13.0547 17.875 13.0547 16.7266Z" fill="#2F538A"/>
</g>
<defs>
<clipPath id="clip0_973_13335">
<rect width="17.4062" height="20" fill="white" transform="translate(1)"/>
</clipPath>
</defs>
</svg>
