<svg width="42" height="42" viewBox="0 0 42 42" fill="none" xmlns="http://www.w3.org/2000/svg">
<path d="M33.974 20.6207H31.8711C31.3681 20.6207 30.964 21.0247 30.964 21.5278C30.964 22.0308 31.3681 22.4349 31.8711 22.4349H32.0113V28.1332C32.0113 29.329 31.0382 30.3021 29.8424 30.3021H29.3312C29.4136 30.0464 29.4549 29.7826 29.4549 29.5022V28.7682C29.4549 27.4488 28.6879 26.3025 27.5747 25.7582C28.0859 25.0243 28.3003 24.1172 28.1519 23.2183L27.1871 17.2313C26.9067 15.4996 26.9892 13.9657 27.4592 12.2752L28.0859 10.0239C28.2921 9.27344 28.2014 8.523 27.8138 7.84679C27.4262 7.17057 26.8242 6.70877 26.0738 6.5026L25.1584 6.25521C24.4822 6.07378 24.0286 5.57075 23.9132 4.88628C23.6411 3.21224 22.2062 2 20.5074 2H17.4479C15.7574 2 14.3307 3.20399 14.0421 4.86979C13.9267 5.55425 13.4648 6.05729 12.7969 6.23872L11.8073 6.5026C11.0569 6.70877 10.4549 7.17057 10.0673 7.84679C9.67969 8.51476 9.58073 9.27344 9.79514 10.0239L10.4219 12.2752C10.8919 13.9657 10.9744 15.4996 10.694 17.2313L9.72917 23.2183C9.58073 24.1172 9.79514 25.0243 10.3064 25.7582C9.19314 26.3025 8.42622 27.4488 8.42622 28.7682V29.5022C8.42622 29.7826 8.46745 30.0464 8.54991 30.3021H8.03863C6.84288 30.3021 5.86979 29.329 5.86979 28.1332V22.4349H6.00998C6.51302 22.4349 6.9171 22.0308 6.9171 21.5278C6.9171 21.0247 6.51302 20.6207 6.00998 20.6207H3.90712C3.40408 20.6207 3 21.0247 3 21.5278C3 22.0308 3.40408 22.4349 3.90712 22.4349H4.04731V28.1332C4.04731 30.3268 5.83681 32.1163 8.03038 32.1163H11.0321H17.9097V35.7118H11.9063C10.0838 35.7118 8.59939 37.1962 8.59939 39.0187V39.0929C8.59939 39.5959 9.00347 40 9.50651 40C10.0095 40 10.4136 39.5959 10.4136 39.0929V39.0187C10.4136 38.194 11.0816 37.526 11.9063 37.526H17.9097V39.0929C17.9097 39.5959 18.3138 40 18.8168 40C19.3199 40 19.724 39.5959 19.724 39.0929V37.526H25.7274C26.5521 37.526 27.2201 38.194 27.2201 39.0187V39.0929C27.2201 39.5959 27.6241 40 28.1272 40C28.6302 40 29.0343 39.5959 29.0343 39.0929V39.0187C29.0343 37.1962 27.5499 35.7118 25.7274 35.7118H19.724V32.1163H26.8325H29.8342C32.0278 32.1163 33.8173 30.3268 33.8173 28.1332V22.4349H33.9575C34.4605 22.4349 34.8646 22.0308 34.8646 21.5278C34.8646 21.0247 34.477 20.6207 33.974 20.6207ZM21.0352 25.4201H16.8459V11.0959H21.0352V25.4201ZM12.1619 11.7886L11.5352 9.53733C11.4527 9.2487 11.4857 9.0013 11.6341 8.73741C11.7826 8.48177 11.9805 8.32509 12.2691 8.24262L13.2587 7.97873C14.6029 7.61589 15.5842 6.54384 15.8234 5.16667C15.9635 4.375 16.6398 3.80599 17.4479 3.80599H20.5074C21.3155 3.80599 21.9918 4.38325 22.1319 5.17491C22.3628 6.55208 23.3442 7.63238 24.6884 7.99523L25.6037 8.24262C25.8924 8.31684 26.0903 8.47352 26.2387 8.73741C26.3872 8.99306 26.4201 9.2487 26.3377 9.53733L25.7109 11.7886C25.1667 13.7513 25.0677 15.5161 25.3976 17.52L26.3624 23.5069C26.4366 23.9852 26.3047 24.4718 25.9913 24.8429C25.678 25.214 25.2326 25.4201 24.7379 25.4201H22.8494V10.1888C22.8494 9.68576 22.4453 9.28168 21.9423 9.28168H15.9388C15.4358 9.28168 15.0317 9.68576 15.0317 10.1888V25.4201H13.1432C12.6567 25.4201 12.1949 25.214 11.8898 24.8429C11.5846 24.4718 11.4444 23.9935 11.5187 23.5069L12.4835 17.52C12.8051 15.5161 12.7062 13.7431 12.1619 11.7886ZM26.8407 30.3021H11.0404C10.5951 30.3021 10.2405 29.9392 10.2405 29.5022V28.7682C10.2405 27.9271 10.9249 27.2344 11.7743 27.2344H15.9388H21.9423H26.1068C26.9479 27.2344 27.6406 27.9188 27.6406 28.7682V29.5022C27.6406 29.9475 27.286 30.3021 26.8407 30.3021Z" fill="#1F67D2"/>
</svg>
