<svg width="42" height="42" viewBox="0 0 42 42" fill="none" xmlns="http://www.w3.org/2000/svg">
<path d="M36.2876 27.7372H36.2803V27.8372C36.2803 27.8924 36.2367 27.9359 36.1815 27.9359H25.2997H16.7003H5.81854C5.76333 27.9359 5.71975 27.8924 5.71975 27.8372V7.81854C5.71975 7.76333 5.76333 7.71975 5.81854 7.71975H36.1888C36.244 7.71975 36.2876 7.76333 36.2876 7.81854V27.7372ZM36.1888 5.9H5.81854C4.76201 5.9 3.9 6.76201 3.9 7.81854V27.8372C3.9 28.8937 4.76201 29.7557 5.81854 29.7557H15.7904V34.923H10.2508C9.74642 34.923 9.34088 35.3285 9.34088 35.8328C9.34088 36.3372 9.74642 36.7427 10.2508 36.7427H16.7003H25.2997H31.7492C32.2536 36.7427 32.6591 36.3372 32.6591 35.8328C32.6591 35.3285 32.2536 34.923 31.7492 34.923H26.2096V29.7557H36.1815C37.238 29.7557 38.1 28.8937 38.1 27.8372V7.81854C38.1 6.76254 37.2459 5.9 36.1888 5.9ZM24.3898 34.923H17.6102V29.7557H24.3898V34.923Z" fill="#1F67D2" stroke="#1F67D2" stroke-width="0.2"/>
</svg>
