<svg width="21" height="22" viewBox="0 0 21 22" fill="none" xmlns="http://www.w3.org/2000/svg">
<g clip-path="url(#clip0_348_101)">
<path d="M14.875 5.44117H14.5943V2.01588C14.5934 1.18096 13.9133 0.500926 13.0782 0.5H7.68768C6.85272 0.500926 6.17269 1.18091 6.17181 2.01604V5.44117H5.89088C5.05591 5.4421 4.37588 6.12208 4.375 6.95721V15.3111C4.37588 15.8568 4.56371 16.3924 4.9041 16.8193L5.76761 17.8986C6.1996 18.4408 6.83238 18.7653 7.5194 18.8014V20.4334C7.5202 21.0207 7.99864 21.4992 8.58624 21.5H12.18C12.7674 21.4992 13.2459 21.0207 13.2467 20.4332V18.8014C13.9337 18.7652 14.5667 18.4408 14.9987 17.8989L15.8622 16.8191C16.2023 16.3923 16.3902 15.8567 16.3911 15.3108V6.957C16.3902 6.12208 15.7102 5.4421 14.875 5.44117ZM12.0114 18.8048V20.2647H8.75468V18.8048H12.0114ZM7.40709 5.44117V2.01621C7.40722 1.86145 7.53326 1.73545 7.68802 1.73528H13.0781C13.2328 1.73541 13.3588 1.86145 13.359 2.01604V5.44117H7.40709ZM5.89121 6.67645H14.8748C15.0296 6.67658 15.1556 6.80262 15.1557 6.95721V15.3107C15.1554 15.5774 15.0635 15.839 14.8969 16.0474L14.0339 17.1272C13.8099 17.4083 13.4753 17.5695 13.1129 17.5695H7.64995C7.29078 17.5695 6.9564 17.4084 6.73241 17.127L5.8691 16.0474C5.70251 15.839 5.61062 15.5774 5.61032 15.3108V6.95734C5.61045 6.80262 5.73645 6.67658 5.89121 6.67645Z" fill="white"/>
<path d="M9.48484 2.29675H8.58641C8.24585 2.29675 7.96875 2.57385 7.96875 2.91441C7.96875 3.25498 8.24585 3.53208 8.58641 3.53208H9.48484C9.8254 3.53208 10.1025 3.25498 10.1025 2.91441C10.1025 2.57385 9.82544 2.29675 9.48484 2.29675Z" fill="white"/>
<path d="M12.1796 2.29675H11.2812C10.9406 2.29675 10.6636 2.57385 10.6636 2.91441C10.6636 3.25498 10.9406 3.53208 11.2812 3.53208H12.1796C12.5202 3.53208 12.7973 3.25498 12.7973 2.91441C12.7973 2.57385 12.5202 2.29675 12.1796 2.29675Z" fill="white"/>
<path d="M8.21599 12.8416L9.76573 14.0039V15.9413C9.76573 16.2819 10.0428 16.5589 10.3834 16.5589C10.724 16.5589 11.001 16.2819 11.001 15.9413V13.1056L12.5507 11.9434C12.7055 11.8275 12.798 11.6427 12.798 11.4493V9.65239C12.7981 9.31191 12.5211 9.03477 12.1798 9.03473C11.8394 9.03473 11.5624 9.3117 11.5623 9.65239V11.1403L11.0008 11.5615V8.3048C11.0008 7.96423 10.7238 7.68713 10.3832 7.68713C10.0426 7.68713 9.76552 7.96423 9.76552 8.3048V12.46L9.20403 12.0389V10.5491C9.20079 10.2119 8.92377 9.93745 8.5865 9.93745H8.58043C8.24635 9.94065 7.97195 10.2151 7.96875 10.5507V12.3476C7.96875 12.541 8.06123 12.7257 8.21599 12.8416Z" fill="white"/>
</g>
<defs>
<clipPath id="clip0_348_101">
<rect width="21" height="21" fill="white" transform="translate(0 0.5)"/>
</clipPath>
</defs>
</svg>
