<svg width="21" height="22" viewBox="0 0 21 22" fill="none" xmlns="http://www.w3.org/2000/svg">
<path d="M10.5 1.375C4.71026 1.375 0 6.06698 0 11.8342V14.2764C0 15.7464 1.01947 17.0112 2.44209 17.3317C2.44359 18.7213 3.57461 19.8515 4.96461 19.8515C6.35554 19.8515 7.48713 18.7199 7.48713 17.329V11.2238C7.48713 9.8329 6.35554 8.70132 4.96461 8.70132C3.57456 8.70132 2.4435 9.83145 2.44209 11.2211C2.06419 11.3067 1.70447 11.4626 1.38316 11.6793C1.46632 6.74501 5.52407 2.75688 10.5 2.75688C15.4759 2.75688 19.5336 6.74501 19.6168 11.6793C19.2955 11.4626 18.9358 11.3067 18.5579 11.2211C18.5565 9.8314 17.4255 8.70132 16.0354 8.70132C14.6445 8.70132 13.5128 9.8329 13.5128 11.2238V17.3291C13.5128 18.72 14.6445 19.8516 16.0354 19.8516C17.4253 19.8516 18.5563 18.7214 18.5579 17.3318C19.9805 17.0113 21 15.7465 21 14.2765V11.8343C21 6.06703 16.2897 1.375 10.5 1.375ZM19.6181 14.2764C19.6181 14.9774 19.1913 15.6118 18.5578 15.8854V12.6674C19.1913 12.9409 19.6181 13.5753 19.6181 14.2764ZM1.38183 14.2764C1.38183 13.5753 1.80865 12.9409 2.44209 12.6674V15.8854C1.80869 15.6118 1.38183 14.9774 1.38183 14.2764ZM6.1052 17.329C6.1052 17.958 5.59355 18.4697 4.96461 18.4697C4.33567 18.4697 3.82397 17.958 3.82397 17.329V11.2238C3.82397 10.5948 4.33567 10.0832 4.96461 10.0832C5.59355 10.0832 6.1052 10.5948 6.1052 11.2238V17.329ZM14.8947 11.2238C14.8947 10.5948 15.4064 10.0832 16.0354 10.0832C16.6643 10.0832 17.176 10.5948 17.176 11.2238V17.3291C17.176 17.958 16.6643 18.4697 16.0354 18.4697C15.4064 18.4697 14.8947 17.958 14.8947 17.3291V11.2238Z" fill="white"/>
</svg>
