<svg width="42" height="42" viewBox="0 0 42 42" fill="none" xmlns="http://www.w3.org/2000/svg">
<path d="M2.55652 32.8348H4.54862V30.3447H7.53676V32.8348H9.52885V30.3447H12.517V32.8348H14.5091V30.3447H17.4972V32.8348H19.4893V30.3447H22.4775V32.8348H24.4696V30.3447H27.4577V32.8348H29.4498V30.3447H32.4379V32.8348H34.43V30.3447H37.4182V32.8348H39.4103V30.3447H42V8H0V30.3447H2.55652V32.8348ZM1.99209 28.3526V9.99209H40.0079V28.3526H1.99209Z" fill="#1F67D2"/>
<path d="M4.98853 25.3561H13.6707V12.9885H4.98853V25.3561ZM6.98062 14.9806H11.6786V23.3723H6.98062V14.9806Z" fill="#1F67D2"/>
<path d="M16.6589 25.3561H25.3411V12.9885H16.6589V25.3561ZM18.651 14.9806H23.349V23.3723H18.651V14.9806Z" fill="#1F67D2"/>
<path d="M28.3292 25.3561H37.0114V12.9885H28.3292V25.3561ZM30.3213 14.9806H35.0193V23.3723H30.3213V14.9806Z" fill="#1F67D2"/>
</svg>
