<svg width="28" height="28" viewBox="0 0 28 28" fill="none" xmlns="http://www.w3.org/2000/svg">
<path d="M14 0C6.28033 0 0 6.28039 0 14C0 21.7197 6.28039 28 14 28C21.7197 28 28 21.7196 28 14C27.9999 6.28039 21.7196 0 14 0ZM14 13.8826C11.6726 13.8826 9.77912 11.9891 9.77912 9.66171C9.77912 7.33435 11.6726 5.44092 14 5.44092C16.3273 5.44092 18.2208 7.33435 18.2208 9.66171C18.2208 11.9891 16.3273 13.8826 14 13.8826ZM10.593 14.829C11.6057 15.499 12.7823 15.8528 14 15.8528C15.2176 15.8528 16.3942 15.499 17.4069 14.829C20.45 16.1519 22.4622 19.1325 22.5505 22.4501C20.2691 24.7589 17.2346 26.0297 14 26.0297C10.7654 26.0297 7.7308 24.7588 5.44937 22.4501C5.53771 19.1325 7.54996 16.152 10.593 14.829ZM20.191 9.66171C20.191 6.24791 17.4137 3.47066 14 3.47066C10.5862 3.47066 7.80892 6.24797 7.80892 9.66171C7.80892 11.0159 8.24148 12.2998 9.0614 13.3841C7.72334 14.0979 6.53388 15.1143 5.61465 16.3304C4.72878 17.5023 4.08864 18.8666 3.75381 20.2916C2.58608 18.3972 1.9702 16.2281 1.9702 14C1.9702 7.36683 7.36671 1.97026 14 1.97026C20.6332 1.97026 26.0297 7.36683 26.0297 14C26.0297 16.2281 25.4139 18.3971 24.2461 20.2916C23.9114 18.8666 23.2712 17.5025 22.3851 16.3304C21.4659 15.1143 20.2765 14.098 18.9385 13.3841C19.7585 12.2998 20.191 11.0159 20.191 9.66171Z" fill="white"/>
</svg>
