<svg width="24" height="24" viewBox="0 0 24 24" fill="none" xmlns="http://www.w3.org/2000/svg">
<path d="M21.2507 10.5949C21.8724 10.4369 22.5 9.90458 22.5 9.07139V6.50083C22.5 5.39736 21.6026 4.5 20.4992 4.5H3.50083C2.39736 4.5 1.5 5.39736 1.5 6.50083V9.07139C1.5 9.9041 2.12757 10.4364 2.74931 10.5944C3.22715 10.7159 3.56111 11.1495 3.56111 11.6492C3.56111 12.147 3.22715 12.5792 2.74931 12.7002C2.12757 12.8587 1.5 13.3905 1.5 14.2242V16.7986C1.5 17.9016 2.39736 18.7994 3.50083 18.7994H20.4992C21.6022 18.7994 22.5 17.9021 22.5 16.7986V14.2242C22.5 13.3905 21.8724 12.8587 21.2507 12.7007C20.7728 12.5797 20.4389 12.1475 20.4389 11.6497C20.4389 11.15 20.7728 10.7164 21.2507 10.5949ZM18.5061 11.6497C18.5061 12.9301 19.3447 14.0774 20.5633 14.4891V16.7986C20.5633 16.8589 20.5288 16.8667 20.4992 16.8667H9.39153V16.7986C9.39104 16.2663 8.95743 15.8327 8.42514 15.8322C7.89285 15.8327 7.45924 16.2663 7.45875 16.7986V16.8667H3.50083C3.45514 16.8667 3.43278 16.8443 3.43278 16.7986V14.493C4.6534 14.0832 5.49389 12.9345 5.49389 11.6497C5.49389 10.364 4.6534 9.21333 3.43278 8.80257V6.50083C3.43278 6.45514 3.45514 6.43278 3.50083 6.43278H7.45924V6.49694C7.45972 7.02924 7.89333 7.46285 8.42563 7.46333C8.95792 7.46285 9.39153 7.02924 9.39201 6.49694V6.43278H20.4997C20.5293 6.43278 20.5638 6.44056 20.5638 6.50083V8.80694C19.3447 9.21917 18.5061 10.3678 18.5061 11.6497Z" fill="#F43453"/>
<path d="M8.42514 8.27621C7.89284 8.2767 7.45923 8.71031 7.45875 9.2426V10.2722C7.45778 10.5303 7.55743 10.7739 7.73923 10.9571C7.92104 11.1404 8.16361 11.242 8.42514 11.243C8.9584 11.2425 9.39201 10.8084 9.39152 10.2727V9.24212C9.39104 8.71031 8.95791 8.2767 8.42514 8.27621Z" fill="#F43453"/>
<path d="M8.42513 12.0561C7.89235 12.0565 7.45923 12.4902 7.45874 13.0225V14.053C7.45923 14.5853 7.89284 15.0189 8.42513 15.0194C8.95742 15.0189 9.39103 14.5853 9.39152 14.053V13.0225C9.39055 12.4902 8.95742 12.0565 8.42513 12.0561Z" fill="#F43453"/>
</svg>
