<svg width="12" height="16" viewBox="0 0 12 16" fill="none" xmlns="http://www.w3.org/2000/svg">
<g clip-path="url(#clip0_129_32817)">
<path d="M6 0C2.69062 0 0 2.70938 0 6.04375C0 10.7781 5.4375 15.6688 5.66875 15.875C5.76562 15.9594 5.88125 16.0031 6 16.0031C6.11875 16.0031 6.2375 15.9625 6.33125 15.8781C6.5625 15.6688 12 10.7781 12 6.04375C12 2.70938 9.30937 0 6 0ZM6 9.33438C4.1625 9.33438 2.66563 7.8375 2.66563 6C2.66563 4.1625 4.1625 2.66563 6 2.66563C7.8375 2.66563 9.33438 4.1625 9.33438 6C9.33438 7.8375 7.8375 9.33438 6 9.33438Z" fill="#1F67D2"/>
</g>
<defs>
<clipPath id="clip0_129_32817">
<rect width="12" height="16" fill="white"/>
</clipPath>
</defs>
</svg>
