<svg width="21" height="22" viewBox="0 0 21 22" fill="none" xmlns="http://www.w3.org/2000/svg">
<g clip-path="url(#clip0_348_116)">
<path d="M18.7358 6.86582C18.0184 6.86735 17.434 7.45256 17.4329 8.17085V10.8861C17.4329 11.1978 17.6866 11.4514 17.9983 11.4514H18.1725V12.7102H17.8331C17.5588 12.3437 17.2017 12.0471 16.791 11.8445L16.3598 3.40921C16.2767 1.77789 14.9321 0.5 13.2988 0.5H8.4826C6.8481 0.5 5.50273 1.77786 5.41979 3.4091L4.98852 11.8444C4.57803 12.0468 4.22091 12.3435 3.94653 12.7102H3.62017V11.4514H3.79417C4.10593 11.4514 4.35953 11.1978 4.35953 10.886V8.17055C4.35953 7.4511 3.77422 6.86578 3.05477 6.86578C2.33531 6.86578 1.75 7.4511 1.75 8.17055V10.8858C1.74989 11.0369 1.80857 11.1789 1.91528 11.2857C2.02205 11.3926 2.16401 11.4514 2.3151 11.4514H2.4894V13.2757C2.4894 13.4267 2.54812 13.5687 2.65441 13.675C2.76116 13.7821 2.90323 13.8411 3.05447 13.8411H3.43225C3.39045 14.0377 3.36926 14.2383 3.36911 14.4403C3.36911 14.752 3.62275 15.0055 3.93448 15.0055H7.3296C7.57223 15.7506 8.26392 16.2601 9.05964 16.2615H9.59525V18.9167H6.99149C5.88006 18.9178 4.97501 19.823 4.97397 20.9348C4.97397 21.2464 5.22761 21.5 5.53933 21.5C5.8511 21.5 6.10474 21.2464 6.10474 20.9346C6.10474 20.4455 6.50269 20.0475 6.99186 20.0475H10.3232V20.9346C10.3232 21.2464 10.5768 21.5 10.8886 21.5C11.2004 21.5 11.454 21.2464 11.454 20.9346V20.0475H14.7852C15.2744 20.0475 15.6725 20.4455 15.6725 20.9346C15.6725 21.2464 15.9261 21.5 16.2378 21.5C16.5496 21.5 16.8032 21.2464 16.8032 20.9342C16.802 19.8229 15.8968 18.9179 14.785 18.9167H12.182V16.2615H12.7185C13.5134 16.2601 14.2049 15.7504 14.4474 15.0055H17.8447C18.1561 15.0054 18.4097 14.7518 18.4099 14.4397C18.4098 14.2381 18.3886 14.0376 18.3468 13.841H18.7368C19.0485 13.841 19.3021 13.5874 19.3021 13.2757V11.4515H19.4761C19.7877 11.4515 20.0413 11.1981 20.0415 10.8864V8.17014C20.0407 7.45173 19.4555 6.86664 18.7358 6.86582ZM11.0514 18.9166H10.726V16.2614H11.0512L11.0514 18.9166ZM12.7184 15.1306H9.06032C8.9178 15.1302 8.78093 15.0847 8.66737 15.0054H13.1099C12.9966 15.0848 12.8602 15.1302 12.7184 15.1306ZM2.88073 8.17055C2.88073 8.07462 2.95877 7.99659 3.05473 7.99659C3.15069 7.99659 3.22873 8.07462 3.22873 8.17055V10.3206H2.88073V8.17055ZM8.48178 1.63118H13.2963C14.3271 1.63118 15.1762 2.43758 15.2293 3.46692L15.6437 11.5488C15.6009 11.5466 15.5578 11.5453 15.5144 11.5449H6.26238H6.26081C6.21915 11.5453 6.17731 11.5466 6.13543 11.5488L6.55008 3.46685C6.60255 2.4375 7.45105 1.63118 8.48178 1.63118ZM17.186 13.8747H4.59319C4.83347 13.1697 5.50333 12.6776 6.26298 12.6766H15.5154C16.2756 12.6776 16.9457 13.1697 17.186 13.8747ZM18.9119 10.3206H18.5637V8.17635C18.5677 8.07754 18.6396 8.00606 18.736 8.0052L18.7439 8.00531C18.8349 8.00845 18.9079 8.08095 18.9118 8.17171L18.9119 10.3206Z" fill="white"/>
<path d="M8.71899 6.869H13.0583C13.8738 6.86807 14.5381 6.20378 14.5391 5.38777V3.50558C14.5381 2.69013 13.8738 2.02596 13.0578 2.02502H8.71835C7.90294 2.02596 7.23877 2.69025 7.23779 3.5063V5.3884C7.23873 6.20386 7.90298 6.86807 8.71899 6.869ZM13.4083 3.50592V5.38766C13.4081 5.58085 13.2509 5.73816 13.0582 5.73831H8.71903C8.52591 5.73816 8.36864 5.58093 8.36849 5.38814V3.50633C8.3686 3.31321 8.52579 3.15598 8.71888 3.15583H13.0577C13.2508 3.15594 13.4081 3.31317 13.4083 3.50592Z" fill="white"/>
</g>
<defs>
<clipPath id="clip0_348_116">
<rect width="21" height="21" fill="white" transform="translate(0 0.5)"/>
</clipPath>
</defs>
</svg>
