<svg width="11" height="17" viewBox="0 0 11 17" fill="none" xmlns="http://www.w3.org/2000/svg">
<path d="M9.78726 8.2852L1.40477 1.00678C1.2678 0.88331 1.09149 0.812969 0.908343 0.808651L0.89097 0.808594C0.473173 0.808594 0.125766 1.15348 0.116519 1.57746C0.111251 1.81967 0.214089 2.04712 0.398524 2.20127L0.404521 2.20644L8.0931 8.88423L0.379972 15.5794C0.0354232 15.836 -0.0389457 16.329 0.214198 16.6783C0.361926 16.8821 0.590019 16.9991 0.84008 16.9991C1.00574 16.9991 1.16412 16.9463 1.29823 16.8464C1.32922 16.8233 1.35943 16.7969 1.38734 16.7688L1.41071 16.7469L9.7867 9.48133C10.1123 9.19963 10.1511 8.70247 9.87357 8.37281C9.84695 8.34105 9.81792 8.31162 9.78726 8.2852Z" fill="#1F63C9"/>
</svg>
