<svg width="42" height="42" viewBox="0 0 42 42" fill="none" xmlns="http://www.w3.org/2000/svg">
<path d="M37.7357 24.2362V24.2715L37.769 24.2833C39.0405 24.7332 39.9597 25.9559 39.9499 27.3835V27.3838V31.8421C39.9499 33.6515 38.4828 35.1284 36.6636 35.1284H35.3629H35.3275L35.3157 35.1617C34.8658 36.4332 33.6431 37.3526 32.2152 37.3526H29.9911C28.1816 37.3526 26.7048 35.8855 26.7048 34.0663V25.1596C26.7048 23.3502 28.1719 21.8733 29.9911 21.8733H32.2152C33.6433 21.8733 34.8658 22.7829 35.3157 24.0641L35.3274 24.0975H35.3629H35.5515H35.6015V24.0475V20.7112C35.6015 20.1534 35.5717 19.6054 35.5119 19.0673L35.503 18.9873L35.4352 19.0308C34.9168 19.3633 34.3105 19.5491 33.6649 19.5491C32.2859 19.5491 31.0439 18.6786 30.5843 17.3781L30.5843 17.3781C29.1573 13.3464 25.3055 10.6424 21.0049 10.6424C16.7044 10.6424 12.8526 13.3464 11.4255 17.3781L11.4255 17.3781C10.966 18.6786 9.72396 19.5491 8.3449 19.5491C7.69933 19.5491 7.09305 19.3633 6.57468 19.0308L6.50688 18.9873L6.49798 19.0673C6.4382 19.6054 6.40831 20.1534 6.40831 20.7112V24.0475V24.0975H6.45831H6.64697H6.68232L6.69411 24.0642C7.14402 22.7927 8.36676 21.8733 9.7946 21.8733H12.0089C13.8183 21.8733 15.2951 23.3404 15.2951 25.1596V34.0663C15.2951 35.8757 13.828 37.3526 12.0089 37.3526H9.78467C8.35666 37.3526 7.13409 36.443 6.68422 35.1618L6.67248 35.1284H6.63704H5.33629C3.52696 35.1284 2.05 33.6514 2.05 31.8421V27.3838C2.05 25.956 2.96937 24.7332 4.24087 24.2833L4.27419 24.2715V24.2362V20.7013C4.27419 11.5048 11.8177 4.05 21.0049 4.05C30.202 4.05 37.7357 11.5147 37.7357 20.7013V24.2362ZM6.49838 26.2717V26.2217H6.44838H5.33629C4.69305 26.2217 4.17419 26.7406 4.17419 27.3838V31.8421C4.17419 32.4854 4.69305 33.0042 5.33629 33.0042H6.39838H6.44838H6.45831V32.9542H6.49838V26.2717ZM32.5851 16.6568L32.5853 16.6572C32.7513 17.1137 33.1771 17.415 33.6649 17.415C34.487 17.415 35.0234 16.5834 34.7447 15.8091C32.7419 10.2094 27.3317 6.17419 21.0049 6.17419C14.6881 6.17419 9.26793 10.1994 7.26515 15.8091L7.26513 15.8092C6.98651 16.5935 7.52288 17.415 8.3449 17.415C8.83194 17.415 9.26856 17.1144 9.42479 16.6566C11.1257 11.8509 15.7637 8.50831 21.0049 8.50831C26.2462 8.50831 30.8843 11.851 32.5851 16.6568ZM35.5115 32.9542V33.0042H35.5615H36.6736C37.3168 33.0042 37.8357 32.4854 37.8357 31.8421V27.3838C37.8357 26.7406 37.3168 26.2217 36.6736 26.2217H35.5615H35.5115V26.2717V32.9542ZM9.7946 23.9975C9.15136 23.9975 8.6325 24.5164 8.6325 25.1596V34.0663C8.6325 34.7095 9.15136 35.2284 9.7946 35.2284H12.0188C12.662 35.2284 13.1809 34.7095 13.1809 34.0663V25.1596C13.1809 24.5164 12.662 23.9975 12.0188 23.9975H9.7946ZM32.2152 35.2284C32.8585 35.2284 33.3773 34.7095 33.3773 34.0663V25.1596C33.3773 24.5164 32.8585 23.9975 32.2152 23.9975H29.9911C29.3478 23.9975 28.829 24.5164 28.829 25.1596V34.0663C28.829 34.7095 29.3478 35.2284 29.9911 35.2284H32.2152Z" fill="#1F67D2" stroke="white" stroke-width="0.1"/>
</svg>
