<svg width="42" height="42" viewBox="0 0 42 42" fill="none" xmlns="http://www.w3.org/2000/svg">
<path d="M34.0585 6.84604V14.7461H33.3316C32.8394 14.7461 32.4467 15.1387 32.4467 15.631V22.0709C32.4467 22.5632 32.8394 22.9558 33.3316 22.9558H34.0585V25.4768H33.3389C32.8466 25.4768 32.454 25.8695 32.454 26.3617V32.8016C32.454 33.2939 32.8466 33.6866 33.3389 33.6866H34.0657V35.1467C34.0657 35.7653 33.5581 36.2729 32.9396 36.2729L6.84604 36.2729L6.84548 36.2729C6.22767 36.2798 5.71987 35.7728 5.71987 35.1467V6.84604C5.71987 6.22749 6.22749 5.71987 6.84604 5.71987H32.9323C33.5509 5.71987 34.0585 6.22749 34.0585 6.84604ZM37.1651 22.9558C37.6573 22.9558 38.05 22.5632 38.05 22.0709V15.631C38.05 15.1387 37.6573 14.7461 37.1651 14.7461H35.8356V6.84604C35.8356 5.2502 34.5354 3.95 32.9396 3.95H6.84604C5.2502 3.95 3.95 5.2502 3.95 6.84604V35.1467C3.95 36.7425 5.2502 38.0427 6.84604 38.0427H32.9323C34.5281 38.0427 35.8283 36.7425 35.8283 35.1467V33.6866H37.1578C37.6501 33.6866 38.0427 33.2939 38.0427 32.8016V26.3617C38.0427 25.8695 37.6501 25.4768 37.1578 25.4768H35.8283V22.9558H37.1651ZM36.2801 21.186H34.2238V16.5159H36.2801V21.186ZM36.2801 31.9167H34.2238V27.2467H36.2801V31.9167Z" fill="#1F67D2" stroke="#1F67D2" stroke-width="0.1"/>
<path d="M20.9963 13.837C21.4886 13.837 21.8813 13.4444 21.8813 12.9521C21.8813 12.4598 21.4886 12.0672 20.9963 12.0672H20.2695V11.8122C20.2695 10.7682 19.4194 9.91811 18.3754 9.91811H18.1204V9.19126C18.1204 8.69898 17.7278 8.30632 17.2355 8.30632C16.7432 8.30632 16.3506 8.69898 16.3506 9.19126V9.91811H13.8296V9.19126C13.8296 8.69898 13.4369 8.30632 12.9447 8.30632C12.4524 8.30632 12.0597 8.69898 12.0597 9.19126V9.91811H11.8048C10.7607 9.91811 9.91067 10.7682 9.91067 11.8122V12.0672H9.19108C8.6988 12.0672 8.30614 12.4598 8.30614 12.9521C8.30614 13.4444 8.6988 13.837 9.19108 13.837H9.91793V16.358H9.19108C8.6988 16.358 8.30614 16.7507 8.30614 17.2429C8.30614 17.7352 8.6988 18.1279 9.19108 18.1279H9.91793V18.3828C9.91793 19.4269 10.768 20.2769 11.812 20.2769H12.067V21.0038C12.067 21.496 12.4596 21.8887 12.9519 21.8887C13.4442 21.8887 13.8368 21.496 13.8368 21.0038V20.2769H16.3578V21.0038C16.3578 21.496 16.7505 21.8887 17.2428 21.8887C17.735 21.8887 18.1277 21.496 18.1277 21.0038V20.2769H18.3826C19.4267 20.2769 20.2767 19.4269 20.2767 18.3828V18.1279H21.0036C21.4959 18.1279 21.8885 17.7352 21.8885 17.2429C21.8885 16.7507 21.4959 16.358 21.0036 16.358H20.2767V13.837H20.9963ZM18.5069 18.3828C18.5069 18.4496 18.4494 18.5071 18.3826 18.5071H11.812C11.7453 18.5071 11.6878 18.4496 11.6878 18.3828V11.8122C11.6878 11.7455 11.7453 11.688 11.812 11.688H18.3826C18.4494 11.688 18.5069 11.7455 18.5069 11.8122V18.3828Z" fill="#1F67D2" stroke="#1F67D2" stroke-width="0.1"/>
<path d="M20.9963 27.6258H9.19107C8.6988 27.6258 8.30614 28.0184 8.30614 28.5107C8.30614 29.003 8.6988 29.3957 9.19107 29.3957H20.9963C21.4886 29.3957 21.8813 29.003 21.8813 28.5107C21.8813 28.0184 21.4886 27.6258 20.9963 27.6258Z" fill="#1F67D2" stroke="#1F67D2" stroke-width="0.1"/>
<path d="M27.4363 27.6258H25.2873C24.795 27.6258 24.4023 28.0184 24.4023 28.5107C24.4023 29.003 24.795 29.3957 25.2873 29.3957H27.4363C27.9286 29.3957 28.3212 29.003 28.3212 28.5107C28.3212 28.0184 27.9286 27.6258 27.4363 27.6258Z" fill="#1F67D2" stroke="#1F67D2" stroke-width="0.1"/>
<path d="M20.9963 31.9168H9.19107C8.6988 31.9168 8.30614 32.3095 8.30614 32.8017C8.30614 33.294 8.6988 33.6867 9.19107 33.6867H20.9963C21.4886 33.6867 21.8813 33.294 21.8813 32.8017C21.8813 32.3095 21.4886 31.9168 20.9963 31.9168Z" fill="#1F67D2" stroke="#1F67D2" stroke-width="0.1"/>
<path d="M27.4363 31.9168H25.2873C24.795 31.9168 24.4023 32.3095 24.4023 32.8017C24.4023 33.294 24.795 33.6867 25.2873 33.6867H27.4363C27.9286 33.6867 28.3212 33.294 28.3212 32.8017C28.3212 32.3095 27.9286 31.9168 27.4363 31.9168Z" fill="#1F67D2" stroke="#1F67D2" stroke-width="0.1"/>
<path d="M25.2945 21.8814C25.7868 21.8814 26.1795 21.4888 26.1795 20.9965V9.19126C26.1795 8.69898 25.7868 8.30632 25.2945 8.30632C24.8023 8.30632 24.4096 8.69898 24.4096 9.19126V20.9965C24.4096 21.4888 24.8023 21.8814 25.2945 21.8814Z" fill="#1F67D2" stroke="#1F67D2" stroke-width="0.1"/>
<path d="M29.5853 8.30632C29.093 8.30632 28.7004 8.69898 28.7004 9.19126V20.9965C28.7004 21.4888 29.093 21.8814 29.5853 21.8814C30.0776 21.8814 30.4702 21.4888 30.4702 20.9965V9.19126C30.4702 8.70624 30.0703 8.30632 29.5853 8.30632Z" fill="#1F67D2" stroke="#1F67D2" stroke-width="0.1"/>
<path d="M9.19834 25.1048C9.69061 25.1048 10.0833 24.7121 10.0833 24.2198C10.0833 23.7273 9.68307 23.3349 9.19834 23.3349C8.70606 23.3349 8.3134 23.7275 8.3134 24.2198C8.3134 24.7121 8.70606 25.1048 9.19834 25.1048Z" fill="#1F67D2" stroke="#1F67D2" stroke-width="0.1"/>
<path d="M13.8369 24.2198C13.8369 23.7275 13.4442 23.3349 12.9519 23.3349C12.4597 23.3349 12.067 23.7275 12.067 24.2198C12.067 24.7124 12.4672 25.1048 12.9519 25.1048C13.437 25.1048 13.8369 24.7048 13.8369 24.2198Z" fill="#1F67D2" stroke="#1F67D2" stroke-width="0.1"/>
</svg>
