<svg width="18" height="14" viewBox="0 0 18 14" fill="none" xmlns="http://www.w3.org/2000/svg">
<path d="M18 1.75426C18 0.786652 17.2133 0 16.2457 0H1.75426C0.786652 0 0 0.786652 0 1.75677V11.7872C0 12.2572 0.183468 12.697 0.515219 13.0288C0.84697 13.3605 1.28679 13.544 1.75677 13.544H16.2457C16.7157 13.544 17.1555 13.3605 17.4873 13.0313C17.819 12.6995 18.0025 12.2597 18.0025 11.7897V1.75426C18 1.75426 18 1.75426 18 1.75426ZM1.75426 1.28176H16.2432C16.5046 1.28176 16.7157 1.49288 16.7157 1.75677C16.7157 1.88997 16.6504 2.01564 16.5373 2.08852C15.8285 2.56102 14.401 3.51354 12.9509 4.47864C11.5133 5.43619 10.0581 6.40882 9.25887 6.93912C9.09802 7.04468 8.89193 7.04468 8.73359 6.93912C7.94443 6.41385 6.51187 5.4563 5.08936 4.51131C3.62413 3.53365 2.17397 2.56604 1.45518 2.08852C1.3446 2.01312 1.27674 1.88997 1.27674 1.75426C1.28176 1.49288 1.49288 1.28176 1.75426 1.28176ZM16.58 12.1215C16.492 12.212 16.3714 12.2597 16.2457 12.2597H1.75426C1.6286 12.2597 1.50796 12.2094 1.41999 12.1215C1.33203 12.031 1.28176 11.9129 1.28176 11.7872V3.51103C2.06842 4.03379 3.21949 4.80285 4.38313 5.57945C5.80313 6.52695 7.2382 7.48199 8.02737 8.00726C8.32393 8.2033 8.66322 8.30383 9 8.30383C9.33678 8.30383 9.67858 8.20581 9.97263 8.00726C10.7693 7.47445 12.227 6.50433 13.6646 5.54677C14.8107 4.78274 15.9416 4.02876 16.7182 3.51103V11.7872C16.7182 11.9129 16.668 12.031 16.58 12.1215Z" fill="#6782AA"/>
</svg>
