<svg width="42" height="42" viewBox="0 0 42 42" fill="none" xmlns="http://www.w3.org/2000/svg">
<mask id="path-1-inside-1_1689_24851" fill="white">
<path d="M35.8398 4H6.16019C4.41599 4 3 5.41599 3 7.16019V28.2594C3 30.0036 4.41599 31.4196 6.16019 31.4196H15.3126L13.906 35.6395H10.4551C9.87366 35.6395 9.40479 36.1083 9.40479 36.6897C9.40479 37.2711 9.87366 37.74 10.4551 37.74H31.5543C32.1357 37.74 32.6045 37.2711 32.6045 36.6897C32.6045 36.1083 32.1357 35.6395 31.5543 35.6395H28.094L26.6874 31.4196H35.8398C37.584 31.4196 39 30.0036 39 28.2594V7.16019C39.0093 5.41599 37.584 4 35.8398 4ZM16.1378 35.6488L17.5444 31.429H24.4649L25.8716 35.6488H16.1378ZM36.8994 28.2594C36.8994 28.8408 36.4305 29.3097 35.8491 29.3097C32.7827 29.3097 9.2735 29.3097 6.16957 29.3097C5.58817 29.3097 5.1193 28.8408 5.1193 28.2594V27.2091H36.9088V28.2594H36.8994ZM14.5061 19.032L13.5496 18.0755L15.0406 16.5845L15.9971 17.541C16.3347 17.8786 16.8598 17.9442 17.2818 17.7004C17.8726 17.3535 18.5103 17.0909 19.1667 16.9221C19.6356 16.8002 19.9544 16.3782 19.9544 15.9V14.5496H22.0643V15.9C22.0643 16.3782 22.3925 16.8002 22.852 16.9221C23.5084 17.0909 24.1367 17.3535 24.7369 17.7004C25.1495 17.9442 25.6746 17.8786 26.0216 17.541L26.9781 16.5845L28.4691 18.0755L27.5126 19.032C27.175 19.3696 27.1094 19.8947 27.3532 20.3167C27.7002 20.9075 27.9627 21.5452 28.1315 22.2016C28.2534 22.6705 28.6754 22.9893 29.1537 22.9893H30.504V25.0992H26.181C26.2466 24.7523 26.2842 24.3959 26.2842 24.0489C26.2842 21.1419 23.921 18.7788 21.014 18.7788C18.107 18.7788 15.7439 21.1419 15.7439 24.0489C15.7439 24.4053 15.7814 24.7616 15.8471 25.0992H11.5053V22.9893H12.8557C13.3339 22.9893 13.7559 22.6611 13.8778 22.2016C14.0466 21.5452 14.3092 20.9169 14.6561 20.3167C14.9093 19.9041 14.8437 19.379 14.5061 19.032ZM24.1649 24.0396C24.1649 24.4053 24.0992 24.7616 23.9867 25.0898H18.0226C17.9007 24.7523 17.8445 24.3959 17.8445 24.0396C17.8445 22.2954 19.2605 20.8794 21.0047 20.8794C22.7489 20.8794 24.1649 22.2954 24.1649 24.0396ZM36.8994 25.0992H32.6139V21.939C32.6139 21.3576 32.1451 20.8888 31.5637 20.8888H29.932C29.8195 20.5793 29.6975 20.2792 29.5569 19.9885L30.7103 18.8351C31.1229 18.4225 31.1229 17.7567 30.7103 17.3441L27.7283 14.3621C27.5314 14.1651 27.2594 14.0526 26.9781 14.0526C26.6968 14.0526 26.4342 14.1651 26.2279 14.3621L25.0745 15.5155C24.7838 15.3748 24.4743 15.2529 24.1742 15.1404V13.5087C24.1742 12.9273 23.7054 12.4584 23.124 12.4584H18.9041C18.3227 12.4584 17.8538 12.9273 17.8538 13.5087V15.1404C17.5444 15.2529 17.2443 15.3748 16.9536 15.5155L15.8002 14.3621C15.6033 14.1651 15.3313 14.0526 15.05 14.0526C14.7687 14.0526 14.5061 14.1651 14.2998 14.3621L11.3178 17.3441C10.9052 17.7567 10.9052 18.4225 11.3178 18.8351L12.4712 19.9885C12.3305 20.2792 12.2086 20.5887 12.0961 20.8888H10.4551C9.87366 20.8888 9.40479 21.3576 9.40479 21.939V25.0992H5.10992V7.16019C5.10992 6.57879 5.57879 6.10992 6.16019 6.10992H35.8398C36.4212 6.10992 36.89 6.57879 36.89 7.16019V25.0992H36.8994Z"/>
</mask>
<path d="M35.8398 4H6.16019C4.41599 4 3 5.41599 3 7.16019V28.2594C3 30.0036 4.41599 31.4196 6.16019 31.4196H15.3126L13.906 35.6395H10.4551C9.87366 35.6395 9.40479 36.1083 9.40479 36.6897C9.40479 37.2711 9.87366 37.74 10.4551 37.74H31.5543C32.1357 37.74 32.6045 37.2711 32.6045 36.6897C32.6045 36.1083 32.1357 35.6395 31.5543 35.6395H28.094L26.6874 31.4196H35.8398C37.584 31.4196 39 30.0036 39 28.2594V7.16019C39.0093 5.41599 37.584 4 35.8398 4ZM16.1378 35.6488L17.5444 31.429H24.4649L25.8716 35.6488H16.1378ZM36.8994 28.2594C36.8994 28.8408 36.4305 29.3097 35.8491 29.3097C32.7827 29.3097 9.2735 29.3097 6.16957 29.3097C5.58817 29.3097 5.1193 28.8408 5.1193 28.2594V27.2091H36.9088V28.2594H36.8994ZM14.5061 19.032L13.5496 18.0755L15.0406 16.5845L15.9971 17.541C16.3347 17.8786 16.8598 17.9442 17.2818 17.7004C17.8726 17.3535 18.5103 17.0909 19.1667 16.9221C19.6356 16.8002 19.9544 16.3782 19.9544 15.9V14.5496H22.0643V15.9C22.0643 16.3782 22.3925 16.8002 22.852 16.9221C23.5084 17.0909 24.1367 17.3535 24.7369 17.7004C25.1495 17.9442 25.6746 17.8786 26.0216 17.541L26.9781 16.5845L28.4691 18.0755L27.5126 19.032C27.175 19.3696 27.1094 19.8947 27.3532 20.3167C27.7002 20.9075 27.9627 21.5452 28.1315 22.2016C28.2534 22.6705 28.6754 22.9893 29.1537 22.9893H30.504V25.0992H26.181C26.2466 24.7523 26.2842 24.3959 26.2842 24.0489C26.2842 21.1419 23.921 18.7788 21.014 18.7788C18.107 18.7788 15.7439 21.1419 15.7439 24.0489C15.7439 24.4053 15.7814 24.7616 15.8471 25.0992H11.5053V22.9893H12.8557C13.3339 22.9893 13.7559 22.6611 13.8778 22.2016C14.0466 21.5452 14.3092 20.9169 14.6561 20.3167C14.9093 19.9041 14.8437 19.379 14.5061 19.032ZM24.1649 24.0396C24.1649 24.4053 24.0992 24.7616 23.9867 25.0898H18.0226C17.9007 24.7523 17.8445 24.3959 17.8445 24.0396C17.8445 22.2954 19.2605 20.8794 21.0047 20.8794C22.7489 20.8794 24.1649 22.2954 24.1649 24.0396ZM36.8994 25.0992H32.6139V21.939C32.6139 21.3576 32.1451 20.8888 31.5637 20.8888H29.932C29.8195 20.5793 29.6975 20.2792 29.5569 19.9885L30.7103 18.8351C31.1229 18.4225 31.1229 17.7567 30.7103 17.3441L27.7283 14.3621C27.5314 14.1651 27.2594 14.0526 26.9781 14.0526C26.6968 14.0526 26.4342 14.1651 26.2279 14.3621L25.0745 15.5155C24.7838 15.3748 24.4743 15.2529 24.1742 15.1404V13.5087C24.1742 12.9273 23.7054 12.4584 23.124 12.4584H18.9041C18.3227 12.4584 17.8538 12.9273 17.8538 13.5087V15.1404C17.5444 15.2529 17.2443 15.3748 16.9536 15.5155L15.8002 14.3621C15.6033 14.1651 15.3313 14.0526 15.05 14.0526C14.7687 14.0526 14.5061 14.1651 14.2998 14.3621L11.3178 17.3441C10.9052 17.7567 10.9052 18.4225 11.3178 18.8351L12.4712 19.9885C12.3305 20.2792 12.2086 20.5887 12.0961 20.8888H10.4551C9.87366 20.8888 9.40479 21.3576 9.40479 21.939V25.0992H5.10992V7.16019C5.10992 6.57879 5.57879 6.10992 6.16019 6.10992H35.8398C36.4212 6.10992 36.89 6.57879 36.89 7.16019V25.0992H36.8994Z" fill="#1F67D2" stroke="white" stroke-width="0.2" mask="url(#path-1-inside-1_1689_24851)"/>
</svg>
