<svg width="26" height="26" viewBox="0 0 26 26" fill="none" xmlns="http://www.w3.org/2000/svg">
<g clip-path="url(#clip0_1737_24724)">
<path d="M13 0C5.83202 0 0 5.83202 0 13C0 20.168 5.83202 26 13 26C20.168 26 26 20.168 26 13C26 5.83202 20.168 0 13 0ZM13 23.8676C7.0087 23.8676 2.13241 18.9913 2.13241 13C2.13241 7.0087 7.0087 2.13241 13 2.13241C18.9913 2.13241 23.8676 7.0087 23.8676 13C23.8676 18.9913 18.9913 23.8676 13 23.8676Z" fill="#1DB01A"/>
<path d="M18.015 8.44746L11.1708 15.2917L7.98498 12.106C7.77945 11.9004 7.50711 11.7925 7.22964 11.7925C6.95731 11.7925 6.68498 11.8953 6.47431 12.106C6.27391 12.3064 6.16087 12.5735 6.16087 12.8613C6.16087 13.1439 6.27391 13.4111 6.47431 13.6166L10.4103 17.5526C10.6107 17.753 10.8779 17.866 11.1656 17.866C11.4482 17.866 11.7154 17.753 11.9209 17.5526L19.5154 9.95813C19.7158 9.75774 19.8289 9.49054 19.8289 9.2028C19.8289 8.91505 19.7158 8.65299 19.5154 8.44746C19.1043 8.03639 18.4312 8.03639 18.015 8.44746Z" fill="#1DB01A"/>
</g>
<defs>
<clipPath id="clip0_1737_24724">
<rect width="26" height="26" fill="white"/>
</clipPath>
</defs>
</svg>
