<svg width="17" height="20" viewBox="0 0 17 20" fill="none" xmlns="http://www.w3.org/2000/svg">
<path d="M14.5445 5.45471C14.0416 5.45471 13.6368 5.86381 13.6368 6.3624V16.5345C13.5814 17.4933 12.7674 18.2263 11.8086 18.1794H4.55564C3.59682 18.2263 2.78288 17.4933 2.72748 16.5345V6.3624C2.72748 5.85955 2.31839 5.45471 1.8198 5.45471C1.32121 5.45471 0.912109 5.86381 0.912109 6.3624V16.5345C0.967508 18.4947 2.59538 20.0459 4.55564 19.999H11.8086C13.7689 20.0459 15.401 18.499 15.4522 16.5345V6.3624C15.4564 5.86381 15.0473 5.45471 14.5445 5.45471Z" fill="#1F2123"/>
<path d="M15.4563 2.72732H11.8212V0.907688C11.817 0.409099 11.4121 0 10.9093 0H5.45465C4.9518 0 4.54696 0.409099 4.54696 0.907688V2.72732H0.907688C0.409099 2.72732 0 3.13642 0 3.63501C0 4.1336 0.409099 4.5427 0.907688 4.5427H15.452C15.9548 4.5427 16.3597 4.1336 16.3597 3.63501C16.3597 3.13642 15.9548 2.72732 15.4563 2.72732ZM6.36234 2.72732V1.81964H9.99735V2.72732H6.36234Z" fill="#1F2123"/>
<path d="M7.27436 14.5444V8.1821C7.27436 7.67925 6.86526 7.27441 6.36667 7.27441C5.86382 7.27441 5.45898 7.68351 5.45898 8.1821V14.5444C5.45898 15.0473 5.86808 15.4521 6.36667 15.4521C6.86526 15.4564 7.27436 15.0473 7.27436 14.5444Z" fill="#1F2123"/>
<path d="M10.9091 14.5444V8.1821C10.9091 7.67925 10.5 7.27441 10.0014 7.27441C9.50285 7.27441 9.09375 7.68351 9.09375 8.1821V14.5444C9.09375 15.0473 9.50285 15.4521 10.0014 15.4521C10.5 15.4521 10.9091 15.0473 10.9091 14.5444Z" fill="#1F2123"/>
</svg>
