<svg width="42" height="42" viewBox="0 0 42 42" fill="none" xmlns="http://www.w3.org/2000/svg">
<mask id="path-1-outside-1_1687_24174" maskUnits="userSpaceOnUse" x="1" y="1" width="40" height="40" fill="black">
<rect fill="white" x="1" y="1" width="40" height="40"/>
<path d="M39.1259 16.682C39.6034 16.682 39.9919 16.2935 39.9919 15.816C39.9919 15.3384 39.6034 14.9499 39.1259 14.9499H36.5359V11.4939H39.1259C39.6034 11.4939 39.9919 11.1054 39.9919 10.6279C39.9919 10.1504 39.6034 9.77806 39.1259 9.77806H36.5359V8.91203C36.5359 7.01001 34.99 5.45602 33.0799 5.45602H32.2138V2.86603C32.2138 2.3885 31.8253 2 31.3478 2C30.8703 2 30.4899 2.39659 30.4899 2.87412V5.46411H27.0339V2.87412C27.0339 2.39659 26.6454 2.00809 26.1678 2.00809C25.6903 2.00809 25.3099 2.39659 25.3099 2.87412V5.46411H21.8539V2.87412C21.8539 2.39659 21.4654 2.00809 20.9879 2.00809C20.5103 2.00809 20.1299 2.39659 20.1299 2.87412V5.46411H16.6739V2.87412C16.6739 2.39659 16.2854 2.00809 15.8079 2.00809C15.3304 2.00809 14.9499 2.39659 14.9499 2.87412V5.46411H11.4939V2.87412C11.4939 2.39659 11.1054 2.00809 10.6279 2.00809C10.1504 2.00809 9.76997 2.39659 9.76997 2.87412V5.46411H8.90394C7.00192 5.46411 5.44792 7.01001 5.44792 8.92013V9.77806H2.85793C2.3885 9.77806 2 10.1666 2 10.6441C2 11.1216 2.3885 11.5101 2.86603 11.5101H5.45602V14.958H2.86603C2.3885 14.958 2 15.3465 2 15.8241C2 16.3016 2.3885 16.6901 2.86603 16.6901H5.45602V20.138H2.86603C2.3885 20.138 2 20.5265 2 21.004C2 21.4816 2.3885 21.8701 2.86603 21.8701H5.45602V25.318H2.86603C2.3885 25.318 2 25.7065 2 26.184C2 26.6616 2.3885 27.0501 2.86603 27.0501H5.45602V30.498H2.86603C2.3885 30.498 2 30.8865 2 31.364C2 31.8415 2.3885 32.23 2.86603 32.23H5.45602V33.088C5.45602 34.99 7.00192 36.544 8.91203 36.544H9.76997V39.134C9.76997 39.6115 10.1585 40 10.636 40C11.1135 40 11.502 39.6115 11.502 39.134V36.544H14.9499V39.134C14.9499 39.6115 15.3384 40 15.816 40C16.2935 40 16.682 39.6115 16.682 39.134V36.544H20.1299V39.134C20.1299 39.6115 20.5184 40 20.996 40C21.4735 40 21.862 39.6115 21.862 39.134V36.544H25.3099V39.134C25.3099 39.6115 25.6984 40 26.1759 40C26.6535 40 27.042 39.6115 27.042 39.134V36.544H30.4899V39.134C30.4899 39.6115 30.8784 40 31.3559 40C31.8334 40 32.2219 39.6115 32.2219 39.134V36.544H33.0799C34.9819 36.544 36.5359 34.9981 36.5359 33.088V32.2219H39.1259C39.6034 32.2219 39.9919 31.8334 39.9919 31.3559C39.9919 30.8784 39.6034 30.4899 39.1259 30.4899H36.5359V27.0339H39.1259C39.6034 27.0339 39.9919 26.6454 39.9919 26.1678C39.9919 25.6903 39.6034 25.3018 39.1259 25.3018H36.5359V21.8458H39.1259C39.6034 21.8458 39.9919 21.4573 39.9919 20.9798C39.9919 20.5022 39.6034 20.1137 39.1259 20.1137H36.5359V16.6577L39.1259 16.682ZM34.8038 33.088C34.8038 34.043 34.0268 34.8119 33.0799 34.8119H8.90394C7.94888 34.8119 7.17998 34.0349 7.17998 33.088V8.91203C7.17998 7.96507 7.95698 7.18807 8.90394 7.18807H33.0799C34.0349 7.18807 34.8038 7.96507 34.8038 8.91203V33.088Z"/>
</mask>
<path d="M39.1259 16.682C39.6034 16.682 39.9919 16.2935 39.9919 15.816C39.9919 15.3384 39.6034 14.9499 39.1259 14.9499H36.5359V11.4939H39.1259C39.6034 11.4939 39.9919 11.1054 39.9919 10.6279C39.9919 10.1504 39.6034 9.77806 39.1259 9.77806H36.5359V8.91203C36.5359 7.01001 34.99 5.45602 33.0799 5.45602H32.2138V2.86603C32.2138 2.3885 31.8253 2 31.3478 2C30.8703 2 30.4899 2.39659 30.4899 2.87412V5.46411H27.0339V2.87412C27.0339 2.39659 26.6454 2.00809 26.1678 2.00809C25.6903 2.00809 25.3099 2.39659 25.3099 2.87412V5.46411H21.8539V2.87412C21.8539 2.39659 21.4654 2.00809 20.9879 2.00809C20.5103 2.00809 20.1299 2.39659 20.1299 2.87412V5.46411H16.6739V2.87412C16.6739 2.39659 16.2854 2.00809 15.8079 2.00809C15.3304 2.00809 14.9499 2.39659 14.9499 2.87412V5.46411H11.4939V2.87412C11.4939 2.39659 11.1054 2.00809 10.6279 2.00809C10.1504 2.00809 9.76997 2.39659 9.76997 2.87412V5.46411H8.90394C7.00192 5.46411 5.44792 7.01001 5.44792 8.92013V9.77806H2.85793C2.3885 9.77806 2 10.1666 2 10.6441C2 11.1216 2.3885 11.5101 2.86603 11.5101H5.45602V14.958H2.86603C2.3885 14.958 2 15.3465 2 15.8241C2 16.3016 2.3885 16.6901 2.86603 16.6901H5.45602V20.138H2.86603C2.3885 20.138 2 20.5265 2 21.004C2 21.4816 2.3885 21.8701 2.86603 21.8701H5.45602V25.318H2.86603C2.3885 25.318 2 25.7065 2 26.184C2 26.6616 2.3885 27.0501 2.86603 27.0501H5.45602V30.498H2.86603C2.3885 30.498 2 30.8865 2 31.364C2 31.8415 2.3885 32.23 2.86603 32.23H5.45602V33.088C5.45602 34.99 7.00192 36.544 8.91203 36.544H9.76997V39.134C9.76997 39.6115 10.1585 40 10.636 40C11.1135 40 11.502 39.6115 11.502 39.134V36.544H14.9499V39.134C14.9499 39.6115 15.3384 40 15.816 40C16.2935 40 16.682 39.6115 16.682 39.134V36.544H20.1299V39.134C20.1299 39.6115 20.5184 40 20.996 40C21.4735 40 21.862 39.6115 21.862 39.134V36.544H25.3099V39.134C25.3099 39.6115 25.6984 40 26.1759 40C26.6535 40 27.042 39.6115 27.042 39.134V36.544H30.4899V39.134C30.4899 39.6115 30.8784 40 31.3559 40C31.8334 40 32.2219 39.6115 32.2219 39.134V36.544H33.0799C34.9819 36.544 36.5359 34.9981 36.5359 33.088V32.2219H39.1259C39.6034 32.2219 39.9919 31.8334 39.9919 31.3559C39.9919 30.8784 39.6034 30.4899 39.1259 30.4899H36.5359V27.0339H39.1259C39.6034 27.0339 39.9919 26.6454 39.9919 26.1678C39.9919 25.6903 39.6034 25.3018 39.1259 25.3018H36.5359V21.8458H39.1259C39.6034 21.8458 39.9919 21.4573 39.9919 20.9798C39.9919 20.5022 39.6034 20.1137 39.1259 20.1137H36.5359V16.6577L39.1259 16.682ZM34.8038 33.088C34.8038 34.043 34.0268 34.8119 33.0799 34.8119H8.90394C7.94888 34.8119 7.17998 34.0349 7.17998 33.088V8.91203C7.17998 7.96507 7.95698 7.18807 8.90394 7.18807H33.0799C34.0349 7.18807 34.8038 7.96507 34.8038 8.91203V33.088Z" fill="#1F67D2"/>
<path d="M39.1259 16.682C39.6034 16.682 39.9919 16.2935 39.9919 15.816C39.9919 15.3384 39.6034 14.9499 39.1259 14.9499H36.5359V11.4939H39.1259C39.6034 11.4939 39.9919 11.1054 39.9919 10.6279C39.9919 10.1504 39.6034 9.77806 39.1259 9.77806H36.5359V8.91203C36.5359 7.01001 34.99 5.45602 33.0799 5.45602H32.2138V2.86603C32.2138 2.3885 31.8253 2 31.3478 2C30.8703 2 30.4899 2.39659 30.4899 2.87412V5.46411H27.0339V2.87412C27.0339 2.39659 26.6454 2.00809 26.1678 2.00809C25.6903 2.00809 25.3099 2.39659 25.3099 2.87412V5.46411H21.8539V2.87412C21.8539 2.39659 21.4654 2.00809 20.9879 2.00809C20.5103 2.00809 20.1299 2.39659 20.1299 2.87412V5.46411H16.6739V2.87412C16.6739 2.39659 16.2854 2.00809 15.8079 2.00809C15.3304 2.00809 14.9499 2.39659 14.9499 2.87412V5.46411H11.4939V2.87412C11.4939 2.39659 11.1054 2.00809 10.6279 2.00809C10.1504 2.00809 9.76997 2.39659 9.76997 2.87412V5.46411H8.90394C7.00192 5.46411 5.44792 7.01001 5.44792 8.92013V9.77806H2.85793C2.3885 9.77806 2 10.1666 2 10.6441C2 11.1216 2.3885 11.5101 2.86603 11.5101H5.45602V14.958H2.86603C2.3885 14.958 2 15.3465 2 15.8241C2 16.3016 2.3885 16.6901 2.86603 16.6901H5.45602V20.138H2.86603C2.3885 20.138 2 20.5265 2 21.004C2 21.4816 2.3885 21.8701 2.86603 21.8701H5.45602V25.318H2.86603C2.3885 25.318 2 25.7065 2 26.184C2 26.6616 2.3885 27.0501 2.86603 27.0501H5.45602V30.498H2.86603C2.3885 30.498 2 30.8865 2 31.364C2 31.8415 2.3885 32.23 2.86603 32.23H5.45602V33.088C5.45602 34.99 7.00192 36.544 8.91203 36.544H9.76997V39.134C9.76997 39.6115 10.1585 40 10.636 40C11.1135 40 11.502 39.6115 11.502 39.134V36.544H14.9499V39.134C14.9499 39.6115 15.3384 40 15.816 40C16.2935 40 16.682 39.6115 16.682 39.134V36.544H20.1299V39.134C20.1299 39.6115 20.5184 40 20.996 40C21.4735 40 21.862 39.6115 21.862 39.134V36.544H25.3099V39.134C25.3099 39.6115 25.6984 40 26.1759 40C26.6535 40 27.042 39.6115 27.042 39.134V36.544H30.4899V39.134C30.4899 39.6115 30.8784 40 31.3559 40C31.8334 40 32.2219 39.6115 32.2219 39.134V36.544H33.0799C34.9819 36.544 36.5359 34.9981 36.5359 33.088V32.2219H39.1259C39.6034 32.2219 39.9919 31.8334 39.9919 31.3559C39.9919 30.8784 39.6034 30.4899 39.1259 30.4899H36.5359V27.0339H39.1259C39.6034 27.0339 39.9919 26.6454 39.9919 26.1678C39.9919 25.6903 39.6034 25.3018 39.1259 25.3018H36.5359V21.8458H39.1259C39.6034 21.8458 39.9919 21.4573 39.9919 20.9798C39.9919 20.5022 39.6034 20.1137 39.1259 20.1137H36.5359V16.6577L39.1259 16.682ZM34.8038 33.088C34.8038 34.043 34.0268 34.8119 33.0799 34.8119H8.90394C7.94888 34.8119 7.17998 34.0349 7.17998 33.088V8.91203C7.17998 7.96507 7.95698 7.18807 8.90394 7.18807H33.0799C34.0349 7.18807 34.8038 7.96507 34.8038 8.91203V33.088Z" stroke="#1F67D2" stroke-width="0.2" mask="url(#path-1-outside-1_1687_24174)"/>
<path d="M32.2138 8.86211H9.76996C9.26481 8.86211 8.85393 9.27299 8.85393 9.77814V32.222C8.85393 32.7272 9.26481 33.138 9.76996 33.138H32.2138C32.719 33.138 33.1299 32.7272 33.1299 32.222V9.77814C33.1299 9.27299 32.719 8.86211 32.2138 8.86211ZM31.3059 31.3141H10.686V10.6942H31.3059V31.3141Z" fill="#1F67D2" stroke="#1F67D2" stroke-width="0.1"/>
</svg>
