<svg width="40" height="40" viewBox="0 0 40 40" fill="none" xmlns="http://www.w3.org/2000/svg">
<path d="M12.1875 20C12.1875 20.8594 12.8906 21.5625 13.75 21.5625H18.4375V26.25C18.4375 27.1094 19.1406 27.8125 20 27.8125C20.8594 27.8125 21.5625 27.1094 21.5625 26.25V21.5625H26.25C27.1094 21.5625 27.8125 20.8594 27.8125 20C27.8125 19.1406 27.1094 18.4375 26.25 18.4375H21.5625V13.75C21.5625 12.8906 20.8594 12.1875 20 12.1875C19.1406 12.1875 18.4375 12.8906 18.4375 13.75V18.4375H13.75C12.8906 18.4375 12.1875 19.1406 12.1875 20Z" fill="#E91D3E"/>
<path d="M12.5311 4.82822L14.5546 3.99228C15.3515 3.66415 15.7343 2.75009 15.3983 1.95322C15.0624 1.15634 14.1562 0.773528 13.3593 1.10165L11.3358 1.93759C10.539 2.27353 10.1562 3.18759 10.4921 3.98447C10.8202 4.77353 11.7343 5.15634 12.5311 4.82822Z" fill="#E91D3E"/>
<path d="M20 0C19.1406 0 18.4375 0.703125 18.4375 1.5625C18.4375 2.42188 19.1406 3.125 20 3.125C29.3281 3.125 36.875 10.6719 36.875 20C36.875 29.3281 29.3281 36.875 20 36.875C10.6719 36.875 3.125 29.3281 3.125 20C3.125 19.1406 2.42188 18.4375 1.5625 18.4375C0.703125 18.4375 0 19.1406 0 20C0 31.0547 8.94531 40 20 40C31.0547 40 40 31.0547 40 20C40 8.94531 31.0547 0 20 0Z" fill="#E91D3E"/>
<path d="M7.29688 8.84375L8.84375 7.29688C9.45312 6.6875 9.45312 5.69531 8.84375 5.08594C8.23437 4.47656 7.24219 4.47656 6.63281 5.08594L5.08594 6.63281C4.47656 7.24219 4.47656 8.23437 5.08594 8.84375C5.69531 9.45312 6.6875 9.45312 7.29688 8.84375Z" fill="#E91D3E"/>
<path d="M1.95256 15.3985C2.74944 15.7266 3.6635 15.3516 3.99162 14.5547L4.82756 12.5313C5.15569 11.7344 4.78069 10.8204 3.98381 10.4922C3.18694 10.1641 2.27287 10.5391 1.94475 11.336L1.101 13.3594C0.772875 14.1563 1.14787 15.0704 1.95256 15.3985Z" fill="#E91D3E"/>
</svg>
