<svg width="26" height="19" viewBox="0 0 26 19" fill="none" xmlns="http://www.w3.org/2000/svg">
<path d="M22.9531 18.2812H3.04688C1.36602 18.2812 0 16.9152 0 15.2344V3.04688C0 1.36602 1.36602 0 3.04688 0H22.9531C24.634 0 26 1.36602 26 3.04688V15.2344C26 16.9152 24.634 18.2812 22.9531 18.2812ZM3.04688 2.03125C2.48828 2.03125 2.03125 2.48828 2.03125 3.04688V15.2344C2.03125 15.793 2.48828 16.25 3.04688 16.25H22.9531C23.5117 16.25 23.9688 15.793 23.9688 15.2344V3.04688C23.9688 2.48828 23.5117 2.03125 22.9531 2.03125H3.04688Z" fill="#7F95B4"/>
<path d="M24.9844 6.09375H1.01562C0.457031 6.09375 0 5.63672 0 5.07812C0 4.51953 0.457031 4.0625 1.01562 4.0625H24.9844C25.543 4.0625 26 4.51953 26 5.07812C26 5.63672 25.543 6.09375 24.9844 6.09375Z" fill="#7F95B4"/>
<path d="M19.0938 14.2188C17.4129 14.2188 16.0469 12.8527 16.0469 11.1719C16.0469 9.49102 17.4129 8.125 19.0938 8.125C20.7746 8.125 22.1406 9.49102 22.1406 11.1719C22.1406 12.8527 20.7746 14.2188 19.0938 14.2188ZM19.0938 10.1562C18.5352 10.1562 18.0781 10.6133 18.0781 11.1719C18.0781 11.7305 18.5352 12.1875 19.0938 12.1875C19.6523 12.1875 20.1094 11.7305 20.1094 11.1719C20.1094 10.6133 19.6523 10.1562 19.0938 10.1562Z" fill="#7F95B4"/>
<path d="M6.90625 12.1875H4.875C4.31641 12.1875 3.85938 11.7305 3.85938 11.1719C3.85938 10.6133 4.31641 10.1562 4.875 10.1562H6.90625C7.46484 10.1562 7.92188 10.6133 7.92188 11.1719C7.92188 11.7305 7.46484 12.1875 6.90625 12.1875Z" fill="#7F95B4"/>
<path d="M13 12.1875H10.9688C10.4102 12.1875 9.95312 11.7305 9.95312 11.1719C9.95312 10.6133 10.4102 10.1562 10.9688 10.1562H13C13.5586 10.1562 14.0156 10.6133 14.0156 11.1719C14.0156 11.7305 13.5586 12.1875 13 12.1875Z" fill="#7F95B4"/>
</svg>
