<svg width="24" height="18" viewBox="0 0 24 18" fill="none" xmlns="http://www.w3.org/2000/svg">
<g clip-path="url(#clip0_1_111)">
<path d="M22.2462 0H7.01538C6.25385 0 5.63077 0.623077 5.63077 1.38462H0.692308C0.309231 1.38462 0 1.69385 0 2.07692V17.3077C0 17.6908 0.309231 18 0.692308 18H7.61538C7.99846 18 8.30769 17.6908 8.30769 17.3077V13.8462H11.8615V16.6154H10.4769C10.0938 16.6154 9.78462 16.9246 9.78462 17.3077C9.78462 17.6908 10.0938 18 10.4769 18H18.7846C19.1677 18 19.4769 17.6908 19.4769 17.3077C19.4769 16.9246 19.1677 16.6154 18.7846 16.6154H17.4V13.8462H22.2462C23.0077 13.8462 23.6308 13.2231 23.6308 12.4615V1.38462C23.6308 0.623077 23.0077 0 22.2462 0ZM1.38462 5.53846H5.63077V6.92308H1.38462V5.53846ZM5.63077 2.76923V4.15385H1.38462V2.76923H5.63077ZM1.38462 16.6154V8.30769H5.63077V12.4615C5.63077 13.1954 6.20308 13.7954 6.92308 13.8415V16.6154H1.38462ZM16.0154 16.6154H13.2462V13.8462H16.0154V16.6154ZM22.2462 12.4615H7.01538V1.38462H22.2462V12.4615Z" fill="white"/>
<path d="M4.84615 15.0461C4.84615 15.4292 4.53692 15.7384 4.15384 15.7384C3.77076 15.7384 3.46153 15.4292 3.46153 15.0461C3.46153 14.6631 3.77076 14.3538 4.15384 14.3538C4.53692 14.3538 4.84615 14.6631 4.84615 15.0461Z" fill="white"/>
</g>
<defs>
<clipPath id="clip0_1_111">
<rect width="23.6308" height="18" fill="white"/>
</clipPath>
</defs>
</svg>
