<svg width="26" height="26" viewBox="0 0 26 26" fill="none" xmlns="http://www.w3.org/2000/svg">
<path d="M3.71429 0C1.67462 0 0 1.67462 0 3.71429V22.2857C0 24.3254 1.67462 26 3.71429 26H14.8571C16.8968 26 18.5714 24.3254 18.5714 22.2857V19.5043H23.4562C24.8469 19.5043 26 18.3512 26 16.9606V9.03945C26 7.64876 24.8469 6.49565 23.4562 6.49565H18.5714V3.71429C18.5714 1.67462 16.8968 0 14.8571 0H3.71429ZM3.71429 1.86004H14.8571C15.9002 1.86004 16.7172 2.67127 16.7172 3.72008V6.50145H10.8995C9.5088 6.50145 8.35569 7.65456 8.35569 9.04524V16.9663C8.35569 18.357 9.5088 19.5101 10.8995 19.5101H16.7114V22.2915C16.7114 23.3345 15.9002 24.1515 14.8513 24.1515H3.71429C2.67127 24.1515 1.85425 23.3403 1.85425 22.2915V3.71429C1.86004 2.67127 2.67127 1.86004 3.71429 1.86004ZM10.8995 8.35569H23.4562C23.8502 8.35569 24.14 8.64542 24.14 9.03945V10.2157H10.2157V9.03945C10.2157 8.64542 10.5055 8.35569 10.8995 8.35569ZM10.2157 12.07H24.1458V16.9606C24.1458 17.3546 23.856 17.6443 23.462 17.6443H10.8995C10.5055 17.6443 10.2157 17.3546 10.2157 16.9606V12.07Z" fill="#7F95B4"/>
<path d="M8.31524 20.8602C7.80532 20.8602 7.38812 21.2716 7.38232 21.7815C7.38232 22.2914 7.79374 22.7086 8.30365 22.7144H8.30945H10.0826C10.5925 22.7144 11.0097 22.2972 11.0039 21.7815C11.0039 21.2716 10.5867 20.8602 10.0826 20.8602H8.31524Z" fill="#7F95B4"/>
<path d="M20.2751 14.3704C19.7652 14.3704 19.3538 14.7876 19.3538 15.2917C19.3538 15.8016 19.7652 16.2188 20.2751 16.2246H21.6658C22.1757 16.2246 22.5929 15.8132 22.5987 15.3033V15.2975C22.5987 14.7876 22.1815 14.3704 21.6658 14.3762H20.2751V14.3704Z" fill="#7F95B4"/>
</svg>
