<svg width="11" height="14" viewBox="0 0 11 14" fill="none" xmlns="http://www.w3.org/2000/svg">
<path d="M9.77935 3.66766C9.44124 3.66766 9.16903 3.94274 9.16903 4.27798V11.1175C9.13178 11.7622 8.58451 12.2551 7.93981 12.2235H3.06302C2.41832 12.2551 1.87104 11.7622 1.83379 11.1175V4.27798C1.83379 3.93987 1.55872 3.66766 1.22347 3.66766C0.888231 3.66766 0.613159 3.94274 0.613159 4.27798V11.1175C0.650408 12.4356 1.74496 13.4786 3.06302 13.447H7.93981C9.25786 13.4786 10.3553 12.4384 10.3897 11.1175V4.27798C10.3925 3.94274 10.1175 3.66766 9.77935 3.66766Z" fill="#1F2123"/>
<path d="M10.3926 1.83381H7.94842V0.610315C7.94556 0.275072 7.67335 0 7.33524 0H3.66762C3.32951 0 3.05731 0.275072 3.05731 0.610315V1.83381H0.610315C0.275072 1.83381 0 2.10888 0 2.44413C0 2.77937 0.275072 3.05444 0.610315 3.05444H10.3897C10.7278 3.05444 11 2.77937 11 2.44413C11 2.10888 10.7278 1.83381 10.3926 1.83381ZM4.27794 1.83381V1.2235H6.72206V1.83381H4.27794Z" fill="#1F2123"/>
<path d="M4.89104 9.77943V5.50149C4.89104 5.16338 4.61597 4.89117 4.28072 4.89117C3.94262 4.89117 3.67041 5.16625 3.67041 5.50149V9.77943C3.67041 10.1175 3.94548 10.3897 4.28072 10.3897C4.61597 10.3926 4.89104 10.1175 4.89104 9.77943Z" fill="#1F2123"/>
<path d="M7.33501 9.77943V5.50149C7.33501 5.16338 7.05994 4.89117 6.7247 4.89117C6.38945 4.89117 6.11438 5.16625 6.11438 5.50149V9.77943C6.11438 10.1175 6.38945 10.3897 6.7247 10.3897C7.05994 10.3897 7.33501 10.1175 7.33501 9.77943Z" fill="#1F2123"/>
</svg>
