<svg width="20" height="20" viewBox="0 0 20 20" fill="none" xmlns="http://www.w3.org/2000/svg">
<g clip-path="url(#clip0_972_13296)">
<path d="M12.2238 18.9001H2.9584C2.66706 18.9001 2.38888 18.7758 2.19441 18.5587C1.99995 18.3415 1.9071 18.0513 1.93926 17.7618L3.16457 6.73697C3.22232 6.21717 3.66025 5.82494 4.18334 5.82494H6.1613V7.63767C6.1613 7.94071 6.40804 8.18745 6.71107 8.18745C7.01411 8.18745 7.26085 7.94071 7.26085 7.63767V5.82494H12.4614V7.63767C12.4614 7.94071 12.7082 8.18745 13.0112 8.18745C13.3143 8.18745 13.561 7.94071 13.561 7.63767V5.82494H15.539C16.0621 5.82494 16.5 6.21717 16.5577 6.73697L17.1894 12.4234C17.223 12.7246 17.4953 12.9428 17.7969 12.9092C18.0981 12.8756 18.3164 12.6032 18.2827 12.302L17.6511 6.61561C17.5312 5.53799 16.6235 4.72539 15.539 4.72539H13.561V3.7004C13.5614 1.65993 11.9014 0 9.86133 0C7.82123 0 6.1613 1.65993 6.1613 3.70003V4.72502H4.18334C3.09914 4.72502 2.19112 5.53762 2.07159 6.61525L0.846289 17.6404C0.77976 18.2403 0.972401 18.8423 1.37487 19.2923C1.77733 19.7423 2.35452 20 2.95804 20H12.2238C12.5269 20 12.7736 19.7533 12.7736 19.4502C12.7736 19.1472 12.5269 18.9001 12.2238 18.9001ZM7.26122 3.70003C7.26122 2.26637 8.42767 1.09992 9.86133 1.09992C11.295 1.09992 12.4614 2.26637 12.4614 3.70003V4.72502H7.26122V3.70003Z" fill="#2F538A"/>
<path d="M18.5237 16.5375H16.711V14.7248C16.711 14.4217 16.4642 14.175 16.1612 14.175C15.8582 14.175 15.6114 14.4217 15.6114 14.7248V16.5375H13.7987C13.4956 16.5375 13.2489 16.7842 13.2489 17.0873C13.2489 17.3903 13.4956 17.6371 13.7987 17.6371H15.6114V19.4498C15.6114 19.7528 15.8582 19.9996 16.1612 19.9996C16.4642 19.9996 16.711 19.7528 16.711 19.4498V17.6374H18.5237C18.8267 17.6374 19.0735 17.3907 19.0735 17.0876C19.0735 16.7846 18.8267 16.5375 18.5237 16.5375Z" fill="#2F538A"/>
</g>
<defs>
<clipPath id="clip0_972_13296">
<rect width="20" height="20" fill="white"/>
</clipPath>
</defs>
</svg>
