<svg width="21" height="22" viewBox="0 0 21 22" fill="none" xmlns="http://www.w3.org/2000/svg">
<g clip-path="url(#clip0_348_121)">
<path d="M19.6092 9.06357L19.6008 9.05936C19.1713 8.92045 18.7124 8.95412 18.304 9.14355C16.2114 10.0991 14.5399 9.88023 13.7736 9.68659C15.5546 7.14401 16.1945 5.03923 15.6725 3.41855C15.2851 2.21041 14.2957 1.34745 12.7294 0.846508C9.6221 -0.146949 8.78423 1.24642 8.56529 1.89469L8.56108 1.90311C8.42214 2.33248 8.45582 2.79133 8.64529 3.19965C9.60105 5.2918 9.38211 6.963 9.18843 7.72914C6.64534 5.9485 4.54014 5.30864 2.91914 5.83063C1.71075 6.21791 0.847616 7.20716 0.346577 8.77311C-0.647079 11.8798 0.746566 12.7175 1.39497 12.9364C1.5676 12.9953 1.74864 13.0248 1.9339 13.0248H1.93811C2.20337 13.0248 2.4602 12.9658 2.69598 12.8564C4.79277 11.8966 6.4643 12.1155 7.23059 12.3091C5.44959 14.8517 4.80961 16.9565 5.3317 18.5772C5.71906 19.7811 6.7085 20.6483 8.26635 21.1492C8.88528 21.3639 9.52947 21.4818 10.1821 21.5028H10.1989C11.7947 21.5028 12.2957 20.522 12.4347 20.1053V20.101C12.5736 19.6717 12.5441 19.2086 12.3504 18.8045C11.3947 16.7123 11.6136 15.0412 11.8073 14.275C13.7736 15.6515 15.483 16.3503 16.8935 16.3503C17.2977 16.3503 17.6934 16.2914 18.0766 16.1735C19.285 15.7862 20.1481 14.797 20.6492 13.231C21.6512 10.1202 20.2534 9.27826 19.6092 9.06357ZM13.0115 13.29C13.5251 12.7301 13.8409 12.0061 13.8915 11.2357C14.9862 11.4293 16.7756 11.4714 18.9187 10.4906L18.9313 10.4864C18.9945 10.4569 19.0703 10.4485 19.1376 10.4696C19.8365 10.7137 19.3902 12.2923 19.2387 12.768C18.8934 13.8498 18.3503 14.515 17.6219 14.7507C16.5651 15.0959 14.9441 14.5781 13.0115 13.29ZM1.76127 9.22775C2.10653 8.14589 2.64967 7.48078 3.37807 7.24504C4.43909 6.90407 6.0601 7.42184 7.99268 8.70576C7.47058 9.27826 7.16322 10.0023 7.1127 10.76C6.01799 10.5664 4.22857 10.5243 2.08548 11.5051L2.07284 11.5093C2.00969 11.5388 1.9339 11.5472 1.86653 11.5262C1.1634 11.282 1.6097 9.70343 1.76127 9.22775ZM11.0368 11C11.0368 11.2189 10.9063 11.4125 10.7042 11.4925C10.5021 11.5767 10.2747 11.5304 10.1189 11.3746C9.96736 11.2189 9.92104 10.9916 10.0052 10.7895C10.0895 10.5874 10.2831 10.4611 10.4979 10.4611C10.7968 10.4654 11.0368 10.7053 11.0368 11ZM12.7925 8.48686C12.502 8.22166 12.1694 8.00697 11.7989 7.85543C11.4578 7.7123 11.1 7.63232 10.7379 7.60285C10.9315 6.50837 10.9736 4.7193 9.99262 2.57664L9.98841 2.56401C9.95893 2.49666 9.95051 2.42509 9.97157 2.35774C10.2158 1.65895 11.7947 2.10517 12.2747 2.25671C13.3567 2.6019 14.022 3.14493 14.2578 3.87318C14.5988 4.93399 14.0809 6.55888 12.7925 8.48686ZM8.20741 13.5089C8.76739 14.0224 9.49158 14.3339 10.2621 14.3887C10.0684 15.4832 10.0263 17.2722 11.0073 19.4149L11.0115 19.4275C11.041 19.4907 11.0494 19.5664 11.0284 19.6338C10.7842 20.3326 9.20527 19.8864 8.7295 19.7348C7.64742 19.3896 6.98218 18.8466 6.74639 18.1183C6.40535 17.0617 6.92323 15.4411 8.20741 13.5089Z" fill="white"/>
</g>
<defs>
<clipPath id="clip0_348_121">
<rect width="21" height="21" fill="white" transform="translate(0 0.5)"/>
</clipPath>
</defs>
</svg>
