<svg width="19" height="18" viewBox="0 0 19 18" fill="none" xmlns="http://www.w3.org/2000/svg">
<g clip-path="url(#clip0_715_14414)">
<path d="M13.9852 4.5541H13.0428C13.1372 4.43672 13.2248 4.31339 13.3047 4.18449C13.8448 3.27998 13.8734 2.13997 13.3797 1.20945L13.3775 1.20537C12.9384 0.438297 12.1186 -0.021573 11.2338 0.00145761C10.2903 -0.0267735 9.38316 0.356204 8.74833 1.0527C8.5652 1.2466 8.40325 1.45945 8.26543 1.68715C8.13542 1.46168 7.98201 1.24994 7.80742 1.05455C7.17036 0.356204 6.26399 -0.0267735 5.31974 0.00145761C4.43751 -0.0230589 3.61398 0.434954 3.17046 1.19868L3.16786 1.20351C2.67418 2.13402 2.70279 3.27404 3.24401 4.18041C3.32313 4.30782 3.41005 4.43077 3.5044 4.54778H2.54417C1.96803 4.54778 1.42607 4.77215 1.01858 5.17964C0.611082 5.58751 0.386719 6.12947 0.386719 6.70561V15.7752C0.386719 16.9617 1.35178 17.9267 2.53823 17.9267H13.9852C15.1717 17.9267 16.1367 16.9617 16.1367 15.7752V6.71155C16.1367 5.52547 15.1717 4.55781 13.9852 4.5541ZM14.6509 15.7752C14.6509 16.1422 14.3522 16.4409 13.9852 16.4409H9.00539L9.04588 6.03995H14.0012C14.366 6.05146 14.6512 6.34603 14.6512 6.71155V15.7752H14.6509ZM9.79214 2.06902C10.1276 1.70164 10.5926 1.49288 11.0848 1.48433V1.52185L11.2434 1.51108C11.5926 1.48768 11.9191 1.66041 12.0956 1.96278C12.3344 2.43491 12.3069 3.00547 12.0235 3.45271L12.0202 3.45829C11.7817 3.87432 11.1506 4.5723 9.6053 4.5723H9.00724C9.02173 4.02997 9.13205 2.79151 9.79214 2.06902ZM4.50624 3.42857C4.22281 2.98133 4.19532 2.41113 4.43417 1.93863C4.6095 1.63849 4.93416 1.46539 5.28111 1.48694L5.29039 1.48768L5.29968 1.48694C5.82567 1.45425 6.33754 1.65409 6.70306 2.0341C7.16962 2.55377 7.4341 3.37916 7.51062 4.5541H6.92445C5.45941 4.5541 4.80266 3.9449 4.50958 3.43414L4.50624 3.42857ZM7.51805 6.03995L7.47756 16.4409H2.54306C2.54157 16.4409 2.53971 16.4409 2.53823 16.4409C2.17345 16.4409 1.87517 16.1456 1.87257 15.7797V6.71155C1.87257 6.3412 2.17382 6.03995 2.54417 6.03995H7.51805Z" fill="#6782AA"/>
</g>
<defs>
<clipPath id="clip0_715_14414">
<rect width="18" height="18" fill="white" transform="translate(0.386719)"/>
</clipPath>
</defs>
</svg>
