<svg width="22" height="26" viewBox="0 0 22 26" fill="none" xmlns="http://www.w3.org/2000/svg">
<g clip-path="url(#clip0_1603_6682)">
<path d="M18.4395 7.79939L21.7392 3.38177C22.1698 2.809 22.0546 1.9925 21.4784 1.55988C21.2539 1.38927 20.981 1.29787 20.702 1.29787H5.17397C5.17397 0.584954 4.59774 0 3.882 0C3.16625 0 2.59002 0.584954 2.59002 1.29787V23.3982H1.29198C0.582299 23.3982 0 23.9831 0 24.696C0 25.409 0.582299 25.9939 1.29198 25.9939H6.46595C7.18169 25.9939 7.75793 25.409 7.75793 24.696C7.75793 23.9831 7.17563 23.3982 6.46595 23.3982H5.17397V14.3009H20.702C21.4177 14.3009 21.9939 13.716 21.9939 13.003C21.9939 12.7228 21.903 12.4486 21.7331 12.2231L18.4395 7.79939ZM15.7888 8.57933L18.118 11.6991H5.17397V3.8997H18.1119L15.7827 7.01945C15.4431 7.48254 15.4431 8.11624 15.7888 8.57933Z" fill="#E91D3E"/>
</g>
<defs>
<clipPath id="clip0_1603_6682">
<rect width="22" height="26" fill="white"/>
</clipPath>
</defs>
</svg>
