<svg width="21" height="22" viewBox="0 0 21 22" fill="none" xmlns="http://www.w3.org/2000/svg">
<path d="M5.95217 20.4279C6.08083 20.612 6.29438 20.733 6.53652 20.7337L14.3993 20.7338C14.5897 20.7338 14.7687 20.6597 14.9034 20.5251C14.9338 20.4946 14.9609 20.4621 14.9847 20.4279L15.0583 20.3049L15.1007 20.1465C15.1401 19.9249 15.0743 19.6879 14.9034 19.5169L13.3369 17.9505L13.3363 17.4483L19.6187 17.4485L19.6314 17.4479C20.4119 17.4124 21.023 16.7517 20.9993 15.9723V2.85233C21.0235 2.07234 20.4124 1.41111 19.6314 1.37558L19.6187 1.375H1.39407L1.36863 1.37558C0.58756 1.41111 -0.0235395 2.07234 0.000696664 2.85233V15.9711C-0.0235395 16.7512 0.58756 17.4124 1.36863 17.4479L7.60166 17.4481L7.60139 17.9629L6.03598 19.5137C5.90199 19.6461 5.8248 19.8301 5.82418 20.0186C5.82404 20.0609 5.82763 20.1024 5.83461 20.1428M8.26996 19.3079L8.81386 18.7695C8.94893 18.6371 9.02684 18.4526 9.02765 18.261V17.4497H11.9105L11.9116 18.2494C11.9124 18.4392 11.987 18.6175 12.1204 18.7501L12.6782 19.3079H8.26996ZM19.5746 16.0154C19.5748 16.0187 19.5731 16.0218 19.5704 16.0235H12.6285C12.6265 16.0235 12.6245 16.0232 12.6225 16.0232H8.31494C8.31293 16.0232 8.31096 16.0235 8.30889 16.0235H1.4296C1.42695 16.0218 1.4253 16.0188 1.42552 16.0154L1.42651 15.9986V12.174H19.5735V15.9818L19.5746 16.0154ZM1.42548 2.8082C1.42525 2.80484 1.42695 2.8018 1.4296 2.80005L19.5704 2.80081C19.5731 2.80251 19.5748 2.80556 19.5746 2.80892L19.5736 2.82572V10.7481H1.42651V2.84256L1.42548 2.8082Z" fill="white"/>
<path d="M10.5009 12.8288C9.80988 12.8288 9.24721 13.3909 9.24658 14.082C9.24604 14.7736 9.80818 15.3367 10.4997 15.3373H10.5003C11.1908 15.3371 11.7537 14.7753 11.755 14.0842C11.7556 13.3926 11.1935 12.8294 10.5009 12.8288ZM10.501 14.2173L10.5006 13.9488C10.5007 13.9488 10.5008 13.9488 10.5009 13.9488C10.5749 13.9489 10.6351 14.0091 10.635 14.0825C10.6349 14.1565 10.5749 14.2168 10.501 14.2173ZM10.4999 13.9488L10.4996 14.2173C10.426 14.2166 10.3665 14.1565 10.3666 14.0829C10.3666 14.0093 10.4263 13.9493 10.4999 13.9488Z" fill="white"/>
</svg>
