<svg width="42" height="42" viewBox="0 0 42 42" fill="none" xmlns="http://www.w3.org/2000/svg">
<path d="M35.3941 7.35498C35.8078 7.35498 36.1432 7.01959 36.1432 6.60588C36.1432 6.19216 35.8078 5.85678 35.3941 5.85678C34.9804 5.85678 34.645 6.19216 34.645 6.60588C34.645 7.01959 34.9804 7.35498 35.3941 7.35498Z" fill="#1F67D2" stroke="#1F67D2" stroke-width="0.1"/>
<path d="M35.3941 36.1432C35.8078 36.1432 36.1432 35.8078 36.1432 35.3941C36.1432 34.9804 35.8078 34.645 35.3941 34.645C34.9804 34.645 34.645 34.9804 34.645 35.3941C34.645 35.8078 34.9804 36.1432 35.3941 36.1432Z" fill="#1F67D2" stroke="#1F67D2" stroke-width="0.1"/>
<path d="M7.13597 7.13449C7.42851 6.84195 7.42851 6.36766 7.13597 6.07512C6.84343 5.78258 6.36913 5.78258 6.07659 6.07512C5.78405 6.36766 5.78405 6.84195 6.07659 7.13449C6.36913 7.42703 6.84343 7.42703 7.13597 7.13449Z" fill="#1F67D2" stroke="#1F67D2" stroke-width="0.1"/>
<path d="M7.13341 35.9235C7.42595 35.631 7.42595 35.1567 7.13341 34.8642C6.84087 34.5716 6.36657 34.5716 6.07403 34.8642C5.78149 35.1567 5.78149 35.631 6.07403 35.9235C6.36657 36.2161 6.84087 36.2161 7.13341 35.9235Z" fill="#1F67D2" stroke="#1F67D2" stroke-width="0.1"/>
<path d="M7.04005 21.7491V21.7491L7.04103 21.7491C7.44334 21.7412 7.77443 21.4101 7.77443 21C7.77443 20.5902 7.45105 20.2588 7.04101 20.2509L7.04101 20.2509H7.04005H7.02533C6.61505 20.2509 6.27623 20.5897 6.27623 21C6.27623 21.4099 6.60735 21.7491 7.02533 21.7491H7.04005Z" fill="#1F67D2" stroke="#1F67D2" stroke-width="0.1"/>
<path d="M35.3941 2.95H6.60589C4.59136 2.95 2.95 4.59136 2.95 6.60589V35.3941C2.95 37.4086 4.59136 39.05 6.60589 39.05H35.3941C37.4086 39.05 39.05 37.4086 39.05 35.3941V6.60589C39.05 4.59136 37.4086 2.95 35.3941 2.95ZM37.331 35.3941C37.331 36.463 36.463 37.331 35.3941 37.331H6.60589C5.53702 37.331 4.66897 36.463 4.66897 35.3941V6.60589C4.66897 5.53702 5.53702 4.66897 6.60589 4.66897H35.3941C36.463 4.66897 37.331 5.53702 37.331 6.60589V35.3941Z" fill="#1F67D2" stroke="#1F67D2" stroke-width="0.1"/>
<path d="M35.8268 20.9927C35.8342 12.8187 29.1813 6.16587 21 6.16587C17.5297 6.16587 14.1627 7.37677 11.5117 9.58465L11.5117 9.58468L35.7768 20.9927M35.8268 20.9927L35.7768 20.9927M35.8268 20.9927C35.8268 20.9927 35.8268 20.9927 35.8268 20.9927H35.7768M35.8268 20.9927C35.8268 24.9797 34.2835 28.7087 31.4777 31.5072M35.7768 20.9927C35.7768 24.9665 34.2388 28.6828 31.4424 31.4718M31.4777 31.5072C31.4777 31.5072 31.4777 31.5072 31.4777 31.5072L31.4424 31.4718M31.4777 31.5072C28.6865 34.2983 24.9575 35.8341 20.9926 35.8341C17.4858 35.8341 14.2292 34.6823 11.5781 32.4891M31.4777 31.5072L31.4424 31.4718M31.4424 31.4718L11.5781 32.4891M11.5781 32.4891L11.61 32.4505L11.5781 32.4891C11.5781 32.4891 11.5781 32.4891 11.5781 32.4891ZM8.09239 18.3802L8.14137 18.3903C8.14138 18.3902 8.14139 18.3902 8.14139 18.3902C8.1414 18.3901 8.14141 18.3901 8.14142 18.39L8.09239 18.3802Z" fill="#1F67D2" stroke="#1F67D2" stroke-width="0.1"/>
<path d="M20.9145 22.7912C21.1478 22.7311 21.3806 22.7589 21.5842 22.8453C22.2227 22.6422 22.7141 22.1226 22.8751 21.47C22.8034 21.3283 22.7603 21.1714 22.7603 21V20.9999V20.9998V20.9997V20.9997V20.9996V20.9995V20.9994V20.9993V20.9992V20.9991V20.999V20.9989V20.9989V20.9988V20.9987V20.9986V20.9985V20.9984V20.9983V20.9982V20.9981V20.9981V20.998V20.9979V20.9978V20.9977V20.9976V20.9975V20.9974V20.9973V20.9972V20.9972V20.9971V20.997V20.9969V20.9968V20.9967V20.9966V20.9965V20.9964V20.9963V20.9962V20.9961V20.996V20.996V20.9959V20.9958V20.9957V20.9956V20.9955V20.9954V20.9953V20.9952V20.9951V20.995V20.9949V20.9948V20.9947V20.9946V20.9945V20.9944V20.9944V20.9943V20.9942V20.9941V20.994V20.9939V20.9938V20.9937V20.9936V20.9935V20.9934V20.9933V20.9932V20.9931V20.993V20.9929V20.9928V20.9927V20.9926V20.9925V20.9924V20.9923V20.9922V20.9921V20.992V20.9919V20.9918V20.9917V20.9916V20.9915V20.9914V20.9913V20.9912V20.9911V20.991V20.9909V20.9908V20.9907V20.9906V20.9905V20.9904V20.9903V20.9902V20.9901V20.99V20.9899V20.9898V20.9897V20.9896V20.9895V20.9894V20.9893V20.9892V20.9891V20.989V20.9889V20.9888V20.9887V20.9886V20.9885V20.9884V20.9883V20.9882V20.9881V20.988V20.9879V20.9878V20.9877V20.9876V20.9875V20.9874V20.9873V20.9872V20.9871V20.987V20.9869V20.9868V20.9867V20.9866V20.9865V20.9864V20.9863V20.9862V20.9861V20.986V20.9858V20.9857V20.9856V20.9855V20.9854V20.9853V20.9852V20.9851V20.985V20.9849V20.9848V20.9847V20.9846V20.9845V20.9844V20.9843V20.9842V20.9841V20.984V20.9839V20.9838V20.9837V20.9835V20.9834V20.9833V20.9832V20.9831V20.983V20.9829V20.9828V20.9827V20.9826V20.9825V20.9824V20.9823V20.9822V20.9821V20.982V20.9819V20.9817V20.9816V20.9815V20.9814V20.9813V20.9812V20.9811V20.981V20.9809V20.9808V20.9807V20.9806V20.9805V20.9804V20.9803V20.9802V20.98V20.9799V20.9798V20.9797V20.9796V20.9795V20.9794V20.9793V20.9792V20.9791V20.979V20.9789V20.9788V20.9787V20.9785V20.9784V20.9783V20.9782V20.9781V20.978V20.9779V20.9778V20.9777V20.9776V20.9775V20.9774V20.9773V20.9771V20.977V20.9769V20.9768V20.9767V20.9766V20.9765V20.9764V20.9763V20.9762V20.9761V20.976V20.9759V20.9757V20.9756V20.9755V20.9754V20.9753V20.9752V20.9751V20.975V20.9749V20.9748V20.9747V20.9746V20.9745V20.9743V20.9742V20.9741V20.974V20.9739V20.9738V20.9737V20.9736V20.9735V20.9734V20.9733V20.9732V20.9731V20.9729V20.9728V20.9727V20.9726V20.9725V20.9724V20.9723V20.9722V20.9721V20.972V20.9719V20.9718V20.9717V20.9715V20.9714V20.9713V20.9712V20.9711V20.971V20.9709V20.9708V20.9707V20.9706V20.9705V20.9704V20.9703V20.9701V20.97V20.9699V20.9698V20.9697V20.9696V20.9695V20.9694V20.9693V20.9692V20.9691V20.969V20.9689V20.9688V20.9686V20.9685V20.9684V20.9683V20.9682V20.9681V20.968V20.9679V20.9678V20.9677V20.9676V20.9675V20.9674V20.9673V20.9672V20.967V20.9669V20.9668V20.9667V20.9666V20.9665V20.9664V20.9663V20.9662V20.9661V20.966V20.9659V20.9658V20.9657V20.9656V20.9655V20.9654V20.9652V20.9651V20.965V20.9649V20.9648V20.9647V20.9646V20.9645V20.9644V20.9643V20.9642V20.9641V20.964V20.9639V20.9638V20.9637V20.9636V20.9635V20.9634V20.9633V20.9632V20.963V20.9629V20.9628V20.9627V20.9626V20.9625V20.9624V20.9623V20.9622V20.9621V20.962V20.9619V20.9618V20.9617V20.9616V20.9615V20.9614V20.9613V20.9612V20.9611V20.961V20.9609V20.9608V20.9607V20.9606V20.9605V20.9604V20.9603V20.9602V20.9601V20.96V20.9599V20.9598V20.9597V20.9595V20.9594V20.9593V20.9592V20.9591V20.959V20.9589V20.9588V20.9587V20.9586V20.9585V20.9584V20.9583V20.9582V20.9581V20.958V20.9579V20.9578V20.9577V20.9576V20.9575V20.9574V20.9573V20.9572V20.9571V20.957V20.9569V20.9568V20.9567V20.9566V20.9566V20.9565V20.9564V20.9563V20.9562V20.9561V20.956V20.9559V20.9558V20.9557V20.9556V20.9555V20.9554V20.9553V20.9552V20.9551V20.955V20.9549V20.9548V20.9547V20.9546V20.9545V20.9544V20.9543V20.9542V20.9541V20.954V20.9539V20.9538V20.9537V20.9537V20.9536V20.9535V20.9534V20.9533V20.9532V20.9531V20.953V20.9529V20.9528V20.9527V20.9526V20.9525V20.9524V20.9523V20.9522V20.9522V20.9521V20.952V20.9519V20.9518V20.9517V20.9516V20.9515V20.9514M20.9145 22.7912C20.9148 22.7911 20.915 22.7911 20.9152 22.791L20.9264 22.8397L20.9139 22.7913C20.9141 22.7913 20.9143 22.7912 20.9145 22.7912ZM20.9145 22.7912C20.8191 22.8133 20.7249 22.8555 20.644 22.9049C19.7856 22.7471 19.1207 22.0201 19.0631 21.1235C19.063 21.0995 19.061 21.076 19.0592 21.0555L19.0591 21.0537C19.0572 21.0326 19.0557 21.0153 19.0557 21C19.0557 20.1026 19.6783 19.3322 20.5226 19.1249C20.6644 19.1966 20.8212 19.2397 20.9926 19.2397C21.1641 19.2397 21.3209 19.1966 21.4626 19.125C22.1083 19.286 22.6347 19.7774 22.8379 20.4156C22.7667 20.5806 22.7386 20.766 22.7603 20.9514M22.7603 20.9514V20.9514V20.9513V20.9512V20.9511V20.9511V20.951V20.9509V20.9508V20.9507V20.9506V20.9505V20.9504V20.9503V20.9502V20.9502V20.9501V20.95V20.9499V20.9498V20.9497V20.9496V20.9495V20.9494V20.9494V20.9493V20.9492V20.9491V20.949V20.9489V20.9488V20.9487V20.9487V20.9486V20.9485H22.8103L22.7607 20.9544C22.7605 20.9534 22.7604 20.9524 22.7603 20.9514ZM19.9713 15.0347C18.7911 13.8561 17.1664 13.1495 15.4146 13.1495C11.8546 13.1495 8.96227 16.0419 8.96227 19.6018V21C8.96227 21.4765 9.34524 21.8595 9.82175 21.8595H15.2189C13.9338 23.05 13.1569 24.7473 13.1569 26.5928C13.1569 30.1527 16.0492 33.0451 19.6092 33.0451H21.0074C21.4839 33.0451 21.8668 32.6621 21.8668 32.1856V27.0403C23.0841 28.2773 24.7679 29.0271 26.6002 29.0271C30.2484 29.0271 33.2217 26.0538 33.2217 22.4056V21.0074C33.2217 20.4349 32.7575 19.9786 32.193 19.9786H27.2109C28.348 18.7784 29.0271 17.1673 29.0271 15.4219V15.4218C29.0197 11.759 26.0465 8.78565 22.3982 8.78565H21C20.4276 8.78565 19.9713 9.24982 19.9713 9.81439V15.0347ZM31.1569 22.3482H31.1495V22.3982C31.1495 24.9094 29.104 26.9549 26.5928 26.9549C24.8051 26.9549 23.2101 25.9126 22.4725 24.3443C23.4524 23.91 24.2029 23.0626 24.5109 22.0287H31.1569V22.3482ZM22.928 21.4636C22.7661 22.148 22.251 22.6926 21.5814 22.8986L22.928 21.4636ZM22.3982 10.8505C24.9094 10.8505 26.9549 12.896 26.9549 15.4072C26.9549 17.1949 25.9126 18.7899 24.3443 19.5275C23.91 18.5476 23.0626 17.7971 22.0287 17.4891V10.8505H22.3982ZM10.6812 19.6018C10.6812 16.9949 12.8004 14.8685 15.4146 14.8685C17.2751 14.8685 18.9284 15.9468 19.6958 17.5871C18.584 18.0175 17.739 18.9745 17.4504 20.1405H10.6812V19.6018ZM19.6018 31.3188C16.9949 31.3188 14.8685 29.1996 14.8685 26.5854C14.8685 24.7249 15.9468 23.0715 17.5871 22.3042C18.0175 23.416 18.9745 24.261 20.1405 24.5496V31.3188H19.6018Z" fill="#1F67D2" stroke="#1F67D2" stroke-width="0.1"/>
</svg>
