<svg width="10" height="10" viewBox="0 0 10 10" fill="none" xmlns="http://www.w3.org/2000/svg">
<path d="M8.19932 4.41348L3.16753 0.0977031C3.10363 0.0404289 3.01954 0.00673814 2.93209 0H2.92536C2.922 0 2.91864 0 2.91527 0C2.81773 0 2.72355 0.0370597 2.65292 0.104441C2.57892 0.175192 2.53856 0.269526 2.5352 0.370598C2.53183 0.488515 2.58229 0.599695 2.6731 0.673814L2.67646 0.677184L7.36517 4.69985L2.65628 8.736C2.57556 8.79665 2.52174 8.88424 2.50493 8.98531C2.48811 9.08639 2.51502 9.18746 2.57556 9.26832C2.70001 9.43677 2.93882 9.47383 3.10699 9.34917C3.12381 9.33907 3.13726 9.32559 3.15072 9.31211L3.1709 9.29527L8.19932 4.98623C8.36076 4.84809 8.37758 4.60889 8.24304 4.44717C8.22959 4.44044 8.21613 4.42696 8.19932 4.41348Z" fill="white"/>
</svg>
