<svg width="21" height="22" viewBox="0 0 21 22" fill="none" xmlns="http://www.w3.org/2000/svg">
<g clip-path="url(#clip0_348_151)">
<path d="M20.9972 13.1567L19.6551 2.47205C19.5871 1.92475 19.3204 1.42151 18.9057 1.05795C18.491 0.694396 17.9572 0.495857 17.4057 0.500066H3.57932C3.02784 0.495857 2.49402 0.694396 2.07932 1.05795C1.66461 1.42151 1.39792 1.92475 1.32992 2.47205L0.00276478 13.1567C-0.000921593 13.1866 -0.000921593 13.2168 0.00276478 13.2467V19.2451C0.00276478 19.8417 0.239755 20.4139 0.661601 20.8357C1.08345 21.2575 1.65559 21.4945 2.25217 21.4945H18.7478C19.3444 21.4945 19.9166 21.2575 20.3384 20.8357C20.7602 20.4139 20.9972 19.8417 20.9972 19.2451V13.2467C21.0009 13.2168 21.0009 13.1866 20.9972 13.1567ZM2.82952 2.6595C2.85162 2.47661 2.94027 2.30826 3.07857 2.18657C3.21686 2.06487 3.39511 1.99834 3.57932 1.99967H17.4207C17.6049 1.99834 17.7831 2.06487 17.9214 2.18657C18.0597 2.30826 18.1484 2.47661 18.1705 2.6595L19.4002 12.4969H1.59984L2.82952 2.6595ZM19.4976 19.2451C19.4976 19.444 19.4186 19.6347 19.278 19.7753C19.1374 19.9159 18.9467 19.9949 18.7478 19.9949H2.25217C2.05331 19.9949 1.8626 19.9159 1.72198 19.7753C1.58137 19.6347 1.50237 19.444 1.50237 19.2451V13.9965H19.4976V19.2451ZM3.00197 16.9957C3.00197 16.6991 3.08993 16.4092 3.2547 16.1626C3.41948 15.916 3.65369 15.7238 3.92771 15.6103C4.20172 15.4968 4.50324 15.4671 4.79414 15.5249C5.08503 15.5828 5.35224 15.7256 5.56196 15.9353C5.77168 16.1451 5.91451 16.4123 5.97237 16.7032C6.03023 16.9941 6.00054 17.2956 5.88703 17.5696C5.77353 17.8436 5.58132 18.0778 5.33472 18.2426C5.08811 18.4074 4.79817 18.4953 4.50158 18.4953C4.10386 18.4953 3.72243 18.3373 3.4412 18.0561C3.15997 17.7749 3.00197 17.3934 3.00197 16.9957ZM6.75099 16.9957C6.75099 16.6991 6.83894 16.4092 7.00372 16.1626C7.1685 15.916 7.4027 15.7238 7.67672 15.6103C7.95074 15.4968 8.25226 15.4671 8.54315 15.5249C8.83405 15.5828 9.10125 15.7256 9.31097 15.9353C9.5207 16.1451 9.66352 16.4123 9.72138 16.7032C9.77925 16.9941 9.74955 17.2956 9.63605 17.5696C9.52254 17.8436 9.33034 18.0778 9.08373 18.2426C8.83712 18.4074 8.54719 18.4953 8.25059 18.4953C7.85287 18.4953 7.47144 18.3373 7.19021 18.0561C6.90898 17.7749 6.75099 17.3934 6.75099 16.9957ZM10.5 16.9957C10.5 16.7969 10.579 16.6061 10.7196 16.4655C10.8602 16.3249 11.0509 16.2459 11.2498 16.2459H17.2482C17.4471 16.2459 17.6378 16.3249 17.7784 16.4655C17.919 16.6061 17.998 16.7969 17.998 16.9957C17.998 17.1946 17.919 17.3853 17.7784 17.5259C17.6378 17.6665 17.4471 17.7455 17.2482 17.7455H11.2498C11.0509 17.7455 10.8602 17.6665 10.7196 17.5259C10.579 17.3853 10.5 17.1946 10.5 16.9957Z" fill="white"/>
</g>
<defs>
<clipPath id="clip0_348_151">
<rect width="21" height="21" fill="white" transform="translate(0 0.5)"/>
</clipPath>
</defs>
</svg>
