<svg width="42" height="42" viewBox="0 0 42 42" fill="none" xmlns="http://www.w3.org/2000/svg">
<path d="M26.2077 15.5207C27.1175 13.9458 26.6357 11.9509 25.1528 10.9495L25.1529 10.9495L25.1494 10.9474C24.4806 10.534 23.7515 10.2183 22.9773 10.0154L22.6616 9.93261L22.8768 10.178C24.1743 11.6578 24.5606 13.6843 23.9775 15.4844L23.9623 15.5315L23.9904 15.5722C24.2505 15.9479 24.4458 16.3816 24.5542 16.8443L24.5825 16.9651L24.6945 16.9118C25.3207 16.614 25.8557 16.1327 26.2077 15.5207ZM26.2077 15.5207L26.1211 15.4707M26.2077 15.5207C26.2077 15.5207 26.2077 15.5206 26.2078 15.5206L26.1211 15.4707M26.1211 15.4707C25.797 16.0343 25.3124 16.4842 24.7435 16.776L23.1237 10.1592C23.8244 10.3599 24.486 10.6549 25.0969 11.0324C26.5367 12.0047 27.0043 13.9418 26.1211 15.4707ZM30.9122 17.9444L30.9121 17.9467C30.7578 23.2886 26.3711 27.5797 21 27.5797C15.5114 27.5797 11.0805 23.1048 11.0805 17.6602C11.0805 12.1935 15.5334 7.74063 21 7.74063C26.8052 7.74063 31.1839 12.7164 30.9122 17.9444ZM24.7554 24.6001L24.7555 24.6002L24.7587 24.5984C25.4504 24.2225 26.0819 23.7413 26.6232 23.185L26.8483 22.9537L26.5319 23.0172C24.6077 23.4035 22.6616 22.7257 21.3934 21.319L21.36 21.2819L21.3103 21.2863C20.8182 21.3297 20.3565 21.279 19.9243 21.1422L19.8048 21.1043L19.7945 21.2293C19.5728 23.9124 22.3705 25.7849 24.7554 24.6001ZM16.8473 24.3708L16.8472 24.3709L16.8506 24.373C17.5194 24.7863 18.2486 25.102 19.0303 25.305L19.3479 25.3874L19.1303 25.1419C17.8258 23.6698 17.4394 21.6436 18.0225 19.8358L18.0377 19.7888L18.0096 19.7482C17.7495 19.3725 17.5542 18.9387 17.4458 18.476L17.4176 18.3557L17.3058 18.4084C14.9212 19.5319 14.622 22.872 16.8473 24.3708ZM17.2443 10.7203L17.2443 10.7203L17.2413 10.7219C16.55 11.0976 15.9182 11.5713 15.3763 12.1358L15.1549 12.3665L15.4683 12.3031C17.3774 11.9169 19.3237 12.5872 20.6068 14.0016L20.6402 14.0384L20.6898 14.034C21.1733 13.9907 21.6355 14.0483 22.0697 14.1786L22.1876 14.214L22.1981 14.0913C22.4274 11.3926 19.6141 9.53543 17.2443 10.7203ZM28.8928 17.8511L28.8929 17.8511L28.893 17.8476C28.908 17.0435 28.8028 16.27 28.6152 15.5422L28.5315 15.2176L28.4237 15.535C27.7895 17.4012 26.2369 18.7423 24.3781 19.1433L24.33 19.1536L24.3089 19.1981C24.1065 19.6246 23.8246 20.0077 23.4848 20.3258L23.3947 20.4102L23.4959 20.4808C25.6975 22.0174 28.7476 20.5346 28.8928 17.8511ZM18.5226 14.9945L18.613 14.9099L18.5113 14.8393C17.9384 14.4421 17.2581 14.2203 16.5469 14.2203C14.682 14.2203 13.107 15.7259 13.107 17.6602C13.107 18.389 13.2047 19.1031 13.3927 19.7799L13.4798 20.0934L13.5838 19.7851C14.2034 17.9481 15.7414 16.578 17.629 16.1771L17.6773 16.1668L17.6985 16.1222C17.9009 15.6958 18.1829 15.3126 18.5226 14.9945ZM21 16.0387C20.1061 16.0387 19.3785 16.7663 19.3785 17.6602C19.3785 18.5541 20.1061 19.2816 21 19.2816C21.8939 19.2816 22.6215 18.5541 22.6215 17.6602C22.6215 16.7663 21.8939 16.0387 21 16.0387Z" fill="#1F67D2" stroke="white" stroke-width="0.2"/>
<mask id="path-2-inside-1_1689_24781" fill="white">
<path d="M38.8867 14.3203C39.5027 14.3203 40 13.823 40 13.207C40 12.591 39.5027 12.0938 38.8867 12.0938H35.4727V9.86719H38.8867C39.5027 9.86719 40 9.36992 40 8.75391C40 8.13789 39.5027 7.64062 38.8867 7.64062H35.4727V5.41406C35.4727 4.79805 34.9754 4.30078 34.3594 4.30078H30.9824V3.11328C30.9824 2.49727 30.4852 2 29.8691 2C29.2531 2 28.7559 2.49727 28.7559 3.11328V4.30078H13.2441V3.11328C13.2441 2.49727 12.7469 2 12.1309 2C11.5148 2 11.0176 2.49727 11.0176 3.11328V4.30078H7.64062C7.02461 4.30078 6.52734 4.79805 6.52734 5.41406V7.64062H3.11328C2.49727 7.64062 2 8.13789 2 8.75391C2 9.36992 2.49727 9.86719 3.11328 9.86719H6.52734V12.0938H3.11328C2.49727 12.0938 2 12.591 2 13.207C2 13.823 2.49727 14.3203 3.11328 14.3203H6.52734V16.5469H3.11328C2.49727 16.5469 2 17.0441 2 17.6602C2 18.2762 2.49727 18.7734 3.11328 18.7734H6.52734V21H3.11328C2.49727 21 2 21.4973 2 22.1133C2 22.7293 2.49727 23.2266 3.11328 23.2266H6.52734V25.4531H3.11328C2.49727 25.4531 2 25.9504 2 26.5664C2 27.1824 2.49727 27.6797 3.11328 27.6797H6.52734V29.9062C6.52734 30.5223 7.02461 31.0195 7.64062 31.0195H11.0176V34.3594C11.0176 36.2 12.5168 37.6992 14.3574 37.6992H15.4336V38.8867C15.4336 39.5027 15.9309 40 16.5469 40H25.4531C26.0691 40 26.5664 39.5027 26.5664 38.8867V37.6992H27.6426C29.4832 37.6992 30.9824 36.2 30.9824 34.3594V31.0195H34.3594C34.9754 31.0195 35.4727 30.5223 35.4727 29.9062V27.6797H38.8867C39.5027 27.6797 40 27.1824 40 26.5664C40 25.9504 39.5027 25.4531 38.8867 25.4531H35.4727V23.2266H38.8867C39.5027 23.2266 40 22.7293 40 22.1133C40 21.4973 39.5027 21 38.8867 21H35.4727V18.7734H38.8867C39.5027 18.7734 40 18.2762 40 17.6602C40 17.0441 39.5027 16.5469 38.8867 16.5469H35.4727V14.3203H38.8867ZM24.3398 37.7734H17.6602V35.5469H24.3398V37.7734ZM28.7559 34.3594C28.7559 34.9754 28.2586 35.4727 27.6426 35.4727H26.5664V34.4336C26.5664 33.8176 26.0691 33.3203 25.4531 33.3203H16.5469C15.9309 33.3203 15.4336 33.8176 15.4336 34.4336V35.4727H14.3648C13.7488 35.4727 13.2516 34.9754 13.2516 34.3594V31.0195H28.7559V34.3594ZM33.2461 28.793H8.75391V6.52734H33.2461V28.793Z"/>
</mask>
<path d="M38.8867 14.3203C39.5027 14.3203 40 13.823 40 13.207C40 12.591 39.5027 12.0938 38.8867 12.0938H35.4727V9.86719H38.8867C39.5027 9.86719 40 9.36992 40 8.75391C40 8.13789 39.5027 7.64062 38.8867 7.64062H35.4727V5.41406C35.4727 4.79805 34.9754 4.30078 34.3594 4.30078H30.9824V3.11328C30.9824 2.49727 30.4852 2 29.8691 2C29.2531 2 28.7559 2.49727 28.7559 3.11328V4.30078H13.2441V3.11328C13.2441 2.49727 12.7469 2 12.1309 2C11.5148 2 11.0176 2.49727 11.0176 3.11328V4.30078H7.64062C7.02461 4.30078 6.52734 4.79805 6.52734 5.41406V7.64062H3.11328C2.49727 7.64062 2 8.13789 2 8.75391C2 9.36992 2.49727 9.86719 3.11328 9.86719H6.52734V12.0938H3.11328C2.49727 12.0938 2 12.591 2 13.207C2 13.823 2.49727 14.3203 3.11328 14.3203H6.52734V16.5469H3.11328C2.49727 16.5469 2 17.0441 2 17.6602C2 18.2762 2.49727 18.7734 3.11328 18.7734H6.52734V21H3.11328C2.49727 21 2 21.4973 2 22.1133C2 22.7293 2.49727 23.2266 3.11328 23.2266H6.52734V25.4531H3.11328C2.49727 25.4531 2 25.9504 2 26.5664C2 27.1824 2.49727 27.6797 3.11328 27.6797H6.52734V29.9062C6.52734 30.5223 7.02461 31.0195 7.64062 31.0195H11.0176V34.3594C11.0176 36.2 12.5168 37.6992 14.3574 37.6992H15.4336V38.8867C15.4336 39.5027 15.9309 40 16.5469 40H25.4531C26.0691 40 26.5664 39.5027 26.5664 38.8867V37.6992H27.6426C29.4832 37.6992 30.9824 36.2 30.9824 34.3594V31.0195H34.3594C34.9754 31.0195 35.4727 30.5223 35.4727 29.9062V27.6797H38.8867C39.5027 27.6797 40 27.1824 40 26.5664C40 25.9504 39.5027 25.4531 38.8867 25.4531H35.4727V23.2266H38.8867C39.5027 23.2266 40 22.7293 40 22.1133C40 21.4973 39.5027 21 38.8867 21H35.4727V18.7734H38.8867C39.5027 18.7734 40 18.2762 40 17.6602C40 17.0441 39.5027 16.5469 38.8867 16.5469H35.4727V14.3203H38.8867ZM24.3398 37.7734H17.6602V35.5469H24.3398V37.7734ZM28.7559 34.3594C28.7559 34.9754 28.2586 35.4727 27.6426 35.4727H26.5664V34.4336C26.5664 33.8176 26.0691 33.3203 25.4531 33.3203H16.5469C15.9309 33.3203 15.4336 33.8176 15.4336 34.4336V35.4727H14.3648C13.7488 35.4727 13.2516 34.9754 13.2516 34.3594V31.0195H28.7559V34.3594ZM33.2461 28.793H8.75391V6.52734H33.2461V28.793Z" fill="#1F67D2" stroke="white" stroke-width="0.4" mask="url(#path-2-inside-1_1689_24781)"/>
<path d="M32.0328 8.74648C32.0328 9.3061 31.5792 9.75976 31.0195 9.75976C30.4599 9.75976 30.0063 9.3061 30.0063 8.74648C30.0063 8.18686 30.4599 7.7332 31.0195 7.7332C31.5792 7.7332 32.0328 8.18686 32.0328 8.74648Z" fill="#1F67D2" stroke="white" stroke-width="0.2"/>
<path d="M32.0328 26.5664C32.0328 27.126 31.5792 27.5797 31.0195 27.5797C30.4599 27.5797 30.0063 27.126 30.0063 26.5664C30.0063 26.0068 30.4599 25.5531 31.0195 25.5531C31.5792 25.5531 32.0328 26.0068 32.0328 26.5664Z" fill="#1F67D2" stroke="white" stroke-width="0.2"/>
<path d="M11.9938 8.74648C11.9938 9.3061 11.5401 9.75976 10.9805 9.75976C10.4208 9.75976 9.96719 9.3061 9.96719 8.74648C9.96719 8.18686 10.4208 7.7332 10.9805 7.7332C11.5401 7.7332 11.9938 8.18686 11.9938 8.74648Z" fill="#1F67D2" stroke="white" stroke-width="0.2"/>
<path d="M11.9938 26.5664C11.9938 27.126 11.5401 27.5797 10.9805 27.5797C10.4208 27.5797 9.96719 27.126 9.96719 26.5664C9.96719 26.0068 10.4208 25.5531 10.9805 25.5531C11.5401 25.5531 11.9938 26.0068 11.9938 26.5664Z" fill="#1F67D2" stroke="white" stroke-width="0.2"/>
</svg>
