<svg width="21" height="22" viewBox="0 0 21 22" fill="none" xmlns="http://www.w3.org/2000/svg">
<g clip-path="url(#clip0_348_156)">
<path d="M6.35107 11.1287C6.35107 11.309 6.42128 11.4785 6.54931 11.6066C6.67683 11.7338 6.84624 11.8039 7.02637 11.8039C7.20688 11.8039 7.37655 11.7336 7.50402 11.606C8.30389 10.8058 9.3678 10.3651 10.4997 10.3651C11.6316 10.3651 12.6955 10.8058 13.4953 11.6059C13.6229 11.7336 13.7925 11.8039 13.9731 11.8039C14.1535 11.8039 14.3231 11.7336 14.4505 11.6063C14.5781 11.4788 14.6484 11.3092 14.6484 11.1286C14.6484 10.9482 14.5781 10.7787 14.4507 10.6512C13.3957 9.59574 11.9926 9.01443 10.4998 9.01443C9.00707 9.01443 7.60391 9.59574 6.54893 10.6511C6.42132 10.7787 6.35107 10.9483 6.35107 11.1287Z" fill="white"/>
<path d="M10.5001 11.3069C9.61964 11.3069 8.79206 11.6495 8.16976 12.272C8.04233 12.3995 7.97217 12.5691 7.97217 12.7494C7.97217 12.9298 8.04238 13.0993 8.16981 13.2268C8.29741 13.3544 8.46703 13.4247 8.6475 13.4247C8.82789 13.4247 8.99743 13.3545 9.12499 13.2269C9.49225 12.8598 9.98067 12.6576 10.5003 12.6576C11.0199 12.6576 11.5083 12.8597 11.8752 13.2267C12.0028 13.3544 12.1724 13.4247 12.3529 13.4247C12.5335 13.4247 12.7032 13.3544 12.8301 13.2272C12.9579 13.0997 13.0283 12.93 13.0283 12.7494C13.0283 12.5691 12.9581 12.3996 12.8305 12.2719C12.2082 11.6496 11.3806 11.3069 10.5001 11.3069Z" fill="white"/>
<path d="M10.4999 14.2542C9.94693 14.2542 9.49707 14.7041 9.49707 15.257C9.49707 15.8099 9.94693 16.2598 10.4999 16.2598C11.0528 16.2598 11.5027 15.8099 11.5027 15.257C11.5027 14.7041 11.0528 14.2542 10.4999 14.2542Z" fill="white"/>
<path d="M20.9919 8.27859C20.9649 8.09978 20.8697 7.94233 20.7237 7.8354L10.8992 0.630763C10.7827 0.545225 10.6445 0.5 10.4999 0.5C10.3552 0.5 10.2171 0.545225 10.1004 0.630763L0.276068 7.83535C0.130658 7.94194 0.0354254 8.09889 0.00800878 8.27726C-0.0194505 8.45573 0.0242367 8.63411 0.130828 8.7793C0.257577 8.95213 0.461365 9.05531 0.675958 9.05531C0.820258 9.05531 0.958195 9.01004 1.07469 8.9245L1.31004 8.75189V19.596C1.31004 20.6455 2.16389 21.4994 3.2134 21.4994H17.7863C18.8358 21.4994 19.6896 20.6455 19.6896 19.596V8.75193L19.9244 8.92416C20.0411 9.00995 20.1792 9.05531 20.3237 9.05531C20.5383 9.05531 20.7421 8.95213 20.8688 8.77943C20.9759 8.63334 21.0195 8.45445 20.9919 8.27859ZM18.3391 19.5961C18.3391 19.9009 18.0911 20.1489 17.7864 20.1489H3.2134C2.90862 20.1489 2.66067 19.9009 2.66067 19.5961V7.76147L10.4999 2.01274L18.339 7.76147V19.5961H18.3391Z" fill="white"/>
</g>
<defs>
<clipPath id="clip0_348_156">
<rect width="21" height="21" fill="white" transform="translate(0 0.5)"/>
</clipPath>
</defs>
</svg>
