<svg width="27" height="28" viewBox="0 0 27 28" fill="none" xmlns="http://www.w3.org/2000/svg">
<path d="M24.8057 16.0185C24.8044 16.0173 24.803 16.0164 24.8017 16.0152C23.7452 15.0682 23.1393 13.711 23.1393 12.2919C23.1393 12.2916 23.1392 12.2912 23.1392 12.2908V10.0009C23.1392 10.0005 23.1393 10.0002 23.1393 9.9998C23.1393 4.88375 19.1539 0.509691 14.0649 0.0416626C8.95863 -0.4293 4.23544 3.14372 3.30558 8.1702C3.19449 8.76881 3.13858 9.3843 3.13858 9.9998C3.13858 10.0023 3.13891 10.0048 3.13896 10.0073V12.2913C3.13896 13.7128 2.5315 15.0707 1.47244 16.0184C1.46984 16.0207 1.46768 16.0233 1.46508 16.0257C0.243331 17.1237 -0.158936 18.8454 0.440894 20.4156C1.04028 21.9853 2.49197 23 4.13896 23H7.22684C7.71895 25.7964 10.2264 28 13.1391 28C16.0519 28 18.5593 25.7963 19.0514 23H22.1393C23.7863 23 25.2388 21.9828 25.8395 20.4096C26.44 18.8403 26.0338 17.1167 24.8057 16.0185ZM13.1391 26C11.3145 26 9.72879 24.7028 9.27161 23H17.0066C16.5494 24.7029 14.9637 26 13.1391 26ZM23.9718 19.6958C23.731 20.3267 23.1231 21.0001 22.1393 21.0001H18.1401C18.1397 21.0001 18.1394 21.0001 18.139 21.0001C18.1386 21.0001 18.1383 21.0001 18.1379 21.0001H8.14015C8.13976 21.0001 8.13943 21.0001 8.13904 21.0001C8.13865 21.0001 8.13832 21.0001 8.13793 21.0001H4.1389C4.13431 21.0001 4.12993 21.0008 4.12534 21.0008C3.14981 20.9946 2.54722 20.3272 2.3088 19.7027C2.06834 19.0729 2.07243 18.1656 2.80539 17.5103C2.81043 17.5059 2.81464 17.5009 2.81956 17.4963C4.2934 16.1704 5.13867 14.2748 5.1389 12.2922V12.292V10.0005C5.1389 9.99836 5.13862 9.99637 5.13856 9.99426C5.1389 9.50282 5.18373 9.01154 5.27252 8.53438C6.01639 4.51326 9.80213 1.65826 13.8813 2.03379C17.9516 2.40782 21.1392 5.90689 21.1392 9.99996V10.0002C21.1392 10.0003 21.1392 10.0004 21.1392 10.0005V12.292C21.1392 14.2814 21.9895 16.1825 23.472 17.5086C23.4722 17.5089 23.4724 17.5091 23.4727 17.5093C24.2061 18.165 24.2115 19.0688 23.9718 19.6958Z" fill="white"/>
</svg>
