<svg width="24" height="24" viewBox="0 0 24 24" fill="none" xmlns="http://www.w3.org/2000/svg">
<path d="M18.1313 6.07213H16.8748C17.0006 5.91562 17.1175 5.75119 17.224 5.57933C17.9441 4.37331 17.9822 2.85329 17.324 1.6126L17.321 1.60716C16.7356 0.584396 15.6425 -0.0287641 14.4628 0.00194348C13.2047 -0.035698 11.9953 0.474939 11.1488 1.40359C10.9046 1.66213 10.6887 1.94593 10.505 2.24954C10.3316 1.9489 10.1271 1.66659 9.89427 1.40607C9.04486 0.474939 7.83637 -0.035698 6.57736 0.00194348C5.40106 -0.0307452 4.30302 0.579939 3.71165 1.59824L3.70818 1.60468C3.04995 2.84536 3.08809 4.36539 3.80972 5.57388C3.91521 5.74376 4.03111 5.9077 4.15691 6.06371H2.8766C2.10842 6.06371 1.3858 6.36286 0.842476 6.90619C0.299151 7.45001 0 8.17263 0 8.94081V21.0336C0 22.6156 1.28675 23.9023 2.86868 23.9023H18.1313C19.7133 23.9023 21 22.6156 21 21.0336V8.94874C21 7.3673 19.7133 6.07708 18.1313 6.07213ZM19.0189 21.0336C19.0189 21.523 18.6207 21.9212 18.1313 21.9212H11.4916L11.5455 8.05326H18.1526C18.639 8.06862 19.0194 8.46138 19.0194 8.94874V21.0336H19.0189ZM12.5406 2.75869C12.9878 2.26885 13.6079 1.9905 14.2642 1.97911V2.02914L14.4756 2.01477C14.9412 1.98357 15.3766 2.21388 15.6118 2.61704C15.9303 3.24654 15.8936 4.0073 15.5157 4.60362L15.5113 4.61105C15.1933 5.16576 14.3518 6.0964 12.2914 6.0964H11.494C11.5133 5.37329 11.6604 3.72201 12.5406 2.75869ZM5.49269 4.57142C5.11479 3.9751 5.07814 3.21484 5.3966 2.58484C5.63038 2.18466 6.06325 1.95385 6.52585 1.98258L6.53823 1.98357L6.55061 1.98258C7.25193 1.939 7.93443 2.20546 8.42179 2.71213C9.04387 3.40503 9.39651 4.50555 9.49854 6.07213H8.71698C6.76358 6.07213 5.88792 5.25987 5.49715 4.57885L5.49269 4.57142ZM9.50844 8.05326L9.45446 21.9212H2.87512C2.87314 21.9212 2.87066 21.9212 2.86868 21.9212C2.38231 21.9212 1.9846 21.5274 1.98113 21.0396V8.94874C1.98113 8.45494 2.38281 8.05326 2.8766 8.05326H9.50844Z" fill="#F43453"/>
</svg>
