<svg width="18" height="19" viewBox="0 0 18 19" fill="none" xmlns="http://www.w3.org/2000/svg">
<path fill-rule="evenodd" clip-rule="evenodd" d="M14.5012 0H3.03726C2.41611 0 1.86346 0.392788 1.65793 0.981971L0.0456731 5.59038C0.0137019 5.66803 0 5.75481 0 5.84615V17.5385C0 18.3469 0.653125 19 1.46154 19H16.0769C16.8853 19 17.5385 18.3469 17.5385 17.5385V5.84615C17.5385 5.75481 17.5202 5.66803 17.4928 5.59038L15.8805 0.981971C15.675 0.392788 15.1224 0 14.5012 0ZM16.0769 6.57692V17.5385H1.46154V6.57692H16.0769ZM6.57692 9.5H10.9615C11.3635 9.5 11.6923 9.17115 11.6923 8.76923C11.6923 8.36731 11.3635 8.03846 10.9615 8.03846H6.57692C6.175 8.03846 5.84615 8.36731 5.84615 8.76923C5.84615 9.17115 6.175 9.5 6.57692 9.5ZM8.03846 1.46154V5.11538H1.75841L3.03269 1.46154H8.03846ZM9.5 1.46154H14.5012L15.7755 5.11538H9.5V1.46154Z" fill="#6782AA"/>
</svg>
