<svg width="16" height="16" viewBox="0 0 16 16" fill="none" xmlns="http://www.w3.org/2000/svg">
<g clip-path="url(#clip0_129_32810)">
<path d="M15.4867 11.52C15.4433 11.4867 12.2667 9.19667 11.3967 9.36C10.98 9.43333 10.7433 9.71667 10.2667 10.2867C10.19 10.38 10.0067 10.5967 9.86333 10.7533C9.56333 10.6533 9.26667 10.5367 8.98333 10.3933C7.51333 9.67667 6.32667 8.49 5.61333 7.02333C5.47333 6.74 5.35333 6.44333 5.25333 6.14333C5.41 6 5.63 5.81333 5.72333 5.73667C6.29 5.26333 6.57333 5.02333 6.64667 4.60667C6.79667 3.74333 4.51 0.546667 4.48667 0.516667C4.27667 0.216667 3.94333 0.0266667 3.57667 0C2.64667 0 0 3.43333 0 4.01C0 4.04333 0.05 7.46 4.26 11.7433C8.54 15.95 11.9567 16 11.99 16C12.5667 16 16 13.3533 16 12.4267C15.9733 12.0633 15.7833 11.73 15.4867 11.52Z" fill="#1F67D2"/>
</g>
<defs>
<clipPath id="clip0_129_32810">
<rect width="16" height="16" fill="white"/>
</clipPath>
</defs>
</svg>
