<svg width="24" height="28" viewBox="0 0 24 28" fill="none" xmlns="http://www.w3.org/2000/svg">
<path d="M23.6941 25.4398L22.5236 9.04949C22.4342 7.79832 21.3934 6.82925 20.1395 6.82925H18.3379V6.4878C18.3379 2.90448 15.4335 0 11.8501 0C8.39787 0 5.20727 2.74947 5.36227 6.4878C5.36701 6.60119 5.37117 6.71522 5.37527 6.82925H3.56068C2.30683 6.82925 1.26604 7.79832 1.1766 9.04943L0.00603987 25.4397C-0.0410182 26.1015 0.188446 26.753 0.640459 27.2386C1.09324 27.7241 1.72632 28 2.39012 28H21.31C21.9738 28 22.6068 27.7241 23.0596 27.2386C23.5118 26.753 23.7413 26.1015 23.6941 25.4398ZM7.41106 6.4878C7.41106 4.03611 9.39838 2.04879 11.8501 2.04879C14.3018 2.04879 16.2891 4.03611 16.2891 6.4878V6.82925H7.41106V6.4878ZM21.5599 25.8427C21.495 25.9116 21.4049 25.9512 21.31 25.9512H2.39012C2.29524 25.9512 2.20503 25.9116 2.14024 25.8427C2.07531 25.773 2.0426 25.6801 2.04938 25.5853L3.22059 9.19495C3.23288 9.01671 3.3818 8.8781 3.56075 8.8781H5.42169C5.45108 11.6064 5.36227 14.0001 5.36227 14.0001C5.36227 14.5655 5.8212 15.0245 6.38667 15.0245C6.95213 15.0245 7.41106 14.5655 7.41106 14.0001V8.8781H16.2891V14.0001C16.2891 14.5655 16.748 15.0245 17.3135 15.0245C17.879 15.0245 18.3379 14.5655 18.3379 14.0001V8.8781H20.1395C20.3184 8.8781 20.4673 9.01671 20.4796 9.19495L21.6508 25.5853C21.6576 25.6801 21.6248 25.773 21.5599 25.8427Z" fill="white"/>
</svg>
