<svg width="19" height="18" viewBox="0 0 19 18" fill="none" xmlns="http://www.w3.org/2000/svg">
<path d="M10.9749 3.93675C12.9514 3.93888 14.5612 5.54864 14.5633 7.52517C14.5633 7.83228 14.8133 8.08223 15.1204 8.08223C15.4275 8.08223 15.6774 7.83228 15.6774 7.52517C15.6774 4.93193 13.5678 2.82227 10.9745 2.82227C10.6674 2.82227 10.4175 3.07222 10.4175 3.37933C10.4178 3.68644 10.6678 3.93639 10.9749 3.93675Z" fill="#1F67D2"/>
<path d="M10.975 1.11448C14.5098 1.11448 17.3857 3.99033 17.3857 7.52514C17.3857 7.83225 17.6356 8.08221 17.9428 8.08221C18.2499 8.08221 18.4998 7.83225 18.4998 7.52514C18.4998 3.37575 15.1241 0 10.975 0C10.6679 0 10.418 0.24995 10.418 0.557063C10.418 0.864175 10.6676 1.11448 10.975 1.11448Z" fill="#1F67D2"/>
<path d="M15.2183 9.77861C14.6705 9.23184 13.7786 9.23184 13.2308 9.77861L11.2713 11.7381C11.1804 11.8329 11.0331 11.8514 10.9191 11.7807C10.0574 11.2701 9.25716 10.6566 8.54281 9.95968C7.84302 9.24285 7.2295 8.44258 6.71789 7.57841C6.64865 7.46657 6.66747 7.31958 6.76404 7.22656L8.72175 5.26885C9.26852 4.72102 9.26852 3.82915 8.72175 3.28132L5.96377 0.52334C5.2654 -0.1729 4.12927 -0.1729 3.4309 0.52334L1.25697 2.69691C0.615757 3.32321 0.355865 4.25129 0.578122 5.11796C1.38869 8.43655 2.89443 11.2361 5.05415 13.4384L5.06161 13.4459C7.2643 15.6052 10.0638 17.1113 13.3817 17.9215C13.5876 17.9723 13.7996 17.9982 14.0115 17.9986C14.6794 17.9986 15.3153 17.7309 15.802 17.2441L17.9767 15.0695C18.6729 14.3711 18.6729 13.235 17.9767 12.5366L15.2183 9.77861ZM5.97691 6.43801C5.51393 6.89175 5.42517 7.5958 5.76034 8.14896C6.31669 9.08841 6.98594 9.9611 7.74858 10.7418C7.75177 10.745 7.75497 10.7486 7.75816 10.7514C8.53926 11.5144 9.4116 12.1837 10.3503 12.7393C10.9049 13.0752 11.6086 12.9864 12.0616 12.5245L12.6517 11.9344L16.0942 15.3769L15.0142 16.4563C14.6428 16.828 14.1571 16.964 13.6469 16.839C10.5271 16.0771 7.90231 14.6686 5.84732 12.6548C3.83138 10.5984 2.42293 7.97357 1.661 4.85345C1.53638 4.34325 1.67237 3.85755 2.04374 3.48582L3.12343 2.40613L6.56593 5.84863L5.97691 6.43801ZM7.9332 4.48136L7.35377 5.06079L3.91162 1.61829L4.21838 1.31154C4.34336 1.18621 4.51626 1.11449 4.69343 1.11449C4.69449 1.11449 4.6952 1.11449 4.69627 1.11449H4.69769C4.69876 1.11449 4.69947 1.11449 4.70053 1.11449C4.87734 1.11449 5.0506 1.18621 5.17558 1.31154L7.93356 4.06951C8.04646 4.18313 8.04646 4.3681 7.9332 4.48136ZM17.1885 14.282L16.8817 14.5887L13.4392 11.1462L14.0183 10.5672C14.1319 10.4539 14.3165 10.4539 14.4301 10.5672L17.1878 13.3248C17.4505 13.5882 17.4508 14.0178 17.1885 14.282Z" fill="#1F67D2"/>
</svg>
