<svg width="10" height="10" viewBox="0 0 10 10" fill="none" xmlns="http://www.w3.org/2000/svg">
<g clip-path="url(#clip0_1084_523)">
<path d="M5.58652 8.19932L9.9023 3.16753C9.95957 3.10363 9.99326 3.01954 10 2.93209L10 2.92536C10 2.922 10 2.91864 10 2.91527C10 2.81773 9.96294 2.72355 9.89556 2.65292C9.82481 2.57892 9.73047 2.53856 9.6294 2.5352C9.51148 2.53183 9.40031 2.58229 9.32619 2.6731L9.32282 2.67646L5.30015 7.36517L1.264 2.65628C1.20335 2.57556 1.11576 2.52174 1.01469 2.50493C0.913614 2.48811 0.812542 2.51502 0.731685 2.57556C0.563231 2.70001 0.526172 2.93882 0.650827 3.10699C0.660934 3.12381 0.674411 3.13726 0.687887 3.15072L0.704732 3.1709L5.01377 8.19932C5.15191 8.36076 5.39111 8.37758 5.55283 8.24304C5.55956 8.22959 5.57304 8.21613 5.58652 8.19932Z" fill="black"/>
</g>
<defs>
<clipPath id="clip0_1084_523">
<rect width="10" height="10" fill="white" transform="translate(10) rotate(90)"/>
</clipPath>
</defs>
</svg>
