<svg width="52" height="52" viewBox="0 0 52 52" fill="none" xmlns="http://www.w3.org/2000/svg">
<circle cx="26" cy="26" r="26" fill="#E91D3E"/>
<path d="M20.9219 26C20.9219 26.5586 21.3789 27.0156 21.9375 27.0156H24.9844V30.0625C24.9844 30.6211 25.4414 31.0781 26 31.0781C26.5586 31.0781 27.0156 30.6211 27.0156 30.0625V27.0156H30.0625C30.6211 27.0156 31.0781 26.5586 31.0781 26C31.0781 25.4414 30.6211 24.9844 30.0625 24.9844H27.0156V21.9375C27.0156 21.3789 26.5586 20.9219 26 20.9219C25.4414 20.9219 24.9844 21.3789 24.9844 21.9375V24.9844H21.9375C21.3789 24.9844 20.9219 25.4414 20.9219 26Z" fill="white"/>
<path d="M21.1453 16.1383L22.4606 15.5949C22.9785 15.3816 23.2273 14.7875 23.009 14.2695C22.7906 13.7516 22.2016 13.5027 21.6836 13.716L20.3684 14.2594C19.8504 14.4777 19.6016 15.0719 19.8199 15.5898C20.0332 16.1027 20.6273 16.3516 21.1453 16.1383Z" fill="white"/>
<path d="M26 13C25.4414 13 24.9844 13.457 24.9844 14.0156C24.9844 14.5742 25.4414 15.0312 26 15.0312C32.0633 15.0312 36.9688 19.9367 36.9688 26C36.9688 32.0633 32.0633 36.9688 26 36.9688C19.9367 36.9688 15.0312 32.0633 15.0312 26C15.0312 25.4414 14.5742 24.9844 14.0156 24.9844C13.457 24.9844 13 25.4414 13 26C13 33.1855 18.8145 39 26 39C33.1855 39 39 33.1855 39 26C39 18.8145 33.1855 13 26 13Z" fill="white"/>
<path d="M17.743 18.7484L18.7484 17.743C19.1445 17.3469 19.1445 16.702 18.7484 16.3059C18.3523 15.9098 17.7074 15.9098 17.3113 16.3059L16.3059 17.3113C15.9098 17.7074 15.9098 18.3523 16.3059 18.7484C16.702 19.1445 17.3469 19.1445 17.743 18.7484Z" fill="white"/>
<path d="M14.2695 23.009C14.7875 23.2223 15.3816 22.9785 15.5949 22.4605L16.1383 21.1453C16.3516 20.6273 16.1078 20.0332 15.5899 19.8199C15.0719 19.6066 14.4777 19.8504 14.2645 20.3684L13.716 21.6836C13.5027 22.2016 13.7465 22.7957 14.2695 23.009Z" fill="white"/>
</svg>
