<svg width="120" height="120" viewBox="0 0 120 120" fill="none" xmlns="http://www.w3.org/2000/svg">
<circle cx="60" cy="60" r="60" fill="#1F67D2"/>
<g clip-path="url(#clip0_1_335)">
<path d="M64 73.805L75.5 60.3577L77.5 59.8596L92.5 71.8128V89.2446L87 92.731H68L64 89.2446V73.805Z" fill="#5B95EB"/>
<path d="M41.1349 74.08C34.6468 65.9081 31.3594 58.6696 31.3594 52.5658V51.7616C31.3594 38.2901 42.3604 27.3463 55.8702 27.3463C61.9835 27.3463 67.8517 29.6155 72.379 33.723C76.7621 37.7013 79.5448 43.087 80.2224 48.9179L83.7405 52.1206V51.7759C83.7549 36.4518 71.2399 24 55.8702 24C40.5005 24 28 36.4518 28 51.7616V52.5658C28 60.35 32.5417 69.4842 41.5098 79.7386C47.724 86.8334 53.8373 91.9031 54.7168 92.6212V88.2121C51.6169 85.469 46.0659 80.2843 41.1349 74.08Z" fill="white"/>
<path d="M79.6889 77.2683H75.3779V81.5625H79.6889V77.2683Z" fill="white"/>
<path d="M44.9126 51.7616C44.9126 57.7793 49.8292 62.6767 55.8704 62.6767C61.9116 62.6767 66.8281 57.7793 66.8281 51.7616C66.8281 45.744 61.9116 40.8466 55.8704 40.8466C49.8292 40.8466 44.9126 45.744 44.9126 51.7616ZM63.3245 51.7616C63.3245 55.8548 59.9795 59.1867 55.8704 59.1867C51.7612 59.1867 48.4162 55.8548 48.4162 51.7616C48.4162 47.6685 51.7612 44.3365 55.8704 44.3365C59.9795 44.3365 63.3245 47.6685 63.3245 51.7616Z" fill="white"/>
<path d="M77.4684 57.0468L56.937 75.7173L59.3016 78.3024L61.8968 75.9327V87.4223C61.8968 91.0415 64.8526 94 68.5003 94H86.4365C90.0699 94 93.04 91.0558 93.04 87.4223V75.9327L95.6353 78.3024L97.9998 75.7173L77.4684 57.0468ZM89.522 87.4223C89.522 89.117 88.1378 90.4957 86.4365 90.4957H68.5003C66.799 90.4957 65.4149 89.117 65.4149 87.4223V72.7444L77.4684 61.7862L89.522 72.7444V87.4223Z" fill="white"/>
</g>
<defs>
<clipPath id="clip0_1_335">
<rect width="70" height="70" fill="white" transform="translate(28 24)"/>
</clipPath>
</defs>
</svg>
