<svg width="120" height="120" viewBox="0 0 120 120" fill="none" xmlns="http://www.w3.org/2000/svg">
<circle cx="60" cy="60" r="60" fill="#E91D3E"/>
<g clip-path="url(#clip0_1_336)">
<path d="M39 61.5V35L82 34.5V60L71.5 69L59.5 60L48 70L39 61.5Z" fill="#FF8599"/>
<path d="M94.5259 49.7629L82.4502 39.1911V34.0725C82.4502 33.3054 81.8227 32.6778 81.0558 32.6778H75.0598L74.3626 31.9944C65.8705 23.5425 63.8347 21.5342 63.6673 21.3668C61.3247 19.3305 57.9363 19.7489 56.249 21.4365L44.9402 32.6778H38.9442C38.1773 32.6778 37.5498 33.3054 37.5498 34.0725V39.1911L25.4741 49.7629C25.1673 50.0279 25 50.4045 25 50.8089V84.4212C25 87.5035 27.496 90 30.5777 90H89.4223C92.504 90 95 87.5035 95 84.4212V50.8089C95 50.4045 94.8327 50.0279 94.5259 49.7629ZM82.4502 42.901L91.4861 50.8089L82.4502 58.7169V42.901ZM58.2151 23.431C59.247 22.5662 60.753 22.5662 61.7988 23.431L61.8406 23.4728L71.0996 32.6778H48.9004L58.2151 23.431ZM40.3386 35.4672H79.6614V61.1576L72.0199 67.8522L63.6673 60.5439C61.5757 58.7169 58.4104 58.7169 56.3187 60.5439L47.9661 67.8522L40.3247 61.1576V35.4672H40.3386ZM37.5498 42.901V58.7169L28.5139 50.8089L37.5498 42.901ZM27.7888 53.8912L45.8606 69.7071L27.7888 85.537V53.8912ZM30.1036 87.2106L58.1594 62.636C59.2052 61.7155 60.7809 61.7155 61.8267 62.636L89.8825 87.2106H30.1036ZM92.2112 85.537L74.1394 69.7071L92.2112 53.8912V85.537Z" fill="white"/>
<path d="M47.3107 43.8354H72.6892C73.4562 43.8354 74.0836 43.2078 74.0836 42.4407C74.0836 41.6736 73.4562 41.046 72.6892 41.046H47.3107C46.5438 41.046 45.9163 41.6736 45.9163 42.4407C45.9163 43.2078 46.5438 43.8354 47.3107 43.8354Z" fill="white"/>
<path d="M74.0836 50.8089C74.0836 50.0419 73.4562 49.4142 72.6892 49.4142H47.3107C46.5438 49.4142 45.9163 50.0419 45.9163 50.8089C45.9163 51.576 46.5438 52.2036 47.3107 52.2036H72.6892C73.4562 52.2036 74.0836 51.576 74.0836 50.8089Z" fill="white"/>
</g>
<defs>
<clipPath id="clip0_1_336">
<rect width="70" height="70" fill="white" transform="translate(25 20)"/>
</clipPath>
</defs>
</svg>
