<svg width="173" height="173" viewBox="0 0 173 173" fill="none" xmlns="http://www.w3.org/2000/svg">
<g filter="url(#filter0_d_0_279)">
<circle cx="79.5" cy="77.5" r="56.5" fill="white"/>
</g>
<path d="M80 74L113 59V96.5L80 112V74Z" fill="#CDE1FF"/>
<path d="M114.053 56.27L80.7172 40.1614C80.2582 39.9462 79.7418 39.9462 79.2828 40.1614L45.9324 56.27C45.373 56.5425 45 57.1306 45 57.7618V96.8499C45 97.481 45.373 98.0692 45.9324 98.3417L79.2828 114.436C79.5123 114.536 79.7561 114.594 80 114.594C80.2439 114.594 80.4877 114.536 80.7172 114.436L114.068 98.3417C114.627 98.0692 115 97.481 115 96.8499V57.7474C114.986 57.1163 114.627 56.5425 114.053 56.27ZM81.6496 74.8888L88.7643 71.4462C89.582 71.0446 89.9262 70.0692 89.5389 69.2372C89.1373 68.4196 88.1475 68.0753 87.3299 68.4626L80 72.02L77.2602 70.7003C76.8586 70.5138 76.4139 70.4851 75.9979 70.6286C75.582 70.772 75.252 71.0733 75.0512 71.4749C74.8648 71.8765 74.8361 72.3212 74.9795 72.7372C75.1229 73.1532 75.4242 73.4831 75.8258 73.6839L78.3504 74.9032V110.334L48.2992 95.8171V60.3868L71.2357 71.4606C71.4652 71.5753 71.709 71.6183 71.9529 71.6183C72.584 71.6183 73.1721 71.2454 73.4447 70.686C73.8463 69.8683 73.502 68.8786 72.6701 68.4769L50.4508 57.7474L59.8176 53.229L91.5758 68.563V81.1286C91.5758 81.7024 91.8627 82.2188 92.3504 82.52C92.8238 82.8212 93.4406 82.8499 93.9426 82.606L101.99 78.7188C102.549 78.4462 102.922 77.8581 102.922 77.2269V64.604L111.701 60.3724V95.8028L81.6496 110.319V74.8888ZM101.947 61.4196L72.3975 47.1614L80 43.4892L109.549 57.7618L101.947 61.4196ZM94.875 78.4892V68.4913L99.6229 66.1962V76.1942L94.875 78.4892ZM63.6619 51.4216L68.6393 49.0118L98.1455 63.2556L93.1537 65.6655L63.6619 51.4216Z" fill="#1F67D2"/>
<path d="M56.8484 91.4852L51.957 89.1184C51.5553 88.9319 51.1107 88.9032 50.6947 89.0466C50.2787 89.1901 49.9488 89.4913 49.748 89.8929C49.3463 90.7106 49.6906 91.7003 50.5225 92.102L55.4139 94.4688C55.6434 94.5835 55.8873 94.6266 56.1311 94.6266C56.7623 94.6266 57.3504 94.2536 57.623 93.6942C58.0102 92.8622 57.666 91.8725 56.8484 91.4852Z" fill="#1F67D2"/>
<path d="M61.3525 88.5446L51.957 84.0118C51.1393 83.6102 50.1496 83.9544 49.748 84.7864C49.3463 85.604 49.6906 86.5938 50.5225 86.9954L59.918 91.5282C60.1475 91.6429 60.3914 91.686 60.6352 91.686C61.2664 91.686 61.8545 91.313 62.127 90.7536C62.3135 90.352 62.3422 89.9073 62.1988 89.4913C62.0553 89.0753 61.7541 88.7454 61.3525 88.5446Z" fill="#1F67D2"/>
<defs>
<filter id="filter0_d_0_279" x="0" y="0" width="173" height="173" filterUnits="userSpaceOnUse" color-interpolation-filters="sRGB">
<feFlood flood-opacity="0" result="BackgroundImageFix"/>
<feColorMatrix in="SourceAlpha" type="matrix" values="0 0 0 0 0 0 0 0 0 0 0 0 0 0 0 0 0 0 127 0" result="hardAlpha"/>
<feOffset dx="7" dy="9"/>
<feGaussianBlur stdDeviation="15"/>
<feComposite in2="hardAlpha" operator="out"/>
<feColorMatrix type="matrix" values="0 0 0 0 0 0 0 0 0 0.176923 0 0 0 0 0.383333 0 0 0 0.12 0"/>
<feBlend mode="normal" in2="BackgroundImageFix" result="effect1_dropShadow_0_279"/>
<feBlend mode="normal" in="SourceGraphic" in2="effect1_dropShadow_0_279" result="shape"/>
</filter>
</defs>
</svg>
