<svg width="62" height="74" viewBox="0 0 62 74" fill="none" xmlns="http://www.w3.org/2000/svg">
<path d="M59.4997 21.4815C59.0045 21.0147 58.566 20.6186 58.1699 20.2507C55.1142 17.4214 55.1142 17.4214 54.1947 13.3614L54.1664 13.2624C54.0532 12.7672 53.9259 12.2155 53.7845 11.6072C52.9781 8.15547 50.0498 5.69398 46.499 5.49592C45.8341 5.45348 45.2258 5.42519 44.6882 5.3969C40.5292 5.1847 40.5292 5.1847 37.2047 2.68077C36.7803 2.3554 36.2994 1.98759 35.7618 1.59148C32.9183 -0.530495 29.0988 -0.530495 26.2553 1.59148C25.7178 1.98759 25.2368 2.3554 24.8124 2.68077C21.4879 5.19885 21.4879 5.19885 17.3289 5.3969C16.7913 5.42519 16.1971 5.45348 15.5181 5.49592C11.9673 5.69398 9.05315 8.14132 8.23265 11.6072C8.09119 12.2438 7.94972 12.8097 7.83655 13.319L7.8224 13.3614C6.90288 17.4214 6.90288 17.4214 3.84723 20.2507L3.81894 20.279C3.43698 20.6327 2.99844 21.043 2.51746 21.4956C-0.071357 23.9288 -0.736244 27.6918 0.862313 30.8606C1.15939 31.4548 1.44232 31.9924 1.68281 32.4733C3.57845 36.1797 3.57845 36.1797 3.06917 40.3105C2.99844 40.8481 2.92771 41.4422 2.84283 42.1071C2.41843 45.6296 4.32821 48.9399 7.59606 50.3404C8.21851 50.6092 8.77022 50.8355 9.26535 51.0477C10.9346 51.7551 11.8966 52.1653 12.6039 52.6463L6.33702 66.0996C6.05409 66.6938 6.13897 67.4011 6.53507 67.9245C6.93117 68.448 7.59606 68.7026 8.2468 68.5894L14.2732 67.5426L17.343 72.8192C17.6542 73.3568 18.2484 73.6963 18.8708 73.6963C18.8991 73.6963 18.9274 73.6963 18.9557 73.6963C19.6206 73.668 20.2006 73.2719 20.4835 72.6778L26.0714 60.6815C26.4109 60.5825 26.7222 60.4835 27.0192 60.3844C30.9944 59.1537 30.9944 59.1537 34.9696 60.3844C35.3232 60.4976 35.7052 60.6108 36.1154 60.7381L41.675 72.6778C41.958 73.2719 42.538 73.668 43.2029 73.6963C43.2312 73.6963 43.2594 73.6963 43.2736 73.6963C43.896 73.6963 44.4902 73.3568 44.8014 72.8192L47.8712 67.5426L53.8976 68.5894C54.5484 68.7026 55.1991 68.448 55.6094 67.9245C56.0055 67.4011 56.0903 66.7079 55.8074 66.0996L49.4981 52.5614C50.1771 52.1087 51.1249 51.7126 52.7093 51.0477L52.7376 51.0336C53.2327 50.8214 53.7703 50.595 54.3786 50.3404C57.6465 48.9399 59.5562 45.6296 59.1318 42.1071C59.047 41.4422 58.9762 40.8481 58.9055 40.3105C58.3821 36.1797 58.3821 36.1797 60.2919 32.4733L60.3343 32.3743C60.5606 31.9216 60.8294 31.4265 61.1124 30.8606C62.7392 27.6635 62.0885 23.9006 59.4997 21.4815ZM55.4255 40.7208C55.4962 41.2442 55.5669 41.8383 55.6377 42.4891C55.8781 44.4696 54.8454 46.2662 53.0064 47.0443C52.3981 47.313 51.8464 47.5394 51.3654 47.7374C46.697 49.7038 46.4141 49.9443 43.6697 54.2024C43.3868 54.6409 43.0614 55.1361 42.7077 55.6878C41.6185 57.3571 39.6662 58.0644 37.7564 57.4844C37.134 57.3005 36.5681 57.1166 36.0589 56.961H36.0447C33.6681 56.2254 32.3666 55.8434 31.0227 55.8434C29.6788 55.8434 28.3773 56.2254 26.0007 56.961L25.9582 56.9751C25.4631 57.1307 24.9114 57.3005 24.3031 57.4844C22.3933 58.0644 20.4552 57.3571 19.3518 55.6878C18.984 55.1361 18.6728 54.6409 18.3757 54.1883C15.6313 49.9443 15.3484 49.7038 10.68 47.7374C10.1849 47.5252 9.6473 47.2989 9.039 47.0443C7.19996 46.2521 6.16726 44.4696 6.40775 42.4891C6.47848 41.8383 6.56336 41.2583 6.61995 40.7349V40.7066C7.25654 35.6846 7.18581 35.3168 4.87993 30.8182C4.63944 30.3514 4.37065 29.8138 4.07357 29.2196C3.1682 27.4372 3.53601 25.4001 4.9931 24.042C5.47408 23.5893 5.89848 23.1932 6.28043 22.8396L6.29458 22.8254C10.001 19.3878 10.1849 19.0624 11.3166 14.1253V14.1112C11.4298 13.6019 11.5712 13.0219 11.7127 12.3853C12.1654 10.4472 13.7498 9.11743 15.7445 9.00426C16.3811 8.97597 16.9469 8.94768 17.4562 8.91938H17.5269C22.5772 8.66475 22.9309 8.53743 26.9626 5.48178L27.0334 5.42519C27.4436 5.11397 27.8822 4.77445 28.3914 4.40664C29.1978 3.81249 30.1032 3.51541 31.0227 3.51541C31.9422 3.51541 32.8617 3.81249 33.654 4.40664C34.1915 4.80274 34.6584 5.15641 35.0828 5.48178C39.1145 8.53743 39.4682 8.66475 44.5185 8.91938H44.5892C45.0985 8.94768 45.6644 8.97597 46.3009 9.00426C48.2956 9.11743 49.88 10.4472 50.3327 12.3853C50.4883 13.0219 50.6156 13.6019 50.7288 14.1112V14.1253C51.8605 19.0624 52.0444 19.3878 55.7508 22.8254L55.8074 22.882C56.1894 23.2357 56.5996 23.6176 57.0665 24.0562C58.5235 25.4284 58.8772 27.4513 57.986 29.2338C57.6889 29.8279 57.4201 30.3514 57.1796 30.8323C54.8737 35.3309 54.803 35.6988 55.4255 40.7208ZM45.6644 57.64C46.0322 57.0742 46.3575 56.579 46.6546 56.1263C46.7819 55.9283 46.9092 55.7302 47.0366 55.5322L51.2098 64.4869L47.3195 63.8079C46.598 63.6806 45.8624 64.0201 45.4804 64.6567L43.4999 68.0801L40.2745 61.1342C42.4389 60.8088 44.4195 59.5498 45.6644 57.64ZM15.122 55.6878C15.221 55.8293 15.3059 55.9707 15.4049 56.1263L15.4191 56.1546C15.702 56.5932 16.0274 57.0883 16.3811 57.6542C17.6542 59.6064 19.6913 60.8796 21.9548 61.1766L18.7294 68.0943L16.7489 64.6708C16.4235 64.1191 15.8435 63.7937 15.221 63.7937C15.122 63.7937 15.023 63.8079 14.924 63.822L11.0337 64.5011L15.122 55.6878Z" fill="#FF7A00"/>
<path d="M31.0225 11.1546C20.2994 11.1546 11.571 19.883 11.571 30.6061C11.571 41.3291 20.2994 50.0575 31.0225 50.0575C41.7456 50.0575 50.474 41.3291 50.474 30.6061C50.474 19.883 41.7456 11.1546 31.0225 11.1546ZM31.0225 21.5947C33.484 21.5947 35.4928 23.6035 35.4928 26.065C35.4928 28.5265 33.484 30.5353 31.0225 30.5353C28.561 30.5353 26.5522 28.5265 26.5522 26.065C26.5522 23.6035 28.561 21.5947 31.0225 21.5947ZM31.0225 34.0861C36.1436 34.0861 40.4582 37.6652 41.4061 42.6589C38.5202 45.1487 34.8421 46.5209 31.0225 46.5209C27.203 46.5209 23.5249 45.1487 20.639 42.6448C21.5868 37.6652 25.9015 34.0861 31.0225 34.0861ZM39.0436 26.065C39.0436 21.6513 35.4504 18.0581 31.0367 18.0581C26.6229 18.0581 23.0297 21.6513 23.0297 26.065C23.0297 28.2153 23.8785 30.2241 25.3781 31.7236C21.9404 33.2232 19.2385 36.0525 17.8804 39.5467C16.0696 36.9013 15.1218 33.8456 15.1218 30.6061C15.1218 21.8352 22.2658 14.6912 31.0367 14.6912C39.8075 14.6912 46.9515 21.8352 46.9515 30.6061C46.9515 33.8315 46.0037 36.9013 44.1929 39.5467C42.8349 36.0525 40.1329 33.2373 36.6953 31.7236C38.1948 30.2383 39.0436 28.2295 39.0436 26.065Z" fill="#FF7A00"/>
</svg>
