<svg width="52" height="52" viewBox="0 0 52 52" fill="none" xmlns="http://www.w3.org/2000/svg">
<circle cx="26" cy="26" r="26" fill="#E91D3E"/>
<path d="M34.079 37.9846H17.921C15.2081 37.9846 13 35.7765 13 33.0636V18.9403C13 16.2274 15.2081 14.0193 17.921 14.0193H19.0655V12.8671C19.0655 12.3892 19.4547 12 19.9326 12C20.4104 12 20.7996 12.3892 20.7996 12.8671V14.0193H31.2042V12.8671C31.2042 12.3892 31.5934 12 32.0713 12C32.5491 12 32.9383 12.3892 32.9383 12.8671V14.0193H34.079C36.7919 14.0193 39 16.2274 39 18.9403V33.0636C39 35.7803 36.7919 37.9846 34.079 37.9846ZM14.738 21.8189V33.0674C14.738 34.8247 16.1676 36.2543 17.9249 36.2543H34.0829C35.8401 36.2543 37.2698 34.8247 37.2698 33.0674V21.8189H14.738ZM14.738 20.0848H37.2659V18.9403C37.2659 17.183 35.8362 15.7534 34.079 15.7534H32.9383V17.9191C32.9383 18.3969 32.5491 18.7861 32.0713 18.7861C31.5934 18.7861 31.2042 18.3969 31.2042 17.9191V15.7534H20.7996V17.9191C20.7996 18.3969 20.4104 18.7861 19.9326 18.7861C19.4547 18.7861 19.0655 18.3969 19.0655 17.9191V15.7534H17.9249C16.1676 15.7534 14.738 17.183 14.738 18.9403V20.0848ZM33.0809 32.9518H31.0617C30.5838 32.9518 30.1946 32.5626 30.1946 32.0848C30.1946 31.6069 30.5838 31.2177 31.0617 31.2177H33.0809C33.5588 31.2177 33.948 31.6069 33.948 32.0848C33.948 32.5626 33.5588 32.9518 33.0809 32.9518ZM27.0077 32.9518H24.9846C24.5067 32.9518 24.1175 32.5626 24.1175 32.0848C24.1175 31.6069 24.5067 31.2177 24.9846 31.2177H27.0039C27.4817 31.2177 27.8709 31.6069 27.8709 32.0848C27.8709 32.5626 27.4855 32.9518 27.0077 32.9518ZM20.9422 32.9518H18.9229C18.4451 32.9518 18.0559 32.5626 18.0559 32.0848C18.0559 31.6069 18.4451 31.2177 18.9229 31.2177H20.9422C21.42 31.2177 21.8092 31.6069 21.8092 32.0848C21.8092 32.5626 21.42 32.9518 20.9422 32.9518ZM33.0809 26.8863H31.0617C30.5838 26.8863 30.1946 26.4971 30.1946 26.0193C30.1946 25.5414 30.5838 25.1522 31.0617 25.1522H33.0809C33.5588 25.1522 33.948 25.5414 33.948 26.0193C33.948 26.4971 33.5588 26.8863 33.0809 26.8863ZM27.0077 26.8863H24.9846C24.5067 26.8863 24.1175 26.4971 24.1175 26.0193C24.1175 25.5414 24.5067 25.1522 24.9846 25.1522H27.0039C27.4817 25.1522 27.8709 25.5414 27.8709 26.0193C27.8709 26.4971 27.4855 26.8863 27.0077 26.8863ZM20.9422 26.8863H18.9229C18.4451 26.8863 18.0559 26.4971 18.0559 26.0193C18.0559 25.5414 18.4451 25.1522 18.9229 25.1522H20.9422C21.42 25.1522 21.8092 25.5414 21.8092 26.0193C21.8092 26.4971 21.42 26.8863 20.9422 26.8863Z" fill="white"/>
</svg>
