<svg width="120" height="120" viewBox="0 0 120 120" fill="none" xmlns="http://www.w3.org/2000/svg">
<circle cx="60" cy="60" r="60" fill="#47AEC4"/>
<path d="M56.5 38.5L61 34L84 33L89.5 36V54L85 56.5H80L75 61V56.5H60.5L56.5 54V38.5Z" fill="#6EDBF2"/>
<path d="M84.2711 32.2928H62.3058C58.5875 32.2928 55.5574 35.323 55.5574 39.0412V51.2148C55.5574 54.933 58.5875 57.9632 62.3058 57.9632H73.8177V61.6814C73.8177 62.2769 74.175 62.7929 74.7175 63.0311C74.8895 63.1105 75.088 63.137 75.2733 63.137C75.657 63.137 76.0275 62.9914 76.3054 62.7135L81.0689 57.9632H84.2711C87.9894 57.9632 91.0195 54.933 91.0195 51.2148V39.0412C91.0195 35.323 87.9894 32.2928 84.2711 32.2928ZM75.2733 55.0521H62.3058C60.1886 55.0521 58.4684 53.332 58.4684 51.2148V39.0412C58.4684 36.9241 60.1886 35.2039 62.3058 35.2039H84.2711C86.3883 35.2039 88.1085 36.9241 88.1085 39.0412V51.2148C88.1085 53.332 86.3883 55.0521 84.2711 55.0521H80.4735C80.0898 55.0521 79.7193 55.1977 79.4414 55.4756L76.7288 58.1749V56.5077C76.7288 55.7005 76.0804 55.0521 75.2733 55.0521Z" fill="white"/>
<path d="M82.9082 69.0253C81.0689 67.186 78.621 66.1672 76.001 66.1672C73.3811 66.1672 70.9331 67.186 69.0938 69.0253L65.5609 72.5583C64.2377 73.8815 62.1602 73.9741 60.7311 72.77C55.1339 68.099 49.9205 62.8856 45.2363 57.2752C44.0454 55.8461 44.138 53.7686 45.448 52.4454L48.981 48.9124C52.7918 45.1016 52.7918 38.9089 48.981 35.0981L43.7278 29.8449C41.9018 28.0189 39.4538 27 36.8471 27C34.2404 27 31.7792 28.0189 29.9399 29.8581C25.9967 33.8013 23.562 39.0413 23.0857 44.5988C22.6093 50.1563 24.131 55.727 27.3597 60.2788C35.7224 72.0687 45.9376 82.2971 57.7274 90.6466C61.75 93.4915 66.4871 95 71.4227 95C72.0843 95 72.7592 94.9735 73.4075 94.9206C78.965 94.4442 84.205 92.0228 88.1481 88.0664C89.9874 86.2271 91.0063 83.7659 91.0063 81.1592C91.0063 78.5524 89.9874 76.1045 88.1481 74.252L82.9082 69.0253ZM36.8471 29.9111C38.6731 29.9111 40.3933 30.6256 41.6901 31.9224L46.9432 37.1755C48.24 38.4723 48.9545 40.1924 48.9545 42.0185C48.9545 43.8445 48.24 45.5647 46.9432 46.8615L46.8241 46.9805L38.2894 38.4458C37.7204 37.8768 36.7942 37.8768 36.2252 38.4458C35.6562 39.0148 35.6562 39.941 36.2252 40.51L44.7599 49.0448L43.4103 50.3944C41.0152 52.7895 40.8432 56.5474 43.0133 59.1541C47.8033 64.8969 53.1359 70.2294 58.8786 75.0195C61.4721 77.1895 65.2433 77.0175 67.6383 74.6225L68.988 73.2728L83.7683 88.0531C76.5568 93.3989 66.7915 93.5048 59.4344 88.2913C47.9092 80.1271 37.9189 70.1368 29.7547 58.6116C23.8664 50.315 24.8191 39.0942 31.9909 31.9224C33.2877 30.6256 35.0078 29.9111 36.8471 29.9111ZM71.1581 71.0763C72.4548 69.7795 74.175 69.065 76.001 69.065C77.8271 69.065 79.5472 69.7795 80.844 71.0763L86.0972 76.3294C87.3939 77.6262 88.1084 79.3464 88.1084 81.1724C88.1084 82.9984 87.3939 84.7186 86.0972 86.0154C86.0575 86.0551 86.0178 86.0948 85.9648 86.1345L71.039 71.2086L71.1581 71.0763Z" fill="white"/>
<path d="M33.6316 37.3211C34.0153 37.3211 34.3858 37.1623 34.6637 36.8977C34.9283 36.633 35.0871 36.2493 35.0871 35.8656C35.0871 35.4818 34.9283 35.1113 34.6637 34.8335C34.399 34.5688 34.0153 34.41 33.6316 34.41C33.2478 34.41 32.8773 34.5688 32.5995 34.8335C32.3216 35.1113 32.176 35.4818 32.176 35.8656C32.176 36.2493 32.3348 36.6198 32.5995 36.8977C32.8773 37.1623 33.2478 37.3211 33.6316 37.3211Z" fill="white"/>
<path d="M79.706 46.5836C80.0898 46.5836 80.4603 46.4248 80.7381 46.1601C81.016 45.8955 81.1616 45.5118 81.1616 45.128C81.1616 44.7443 81.0028 44.3738 80.7381 44.0959C80.4735 43.8313 80.0898 43.6725 79.706 43.6725C79.3223 43.6725 78.9518 43.8313 78.6739 44.0959C78.4093 44.3738 78.2505 44.7443 78.2505 45.128C78.2505 45.5118 78.4093 45.8823 78.6739 46.1601C78.9386 46.438 79.3223 46.5836 79.706 46.5836Z" fill="white"/>
<path d="M73.3017 43.6725C72.918 43.6725 72.5475 43.8313 72.2696 44.0959C72.005 44.3738 71.8462 44.7443 71.8462 45.128C71.8462 45.5118 72.005 45.8823 72.2696 46.1601C72.5475 46.4248 72.918 46.5836 73.3017 46.5836C73.6855 46.5836 74.056 46.4248 74.3338 46.1601C74.5985 45.8955 74.7573 45.5118 74.7573 45.128C74.7573 44.7443 74.5985 44.3738 74.3338 44.0959C74.056 43.8313 73.6855 43.6725 73.3017 43.6725Z" fill="white"/>
<path d="M66.884 43.6725C66.5003 43.6725 66.1298 43.8313 65.8519 44.0959C65.5873 44.3606 65.4285 44.7443 65.4285 45.128C65.4285 45.5118 65.5873 45.8823 65.8519 46.1601C66.1165 46.4248 66.5003 46.5836 66.884 46.5836C67.2677 46.5836 67.6382 46.4248 67.9161 46.1601C68.194 45.8955 68.3395 45.5118 68.3395 45.128C68.3395 44.7443 68.1808 44.3738 67.9161 44.0959C67.6515 43.8313 67.2677 43.6725 66.884 43.6725Z" fill="white"/>
</svg>
