<svg width="52" height="52" viewBox="0 0 52 52" fill="none" xmlns="http://www.w3.org/2000/svg">
<circle cx="26" cy="26" r="26" fill="#E91D3E"/>
<path d="M37.9515 20.0084C37.7438 19.8126 37.5599 19.6465 37.3938 19.4922C36.1124 18.3058 36.1124 18.3058 35.7268 16.6032L35.7149 16.5616C35.6675 16.354 35.6141 16.1226 35.5548 15.8675C35.2166 14.42 33.9886 13.3878 32.4996 13.3047C32.2208 13.2869 31.9657 13.2751 31.7402 13.2632C29.9961 13.1742 29.9961 13.1742 28.602 12.1242C28.424 11.9877 28.2223 11.8335 27.9969 11.6674C26.8045 10.7775 25.2027 10.7775 24.0103 11.6674C23.7849 11.8335 23.5832 11.9877 23.4052 12.1242C22.0111 13.1802 22.0111 13.1802 20.2669 13.2632C20.0415 13.2751 19.7924 13.2869 19.5076 13.3047C18.0186 13.3878 16.7965 14.4141 16.4524 15.8675C16.3931 16.1345 16.3338 16.3718 16.2863 16.5854L16.2804 16.6032C15.8948 18.3058 15.8948 18.3058 14.6134 19.4922L14.6015 19.5041C14.4413 19.6524 14.2574 19.8245 14.0557 20.0143C12.9701 21.0347 12.6913 22.6127 13.3616 23.9416C13.4862 24.1907 13.6048 24.4162 13.7057 24.6179C14.5006 26.1721 14.5006 26.1721 14.2871 27.9044C14.2574 28.1298 14.2277 28.379 14.1922 28.6578C14.0142 30.135 14.8151 31.5232 16.1854 32.1105C16.4465 32.2232 16.6778 32.3181 16.8855 32.4071C17.5855 32.7037 17.9889 32.8758 18.2855 33.0775L15.6575 38.7192C15.5388 38.9684 15.5744 39.265 15.7405 39.4845C15.9066 39.704 16.1854 39.8108 16.4583 39.7633L18.9855 39.3243L20.2729 41.5371C20.4034 41.7625 20.6526 41.9049 20.9136 41.9049C20.9254 41.9049 20.9373 41.9049 20.9492 41.9049C21.228 41.893 21.4712 41.7269 21.5899 41.4778L23.9332 36.4471C24.0756 36.4056 24.2061 36.364 24.3306 36.3225C25.9977 35.8064 25.9977 35.8064 27.6647 36.3225C27.813 36.37 27.9731 36.4174 28.1452 36.4708L30.4766 41.4778C30.5953 41.7269 30.8385 41.893 31.1173 41.9049C31.1292 41.9049 31.1411 41.9049 31.147 41.9049C31.408 41.9049 31.6572 41.7625 31.7877 41.5371L33.075 39.3243L35.6022 39.7633C35.8751 39.8108 36.148 39.704 36.3201 39.4845C36.4862 39.265 36.5218 38.9743 36.4031 38.7192L33.7573 33.0419C34.042 32.852 34.4395 32.6859 35.1039 32.4071L35.1158 32.4012C35.3234 32.3122 35.5488 32.2173 35.8039 32.1105C37.1743 31.5232 37.9752 30.135 37.7972 28.6578C37.7616 28.379 37.732 28.1298 37.7023 27.9044C37.4828 26.1721 37.4828 26.1721 38.2837 24.6179L38.3015 24.5763C38.3964 24.3865 38.5091 24.1789 38.6278 23.9416C39.31 22.6008 39.0371 21.0228 37.9515 20.0084ZM36.2429 28.0765C36.2726 28.2959 36.3023 28.5451 36.3319 28.818C36.4328 29.6485 35.9997 30.402 35.2285 30.7282C34.9734 30.841 34.742 30.9359 34.5403 31.0189C32.5826 31.8435 32.464 31.9444 31.3131 33.73C31.1944 33.9139 31.058 34.1216 30.9097 34.3529C30.4529 35.053 29.6342 35.3496 28.8333 35.1064C28.5723 35.0292 28.335 34.9521 28.1215 34.8869H28.1155C27.1189 34.5784 26.5731 34.4182 26.0095 34.4182C25.4459 34.4182 24.9002 34.5784 23.9035 34.8869L23.8857 34.8928C23.6781 34.958 23.4467 35.0292 23.1916 35.1064C22.3907 35.3496 21.578 35.053 21.1153 34.3529C20.961 34.1216 20.8305 33.9139 20.7059 33.7241C19.5551 31.9444 19.4364 31.8435 17.4787 31.0189C17.2711 30.9299 17.0456 30.835 16.7905 30.7282C16.0193 30.396 15.5863 29.6485 15.6871 28.818C15.7168 28.5451 15.7524 28.3019 15.7761 28.0824V28.0705C16.0431 25.9645 16.0134 25.8103 15.0464 23.9238C14.9456 23.728 14.8329 23.5026 14.7083 23.2534C14.3286 22.5059 14.4828 21.6516 15.0939 21.0821C15.2956 20.8923 15.4736 20.7262 15.6337 20.5779L15.6397 20.5719C17.194 19.1304 17.2711 18.9939 17.7457 16.9235V16.9176C17.7931 16.704 17.8525 16.4608 17.9118 16.1938C18.1016 15.3811 18.766 14.8234 19.6025 14.776C19.8695 14.7641 20.1068 14.7523 20.3203 14.7404H20.35C22.4679 14.6336 22.6162 14.5802 24.3069 13.2988L24.3366 13.2751C24.5086 13.1446 24.6925 13.0022 24.9061 12.8479C25.2442 12.5988 25.6239 12.4742 26.0095 12.4742C26.3951 12.4742 26.7807 12.5988 27.1129 12.8479C27.3384 13.0141 27.5341 13.1624 27.7121 13.2988C29.4029 14.5802 29.5512 14.6336 31.669 14.7404H31.6987C31.9123 14.7523 32.1496 14.7641 32.4165 14.776C33.253 14.8234 33.9174 15.3811 34.1073 16.1938C34.1725 16.4608 34.2259 16.704 34.2734 16.9176V16.9235C34.748 18.9939 34.8251 19.1304 36.3794 20.5719L36.4031 20.5957C36.5633 20.744 36.7353 20.9042 36.9311 21.0881C37.5421 21.6635 37.6904 22.5118 37.3167 23.2593C37.1921 23.5085 37.0794 23.728 36.9786 23.9297C36.0116 25.8162 35.9819 25.9704 36.2429 28.0765ZM32.1496 35.1716C32.3038 34.9343 32.4403 34.7267 32.5648 34.5368C32.6182 34.4538 32.6716 34.3707 32.725 34.2877L34.4751 38.0429L32.8437 37.7581C32.5411 37.7048 32.2326 37.8471 32.0724 38.1141L31.2419 39.5497L29.8893 36.6369C30.797 36.5005 31.6275 35.9725 32.1496 35.1716ZM19.3415 34.3529C19.383 34.4123 19.4186 34.4716 19.4601 34.5368L19.4661 34.5487C19.5847 34.7326 19.7212 34.9403 19.8695 35.1775C20.4034 35.9962 21.2577 36.5301 22.2068 36.6547L20.8543 39.5557L20.0237 38.12C19.8873 37.8887 19.644 37.7522 19.383 37.7522C19.3415 37.7522 19.3 37.7581 19.2584 37.7641L17.627 38.0488L19.3415 34.3529Z" fill="white"/>
<path d="M26.0095 15.6777C21.5128 15.6777 17.8525 19.338 17.8525 23.8348C17.8525 28.3315 21.5128 31.9918 26.0095 31.9918C30.5063 31.9918 34.1666 28.3315 34.1666 23.8348C34.1666 19.338 30.5063 15.6777 26.0095 15.6777ZM26.0095 20.0558C27.0418 20.0558 27.8842 20.8982 27.8842 21.9305C27.8842 22.9627 27.0418 23.8051 26.0095 23.8051C24.9773 23.8051 24.1349 22.9627 24.1349 21.9305C24.1349 20.8982 24.9773 20.0558 26.0095 20.0558ZM26.0095 25.2941C28.1571 25.2941 29.9664 26.795 30.3639 28.8892C29.1537 29.9333 27.6113 30.5087 26.0095 30.5087C24.4078 30.5087 22.8653 29.9333 21.6551 28.8833C22.0526 26.795 23.862 25.2941 26.0095 25.2941ZM29.3732 21.9305C29.3732 20.0796 27.8664 18.5727 26.0155 18.5727C24.1645 18.5727 22.6577 20.0796 22.6577 21.9305C22.6577 22.8322 23.0137 23.6746 23.6425 24.3034C22.2009 24.9323 21.0678 26.1188 20.4983 27.5841C19.739 26.4747 19.3415 25.1933 19.3415 23.8348C19.3415 20.1567 22.3374 17.1608 26.0155 17.1608C29.6936 17.1608 32.6894 20.1567 32.6894 23.8348C32.6894 25.1874 32.2919 26.4747 31.5326 27.5841C30.9631 26.1188 29.83 24.9382 28.3884 24.3034C29.0173 23.6805 29.3732 22.8381 29.3732 21.9305Z" fill="white"/>
</svg>
