<svg width="173" height="173" viewBox="0 0 173 173" fill="none" xmlns="http://www.w3.org/2000/svg">
<g filter="url(#filter0_d_0_292)">
<circle cx="79.5" cy="77.5" r="56.5" fill="white"/>
</g>
<path d="M82.5 50C80.8333 51.1667 77.4 53.6 77 54C76.3333 54.1667 74.9 54.6 74.5 55C74 55.5 75 58 74 61C73 64 72 64.5 71.5 65C71.1 65.4 83 79.5 89 86.5L98 88.5C98.8333 87.6667 100.5 85.8 100.5 85C100.5 84 105 81 107.5 80.5C110 80 109.5 79 109.5 78C109.5 77 110.5 72.5 110.5 72C110.5 71.5 112.5 68.5 112.5 68C112.5 67.5 110.5 65.5 110.5 64C110.5 62.5 109.5 59 109.5 58C109.5 57 107 54.5 106.5 54.5C106 54.5 102.5 51.5 101.5 51.5C100.5 51.5 100.5 50 100 49C99.6 48.2 97.5 47.3333 96.5 47L93.5 49.5C90.6667 49 84.9 47.9 84.5 47.5C84.1 47.1 83 49 82.5 50Z" fill="#CBF6FF"/>
<path d="M103.71 98.2175L98.7339 94.6314L98.72 94.6175C97.8165 94.0059 96.8713 94.3534 96.3848 95.0205C95.9122 95.6877 95.8844 96.7024 96.7601 97.3557L101.736 100.942H101.75C102.07 101.164 102.403 101.262 102.723 101.262C103.279 101.262 103.779 100.97 104.085 100.539C104.544 99.8854 104.572 98.8708 103.71 98.2175Z" fill="#00B3D9"/>
<path d="M93.4103 96.2576C92.5902 96.2576 91.7562 96.8275 91.7284 97.9117L91.6728 104.222C91.6589 104.667 91.8257 105.098 92.1454 105.418C92.4651 105.751 92.896 105.932 93.3547 105.932C94.286 105.932 95.0366 105.181 95.0366 104.264L95.0922 97.9395V97.9256C95.0783 96.8414 94.2443 96.2576 93.4103 96.2576Z" fill="#00B3D9"/>
<path d="M60.4263 54.8226C60.7599 55.1701 61.2047 55.3369 61.6356 55.3369C62.0526 55.3369 62.4835 55.184 62.8032 54.8643C63.4704 54.211 63.4843 53.1408 62.8449 52.4736L58.5777 48.0813C57.9244 47.428 56.8541 47.4141 56.2008 48.0535C55.5336 48.7068 55.5197 49.777 56.1591 50.4442L60.4263 54.8226Z" fill="#00B3D9"/>
<path d="M65.9445 54.1554C66.0557 54.1693 66.1669 54.1832 66.2781 54.1832C66.987 54.1832 67.7098 53.7524 67.9044 52.835L69.0719 46.6079C69.2526 45.5376 68.5299 44.8149 67.7376 44.662C66.9314 44.5091 66.0001 44.9121 65.7777 45.9963L64.6101 52.2095V52.2234C64.4016 53.2798 65.1383 54.0025 65.9445 54.1554Z" fill="#00B3D9"/>
<path d="M112.759 72.2529C115.747 69.0976 115.747 66.3872 112.759 63.2042C111.438 61.8003 111.174 60.9802 111.41 58.9648C111.925 54.6836 110.396 52.5987 106.17 51.7786C104.238 51.4033 103.488 50.8612 102.542 49.1516C100.457 45.3848 97.9416 44.5369 94.1331 46.3577H94.1192C93.2852 46.6913 92.4095 47.0388 91.784 47.0388C91.0057 46.9971 90.1578 46.6496 89.2543 46.2882C87.8087 45.7183 86.1825 45.0651 84.584 45.621C82.916 46.1353 81.9709 47.6365 81.123 48.9709C80.6226 49.7632 80.15 50.5137 79.5801 51.0141C79.0936 51.3616 78.2179 51.584 77.3562 51.7786C75.2156 52.1956 73.8256 52.9323 72.9917 54.0721C72.1438 55.2257 71.8658 56.7825 72.1299 58.9509C72.255 60.3964 72.255 61.2443 71.6573 62.12L68.5438 58.2003L68.5299 58.1864C67.3762 56.8659 65.8889 56.296 64.3321 56.6157C62.7476 56.9354 61.3993 58.1169 60.885 59.6458C60.4124 61.0775 60.7182 62.5509 61.7468 63.8296C60.2178 71.3772 56.6595 78.3409 51.461 83.9564L46.4571 87.9317C44.4139 89.558 43.1907 91.8931 43.0239 94.5063C42.8293 97.2167 43.8301 99.9132 45.7483 101.901C47.1104 103.666 49.1398 104.848 51.461 105.237C53.6572 105.598 55.8255 105.209 57.6325 104.139L71.3932 115.592C72.0187 116.12 72.8249 116.412 73.6588 116.412C73.6727 116.412 73.6866 116.412 73.7005 116.412C73.8534 116.412 74.0341 116.384 74.2426 116.357C74.5623 116.315 75.0071 116.245 75.5075 116.176C76.4944 116.023 77.7175 115.842 78.621 115.703C78.9546 115.648 79.2743 115.606 79.5106 115.564L81.262 115.3C82.4851 115.147 83.5415 114.299 84.0141 113.076C84.4867 111.853 84.2921 110.519 83.4998 109.574L80.6226 105.96C79.7191 104.834 78.1762 104.361 76.7863 104.792L73.9507 105.696L73.089 105.96L63.7206 99.4963C69.7669 95.6738 77.523 93.6723 85.696 93.8252C86.7107 95.104 88.1145 95.7572 89.6018 95.6043C91.2002 95.4514 92.6458 94.409 93.313 92.9634C93.9524 91.5456 93.7578 90.0028 92.7848 88.585C93.2852 88.724 93.8134 88.9464 94.3555 89.1688C95.4258 89.5997 96.5238 90.0584 97.6497 90.0167C100.068 90.1001 101.333 88.1541 102.445 86.4444C102.945 85.6661 103.432 84.9433 103.96 84.4429C104.6 84.0537 105.447 83.8452 106.351 83.6089C107.866 83.2197 109.59 82.7888 110.59 81.3572C111.633 79.9672 111.522 78.2019 111.41 76.6452C111.341 75.7 111.285 74.8104 111.466 74.0737C111.647 73.5594 112.203 72.8922 112.759 72.2529ZM108.047 76.5201C108.13 77.6181 108.213 78.744 107.852 79.4251C107.31 79.9811 106.212 80.2452 105.142 80.5093C103.988 80.7873 102.793 81.0792 101.959 81.7603C101.069 82.344 100.43 83.3865 99.8042 84.3873C99.2065 85.3464 98.5949 86.3332 97.886 86.6668C97.3717 86.8197 96.3709 86.4166 95.4119 86.0275C94.0636 85.4298 92.0898 84.7348 90.13 85.2908L73.8395 64.8304C74.4233 64.1076 74.9932 63.3293 75.2851 62.4119C75.6743 61.3972 75.5909 60.174 75.5075 58.9787C75.4241 57.8806 75.3546 56.7547 75.7021 56.0597C76.2442 55.5037 77.3423 55.2396 78.4125 54.9755C79.5662 54.6975 80.7616 54.4057 81.5956 53.7246C82.4851 53.1408 83.1245 52.0983 83.75 51.0975C84.3477 50.1384 84.9593 49.1516 85.6682 48.818C86.1825 48.6651 87.1832 49.0682 88.1562 49.4713C89.2543 49.9161 90.4914 50.4164 91.784 50.4164C93.0628 50.4164 94.2582 49.9439 95.398 49.4852L95.4258 49.4713C96.2875 49.1238 97.3717 48.679 97.9138 48.8319C98.6366 49.1655 99.2482 50.1523 99.832 51.1114C100.444 52.1122 101.083 53.1408 101.973 53.7385C102.806 54.4196 104.002 54.7114 105.156 54.9894C106.226 55.2535 107.324 55.5176 107.866 56.0736C108.213 56.7547 108.13 57.8945 108.061 58.9787C107.977 60.174 107.88 61.3972 108.269 62.4119C108.547 63.4266 109.325 64.3439 110.09 65.2335C110.813 66.0953 111.563 66.971 111.661 67.7633C111.563 68.5555 110.813 69.4451 110.09 70.3069C109.339 71.1826 108.561 72.1 108.283 73.1146C107.866 74.1015 107.963 75.3386 108.047 76.5201ZM60.4541 97.7449L60.3985 97.7866C59.3283 98.6345 57.3267 100.219 56.6595 100.761C53.4209 103.263 49.8765 101.804 47.9583 99.3712C46.0262 96.9387 45.4008 93.158 48.5699 90.5727L52.3506 87.5703L60.4541 97.7449ZM63.248 95.8406L54.8248 85.263C56.8541 82.9278 58.6611 80.3703 60.2039 77.632C62.0526 74.3378 63.4704 70.8212 64.4433 67.1795L83.0133 90.5032C76.1469 90.7255 69.336 92.5603 63.248 95.8406ZM64.0819 60.8551V60.8273C64.1236 60.3547 64.4989 60.0767 64.8325 59.9794C65.1661 59.8821 65.6387 59.9099 65.9167 60.2991L90.0605 90.6005C90.5609 91.2537 90.1717 91.8236 89.8798 92.0599C89.5184 92.3518 88.9207 92.4769 88.4342 91.8931L64.2904 61.5918C64.1236 61.3833 64.0402 61.1053 64.0819 60.8551ZM71.8241 109.226C72.4774 109.74 73.2835 109.476 73.8534 109.282L76.5222 112.631L73.7005 113.062C73.6449 113.076 73.5893 113.062 73.5476 113.021L60.3846 102.068L60.885 101.665L71.8241 109.226ZM77.9955 108.086L80.8728 111.7C80.8867 111.728 80.9423 111.784 80.9006 111.881V111.895C80.8867 111.923 80.8589 111.964 80.7755 111.978L80.3863 112.034L77.3145 108.184L77.8148 108.031H77.8287C77.8704 108.017 77.9538 108.031 77.9955 108.086Z" fill="#00B3D9"/>
<path d="M98.025 66.1926C95.7176 66.1926 93.2018 67.7215 93.1045 71.0575V71.0714V71.0853C93.2157 74.4351 95.7315 75.9502 98.025 75.9502C100.332 75.9502 102.848 74.4212 102.959 71.0853V71.0714V71.0575C102.848 67.7076 100.332 66.1926 98.025 66.1926ZM96.4682 71.0714C96.496 70.015 97.2744 69.5285 98.025 69.5285C98.7756 69.5285 99.554 70.0011 99.5818 71.0714C99.554 72.1277 98.7756 72.6142 98.025 72.6142C97.2744 72.6142 96.5099 72.1416 96.4682 71.0714Z" fill="#00B3D9"/>
<path d="M90.4497 63.3431V63.3292V63.3153C90.3385 59.9655 87.8226 58.4505 85.5292 58.4505C83.2218 58.4505 80.706 59.9794 80.5948 63.3153V63.3292V63.3431C80.706 66.6791 83.2218 68.208 85.5153 68.208C87.8226 68.208 90.3524 66.6791 90.4497 63.3431ZM83.9585 63.3153C83.9863 62.259 84.7647 61.7725 85.5153 61.7725C86.2659 61.7725 87.0442 62.2451 87.072 63.3153C87.0442 64.3717 86.2659 64.8443 85.5153 64.8443C84.7647 64.8582 84.0002 64.3856 83.9585 63.3153Z" fill="#00B3D9"/>
<path d="M99.5679 61.9254C100.318 61.147 100.124 60.1184 99.5539 59.5485C98.9702 58.9786 97.9833 58.784 97.2049 59.5485L83.6388 73.1146C83.1523 73.5733 82.9994 74.2961 83.2774 74.9494C83.5415 75.5888 84.1253 75.9919 84.7786 75.9919C84.7925 75.9919 84.8203 75.9919 84.8342 75.9919C85.2651 75.9919 85.696 75.8112 86.0017 75.4915L99.5679 61.9254Z" fill="#00B3D9"/>
<defs>
<filter id="filter0_d_0_292" x="0" y="0" width="173" height="173" filterUnits="userSpaceOnUse" color-interpolation-filters="sRGB">
<feFlood flood-opacity="0" result="BackgroundImageFix"/>
<feColorMatrix in="SourceAlpha" type="matrix" values="0 0 0 0 0 0 0 0 0 0 0 0 0 0 0 0 0 0 127 0" result="hardAlpha"/>
<feOffset dx="7" dy="9"/>
<feGaussianBlur stdDeviation="15"/>
<feComposite in2="hardAlpha" operator="out"/>
<feColorMatrix type="matrix" values="0 0 0 0 0 0 0 0 0 0.312769 0 0 0 0 0.379167 0 0 0 0.12 0"/>
<feBlend mode="normal" in2="BackgroundImageFix" result="effect1_dropShadow_0_292"/>
<feBlend mode="normal" in="SourceGraphic" in2="effect1_dropShadow_0_292" result="shape"/>
</filter>
</defs>
</svg>
