<svg width="14" height="14" viewBox="0 0 14 14" fill="none" xmlns="http://www.w3.org/2000/svg">
<g clip-path="url(#clip0_1634_11579)">
<path d="M7 13.039C6.80066 13.039 6.60844 12.9668 6.45887 12.8355C5.89313 12.3409 5.34789 11.8763 4.86691 11.4662L4.86445 11.464C3.45406 10.2619 2.23617 9.22397 1.38852 8.20159C0.441328 7.05862 0 5.97471 0 4.79073C0 3.64037 0.39457 2.57916 1.1107 1.80233C1.83531 1.0162 2.8298 0.583344 3.91098 0.583344C4.71898 0.583344 5.45918 0.838734 6.11078 1.34268C6.43945 1.59698 6.7375 1.90815 7 2.27127C7.26277 1.90815 7.56055 1.59698 7.88949 1.34268C8.54082 0.838734 9.28102 0.583344 10.089 0.583344C11.1702 0.583344 12.1647 1.0162 12.8893 1.80233C13.6057 2.57916 14 3.64037 14 4.79073C14 5.97471 13.5589 7.05862 12.6115 8.20159C11.7641 9.22424 10.5462 10.2622 9.13582 11.464C8.65402 11.8747 8.1077 12.3401 7.54086 12.8358C7.39156 12.9668 7.19934 13.039 7 13.039ZM3.91098 1.40338C3.06141 1.40338 2.28102 1.74245 1.71336 2.35795C1.13723 2.98303 0.819766 3.84682 0.819766 4.79045C0.819766 5.78631 1.19 6.6769 2.01961 7.67823C2.8216 8.64592 4.01461 9.66256 5.39602 10.8397L5.39848 10.8419C5.88137 11.2534 6.42879 11.7199 6.99863 12.2181C7.57176 11.7191 8.12 11.2518 8.60398 10.8394C9.98512 9.66229 11.1781 8.64592 11.9801 7.67795C12.8097 6.67662 13.18 5.78604 13.18 4.79018C13.18 3.84627 12.8625 2.98248 12.2864 2.35768C11.7187 1.7419 10.9383 1.40311 10.089 1.40311C9.46668 1.40311 8.89547 1.6008 8.39098 1.991C7.94145 2.33881 7.62836 2.7785 7.44461 3.08612C7.35027 3.24444 7.18402 3.33877 7 3.33877C6.81598 3.33877 6.64973 3.24444 6.55539 3.08612C6.37191 2.7785 6.05883 2.33881 5.60902 1.991C5.10453 1.60135 4.53332 1.40338 3.91098 1.40338Z" fill="#1F2123"/>
</g>
<defs>
<clipPath id="clip0_1634_11579">
<rect width="14" height="14" fill="white"/>
</clipPath>
</defs>
</svg>
