<svg width="17" height="18" viewBox="0 0 17 18" fill="none" xmlns="http://www.w3.org/2000/svg">
<path d="M8.57661 4.53467H3.7718C3.61252 4.53467 3.45975 4.59795 3.34712 4.71058C3.23448 4.82321 3.1712 4.97598 3.1712 5.13527C3.1712 5.29456 3.23448 5.44732 3.34712 5.55996C3.45975 5.67259 3.61252 5.73587 3.7718 5.73587H8.57661C8.7359 5.73587 8.88866 5.67259 9.0013 5.55996C9.11393 5.44732 9.17721 5.29456 9.17721 5.13527C9.17721 4.97598 9.11393 4.82321 9.0013 4.71058C8.88866 4.59795 8.7359 4.53467 8.57661 4.53467Z" fill="#1F67D2"/>
<path d="M8.57661 7.74756H3.7718C3.61252 7.74756 3.45975 7.81084 3.34712 7.92347C3.23448 8.03611 3.1712 8.18887 3.1712 8.34816C3.1712 8.50745 3.23448 8.66021 3.34712 8.77285C3.45975 8.88548 3.61252 8.94876 3.7718 8.94876H8.57661C8.7359 8.94876 8.88866 8.88548 9.0013 8.77285C9.11393 8.66021 9.17721 8.50745 9.17721 8.34816C9.17721 8.18887 9.11393 8.03611 9.0013 7.92347C8.88866 7.81084 8.7359 7.74756 8.57661 7.74756Z" fill="#1F67D2"/>
<path d="M8.57661 11.0332H3.7718C3.61252 11.0332 3.45975 11.0965 3.34712 11.2091C3.23448 11.3217 3.1712 11.4745 3.1712 11.6338C3.1712 11.7931 3.23448 11.9459 3.34712 12.0585C3.45975 12.1711 3.61252 12.2344 3.7718 12.2344H8.57661C8.7359 12.2344 8.88866 12.1711 9.0013 12.0585C9.11393 11.9459 9.17721 11.7931 9.17721 11.6338C9.17721 11.4745 9.11393 11.3217 9.0013 11.2091C8.88866 11.0965 8.7359 11.0332 8.57661 11.0332Z" fill="#1F67D2"/>
<path d="M14.1922 0H2.33637C2.02826 0.000785967 1.72333 0.0623509 1.43905 0.181168C1.15478 0.299986 0.896734 0.473721 0.679706 0.692423C0.462678 0.911124 0.290931 1.17049 0.174301 1.45568C0.0576704 1.74086 -0.00155021 2.04625 3.0842e-05 2.35435V17.003C-0.000362144 17.1533 0.0392635 17.301 0.114838 17.431C0.190413 17.5609 0.299213 17.6684 0.430064 17.7424C0.560916 17.8164 0.709102 17.8542 0.859406 17.852C1.00971 17.8497 1.15671 17.8076 1.28532 17.7297L3.49553 16.4024C3.52887 16.3816 3.56736 16.3706 3.60664 16.3706C3.64591 16.3706 3.68441 16.3816 3.71775 16.4024L6.17421 17.8739C6.30341 17.9562 6.45343 18 6.60664 18C6.7608 17.9992 6.91203 17.9578 7.04508 17.8799L9.51354 16.4024C9.54689 16.3816 9.58538 16.3706 9.62466 16.3706C9.66393 16.3706 9.70243 16.3816 9.73577 16.4024L11.934 17.7297C12.063 17.8064 12.2103 17.8469 12.3604 17.8469C12.5105 17.8469 12.6578 17.8064 12.7868 17.7297C12.916 17.6558 13.0235 17.5492 13.0983 17.4206C13.1732 17.2919 13.2128 17.1458 13.2132 16.997V6.87087H15.0991C15.4778 6.86929 15.8404 6.71818 16.1081 6.45045C16.3759 6.18273 16.527 5.82006 16.5286 5.44144V2.35435C16.5301 2.04625 16.4709 1.74086 16.3543 1.45568C16.2377 1.17049 16.0659 0.911124 15.8489 0.692423C15.6319 0.473721 15.3738 0.299986 15.0895 0.181168C14.8053 0.0623509 14.5003 0.000785967 14.1922 0ZM12.012 16.3724L10.3544 15.3754C10.1336 15.2443 9.88148 15.1751 9.62466 15.1751C9.36784 15.1751 9.11576 15.2443 8.89493 15.3754L6.61264 16.7447L4.33637 15.3694C4.11291 15.2357 3.85718 15.1656 3.59679 15.1667C3.33641 15.1677 3.08126 15.2399 2.85889 15.3754L1.20123 16.3784V2.35435C1.19884 2.20378 1.22644 2.05423 1.28241 1.91442C1.33839 1.77461 1.42162 1.64734 1.52727 1.54002C1.63291 1.4327 1.75886 1.34747 1.89777 1.2893C2.03668 1.23113 2.18577 1.20118 2.33637 1.2012H12.2583C12.0997 1.50336 12.0153 1.83894 12.012 2.18018V16.3544V16.3724ZM15.3274 5.44144C15.3274 5.50197 15.3033 5.56002 15.2605 5.60282C15.2177 5.64562 15.1597 5.66967 15.0991 5.66967H13.2132V2.1982C13.2108 2.06813 13.2344 1.93889 13.2825 1.81802C13.3307 1.69716 13.4024 1.5871 13.4935 1.49428C13.5847 1.40145 13.6934 1.32773 13.8134 1.27741C13.9333 1.22709 14.0621 1.20118 14.1922 1.2012C14.4933 1.2012 14.782 1.3208 14.9949 1.53367C15.2078 1.74655 15.3274 2.03528 15.3274 2.33634V5.44144Z" fill="#1F67D2"/>
</svg>
