<svg width="18" height="18" viewBox="0 0 18 18" fill="none" xmlns="http://www.w3.org/2000/svg">
<path d="M10.4749 3.93675C12.4514 3.93888 14.0611 5.54864 14.0633 7.52517C14.0633 7.83228 14.3132 8.08223 14.6203 8.08223C14.9275 8.08223 15.1774 7.83228 15.1774 7.52517C15.1774 4.93193 13.0677 2.82227 10.4745 2.82227C10.1674 2.82227 9.91743 3.07222 9.91743 3.37933C9.91779 3.68644 10.1677 3.93639 10.4749 3.93675Z" fill="white"/>
<path d="M10.4752 1.11448C14.01 1.11448 16.8859 3.99033 16.8859 7.52514C16.8859 7.83225 17.1358 8.08221 17.4429 8.08221C17.7501 8.08221 18 7.83225 18 7.52514C18 3.37575 14.6243 0 10.4752 0C10.1681 0 9.91815 0.24995 9.91815 0.557063C9.91815 0.864175 10.1677 1.11448 10.4752 1.11448Z" fill="white"/>
<path d="M14.7183 9.77843C14.1705 9.23166 13.2786 9.23166 12.7308 9.77843L10.7713 11.7379C10.6804 11.8327 10.5331 11.8512 10.4191 11.7805C9.55742 11.27 8.75716 10.6564 8.04281 9.9595C7.34302 9.24267 6.7295 8.4424 6.21789 7.57822C6.14865 7.46638 6.16747 7.3194 6.26404 7.22637L8.22175 5.26867C8.76852 4.72083 8.76852 3.82896 8.22175 3.28113L5.46377 0.523157C4.7654 -0.173083 3.62927 -0.173083 2.9309 0.523157L0.756965 2.69673C0.115757 3.32303 -0.144135 4.25111 0.0781223 5.11777C0.888686 8.43636 2.39443 11.2359 4.55415 13.4382L4.56161 13.4457C6.7643 15.605 9.56382 17.1111 12.8817 17.9213C13.0876 17.9721 13.2996 17.998 13.5115 17.9984C14.1794 17.9984 14.8153 17.7307 15.302 17.2439L17.4767 15.0693C18.1729 14.3709 18.1729 13.2348 17.4767 12.5364L14.7183 9.77843ZM5.47691 6.43782C5.01393 6.89157 4.92517 7.59562 5.26034 8.14878C5.81669 9.08822 6.48594 9.96092 7.24858 10.7417C7.25177 10.7449 7.25497 10.7484 7.25816 10.7512C8.03926 11.5142 8.9116 12.1835 9.85034 12.7391C10.4049 13.075 11.1086 12.9862 11.5616 12.5243L12.1517 11.9342L15.5942 15.3767L14.5142 16.4561C14.1428 16.8278 13.6571 16.9638 13.1469 16.8388C10.0271 16.0769 7.40231 14.6684 5.34732 12.6546C3.33138 10.5982 1.92293 7.97339 1.161 4.85326C1.03638 4.34307 1.17237 3.85737 1.54374 3.48564L2.62343 2.40595L6.06593 5.84845L5.47691 6.43782ZM7.4332 4.48118L6.85377 5.06061L3.41162 1.61811L3.71838 1.31135C3.84336 1.18602 4.01626 1.1143 4.19343 1.1143C4.19449 1.1143 4.1952 1.1143 4.19627 1.1143H4.19769C4.19876 1.1143 4.19947 1.1143 4.20053 1.1143C4.37734 1.1143 4.5506 1.18602 4.67558 1.31135L7.43356 4.06933C7.54646 4.18294 7.54646 4.36792 7.4332 4.48118ZM16.6885 14.2818L16.3817 14.5886L12.9392 11.1461L13.5183 10.567C13.6319 10.4537 13.8165 10.4537 13.9301 10.567L16.6878 13.3246C16.9505 13.588 16.9508 14.0176 16.6885 14.2818Z" fill="white"/>
</svg>
