<svg width="49" height="50" viewBox="0 0 49 50" fill="none" xmlns="http://www.w3.org/2000/svg">
<path d="M48.8933 0.838773C48.6836 0.329518 48.1943 0 47.6451 0H31.9581C31.5986 0 31.2491 0.149781 30.9995 0.399416L24.509 6.88992L18.0185 0.399416C17.7588 0.139796 17.4193 0 17.0599 0H1.36282C0.813628 0 0.324343 0.329518 0.104665 0.838773C-0.105029 1.34803 0.00481078 1.92718 0.394241 2.31661L20.3051 22.2275L20.0755 22.3074C14.3538 24.2246 10.5094 29.5468 10.5094 35.568C10.5094 43.2767 16.7803 49.5575 24.499 49.5575C32.2077 49.5575 38.4885 43.2867 38.4885 35.568C38.4885 29.5468 34.6442 24.2246 28.9225 22.3074L28.6929 22.2275L33.2961 17.6142L48.6037 2.31661C48.9932 1.92718 49.103 1.34803 48.8933 0.838773ZM35.7825 35.558C35.7825 41.7789 30.7199 46.8315 24.509 46.8315C18.2881 46.8315 13.2355 41.7689 13.2355 35.558C13.2355 29.3471 18.2981 24.2845 24.509 24.2845C30.7199 24.2845 35.7825 29.3371 35.7825 35.558ZM26.2265 20.8495C25.7671 21.3088 25.158 21.5685 24.509 21.5685C23.8599 21.5685 23.2508 21.3188 22.7915 20.8595L4.62805 2.70604H16.4807L30.4103 16.6357L26.2265 20.8495ZM32.3375 14.7285L26.4162 8.80712L32.5073 2.70604H44.3599L32.3375 14.7285Z" fill="white"/>
<path d="M19.7161 37.3054L19.3167 39.652C19.1769 40.4508 19.5064 41.2497 20.1654 41.729C20.8244 42.2083 21.6832 42.2682 22.4021 41.8887L24.5091 40.7804L26.616 41.8887C26.9255 42.0485 27.265 42.1384 27.6045 42.1384C28.0539 42.1384 28.4832 41.9986 28.8527 41.729C29.5117 41.2497 29.8313 40.4508 29.6915 39.652L29.2921 37.3054L30.9996 35.6479C31.5787 35.0787 31.7884 34.2399 31.5388 33.471C31.2891 32.6922 30.6301 32.143 29.8213 32.0232L27.4647 31.6837L26.4163 29.5468C26.0568 28.8178 25.3279 28.3585 24.5091 28.3585C23.6903 28.3585 22.9613 28.8178 22.6019 29.5468L21.5434 31.6837L19.1868 32.0232C18.378 32.143 17.719 32.6922 17.4694 33.471C17.2197 34.2499 17.4294 35.0787 18.0086 35.6479L19.7161 37.3054ZM22.2324 34.3198C22.9214 34.2199 23.5205 33.7806 23.8301 33.1615L24.4991 31.8135L25.1681 33.1615C25.4776 33.7906 26.0768 34.2199 26.7658 34.3198L28.2536 34.5395L27.1752 35.5879C26.6759 36.0772 26.4462 36.7762 26.5661 37.4652L26.8157 38.943L25.4876 38.2441C24.8685 37.9245 24.1296 37.9245 23.5105 38.2441L22.1825 38.943L22.4321 37.4652C22.5519 36.7762 22.3223 36.0672 21.823 35.578L20.7446 34.5295L22.2324 34.3198Z" fill="white"/>
</svg>
