<svg width="56" height="48" viewBox="0 0 56 48" fill="none" xmlns="http://www.w3.org/2000/svg">
<path d="M14.2504 27.5064C14.0433 27.2523 13.7515 27.0922 13.4221 27.0546C13.375 27.0546 13.3374 27.0452 13.2903 27.0452C13.0079 27.0452 12.735 27.1393 12.5185 27.3182C12.2644 27.5253 12.1044 27.8171 12.0667 28.1466C12.0291 28.476 12.1326 28.7961 12.3303 29.0503L12.9703 29.841C13.2056 30.1328 13.5539 30.2928 13.9303 30.2928C14.2127 30.2928 14.4857 30.1987 14.7021 30.0199C14.9563 29.8128 15.1163 29.5209 15.1539 29.1915C15.1916 28.862 15.0974 28.5419 14.8904 28.2878L14.2504 27.5064Z" fill="white"/>
<path d="M55.2212 13.3202C55.2212 13.3014 55.2212 13.2825 55.2212 13.2637L55.2118 13.2166C55.2118 13.1884 55.2024 13.1696 55.2024 13.1508L55.1836 13.0849C55.1836 13.0754 55.1742 13.066 55.1742 13.0566L55.1459 12.9813C55.1459 12.9719 55.1365 12.9625 55.1365 12.9437L55.0236 12.7366C55.0236 12.7366 55.0236 12.7366 55.0236 12.7271L55.0048 12.6989C54.9953 12.6895 54.9953 12.6801 54.9859 12.6707L46.2044 0.52716C46.195 0.517746 46.195 0.508333 46.1855 0.508333C46.1855 0.508333 46.1761 0.498919 46.1761 0.489505L46.1667 0.470678C46.1573 0.461265 46.1479 0.451851 46.1385 0.442438L46.082 0.376543C46.0726 0.367129 46.0632 0.357716 46.0538 0.348302L46.0255 0.320061L46.0161 0.310648L45.9973 0.301234C45.9879 0.291821 45.9785 0.282407 45.9597 0.272993C45.9502 0.26358 45.9314 0.254166 45.922 0.244753L45.8938 0.225926C45.8844 0.216512 45.8655 0.207098 45.8561 0.197685C45.8467 0.188271 45.8279 0.178858 45.8091 0.169444L45.7902 0.160031C45.7714 0.150617 45.762 0.141204 45.7432 0.13179C45.7338 0.122376 45.7149 0.112963 45.6961 0.112963L45.6773 0.103549C45.6679 0.0941357 45.6491 0.0941357 45.6302 0.0847221C45.6208 0.0753085 45.602 0.0753085 45.5926 0.065895L45.5738 0.0564814C45.5549 0.0470678 45.5455 0.0470678 45.5267 0.0470678H45.5173C45.5079 0.0470678 45.489 0.0376543 45.4796 0.0376543L45.4514 0.0282407C45.442 0.0282407 45.4326 0.0282407 45.4232 0.0188271H45.4043C45.3949 0.0188271 45.3761 0.0188271 45.3667 0.00941357H45.3479C45.3385 0.00941357 45.3196 0.00941357 45.3102 0.00941357C45.2914 0.00941357 45.282 0.00941357 45.2726 0.00941357C45.2537 0.00941357 45.2443 0.00941357 45.2349 0.00941357C45.2255 0.00941357 45.2067 0.00941357 45.1879 0.00941357H10.024C10.0051 0.00941357 9.99573 0.00941357 9.97691 0.00941357L9.95808 0C9.93926 0 9.92043 0 9.91102 0C9.8922 0 9.87337 0 9.85455 0.00941357H9.82631C9.8169 0.00941357 9.79808 0.00941357 9.78866 0.0188271C9.76984 0.0188271 9.75101 0.0282407 9.73219 0.0282407L9.70395 0.0376543C9.69454 0.0376543 9.68513 0.0470678 9.66631 0.0470678C9.64748 0.0564814 9.62866 0.0564814 9.60983 0.065895L9.59101 0.0753085C9.57218 0.0847221 9.56277 0.0847221 9.54395 0.0941357C9.52512 0.103549 9.51571 0.103549 9.49689 0.112963L9.47806 0.122376C9.45924 0.13179 9.44983 0.141204 9.431 0.141204C9.41218 0.150617 9.40276 0.160031 9.38394 0.169444H9.39335C9.37453 0.178858 9.3557 0.188271 9.34629 0.197685C9.32747 0.207098 9.31805 0.216512 9.30864 0.225926C9.29923 0.235339 9.28982 0.235339 9.28982 0.244753C9.28041 0.254166 9.27099 0.254166 9.26158 0.26358L9.25217 0.272993C9.24276 0.282407 9.22393 0.291821 9.21452 0.301234C9.20511 0.310648 9.1957 0.320061 9.18628 0.320061L9.15805 0.348302C9.14864 0.357716 9.13922 0.367129 9.12981 0.376543L9.10157 0.404783L9.08275 0.433024C9.07334 0.451851 9.06393 0.461265 9.05451 0.470678L9.00745 0.52716L0.235304 12.6707C0.225892 12.6801 0.225892 12.6895 0.21648 12.6989C0.207068 12.7083 0.207068 12.7177 0.197656 12.7271L0.160007 12.7836C0.150595 12.793 0.150595 12.8025 0.141183 12.8119L0.0752974 12.9342C0.0752974 12.9437 0.0658852 12.9531 0.0658852 12.9625L0.0470609 13.0095C0.0470609 13.019 0.0376487 13.0284 0.0376487 13.0378V13.0472C0.0376487 13.066 0.0282365 13.0754 0.0282365 13.0943L0.0188244 13.1131C0.0188244 13.1319 0.00941218 13.1413 0.00941218 13.1602C0.00941218 13.1696 0.00941218 13.179 0.00941218 13.1884V13.2166C0.00941218 13.2449 0 13.2637 0 13.2825V13.3296C0 13.3579 0 13.3767 0 13.3955V13.4143C0 13.4332 0 13.4426 0 13.452V13.4614C0 13.4802 0 13.4896 0 13.5085L0.00941218 13.5932C0.00941218 13.6026 0.00941218 13.612 0.00941218 13.6308L0.0282365 13.7156C0.0282365 13.725 0.0282365 13.7344 0.0376487 13.7438L0.0658852 13.8191C0.0658852 13.8285 0.0752974 13.8474 0.0752974 13.8568L0.103534 13.9133C0.112946 13.9321 0.122358 13.9509 0.13177 13.9697L0.160007 14.0168C0.169419 14.0356 0.188244 14.0545 0.197656 14.0827L0.225892 14.1204C0.244717 14.1392 0.254129 14.1674 0.272953 14.1862L0.291777 14.2051L8.51802 24.3341C8.75332 24.6259 9.10157 24.7859 9.47806 24.7859C9.76043 24.7859 10.0334 24.6918 10.2499 24.5129C10.504 24.3058 10.664 24.0046 10.7016 23.6845C10.7393 23.3551 10.6358 23.035 10.4287 22.7808L3.82134 14.6475H17.8643L24.8952 40.629L18.7208 33.0322C18.5138 32.778 18.222 32.618 17.8925 32.5804C17.5631 32.5427 17.2431 32.6463 16.989 32.8533C16.7348 33.0604 16.5748 33.3523 16.5372 33.6817C16.4995 34.0112 16.6031 34.3313 16.8007 34.5854L26.627 46.6819C26.6365 46.6913 26.6459 46.7007 26.6553 46.7101L26.6929 46.7572C26.7023 46.7666 26.7118 46.776 26.7212 46.7854L26.7871 46.8419C26.8153 46.8702 26.8341 46.8796 26.8624 46.8984H26.8718C26.9 46.9172 26.9282 46.936 26.9565 46.9549C26.9753 46.9643 26.9941 46.9831 27.0129 46.9925L27.0224 47.0019C27.0506 47.0208 27.0788 47.0302 27.1071 47.0396L27.1353 47.049C27.1447 47.0584 27.173 47.0678 27.1918 47.0678L27.2106 47.0773C27.2388 47.0867 27.2671 47.0961 27.2859 47.1055L27.3141 47.1149C27.333 47.1149 27.3518 47.1243 27.3612 47.1243L27.4083 47.1337L27.4553 47.1431C27.4647 47.1431 27.4741 47.1431 27.493 47.1431H27.54C27.5588 47.1431 27.5777 47.1431 27.6059 47.1431C27.6247 47.1431 27.653 47.1431 27.6812 47.1431H27.7189C27.7283 47.1431 27.7471 47.1431 27.7565 47.1431L27.8318 47.1337C27.8506 47.1337 27.8695 47.1243 27.8977 47.1243L27.9259 47.1149C27.9542 47.1055 27.9824 47.0961 28.0012 47.0867L28.02 47.0773C28.0389 47.0678 28.0577 47.0584 28.0765 47.0584L28.1048 47.049C28.133 47.0396 28.1612 47.0208 28.1895 47.0114H28.1989C28.2271 47.0019 28.2459 46.9831 28.2648 46.9737C28.293 46.9549 28.3118 46.936 28.3401 46.9266L28.3495 46.9172C28.3683 46.8984 28.3965 46.8796 28.4154 46.8702L28.4342 46.8513C28.4436 46.8419 28.453 46.8325 28.4624 46.8231L28.4718 46.8137C28.4812 46.8043 28.4907 46.7948 28.5001 46.7854L28.5189 46.7666C28.5377 46.7478 28.5471 46.729 28.566 46.7101L28.5754 46.7007L54.9295 14.2521L54.9577 14.2145C54.9671 14.2051 54.9765 14.1862 54.9953 14.1674L55.0142 14.1392C55.0236 14.1298 55.0236 14.1203 55.033 14.1109C55.0424 14.1015 55.0518 14.0827 55.0612 14.0733L55.0989 14.0074C55.0989 13.998 55.1083 13.9886 55.1177 13.9791L55.1648 13.8474C55.1648 13.8379 55.1742 13.8285 55.1742 13.8191L55.193 13.725C55.193 13.7156 55.193 13.7062 55.2024 13.6967L55.2212 13.4991C55.2212 13.4802 55.2212 13.4708 55.2212 13.452C55.2212 13.4426 55.2212 13.4332 55.2212 13.4237V13.3202ZM42.7972 2.45694L36.4063 11.3057L30.0154 2.45694H42.7972ZM33.9968 12.1812H21.215L27.6059 3.3324L33.9968 12.1812ZM3.61428 12.1812L10.0051 3.3324L16.396 12.1812H3.61428ZM12.4147 2.45694H25.1964L18.8055 11.3057L12.4147 2.45694ZM27.6059 41.2032L20.415 14.6475H34.7968L27.6059 41.2032ZM30.3072 40.6195L37.3381 14.6381H51.4093L30.3072 40.6195ZM38.8064 12.1812L45.1973 3.3324L51.5881 12.1812H38.8064Z" fill="white"/>
</svg>
