<svg width="44" height="53" viewBox="0 0 44 53" fill="none" xmlns="http://www.w3.org/2000/svg">
<path d="M42.1236 15.2081C41.7731 14.8776 41.4626 14.5972 41.1822 14.3368C39.0189 12.3338 39.0189 12.3338 38.3679 9.45939L38.3479 9.38929C38.2678 9.03875 38.1776 8.64816 38.0775 8.2175C37.5066 5.77378 35.4335 4.03113 32.9196 3.89092C32.4489 3.86087 32.0183 3.84084 31.6377 3.82081C28.6932 3.67058 28.6932 3.67058 26.3396 1.89789C26.0392 1.66754 25.6987 1.40714 25.3181 1.12671C23.305 -0.375571 20.6009 -0.375571 18.5878 1.12671C18.2073 1.40714 17.8667 1.66754 17.5663 1.89789C15.2127 3.6806 15.2127 3.6806 12.2682 3.82081C11.8876 3.84084 11.467 3.86087 10.9863 3.89092C8.47245 4.03113 6.40931 5.76377 5.82843 8.2175C5.72827 8.66819 5.62812 9.0688 5.548 9.42935L5.53798 9.45939C4.88699 12.3338 4.88699 12.3338 2.7237 14.3368L2.70367 14.3568C2.43326 14.6072 2.12279 14.8977 1.78227 15.2182C-0.0505182 16.9408 -0.521235 19.6048 0.610487 21.8482C0.820807 22.2689 1.02111 22.6495 1.19137 22.99C2.53341 25.614 2.53341 25.614 2.17286 28.5384C2.12279 28.919 2.07271 29.3396 2.01262 29.8104C1.71216 32.3041 3.06422 34.6477 5.37774 35.6392C5.81841 35.8295 6.20901 35.9898 6.55954 36.14C7.74134 36.6407 8.42237 36.9312 8.92314 37.2717L4.48638 46.7962C4.28608 47.2168 4.34617 47.7176 4.6266 48.0882C4.90702 48.4587 5.37774 48.639 5.83844 48.5589L10.1049 47.8178L12.2782 51.5534C12.4986 51.934 12.9192 52.1744 13.3599 52.1744C13.3799 52.1744 13.3999 52.1744 13.42 52.1744C13.8907 52.1543 14.3013 51.8739 14.5016 51.4533L18.4576 42.9604C18.698 42.8903 18.9183 42.8201 19.1287 42.75C21.9429 41.8787 21.9429 41.8787 24.7572 42.75C25.0076 42.8302 25.278 42.9103 25.5685 43.0004L29.5044 51.4533C29.7048 51.8739 30.1154 52.1543 30.5861 52.1744C30.6061 52.1744 30.6262 52.1744 30.6362 52.1744C31.0768 52.1744 31.4975 51.934 31.7178 51.5534L33.8911 47.8178L38.1576 48.5589C38.6183 48.639 39.079 48.4587 39.3695 48.0882C39.6499 47.7176 39.71 47.2269 39.5097 46.7962L35.0429 37.2116C35.5236 36.8911 36.1946 36.6107 37.3163 36.14L37.3364 36.13C37.6869 35.9797 38.0675 35.8195 38.4981 35.6392C40.8117 34.6477 42.1637 32.3041 41.8633 29.8104C41.8032 29.3396 41.7531 28.919 41.703 28.5384C41.3324 25.614 41.3324 25.614 42.6845 22.99L42.7146 22.9199C42.8748 22.5994 43.0651 22.2488 43.2654 21.8482C44.4171 19.5848 43.9564 16.9207 42.1236 15.2081ZM39.2393 28.8289C39.2893 29.1994 39.3394 29.6201 39.3895 30.0808C39.5597 31.4829 38.8286 32.7548 37.5267 33.3057C37.096 33.496 36.7054 33.6562 36.3649 33.7964C33.0599 35.1885 32.8596 35.3588 30.9166 38.3734C30.7163 38.6839 30.4859 39.0344 30.2356 39.425C29.4644 40.6068 28.0823 41.1075 26.7302 40.6969C26.2896 40.5667 25.8889 40.4365 25.5284 40.3264H25.5184C23.8358 39.8056 22.9144 39.5351 21.963 39.5351C21.0115 39.5351 20.0901 39.8056 18.4076 40.3264L18.3775 40.3364C18.027 40.4465 17.6364 40.5667 17.2057 40.6969C15.8537 41.1075 14.4816 40.6068 13.7004 39.425C13.44 39.0344 13.2197 38.6839 13.0094 38.3634C11.0664 35.3588 10.8661 35.1885 7.56106 33.7964C7.21053 33.6462 6.82995 33.4859 6.39929 33.3057C5.09731 32.7448 4.3662 31.4829 4.53646 30.0808C4.58654 29.6201 4.64663 29.2094 4.68669 28.8389V28.8188C5.13737 25.2634 5.0873 25.003 3.45482 21.8182C3.28456 21.4877 3.09427 21.1071 2.88395 20.6865C2.24297 19.4246 2.50337 17.9824 3.53494 17.0209C3.87546 16.7004 4.17591 16.42 4.44632 16.1696L4.45634 16.1596C7.08033 13.7259 7.21053 13.4955 8.01175 10.0002V9.9902C8.09187 9.62965 8.19202 9.21903 8.29218 8.76834C8.61266 7.39625 9.73437 6.45482 11.1465 6.3747C11.5972 6.35467 11.9978 6.33464 12.3584 6.31461H12.4084C15.9839 6.13433 16.2343 6.0442 19.0886 3.8809L19.1387 3.84084C19.4291 3.62051 19.7396 3.38014 20.1001 3.11975C20.671 2.69911 21.312 2.48879 21.963 2.48879C22.614 2.48879 23.265 2.69911 23.8258 3.11975C24.2064 3.40017 24.5369 3.65055 24.8373 3.8809C27.6917 6.0442 27.9421 6.13433 31.5175 6.31461H31.5676C31.9281 6.33464 32.3287 6.35467 32.7794 6.3747C34.1916 6.45482 35.3133 7.39625 35.6338 8.76834C35.7439 9.21903 35.8341 9.62965 35.9142 9.9902V10.0002C36.7154 13.4955 36.8456 13.7259 39.4696 16.1596L39.5097 16.1996C39.7801 16.45 40.0705 16.7204 40.401 17.0309C41.4326 18.0024 41.683 19.4346 41.052 20.6965C40.8417 21.1171 40.6514 21.4877 40.4812 21.8282C38.8487 25.0131 38.7986 25.2735 39.2393 28.8289ZM32.3287 40.8071C32.5891 40.4065 32.8195 40.0559 33.0298 39.7355C33.1199 39.5952 33.2101 39.455 33.3002 39.3148L36.2547 45.6545L33.5005 45.1737C32.9898 45.0836 32.469 45.324 32.1986 45.7746L30.7964 48.1983L28.5129 43.2808C30.0453 43.0505 31.4474 42.1591 32.3287 40.8071ZM10.7058 39.425C10.776 39.5251 10.836 39.6253 10.9062 39.7355L10.9162 39.7555C11.1165 40.066 11.3468 40.4165 11.5972 40.8171C12.4986 42.1992 13.9408 43.1006 15.5432 43.3109L13.2597 48.2083L11.8576 45.7847C11.6272 45.3941 11.2166 45.1637 10.776 45.1637C10.7058 45.1637 10.6357 45.1737 10.5656 45.1837L7.81144 45.6645L10.7058 39.425Z" fill="white"/>
<path d="M21.9628 7.89709C14.3713 7.89709 8.19189 14.0765 8.19189 21.668C8.19189 29.2596 14.3713 35.439 21.9628 35.439C29.5544 35.439 35.7338 29.2596 35.7338 21.668C35.7338 14.0765 29.5544 7.89709 21.9628 7.89709ZM21.9628 15.2883C23.7055 15.2883 25.1277 16.7105 25.1277 18.4532C25.1277 20.1958 23.7055 21.618 21.9628 21.618C20.2202 21.618 18.798 20.1958 18.798 18.4532C18.798 16.7105 20.2202 15.2883 21.9628 15.2883ZM21.9628 24.1318C25.5884 24.1318 28.643 26.6656 29.314 30.201C27.2709 31.9637 24.667 32.9352 21.9628 32.9352C19.2587 32.9352 16.6548 31.9637 14.6117 30.191C15.2827 26.6656 18.3373 24.1318 21.9628 24.1318ZM27.6415 18.4532C27.6415 15.3284 25.0976 12.7845 21.9729 12.7845C18.8481 12.7845 16.3042 15.3284 16.3042 18.4532C16.3042 19.9755 16.9052 21.3976 17.9668 22.4592C15.5331 23.5209 13.6202 25.5239 12.6587 27.9977C11.3767 26.1248 10.7057 23.9615 10.7057 21.668C10.7057 15.4586 15.7634 10.4009 21.9729 10.4009C28.1823 10.4009 33.24 15.4586 33.24 21.668C33.24 23.9515 32.569 26.1248 31.287 27.9977C30.3256 25.5239 28.4127 23.5309 25.979 22.4592C27.0406 21.4076 27.6415 19.9855 27.6415 18.4532Z" fill="white"/>
</svg>
