<svg width="48" height="53" viewBox="0 0 48 53" fill="none" xmlns="http://www.w3.org/2000/svg">
<path d="M46.9402 11.7165L35.8836 0.395966C35.8836 0.395966 35.8836 0.395966 35.8735 0.395966C35.843 0.365507 35.8024 0.335048 35.772 0.304589C35.7618 0.294436 35.7517 0.294436 35.7517 0.284283C35.7212 0.263977 35.6907 0.243672 35.6603 0.223366C35.6501 0.20306 35.64 0.20306 35.6197 0.192907C35.5892 0.172601 35.5587 0.162448 35.5283 0.142142C35.5181 0.131989 35.4978 0.131989 35.4877 0.121836C35.4572 0.111683 35.4268 0.0913768 35.3963 0.0812238C35.3861 0.0812238 35.3658 0.0710709 35.3557 0.0710709C35.3252 0.0609179 35.2846 0.0507649 35.2542 0.0406119C35.244 0.0406119 35.2338 0.0304589 35.2135 0.0304589C35.1729 0.020306 35.1323 0.020306 35.0917 0.010153C35.0816 0.010153 35.0714 0.010153 35.0612 0.010153C35.0308 0 34.9902 0 34.9394 0H34.9293H12.3896H12.3795C12.3287 0 12.2881 0 12.2373 0.010153C12.2272 0.010153 12.217 0.010153 12.2069 0.010153C12.1663 0.010153 12.1257 0.020306 12.0952 0.0304589C12.0851 0.0304589 12.0647 0.0406119 12.0546 0.0406119C12.0241 0.0507649 11.9937 0.0609179 11.9531 0.0710709C11.9429 0.0710709 11.9226 0.0812238 11.9125 0.0913768C11.882 0.10153 11.8515 0.111683 11.8211 0.131989C11.8109 0.142142 11.7906 0.142142 11.7805 0.152295C11.75 0.162448 11.7195 0.182754 11.6992 0.20306C11.6891 0.213213 11.6688 0.223366 11.6586 0.223366C11.6282 0.243672 11.5977 0.263977 11.5673 0.284283C11.5571 0.294436 11.5469 0.294436 11.5368 0.304589C11.4962 0.335048 11.4657 0.365507 11.4353 0.395966C11.4353 0.395966 11.4353 0.395966 11.4251 0.395966L0.378666 11.7165C-0.0376063 12.143 -0.11883 12.7826 0.175606 13.3004L9.10008 28.7532C7.96294 31.0072 7.36392 33.5048 7.36392 36.0938C7.36392 40.4495 9.05946 44.5411 12.1358 47.6175C15.2122 50.6938 19.3038 52.3894 23.6595 52.3894C28.0151 52.3894 32.1067 50.6938 35.1831 47.6175C40.2799 42.5207 41.285 34.8653 38.2087 28.7634L47.1331 13.3004C47.4377 12.7826 47.3565 12.1328 46.9402 11.7165ZM30.9696 21.5243L39.092 7.45229L40.4829 8.8737L32.6245 22.4787C32.0864 22.1335 31.528 21.8086 30.9696 21.5243ZM14.6944 22.4787L6.83596 8.8737L8.22692 7.45229L16.3493 21.5243C15.7909 21.8086 15.2325 22.1335 14.6944 22.4787ZM18.8266 20.5395L10.1458 5.49276L12.1054 3.48247L21.5984 19.9303C20.6643 20.0521 19.7404 20.2552 18.8266 20.5395ZM26.2688 13.7065H21.0501L14.6639 2.63978H32.655L26.2688 13.7065ZM24.7458 16.3463L23.6595 18.2246L22.5731 16.3463H24.7458ZM35.2135 3.49263L37.1731 5.50292L28.4923 20.5395C27.5887 20.2552 26.6546 20.0623 25.7205 19.9405L35.2135 3.49263ZM2.96768 12.8435L4.9272 10.8332L12.6029 24.1235C12.4506 24.2656 12.2881 24.4179 12.1358 24.5702C11.618 25.088 11.1307 25.6464 10.6941 26.2251L2.96768 12.8435ZM33.3149 45.7493C30.7361 48.3282 27.3044 49.7496 23.6595 49.7496C20.0145 49.7496 16.5828 48.3282 14.004 45.7493C11.4251 43.1705 10.0037 39.7388 10.0037 36.0938C10.0037 32.4489 11.4251 29.0172 14.004 26.4384C16.664 23.7783 20.1668 22.4482 23.6595 22.4482C27.1521 22.4482 30.6549 23.7783 33.3149 26.4384C38.6351 31.7585 38.6351 40.4292 33.3149 45.7493ZM36.6248 26.2251C36.1882 25.6464 35.7009 25.0982 35.1831 24.5702C35.0308 24.4179 34.8785 24.2758 34.716 24.1235L42.3917 10.8332L44.3512 12.8435L36.6248 26.2251Z" fill="white"/>
<path d="M28.2788 32.2864C28.2788 31.5554 27.6899 30.9666 26.9589 30.9666H20.3594C19.6284 30.9666 19.0396 31.5554 19.0396 32.2864C19.0396 32.9058 19.4761 33.4337 20.0548 33.5759V38.6219C19.4761 38.764 19.0396 39.2818 19.0396 39.9113C19.0396 40.6423 19.6284 41.2312 20.3594 41.2312H26.9589C27.6899 41.2312 28.2788 40.6423 28.2788 39.9113C28.2788 39.292 27.8422 38.764 27.2635 38.6219V33.5759C27.8422 33.4337 28.2788 32.9058 28.2788 32.2864ZM24.6237 38.5813H22.6946V33.6063H24.6237V38.5813Z" fill="white"/>
<path d="M32.6141 29.3726L31.2029 28.5502L30.3805 27.139C29.9033 26.3166 29.0098 25.8089 28.0554 25.7988L26.4208 25.7886L25.0298 24.9967C24.1973 24.5094 23.1617 24.4992 22.319 24.9764L20.8976 25.7886L19.4356 25.7988C18.4304 25.748 17.4557 26.2658 16.9481 27.139L16.1257 28.5502L14.7144 29.3726C13.892 29.8498 13.3844 30.7433 13.3742 31.6977L13.3641 33.3323L12.5721 34.7233C12.0848 35.5558 12.0746 36.5914 12.5518 37.4341L13.3641 38.8555L13.3742 40.3175C13.3133 41.3227 13.8413 42.2974 14.7144 42.805L16.1257 43.6274L16.9481 45.0387C17.4253 45.8611 18.3187 46.3687 19.2731 46.3789L20.9077 46.389L22.2987 47.181C22.715 47.4246 23.1922 47.5465 23.6693 47.5465C24.1262 47.5465 24.5933 47.4246 25.0095 47.1911L26.431 46.3789L27.893 46.3687C28.8981 46.4296 29.8728 45.9017 30.3805 45.0285L31.2029 43.6173L32.6141 42.7949C33.4365 42.3177 33.9442 41.4242 33.9543 40.4698L33.9645 38.8352L34.7564 37.4443C35.2437 36.6117 35.2539 35.5761 34.7767 34.7334L33.9645 33.312L33.9543 31.85C34.0152 30.855 33.4873 29.8803 32.6141 29.3726ZM32.4821 36.1244C32.4821 36.1345 32.472 36.1345 32.472 36.1447L31.4973 37.8504C31.3856 38.0433 31.3247 38.2666 31.3247 38.5002L31.3145 40.48C31.3145 40.5206 31.2841 40.5409 31.2841 40.5409L29.5784 41.5359C29.3855 41.6476 29.223 41.81 29.1012 42.0131L28.1062 43.7188C28.0859 43.7594 28.0453 43.7493 28.0351 43.7493C27.9945 43.7493 27.9641 43.7493 27.9234 43.7493L26.0655 43.7594C25.8421 43.7594 25.6187 43.8203 25.4157 43.932L23.6897 44.9168C23.6592 44.9372 23.6287 44.9168 23.6186 44.9168C23.6084 44.9168 23.6084 44.9067 23.5983 44.9067L21.8926 43.932C21.6997 43.8203 21.4763 43.7594 21.2428 43.7594L19.263 43.7493C19.2223 43.7493 19.202 43.7188 19.202 43.7188L18.207 42.0131C18.0954 41.8202 17.9329 41.6577 17.7299 41.5359L16.0242 40.5409C15.9835 40.5206 15.9937 40.48 15.9937 40.4698C15.9937 40.4292 15.9937 40.3988 15.9937 40.3582L15.9835 38.5002C15.9835 38.2768 15.9226 38.0534 15.8109 37.8504L14.8261 36.1244C14.8058 36.0939 14.8261 36.0634 14.8261 36.0533C14.8261 36.0431 14.8363 36.0431 14.8363 36.033L15.8109 34.3273C15.9226 34.1344 15.9835 33.911 15.9835 33.6775L15.9937 31.6977C15.9937 31.6672 16.0038 31.6469 16.0242 31.6367L17.7299 30.6418C17.9228 30.5301 18.0852 30.3676 18.207 30.1646L19.202 28.4589C19.2223 28.4284 19.2528 28.4284 19.263 28.4284C19.3036 28.4284 19.334 28.4284 19.3746 28.4284L21.2326 28.4183C21.456 28.4183 21.6794 28.3573 21.8824 28.2457L23.6084 27.2608C23.6389 27.2405 23.6693 27.2608 23.6795 27.2608C23.6897 27.2608 23.6897 27.271 23.6998 27.271L25.4055 28.2457C25.5984 28.3573 25.8218 28.4183 26.0553 28.4183L28.0351 28.4284C28.0757 28.4284 28.096 28.4589 28.096 28.4589L29.091 30.1646C29.2027 30.3575 29.3652 30.5199 29.5682 30.6418L31.2739 31.6367C31.3145 31.6571 31.3044 31.6977 31.3044 31.7078C31.3044 31.7484 31.3044 31.7789 31.3044 31.8195L31.3145 33.6775C31.3145 33.9009 31.3755 34.1242 31.4871 34.3273L32.472 36.0533C32.5024 36.0939 32.4923 36.1142 32.4821 36.1244Z" fill="white"/>
</svg>
