<svg width="16" height="18" viewBox="0 0 16 18" fill="none" xmlns="http://www.w3.org/2000/svg">
<path d="M13.6782 4.59333H12.6303C12.7487 4.45408 12.8566 4.30786 12.9506 4.1512C13.4867 3.25301 13.5146 2.11809 13.0237 1.19205C12.5886 0.433119 11.7739 -0.0229376 10.9001 0.00143188C9.96014 -0.0264189 9.05847 0.353048 8.42486 1.04932C8.22295 1.26168 8.04888 1.49841 7.90266 1.74907C7.76341 1.49841 7.59978 1.26516 7.40831 1.04932C6.7747 0.353048 5.87303 -0.0264189 4.93307 0.00143188C4.05925 -0.0229376 3.24114 0.429638 2.80249 1.18857L2.799 1.19205C2.30813 2.11809 2.33598 3.24953 2.87559 4.1512C2.96959 4.30438 3.07751 4.45408 3.19588 4.59333H2.13059C1.55964 4.59333 1.027 4.81614 0.623161 5.21649C0.222806 5.61685 0 6.14949 0 6.72043V15.8729C0 16.4404 0.222806 16.973 0.623161 17.3768C1.02352 17.7807 1.55964 18 2.1271 18H13.6817C14.8549 18 15.8088 17.0461 15.8088 15.8729V6.7274C15.8053 5.55418 14.8514 4.59681 13.6782 4.59333ZM14.3954 6.7274V15.8729C14.3954 16.2698 14.0751 16.5901 13.6782 16.5901H8.60589L8.64767 5.99979H13.6921C14.089 6.01372 14.3954 6.33052 14.3954 6.7274ZM10.9105 1.43227C11.2796 1.4079 11.6277 1.59241 11.8122 1.91269C12.0629 2.40356 12.0315 2.99887 11.7391 3.46189L11.7356 3.46537C11.4885 3.89358 10.8409 4.61422 9.26039 4.61422H8.60938C8.61982 4.08853 8.7173 2.77259 9.41357 2.01017C9.77215 1.61678 10.2735 1.40093 10.7991 1.40442V1.43923L10.9105 1.43227ZM4.07666 3.441L4.07318 3.43752C3.77726 2.97102 3.74941 2.37919 4.00007 1.88832C4.18458 1.56804 4.52923 1.38701 4.89826 1.4079H4.90522H4.91218C5.45876 1.37308 5.98792 1.58196 6.36391 1.97188C6.84781 2.51148 7.12284 3.3679 7.19595 4.59333H6.55538C5.05144 4.59333 4.37606 3.96669 4.07666 3.441ZM1.40995 6.7274C1.40995 6.32704 1.73371 6.00328 2.13407 6.00328H7.19943L7.15765 16.5935H2.13059C1.93911 16.5935 1.75808 16.5204 1.62231 16.3881C1.48654 16.2524 1.40995 16.0748 1.40995 15.8833V6.7274Z" fill="#1F67D2"/>
</svg>
