<svg width="32" height="32" viewBox="0 0 32 32" fill="none" xmlns="http://www.w3.org/2000/svg">
<g clip-path="url(#clip0_701_23660)">
<path d="M16 0C7.17752 0 0 7.17759 0 16C0 24.8225 7.17759 32 16 32C24.8225 32 32 24.8224 32 16C31.9999 7.17759 24.8224 0 16 0ZM16 15.8658C13.3401 15.8658 11.1761 13.7019 11.1761 11.042C11.1761 8.38212 13.3401 6.21819 16 6.21819C18.6598 6.21819 20.8237 8.38212 20.8237 11.042C20.8238 13.7019 18.6598 15.8658 16 15.8658ZM12.1063 16.9474C13.2637 17.7131 14.6084 18.1175 16 18.1175C17.3915 18.1175 18.7362 17.7132 19.8936 16.9474C23.3714 18.4593 25.6711 21.8657 25.772 25.6572C23.1647 28.2959 19.6967 29.7483 16 29.7483C12.3033 29.7483 8.8352 28.2958 6.22785 25.6572C6.32881 21.8658 8.62853 18.4594 12.1063 16.9474ZM23.0755 11.042C23.0755 7.14047 19.9014 3.96646 16 3.96646C12.0985 3.96646 8.92447 7.14053 8.92447 11.042C8.92447 12.5896 9.41884 14.0569 10.3559 15.2961C8.82668 16.1119 7.46729 17.2734 6.41674 18.6633C5.40432 20.0027 4.67274 21.5618 4.29007 23.1904C2.95552 21.0254 2.25166 18.5464 2.25166 16C2.25166 8.41924 8.4191 2.25173 16 2.25173C23.5808 2.25173 29.7483 8.41924 29.7483 16C29.7483 18.5464 29.0445 21.0252 27.7099 23.1904C27.3273 21.5618 26.5956 20.0028 25.583 18.6633C24.5325 17.2735 23.1731 16.112 21.644 15.2961C22.5811 14.0569 23.0755 12.5896 23.0755 11.042Z" fill="#003F9C"/>
</g>
<defs>
<clipPath id="clip0_701_23660">
<rect width="32" height="32" fill="white"/>
</clipPath>
</defs>
</svg>
