<svg width="10" height="15" viewBox="0 0 10 15" fill="none" xmlns="http://www.w3.org/2000/svg">
<path d="M4.45855 14.232C4.60418 14.3776 4.79462 14.4561 5 14.4561C5.20538 14.4561 5.39582 14.3776 5.54145 14.232L9.77595 9.9975C10.0747 9.69877 10.0747 9.21334 9.77595 8.91461C9.47722 8.61588 8.99179 8.61588 8.69305 8.91461L5.7655 11.8422L5.7655 0.7658C5.7655 0.343843 5.42196 0.000302868 5 0.000302831C4.57804 0.000302794 4.2345 0.343843 4.2345 0.7658L4.2345 11.8422L1.30695 8.9146C1.00821 8.61587 0.522778 8.61587 0.224048 8.9146C0.0784173 9.06024 4.55069e-07 9.25068 4.37114e-07 9.45605C4.19159e-07 9.66143 0.0784172 9.85187 0.224048 9.9975L4.45855 14.232Z" fill="#1F67D2"/>
</svg>
