<svg width="10" height="15" viewBox="0 0 10 15" fill="none" xmlns="http://www.w3.org/2000/svg">
<path d="M5.54145 0.224048C5.39582 0.0784167 5.20538 0 5 0C4.79462 0 4.60418 0.0784167 4.45855 0.224048L0.224048 4.45855C-0.0746826 4.75728 -0.0746826 5.24272 0.224048 5.54145C0.522778 5.84018 1.00822 5.84018 1.30695 5.54145L4.2345 2.61389V13.6903C4.2345 14.1122 4.57804 14.4558 5 14.4558C5.42196 14.4558 5.7655 14.1122 5.7655 13.6903V2.61389L8.69306 5.54145C8.99179 5.84018 9.47722 5.84018 9.77595 5.54145C9.92158 5.39582 10 5.20538 10 5C10 4.79462 9.92158 4.60418 9.77595 4.45855L5.54145 0.224048Z" fill="#1F67D2"/>
</svg>
